%TF.GenerationSoftware,KiCad,Pcbnew,8.0.1*%
%TF.CreationDate,2024-04-17T21:00:08+02:00*%
%TF.ProjectId,STM32_Dev_Board,53544d33-325f-4446-9576-5f426f617264,rev?*%
%TF.SameCoordinates,Original*%
%TF.FileFunction,Legend,Bot*%
%TF.FilePolarity,Positive*%
%FSLAX46Y46*%
G04 Gerber Fmt 4.6, Leading zero omitted, Abs format (unit mm)*
G04 Created by KiCad (PCBNEW 8.0.1) date 2024-04-17 21:00:08*
%MOMM*%
%LPD*%
G01*
G04 APERTURE LIST*
%ADD10C,0.150000*%
%ADD11C,0.120000*%
%ADD12C,0.127000*%
%ADD13C,0.200000*%
G04 APERTURE END LIST*
D10*
X203844819Y-75247493D02*
X204559104Y-75247493D01*
X204559104Y-75247493D02*
X204701961Y-75199874D01*
X204701961Y-75199874D02*
X204797200Y-75104636D01*
X204797200Y-75104636D02*
X204844819Y-74961779D01*
X204844819Y-74961779D02*
X204844819Y-74866541D01*
X204844819Y-76199874D02*
X204844819Y-75723684D01*
X204844819Y-75723684D02*
X203844819Y-75723684D01*
X204749580Y-77104636D02*
X204797200Y-77057017D01*
X204797200Y-77057017D02*
X204844819Y-76914160D01*
X204844819Y-76914160D02*
X204844819Y-76818922D01*
X204844819Y-76818922D02*
X204797200Y-76676065D01*
X204797200Y-76676065D02*
X204701961Y-76580827D01*
X204701961Y-76580827D02*
X204606723Y-76533208D01*
X204606723Y-76533208D02*
X204416247Y-76485589D01*
X204416247Y-76485589D02*
X204273390Y-76485589D01*
X204273390Y-76485589D02*
X204082914Y-76533208D01*
X204082914Y-76533208D02*
X203987676Y-76580827D01*
X203987676Y-76580827D02*
X203892438Y-76676065D01*
X203892438Y-76676065D02*
X203844819Y-76818922D01*
X203844819Y-76818922D02*
X203844819Y-76914160D01*
X203844819Y-76914160D02*
X203892438Y-77057017D01*
X203892438Y-77057017D02*
X203940057Y-77104636D01*
X203844819Y-77818922D02*
X204559104Y-77818922D01*
X204559104Y-77818922D02*
X204701961Y-77771303D01*
X204701961Y-77771303D02*
X204797200Y-77676065D01*
X204797200Y-77676065D02*
X204844819Y-77533208D01*
X204844819Y-77533208D02*
X204844819Y-77437970D01*
X204844819Y-78771303D02*
X204844819Y-78295113D01*
X204844819Y-78295113D02*
X203844819Y-78295113D01*
X204749580Y-79676065D02*
X204797200Y-79628446D01*
X204797200Y-79628446D02*
X204844819Y-79485589D01*
X204844819Y-79485589D02*
X204844819Y-79390351D01*
X204844819Y-79390351D02*
X204797200Y-79247494D01*
X204797200Y-79247494D02*
X204701961Y-79152256D01*
X204701961Y-79152256D02*
X204606723Y-79104637D01*
X204606723Y-79104637D02*
X204416247Y-79057018D01*
X204416247Y-79057018D02*
X204273390Y-79057018D01*
X204273390Y-79057018D02*
X204082914Y-79104637D01*
X204082914Y-79104637D02*
X203987676Y-79152256D01*
X203987676Y-79152256D02*
X203892438Y-79247494D01*
X203892438Y-79247494D02*
X203844819Y-79390351D01*
X203844819Y-79390351D02*
X203844819Y-79485589D01*
X203844819Y-79485589D02*
X203892438Y-79628446D01*
X203892438Y-79628446D02*
X203940057Y-79676065D01*
X203844819Y-80390351D02*
X204559104Y-80390351D01*
X204559104Y-80390351D02*
X204701961Y-80342732D01*
X204701961Y-80342732D02*
X204797200Y-80247494D01*
X204797200Y-80247494D02*
X204844819Y-80104637D01*
X204844819Y-80104637D02*
X204844819Y-80009399D01*
X204844819Y-81342732D02*
X204844819Y-80866542D01*
X204844819Y-80866542D02*
X203844819Y-80866542D01*
X204749580Y-82247494D02*
X204797200Y-82199875D01*
X204797200Y-82199875D02*
X204844819Y-82057018D01*
X204844819Y-82057018D02*
X204844819Y-81961780D01*
X204844819Y-81961780D02*
X204797200Y-81818923D01*
X204797200Y-81818923D02*
X204701961Y-81723685D01*
X204701961Y-81723685D02*
X204606723Y-81676066D01*
X204606723Y-81676066D02*
X204416247Y-81628447D01*
X204416247Y-81628447D02*
X204273390Y-81628447D01*
X204273390Y-81628447D02*
X204082914Y-81676066D01*
X204082914Y-81676066D02*
X203987676Y-81723685D01*
X203987676Y-81723685D02*
X203892438Y-81818923D01*
X203892438Y-81818923D02*
X203844819Y-81961780D01*
X203844819Y-81961780D02*
X203844819Y-82057018D01*
X203844819Y-82057018D02*
X203892438Y-82199875D01*
X203892438Y-82199875D02*
X203940057Y-82247494D01*
X203844819Y-82961780D02*
X204559104Y-82961780D01*
X204559104Y-82961780D02*
X204701961Y-82914161D01*
X204701961Y-82914161D02*
X204797200Y-82818923D01*
X204797200Y-82818923D02*
X204844819Y-82676066D01*
X204844819Y-82676066D02*
X204844819Y-82580828D01*
X204844819Y-83914161D02*
X204844819Y-83437971D01*
X204844819Y-83437971D02*
X203844819Y-83437971D01*
X204749580Y-84818923D02*
X204797200Y-84771304D01*
X204797200Y-84771304D02*
X204844819Y-84628447D01*
X204844819Y-84628447D02*
X204844819Y-84533209D01*
X204844819Y-84533209D02*
X204797200Y-84390352D01*
X204797200Y-84390352D02*
X204701961Y-84295114D01*
X204701961Y-84295114D02*
X204606723Y-84247495D01*
X204606723Y-84247495D02*
X204416247Y-84199876D01*
X204416247Y-84199876D02*
X204273390Y-84199876D01*
X204273390Y-84199876D02*
X204082914Y-84247495D01*
X204082914Y-84247495D02*
X203987676Y-84295114D01*
X203987676Y-84295114D02*
X203892438Y-84390352D01*
X203892438Y-84390352D02*
X203844819Y-84533209D01*
X203844819Y-84533209D02*
X203844819Y-84628447D01*
X203844819Y-84628447D02*
X203892438Y-84771304D01*
X203892438Y-84771304D02*
X203940057Y-84818923D01*
G36*
X228040168Y-104026770D02*
G01*
X228113960Y-104099152D01*
X228154653Y-104257323D01*
X228155956Y-104572077D01*
X228115842Y-104737325D01*
X228045375Y-104809166D01*
X227975929Y-104844928D01*
X227820760Y-104846018D01*
X227752438Y-104812867D01*
X227678645Y-104740485D01*
X227637952Y-104582313D01*
X227636649Y-104267559D01*
X227676763Y-104102311D01*
X227747231Y-104030470D01*
X227816676Y-103994709D01*
X227971845Y-103993619D01*
X228040168Y-104026770D01*
G37*
G36*
X228415747Y-105201168D02*
G01*
X222853049Y-105201168D01*
X222853049Y-105029689D01*
X224775125Y-105029689D01*
X224786324Y-105056725D01*
X224807016Y-105077417D01*
X224834052Y-105088616D01*
X224848684Y-105090057D01*
X225625221Y-105088616D01*
X225652257Y-105077417D01*
X225672949Y-105056725D01*
X225684148Y-105029689D01*
X225684148Y-105000425D01*
X225672949Y-104973389D01*
X225652257Y-104952697D01*
X225625221Y-104941498D01*
X225610589Y-104940057D01*
X224834052Y-104941498D01*
X224807016Y-104952697D01*
X224786324Y-104973389D01*
X224775125Y-105000425D01*
X224775125Y-105029689D01*
X222853049Y-105029689D01*
X222853049Y-104634104D01*
X222964160Y-104634104D01*
X222965265Y-104718410D01*
X222964749Y-104719961D01*
X222965407Y-104729230D01*
X222965601Y-104743974D01*
X222966632Y-104746463D01*
X222966823Y-104749151D01*
X222972078Y-104762883D01*
X223020768Y-104857435D01*
X223024418Y-104866247D01*
X223026801Y-104869151D01*
X223027529Y-104870564D01*
X223029027Y-104871863D01*
X223033745Y-104877612D01*
X223082780Y-104924953D01*
X223088414Y-104931450D01*
X223091559Y-104933429D01*
X223092730Y-104934560D01*
X223094557Y-104935317D01*
X223100857Y-104939282D01*
X223186746Y-104980957D01*
X223187968Y-104982179D01*
X223196827Y-104985848D01*
X223209826Y-104992156D01*
X223212515Y-104992347D01*
X223215004Y-104993378D01*
X223229636Y-104994819D01*
X223466405Y-104993468D01*
X223477111Y-104994230D01*
X223480819Y-104993386D01*
X223482363Y-104993378D01*
X223484194Y-104992619D01*
X223491448Y-104990970D01*
X223647730Y-104937357D01*
X223669837Y-104918183D01*
X223682924Y-104892010D01*
X223684999Y-104862820D01*
X223675745Y-104835058D01*
X223656571Y-104812950D01*
X223630397Y-104799864D01*
X223601207Y-104797789D01*
X223586870Y-104801049D01*
X223459137Y-104844867D01*
X223249423Y-104846063D01*
X223180802Y-104812767D01*
X223149475Y-104782521D01*
X223113952Y-104713540D01*
X223113163Y-104653379D01*
X223146212Y-104585269D01*
X223176456Y-104553942D01*
X223250937Y-104515588D01*
X223432524Y-104468871D01*
X223439921Y-104468346D01*
X223450903Y-104464143D01*
X223452148Y-104463823D01*
X223452583Y-104463500D01*
X223453653Y-104463091D01*
X223548209Y-104414398D01*
X223557018Y-104410750D01*
X223559920Y-104408367D01*
X223561334Y-104407640D01*
X223562633Y-104406141D01*
X223568383Y-104401423D01*
X223615724Y-104352387D01*
X223622219Y-104346755D01*
X223624198Y-104343609D01*
X223625329Y-104342439D01*
X223626086Y-104340611D01*
X223630051Y-104334312D01*
X223671726Y-104248422D01*
X223672948Y-104247201D01*
X223676617Y-104238341D01*
X223682925Y-104225343D01*
X223683116Y-104222653D01*
X223684147Y-104220165D01*
X223685588Y-104205533D01*
X223684482Y-104121225D01*
X223684999Y-104119675D01*
X223684340Y-104110404D01*
X223684147Y-104095663D01*
X223683116Y-104093174D01*
X223682925Y-104090485D01*
X223677670Y-104076754D01*
X223628978Y-103982199D01*
X223625329Y-103973389D01*
X223622946Y-103970486D01*
X223622219Y-103969073D01*
X223620720Y-103967773D01*
X223616002Y-103962024D01*
X223572287Y-103919819D01*
X223964160Y-103919819D01*
X223965601Y-104934451D01*
X223976800Y-104961487D01*
X223997492Y-104982179D01*
X224024528Y-104993378D01*
X224053792Y-104993378D01*
X224080828Y-104982179D01*
X224101520Y-104961487D01*
X224112719Y-104934451D01*
X224114160Y-104919819D01*
X224113522Y-104470826D01*
X224536369Y-104469786D01*
X224537029Y-104934451D01*
X224548228Y-104961487D01*
X224568920Y-104982179D01*
X224595956Y-104993378D01*
X224625220Y-104993378D01*
X224652256Y-104982179D01*
X224672948Y-104961487D01*
X224684147Y-104934451D01*
X224685588Y-104919819D01*
X224684979Y-104491247D01*
X225726065Y-104491247D01*
X225727506Y-104839212D01*
X225730966Y-104847565D01*
X225738704Y-104866247D01*
X225748031Y-104877612D01*
X225788856Y-104917027D01*
X225789434Y-104918183D01*
X225795525Y-104923466D01*
X225807016Y-104934560D01*
X225809504Y-104935590D01*
X225811541Y-104937357D01*
X225824967Y-104943351D01*
X225967548Y-104989500D01*
X225976909Y-104993378D01*
X225980672Y-104993748D01*
X225982160Y-104994230D01*
X225984134Y-104994089D01*
X225991541Y-104994819D01*
X226086858Y-104993568D01*
X226096159Y-104994230D01*
X226099813Y-104993398D01*
X226101411Y-104993378D01*
X226103242Y-104992619D01*
X226110496Y-104990970D01*
X226242286Y-104945759D01*
X226244268Y-104945759D01*
X226253820Y-104941802D01*
X226266778Y-104937357D01*
X226268813Y-104935591D01*
X226271304Y-104934560D01*
X226282669Y-104925233D01*
X226376601Y-104829468D01*
X226384124Y-104822945D01*
X226386136Y-104819748D01*
X226387235Y-104818628D01*
X226387992Y-104816798D01*
X226391956Y-104810502D01*
X226436224Y-104719269D01*
X226440307Y-104713759D01*
X226444242Y-104702743D01*
X226444830Y-104701533D01*
X226444868Y-104700992D01*
X226445254Y-104699913D01*
X226490494Y-104513547D01*
X226493671Y-104505879D01*
X226494568Y-104496764D01*
X226495023Y-104494893D01*
X226494860Y-104493800D01*
X226495112Y-104491247D01*
X226493844Y-104352667D01*
X226495023Y-104344744D01*
X226493688Y-104335719D01*
X226493671Y-104333758D01*
X226493248Y-104332736D01*
X226492873Y-104330200D01*
X226445355Y-104145501D01*
X226444830Y-104138104D01*
X226440626Y-104127121D01*
X226440307Y-104125878D01*
X226439984Y-104125442D01*
X226439575Y-104124373D01*
X226390886Y-104029823D01*
X226387235Y-104021008D01*
X226384850Y-104018102D01*
X226384124Y-104016692D01*
X226382627Y-104015393D01*
X226377907Y-104009643D01*
X226301249Y-103934451D01*
X226632268Y-103934451D01*
X226643467Y-103961487D01*
X226664159Y-103982179D01*
X226691195Y-103993378D01*
X226705827Y-103994819D01*
X226916646Y-103994300D01*
X226917982Y-104934451D01*
X226929181Y-104961487D01*
X226949873Y-104982179D01*
X226976909Y-104993378D01*
X227006173Y-104993378D01*
X227033209Y-104982179D01*
X227053901Y-104961487D01*
X227065100Y-104934451D01*
X227066541Y-104919819D01*
X227065594Y-104253152D01*
X227487970Y-104253152D01*
X227489330Y-104581588D01*
X227488059Y-104590131D01*
X227489403Y-104599223D01*
X227489411Y-104601117D01*
X227489833Y-104602138D01*
X227490209Y-104604675D01*
X227537030Y-104786666D01*
X227537030Y-104791592D01*
X227540374Y-104799667D01*
X227542775Y-104808997D01*
X227546094Y-104813476D01*
X227548228Y-104818628D01*
X227557556Y-104829994D01*
X227653323Y-104923932D01*
X227659843Y-104931450D01*
X227663036Y-104933460D01*
X227664159Y-104934561D01*
X227665991Y-104935319D01*
X227672286Y-104939282D01*
X227758175Y-104980957D01*
X227759397Y-104982179D01*
X227768256Y-104985848D01*
X227781255Y-104992156D01*
X227783944Y-104992347D01*
X227786433Y-104993378D01*
X227801065Y-104994819D01*
X227980152Y-104993560D01*
X227982160Y-104994230D01*
X227992832Y-104993471D01*
X228006173Y-104993378D01*
X228008662Y-104992346D01*
X228011350Y-104992156D01*
X228025082Y-104986901D01*
X228119636Y-104938209D01*
X228128447Y-104934560D01*
X228131349Y-104932177D01*
X228132763Y-104931450D01*
X228134062Y-104929951D01*
X228139812Y-104925233D01*
X228228407Y-104834909D01*
X228232409Y-104832509D01*
X228237494Y-104825645D01*
X228244378Y-104818628D01*
X228246511Y-104813476D01*
X228249831Y-104808997D01*
X228254778Y-104795151D01*
X228300018Y-104608785D01*
X228303195Y-104601117D01*
X228304092Y-104592002D01*
X228304547Y-104590131D01*
X228304384Y-104589038D01*
X228304636Y-104586485D01*
X228303275Y-104258048D01*
X228304547Y-104249506D01*
X228303202Y-104240413D01*
X228303195Y-104238520D01*
X228302772Y-104237498D01*
X228302397Y-104234962D01*
X228255576Y-104052970D01*
X228255576Y-104048045D01*
X228252230Y-104039968D01*
X228249831Y-104030640D01*
X228246512Y-104026161D01*
X228244378Y-104021008D01*
X228235050Y-104009643D01*
X228139287Y-103915711D01*
X228132763Y-103908188D01*
X228129566Y-103906175D01*
X228128447Y-103905078D01*
X228126619Y-103904320D01*
X228120320Y-103900356D01*
X228034431Y-103858681D01*
X228033209Y-103857459D01*
X228024343Y-103853786D01*
X228011350Y-103847482D01*
X228008662Y-103847291D01*
X228006173Y-103846260D01*
X227991541Y-103844819D01*
X227812452Y-103846077D01*
X227810445Y-103845408D01*
X227799772Y-103846166D01*
X227786433Y-103846260D01*
X227783944Y-103847290D01*
X227781255Y-103847482D01*
X227767524Y-103852737D01*
X227672974Y-103901425D01*
X227664159Y-103905077D01*
X227661253Y-103907461D01*
X227659843Y-103908188D01*
X227658544Y-103909684D01*
X227652794Y-103914405D01*
X227564198Y-104004726D01*
X227560197Y-104007128D01*
X227555110Y-104013991D01*
X227548229Y-104021008D01*
X227546095Y-104026158D01*
X227542775Y-104030640D01*
X227537828Y-104044486D01*
X227492587Y-104230851D01*
X227489411Y-104238520D01*
X227488513Y-104247634D01*
X227488059Y-104249506D01*
X227488221Y-104250598D01*
X227487970Y-104253152D01*
X227065594Y-104253152D01*
X227065226Y-103993935D01*
X227291887Y-103993378D01*
X227318923Y-103982179D01*
X227339615Y-103961487D01*
X227350814Y-103934451D01*
X227350814Y-103905187D01*
X227339615Y-103878151D01*
X227318923Y-103857459D01*
X227291887Y-103846260D01*
X227277255Y-103844819D01*
X226691195Y-103846260D01*
X226664159Y-103857459D01*
X226643467Y-103878151D01*
X226632268Y-103905187D01*
X226632268Y-103934451D01*
X226301249Y-103934451D01*
X226289736Y-103923158D01*
X226288885Y-103921455D01*
X226281242Y-103914826D01*
X226271304Y-103905078D01*
X226268813Y-103904046D01*
X226266778Y-103902281D01*
X226253353Y-103896287D01*
X226110774Y-103850138D01*
X226101411Y-103846260D01*
X226097645Y-103845889D01*
X226096159Y-103845408D01*
X226094184Y-103845548D01*
X226086779Y-103844819D01*
X225955148Y-103846023D01*
X225953302Y-103845408D01*
X225943087Y-103846133D01*
X225929290Y-103846260D01*
X225926801Y-103847290D01*
X225924112Y-103847482D01*
X225910381Y-103852737D01*
X225802700Y-103908188D01*
X225783527Y-103930296D01*
X225774273Y-103958057D01*
X225776347Y-103987247D01*
X225789434Y-104013422D01*
X225811542Y-104032595D01*
X225839303Y-104041849D01*
X225868493Y-104039775D01*
X225882225Y-104034520D01*
X225959599Y-103994675D01*
X226071351Y-103993653D01*
X226187632Y-104031290D01*
X226261841Y-104104080D01*
X226300532Y-104179215D01*
X226345150Y-104352645D01*
X226346292Y-104477417D01*
X226304266Y-104650540D01*
X226265541Y-104730350D01*
X226191264Y-104806076D01*
X226077992Y-104844934D01*
X226006614Y-104845870D01*
X225890422Y-104808262D01*
X225875939Y-104794279D01*
X225874993Y-104565727D01*
X226006173Y-104564806D01*
X226033209Y-104553607D01*
X226053901Y-104532915D01*
X226065100Y-104505879D01*
X226065100Y-104476615D01*
X226053901Y-104449579D01*
X226033209Y-104428887D01*
X226006173Y-104417688D01*
X225991541Y-104416247D01*
X225786433Y-104417688D01*
X225759397Y-104428887D01*
X225738705Y-104449579D01*
X225727506Y-104476615D01*
X225726065Y-104491247D01*
X224684979Y-104491247D01*
X224684147Y-103905187D01*
X224672948Y-103878151D01*
X224652256Y-103857459D01*
X224625220Y-103846260D01*
X224595956Y-103846260D01*
X224568920Y-103857459D01*
X224548228Y-103878151D01*
X224537029Y-103905187D01*
X224535588Y-103919819D01*
X224536158Y-104321192D01*
X224113311Y-104322231D01*
X224112719Y-103905187D01*
X224101520Y-103878151D01*
X224080828Y-103857459D01*
X224053792Y-103846260D01*
X224024528Y-103846260D01*
X223997492Y-103857459D01*
X223976800Y-103878151D01*
X223965601Y-103905187D01*
X223964160Y-103919819D01*
X223572287Y-103919819D01*
X223566966Y-103914682D01*
X223561334Y-103908188D01*
X223558188Y-103906208D01*
X223557018Y-103905078D01*
X223555190Y-103904320D01*
X223548891Y-103900356D01*
X223463002Y-103858681D01*
X223461780Y-103857459D01*
X223452914Y-103853786D01*
X223439921Y-103847482D01*
X223437233Y-103847291D01*
X223434744Y-103846260D01*
X223420112Y-103844819D01*
X223183341Y-103846169D01*
X223172636Y-103845408D01*
X223168927Y-103846251D01*
X223167385Y-103846260D01*
X223165554Y-103847018D01*
X223158299Y-103848668D01*
X223002017Y-103902281D01*
X222979910Y-103921455D01*
X222966824Y-103947628D01*
X222964749Y-103976818D01*
X222974003Y-104004581D01*
X222993177Y-104026688D01*
X223019350Y-104039774D01*
X223048540Y-104041849D01*
X223062877Y-104038589D01*
X223190609Y-103994770D01*
X223400324Y-103993574D01*
X223468946Y-104026871D01*
X223500273Y-104057115D01*
X223535795Y-104126096D01*
X223536584Y-104186257D01*
X223503536Y-104254366D01*
X223473291Y-104285694D01*
X223398810Y-104324048D01*
X223217223Y-104370765D01*
X223209826Y-104371291D01*
X223198843Y-104375494D01*
X223197600Y-104375814D01*
X223197164Y-104376136D01*
X223196095Y-104376546D01*
X223101540Y-104425237D01*
X223092730Y-104428887D01*
X223089827Y-104431269D01*
X223088414Y-104431997D01*
X223087114Y-104433495D01*
X223081365Y-104438214D01*
X223034023Y-104487249D01*
X223027529Y-104492882D01*
X223025549Y-104496027D01*
X223024419Y-104497198D01*
X223023661Y-104499025D01*
X223019697Y-104505325D01*
X222978022Y-104591213D01*
X222976800Y-104592436D01*
X222973127Y-104601301D01*
X222966823Y-104614295D01*
X222966632Y-104616982D01*
X222965601Y-104619472D01*
X222964160Y-104634104D01*
X222853049Y-104634104D01*
X222853049Y-103733708D01*
X228415747Y-103733708D01*
X228415747Y-105201168D01*
G37*
G36*
X188849692Y-104076770D02*
G01*
X188923484Y-104149152D01*
X188964177Y-104307323D01*
X188965480Y-104622077D01*
X188925366Y-104787325D01*
X188854899Y-104859166D01*
X188785453Y-104894928D01*
X188630284Y-104896018D01*
X188561962Y-104862867D01*
X188488169Y-104790485D01*
X188447476Y-104632313D01*
X188446173Y-104317559D01*
X188486287Y-104152311D01*
X188556755Y-104080470D01*
X188626200Y-104044709D01*
X188781369Y-104043619D01*
X188849692Y-104076770D01*
G37*
G36*
X189225271Y-105251168D02*
G01*
X183853049Y-105251168D01*
X183853049Y-105079689D01*
X185584649Y-105079689D01*
X185595848Y-105106725D01*
X185616540Y-105127417D01*
X185643576Y-105138616D01*
X185658208Y-105140057D01*
X186434745Y-105138616D01*
X186461781Y-105127417D01*
X186482473Y-105106725D01*
X186493672Y-105079689D01*
X186493672Y-105050425D01*
X186482473Y-105023389D01*
X186461781Y-105002697D01*
X186434745Y-104991498D01*
X186420113Y-104990057D01*
X185643576Y-104991498D01*
X185616540Y-105002697D01*
X185595848Y-105023389D01*
X185584649Y-105050425D01*
X185584649Y-105079689D01*
X183853049Y-105079689D01*
X183853049Y-104684104D01*
X183964160Y-104684104D01*
X183965265Y-104768410D01*
X183964749Y-104769961D01*
X183965407Y-104779230D01*
X183965601Y-104793974D01*
X183966632Y-104796463D01*
X183966823Y-104799151D01*
X183972078Y-104812883D01*
X184020768Y-104907435D01*
X184024418Y-104916247D01*
X184026801Y-104919151D01*
X184027529Y-104920564D01*
X184029027Y-104921863D01*
X184033745Y-104927612D01*
X184082780Y-104974953D01*
X184088414Y-104981450D01*
X184091559Y-104983429D01*
X184092730Y-104984560D01*
X184094557Y-104985317D01*
X184100857Y-104989282D01*
X184186746Y-105030957D01*
X184187968Y-105032179D01*
X184196827Y-105035848D01*
X184209826Y-105042156D01*
X184212515Y-105042347D01*
X184215004Y-105043378D01*
X184229636Y-105044819D01*
X184466405Y-105043468D01*
X184477111Y-105044230D01*
X184480819Y-105043386D01*
X184482363Y-105043378D01*
X184484194Y-105042619D01*
X184491448Y-105040970D01*
X184647730Y-104987357D01*
X184669837Y-104968183D01*
X184682924Y-104942010D01*
X184684999Y-104912820D01*
X184675745Y-104885058D01*
X184656571Y-104862950D01*
X184630397Y-104849864D01*
X184601207Y-104847789D01*
X184586870Y-104851049D01*
X184459137Y-104894867D01*
X184249423Y-104896063D01*
X184180802Y-104862767D01*
X184149475Y-104832521D01*
X184113952Y-104763540D01*
X184113163Y-104703379D01*
X184146212Y-104635269D01*
X184176456Y-104603942D01*
X184250937Y-104565588D01*
X184432524Y-104518871D01*
X184439921Y-104518346D01*
X184450903Y-104514143D01*
X184452148Y-104513823D01*
X184452583Y-104513500D01*
X184453653Y-104513091D01*
X184548209Y-104464398D01*
X184557018Y-104460750D01*
X184559920Y-104458367D01*
X184561334Y-104457640D01*
X184562633Y-104456141D01*
X184568383Y-104451423D01*
X184615724Y-104402387D01*
X184622219Y-104396755D01*
X184624198Y-104393609D01*
X184625329Y-104392439D01*
X184626086Y-104390611D01*
X184630051Y-104384312D01*
X184671726Y-104298422D01*
X184672948Y-104297201D01*
X184676617Y-104288341D01*
X184682925Y-104275343D01*
X184683116Y-104272653D01*
X184684147Y-104270165D01*
X184685588Y-104255533D01*
X184684482Y-104171225D01*
X184684999Y-104169675D01*
X184684340Y-104160404D01*
X184684147Y-104145663D01*
X184683116Y-104143174D01*
X184682925Y-104140485D01*
X184677670Y-104126754D01*
X184628978Y-104032199D01*
X184625329Y-104023389D01*
X184622946Y-104020486D01*
X184622219Y-104019073D01*
X184620720Y-104017773D01*
X184616002Y-104012024D01*
X184587442Y-103984451D01*
X184870363Y-103984451D01*
X184881562Y-104011487D01*
X184902254Y-104032179D01*
X184929290Y-104043378D01*
X184943922Y-104044819D01*
X185345216Y-104043640D01*
X185345682Y-104371317D01*
X185072147Y-104372450D01*
X185045111Y-104383649D01*
X185024419Y-104404341D01*
X185013220Y-104431377D01*
X185013220Y-104460641D01*
X185024419Y-104487677D01*
X185045111Y-104508369D01*
X185072147Y-104519568D01*
X185086779Y-104521009D01*
X185345893Y-104519935D01*
X185346553Y-104984451D01*
X185357752Y-105011487D01*
X185378444Y-105032179D01*
X185405480Y-105043378D01*
X185434744Y-105043378D01*
X185461780Y-105032179D01*
X185482472Y-105011487D01*
X185493671Y-104984451D01*
X185495112Y-104969819D01*
X185494503Y-104541247D01*
X186535589Y-104541247D01*
X186537030Y-104889212D01*
X186540490Y-104897565D01*
X186548228Y-104916247D01*
X186557555Y-104927612D01*
X186598380Y-104967027D01*
X186598958Y-104968183D01*
X186605049Y-104973466D01*
X186616540Y-104984560D01*
X186619028Y-104985590D01*
X186621065Y-104987357D01*
X186634491Y-104993351D01*
X186777072Y-105039500D01*
X186786433Y-105043378D01*
X186790196Y-105043748D01*
X186791684Y-105044230D01*
X186793658Y-105044089D01*
X186801065Y-105044819D01*
X186896382Y-105043568D01*
X186905683Y-105044230D01*
X186909337Y-105043398D01*
X186910935Y-105043378D01*
X186912766Y-105042619D01*
X186920020Y-105040970D01*
X187051810Y-104995759D01*
X187053792Y-104995759D01*
X187063344Y-104991802D01*
X187076302Y-104987357D01*
X187078337Y-104985591D01*
X187080828Y-104984560D01*
X187092193Y-104975233D01*
X187186125Y-104879468D01*
X187193648Y-104872945D01*
X187195660Y-104869748D01*
X187196759Y-104868628D01*
X187197516Y-104866798D01*
X187201480Y-104860502D01*
X187245748Y-104769269D01*
X187249831Y-104763759D01*
X187253766Y-104752743D01*
X187254354Y-104751533D01*
X187254392Y-104750992D01*
X187254778Y-104749913D01*
X187300018Y-104563547D01*
X187303195Y-104555879D01*
X187304092Y-104546764D01*
X187304547Y-104544893D01*
X187304384Y-104543800D01*
X187304636Y-104541247D01*
X187303368Y-104402667D01*
X187304547Y-104394744D01*
X187303212Y-104385719D01*
X187303195Y-104383758D01*
X187302772Y-104382736D01*
X187302397Y-104380200D01*
X187254879Y-104195501D01*
X187254354Y-104188104D01*
X187250150Y-104177121D01*
X187249831Y-104175878D01*
X187249508Y-104175442D01*
X187249099Y-104174373D01*
X187200410Y-104079823D01*
X187196759Y-104071008D01*
X187194374Y-104068102D01*
X187193648Y-104066692D01*
X187192151Y-104065393D01*
X187187431Y-104059643D01*
X187110773Y-103984451D01*
X187441792Y-103984451D01*
X187452991Y-104011487D01*
X187473683Y-104032179D01*
X187500719Y-104043378D01*
X187515351Y-104044819D01*
X187726170Y-104044300D01*
X187727506Y-104984451D01*
X187738705Y-105011487D01*
X187759397Y-105032179D01*
X187786433Y-105043378D01*
X187815697Y-105043378D01*
X187842733Y-105032179D01*
X187863425Y-105011487D01*
X187874624Y-104984451D01*
X187876065Y-104969819D01*
X187875118Y-104303152D01*
X188297494Y-104303152D01*
X188298854Y-104631588D01*
X188297583Y-104640131D01*
X188298927Y-104649223D01*
X188298935Y-104651117D01*
X188299357Y-104652138D01*
X188299733Y-104654675D01*
X188346554Y-104836666D01*
X188346554Y-104841592D01*
X188349898Y-104849667D01*
X188352299Y-104858997D01*
X188355618Y-104863476D01*
X188357752Y-104868628D01*
X188367080Y-104879994D01*
X188462847Y-104973932D01*
X188469367Y-104981450D01*
X188472560Y-104983460D01*
X188473683Y-104984561D01*
X188475515Y-104985319D01*
X188481810Y-104989282D01*
X188567699Y-105030957D01*
X188568921Y-105032179D01*
X188577780Y-105035848D01*
X188590779Y-105042156D01*
X188593468Y-105042347D01*
X188595957Y-105043378D01*
X188610589Y-105044819D01*
X188789676Y-105043560D01*
X188791684Y-105044230D01*
X188802356Y-105043471D01*
X188815697Y-105043378D01*
X188818186Y-105042346D01*
X188820874Y-105042156D01*
X188834606Y-105036901D01*
X188929160Y-104988209D01*
X188937971Y-104984560D01*
X188940873Y-104982177D01*
X188942287Y-104981450D01*
X188943586Y-104979951D01*
X188949336Y-104975233D01*
X189037931Y-104884909D01*
X189041933Y-104882509D01*
X189047018Y-104875645D01*
X189053902Y-104868628D01*
X189056035Y-104863476D01*
X189059355Y-104858997D01*
X189064302Y-104845151D01*
X189109542Y-104658785D01*
X189112719Y-104651117D01*
X189113616Y-104642002D01*
X189114071Y-104640131D01*
X189113908Y-104639038D01*
X189114160Y-104636485D01*
X189112799Y-104308048D01*
X189114071Y-104299506D01*
X189112726Y-104290413D01*
X189112719Y-104288520D01*
X189112296Y-104287498D01*
X189111921Y-104284962D01*
X189065100Y-104102970D01*
X189065100Y-104098045D01*
X189061754Y-104089968D01*
X189059355Y-104080640D01*
X189056036Y-104076161D01*
X189053902Y-104071008D01*
X189044574Y-104059643D01*
X188948811Y-103965711D01*
X188942287Y-103958188D01*
X188939090Y-103956175D01*
X188937971Y-103955078D01*
X188936143Y-103954320D01*
X188929844Y-103950356D01*
X188843955Y-103908681D01*
X188842733Y-103907459D01*
X188833867Y-103903786D01*
X188820874Y-103897482D01*
X188818186Y-103897291D01*
X188815697Y-103896260D01*
X188801065Y-103894819D01*
X188621976Y-103896077D01*
X188619969Y-103895408D01*
X188609296Y-103896166D01*
X188595957Y-103896260D01*
X188593468Y-103897290D01*
X188590779Y-103897482D01*
X188577048Y-103902737D01*
X188482498Y-103951425D01*
X188473683Y-103955077D01*
X188470777Y-103957461D01*
X188469367Y-103958188D01*
X188468068Y-103959684D01*
X188462318Y-103964405D01*
X188373722Y-104054726D01*
X188369721Y-104057128D01*
X188364634Y-104063991D01*
X188357753Y-104071008D01*
X188355619Y-104076158D01*
X188352299Y-104080640D01*
X188347352Y-104094486D01*
X188302111Y-104280851D01*
X188298935Y-104288520D01*
X188298037Y-104297634D01*
X188297583Y-104299506D01*
X188297745Y-104300598D01*
X188297494Y-104303152D01*
X187875118Y-104303152D01*
X187874750Y-104043935D01*
X188101411Y-104043378D01*
X188128447Y-104032179D01*
X188149139Y-104011487D01*
X188160338Y-103984451D01*
X188160338Y-103955187D01*
X188149139Y-103928151D01*
X188128447Y-103907459D01*
X188101411Y-103896260D01*
X188086779Y-103894819D01*
X187500719Y-103896260D01*
X187473683Y-103907459D01*
X187452991Y-103928151D01*
X187441792Y-103955187D01*
X187441792Y-103984451D01*
X187110773Y-103984451D01*
X187099260Y-103973158D01*
X187098409Y-103971455D01*
X187090766Y-103964826D01*
X187080828Y-103955078D01*
X187078337Y-103954046D01*
X187076302Y-103952281D01*
X187062877Y-103946287D01*
X186920298Y-103900138D01*
X186910935Y-103896260D01*
X186907169Y-103895889D01*
X186905683Y-103895408D01*
X186903708Y-103895548D01*
X186896303Y-103894819D01*
X186764672Y-103896023D01*
X186762826Y-103895408D01*
X186752611Y-103896133D01*
X186738814Y-103896260D01*
X186736325Y-103897290D01*
X186733636Y-103897482D01*
X186719905Y-103902737D01*
X186612224Y-103958188D01*
X186593051Y-103980296D01*
X186583797Y-104008057D01*
X186585871Y-104037247D01*
X186598958Y-104063422D01*
X186621066Y-104082595D01*
X186648827Y-104091849D01*
X186678017Y-104089775D01*
X186691749Y-104084520D01*
X186769123Y-104044675D01*
X186880875Y-104043653D01*
X186997156Y-104081290D01*
X187071365Y-104154080D01*
X187110056Y-104229215D01*
X187154674Y-104402645D01*
X187155816Y-104527417D01*
X187113790Y-104700540D01*
X187075065Y-104780350D01*
X187000788Y-104856076D01*
X186887516Y-104894934D01*
X186816138Y-104895870D01*
X186699946Y-104858262D01*
X186685463Y-104844279D01*
X186684517Y-104615727D01*
X186815697Y-104614806D01*
X186842733Y-104603607D01*
X186863425Y-104582915D01*
X186874624Y-104555879D01*
X186874624Y-104526615D01*
X186863425Y-104499579D01*
X186842733Y-104478887D01*
X186815697Y-104467688D01*
X186801065Y-104466247D01*
X186595957Y-104467688D01*
X186568921Y-104478887D01*
X186548229Y-104499579D01*
X186537030Y-104526615D01*
X186535589Y-104541247D01*
X185494503Y-104541247D01*
X185493671Y-103955187D01*
X185482472Y-103928151D01*
X185461780Y-103907459D01*
X185434744Y-103896260D01*
X185420112Y-103894819D01*
X184929290Y-103896260D01*
X184902254Y-103907459D01*
X184881562Y-103928151D01*
X184870363Y-103955187D01*
X184870363Y-103984451D01*
X184587442Y-103984451D01*
X184566966Y-103964682D01*
X184561334Y-103958188D01*
X184558188Y-103956208D01*
X184557018Y-103955078D01*
X184555190Y-103954320D01*
X184548891Y-103950356D01*
X184463002Y-103908681D01*
X184461780Y-103907459D01*
X184452914Y-103903786D01*
X184439921Y-103897482D01*
X184437233Y-103897291D01*
X184434744Y-103896260D01*
X184420112Y-103894819D01*
X184183341Y-103896169D01*
X184172636Y-103895408D01*
X184168927Y-103896251D01*
X184167385Y-103896260D01*
X184165554Y-103897018D01*
X184158299Y-103898668D01*
X184002017Y-103952281D01*
X183979910Y-103971455D01*
X183966824Y-103997628D01*
X183964749Y-104026818D01*
X183974003Y-104054581D01*
X183993177Y-104076688D01*
X184019350Y-104089774D01*
X184048540Y-104091849D01*
X184062877Y-104088589D01*
X184190609Y-104044770D01*
X184400324Y-104043574D01*
X184468946Y-104076871D01*
X184500273Y-104107115D01*
X184535795Y-104176096D01*
X184536584Y-104236257D01*
X184503536Y-104304366D01*
X184473291Y-104335694D01*
X184398810Y-104374048D01*
X184217223Y-104420765D01*
X184209826Y-104421291D01*
X184198843Y-104425494D01*
X184197600Y-104425814D01*
X184197164Y-104426136D01*
X184196095Y-104426546D01*
X184101540Y-104475237D01*
X184092730Y-104478887D01*
X184089827Y-104481269D01*
X184088414Y-104481997D01*
X184087114Y-104483495D01*
X184081365Y-104488214D01*
X184034023Y-104537249D01*
X184027529Y-104542882D01*
X184025549Y-104546027D01*
X184024419Y-104547198D01*
X184023661Y-104549025D01*
X184019697Y-104555325D01*
X183978022Y-104641213D01*
X183976800Y-104642436D01*
X183973127Y-104651301D01*
X183966823Y-104664295D01*
X183966632Y-104666982D01*
X183965601Y-104669472D01*
X183964160Y-104684104D01*
X183853049Y-104684104D01*
X183853049Y-103783708D01*
X189225271Y-103783708D01*
X189225271Y-105251168D01*
G37*
D11*
%TO.C,U4*%
X197915000Y-63940000D02*
X197915000Y-64890000D01*
X197915000Y-92160000D02*
X197915000Y-91210000D01*
X198865000Y-63940000D02*
X197915000Y-63940000D01*
X198865000Y-92160000D02*
X197915000Y-92160000D01*
X225185000Y-63940000D02*
X226135000Y-63940000D01*
X225185000Y-92160000D02*
X226135000Y-92160000D01*
X226135000Y-63940000D02*
X226135000Y-64890000D01*
X226135000Y-92160000D02*
X226135000Y-91210000D01*
X198865000Y-63337500D02*
X198395000Y-63677500D01*
X198395000Y-62997500D01*
X198865000Y-63337500D01*
G36*
X198865000Y-63337500D02*
G01*
X198395000Y-63677500D01*
X198395000Y-62997500D01*
X198865000Y-63337500D01*
G37*
D12*
%TO.C,U12*%
X181150000Y-84025000D02*
X181150000Y-81150000D01*
X181150000Y-92650000D02*
X181150000Y-89775000D01*
X184025000Y-81150000D02*
X181150000Y-81150000D01*
X184025000Y-92650000D02*
X181150000Y-92650000D01*
X194150000Y-81150000D02*
X191275000Y-81150000D01*
X194150000Y-84025000D02*
X194150000Y-81150000D01*
X194150000Y-92650000D02*
X191275000Y-92650000D01*
X194150000Y-92650000D02*
X194150000Y-89775000D01*
D13*
X191050000Y-93200000D02*
G75*
G02*
X190850000Y-93200000I-100000J0D01*
G01*
X190850000Y-93200000D02*
G75*
G02*
X191050000Y-93200000I100000J0D01*
G01*
%TD*%
M02*
