%TF.GenerationSoftware,KiCad,Pcbnew,8.0.1*%
%TF.CreationDate,2024-04-17T21:00:07+02:00*%
%TF.ProjectId,STM32_Dev_Board,53544d33-325f-4446-9576-5f426f617264,rev?*%
%TF.SameCoordinates,Original*%
%TF.FileFunction,Copper,L6,Bot*%
%TF.FilePolarity,Positive*%
%FSLAX46Y46*%
G04 Gerber Fmt 4.6, Leading zero omitted, Abs format (unit mm)*
G04 Created by KiCad (PCBNEW 8.0.1) date 2024-04-17 21:00:07*
%MOMM*%
%LPD*%
G01*
G04 APERTURE LIST*
G04 Aperture macros list*
%AMRoundRect*
0 Rectangle with rounded corners*
0 $1 Rounding radius*
0 $2 $3 $4 $5 $6 $7 $8 $9 X,Y pos of 4 corners*
0 Add a 4 corners polygon primitive as box body*
4,1,4,$2,$3,$4,$5,$6,$7,$8,$9,$2,$3,0*
0 Add four circle primitives for the rounded corners*
1,1,$1+$1,$2,$3*
1,1,$1+$1,$4,$5*
1,1,$1+$1,$6,$7*
1,1,$1+$1,$8,$9*
0 Add four rect primitives between the rounded corners*
20,1,$1+$1,$2,$3,$4,$5,0*
20,1,$1+$1,$4,$5,$6,$7,0*
20,1,$1+$1,$6,$7,$8,$9,0*
20,1,$1+$1,$8,$9,$2,$3,0*%
G04 Aperture macros list end*
%TA.AperFunction,ComponentPad*%
%ADD10RoundRect,0.250000X-0.600000X-0.750000X0.600000X-0.750000X0.600000X0.750000X-0.600000X0.750000X0*%
%TD*%
%TA.AperFunction,ComponentPad*%
%ADD11O,1.700000X2.000000*%
%TD*%
%TA.AperFunction,ComponentPad*%
%ADD12O,1.000000X2.100000*%
%TD*%
%TA.AperFunction,SMDPad,CuDef*%
%ADD13RoundRect,0.075000X-0.075000X0.675000X-0.075000X-0.675000X0.075000X-0.675000X0.075000X0.675000X0*%
%TD*%
%TA.AperFunction,SMDPad,CuDef*%
%ADD14RoundRect,0.075000X-0.675000X0.075000X-0.675000X-0.075000X0.675000X-0.075000X0.675000X0.075000X0*%
%TD*%
%TA.AperFunction,SMDPad,CuDef*%
%ADD15C,0.350000*%
%TD*%
%TA.AperFunction,ViaPad*%
%ADD16C,0.400000*%
%TD*%
%TA.AperFunction,ViaPad*%
%ADD17C,0.450000*%
%TD*%
%TA.AperFunction,ViaPad*%
%ADD18C,0.500000*%
%TD*%
%TA.AperFunction,Conductor*%
%ADD19C,0.200000*%
%TD*%
%TA.AperFunction,Conductor*%
%ADD20C,0.300000*%
%TD*%
%TA.AperFunction,Conductor*%
%ADD21C,0.160000*%
%TD*%
%TA.AperFunction,Conductor*%
%ADD22C,0.250000*%
%TD*%
%TA.AperFunction,Conductor*%
%ADD23C,0.090000*%
%TD*%
G04 APERTURE END LIST*
D10*
%TO.P,J1,1,Pin_1*%
%TO.N,9V_DC_Jack*%
X183400000Y-57200000D03*
D11*
%TO.P,J1,2,Pin_2*%
%TO.N,GND*%
X185900000Y-57200000D03*
%TD*%
D12*
%TO.P,J3,S1,SHIELD*%
%TO.N,GND*%
X182080000Y-100495000D03*
X190720000Y-100495000D03*
%TD*%
%TO.P,J4,S1,SHIELD*%
%TO.N,GND*%
X221280000Y-100495000D03*
X229920000Y-100495000D03*
%TD*%
D13*
%TO.P,U4,1,PE2*%
%TO.N,unconnected-(U4-PE2-Pad1)*%
X199275000Y-63375000D03*
%TO.P,U4,2,PE3*%
%TO.N,unconnected-(U4-PE3-Pad2)*%
X199775000Y-63375000D03*
%TO.P,U4,3,PE4*%
%TO.N,unconnected-(U4-PE4-Pad3)*%
X200275000Y-63375000D03*
%TO.P,U4,4,PE5*%
%TO.N,unconnected-(U4-PE5-Pad4)*%
X200775000Y-63375000D03*
%TO.P,U4,5,PE6*%
%TO.N,unconnected-(U4-PE6-Pad5)*%
X201275000Y-63375000D03*
%TO.P,U4,6,VBAT*%
%TO.N,VDDSDMMC_STM32*%
X201775000Y-63375000D03*
%TO.P,U4,7,PI8*%
%TO.N,unconnected-(U4-PI8-Pad7)*%
X202275000Y-63375000D03*
%TO.P,U4,8,PC13*%
%TO.N,unconnected-(U4-PC13-Pad8)*%
X202775000Y-63375000D03*
%TO.P,U4,9,PC14*%
%TO.N,unconnected-(U4-PC14-Pad9)*%
X203275000Y-63375000D03*
%TO.P,U4,10,PC15*%
%TO.N,unconnected-(U4-PC15-Pad10)*%
X203775000Y-63375000D03*
%TO.P,U4,11,PI9*%
%TO.N,unconnected-(U4-PI9-Pad11)*%
X204275000Y-63375000D03*
%TO.P,U4,12,PI10*%
%TO.N,unconnected-(U4-PI10-Pad12)*%
X204775000Y-63375000D03*
%TO.P,U4,13,PI11*%
%TO.N,unconnected-(U4-PI11-Pad13)*%
X205275000Y-63375000D03*
%TO.P,U4,14,VSS*%
%TO.N,GND*%
X205775000Y-63375000D03*
%TO.P,U4,15,VDD*%
%TO.N,VDDSDMMC_STM32*%
X206275000Y-63375000D03*
%TO.P,U4,16,PF0*%
%TO.N,FMC_A0*%
X206775000Y-63375000D03*
%TO.P,U4,17,PF1*%
%TO.N,FMC_A1*%
X207275000Y-63375000D03*
%TO.P,U4,18,PF2*%
%TO.N,FMC_A2*%
X207775000Y-63375000D03*
%TO.P,U4,19,PI12*%
%TO.N,unconnected-(U4-PI12-Pad19)*%
X208275000Y-63375000D03*
%TO.P,U4,20,PI13*%
%TO.N,unconnected-(U4-PI13-Pad20)*%
X208775000Y-63375000D03*
%TO.P,U4,21,PI14*%
%TO.N,unconnected-(U4-PI14-Pad21)*%
X209275000Y-63375000D03*
%TO.P,U4,22,PF3*%
%TO.N,FMC_A3*%
X209775000Y-63375000D03*
%TO.P,U4,23,PF4*%
%TO.N,FMC_A4*%
X210275000Y-63375000D03*
%TO.P,U4,24,PF5*%
%TO.N,FMC_A5*%
X210775000Y-63375000D03*
%TO.P,U4,25,VSS*%
%TO.N,GND*%
X211275000Y-63375000D03*
%TO.P,U4,26,VDD*%
%TO.N,VDDSDMMC_STM32*%
X211775000Y-63375000D03*
%TO.P,U4,27,PF6*%
%TO.N,unconnected-(U4-PF6-Pad27)*%
X212275000Y-63375000D03*
%TO.P,U4,28,PF7*%
%TO.N,unconnected-(U4-PF7-Pad28)*%
X212775000Y-63375000D03*
%TO.P,U4,29,PF8*%
%TO.N,unconnected-(U4-PF8-Pad29)*%
X213275000Y-63375000D03*
%TO.P,U4,30,PF9*%
%TO.N,unconnected-(U4-PF9-Pad30)*%
X213775000Y-63375000D03*
%TO.P,U4,31,PF10*%
%TO.N,unconnected-(U4-PF10-Pad31)*%
X214275000Y-63375000D03*
%TO.P,U4,32,PH0*%
%TO.N,RCC_OSC_IN*%
X214775000Y-63375000D03*
%TO.P,U4,33,PH1*%
%TO.N,RCC_OSC_OUT*%
X215275000Y-63375000D03*
%TO.P,U4,34,NRST*%
%TO.N,NRST*%
X215775000Y-63375000D03*
%TO.P,U4,35,PC0*%
%TO.N,USB_OTG_HS_ULPI_STP*%
X216275000Y-63375000D03*
%TO.P,U4,36,PC1*%
%TO.N,unconnected-(U4-PC1-Pad36)*%
X216775000Y-63375000D03*
%TO.P,U4,37,PC2*%
%TO.N,USB_OTG_HS_ULPI_DIR*%
X217275000Y-63375000D03*
%TO.P,U4,38,PC3*%
%TO.N,USB_OTG_HS_ULPI_NXT*%
X217775000Y-63375000D03*
%TO.P,U4,39,VDD*%
%TO.N,VDDSDMMC_STM32*%
X218275000Y-63375000D03*
%TO.P,U4,40,VSSA*%
%TO.N,GND*%
X218775000Y-63375000D03*
%TO.P,U4,41,VREF+*%
%TO.N,VDDA_STM32*%
X219275000Y-63375000D03*
%TO.P,U4,42,VDDA*%
X219775000Y-63375000D03*
%TO.P,U4,43,PA0*%
%TO.N,unconnected-(U4-PA0-Pad43)*%
X220275000Y-63375000D03*
%TO.P,U4,44,PA1*%
%TO.N,unconnected-(U4-PA1-Pad44)*%
X220775000Y-63375000D03*
%TO.P,U4,45,PA2*%
%TO.N,unconnected-(U4-PA2-Pad45)*%
X221275000Y-63375000D03*
%TO.P,U4,46,PH2*%
%TO.N,FMC_SDCKE0*%
X221775000Y-63375000D03*
%TO.P,U4,47,PH3*%
%TO.N,FMC_SDNE0*%
X222275000Y-63375000D03*
%TO.P,U4,48,PH4*%
%TO.N,unconnected-(U4-PH4-Pad48)*%
X222775000Y-63375000D03*
%TO.P,U4,49,PH5*%
%TO.N,FMC_SDNWE*%
X223275000Y-63375000D03*
%TO.P,U4,50,PA3*%
%TO.N,USB_OTG_HS_ULPI_D0*%
X223775000Y-63375000D03*
%TO.P,U4,51,VSS*%
%TO.N,GND*%
X224275000Y-63375000D03*
%TO.P,U4,52,VDD*%
%TO.N,VDDSDMMC_STM32*%
X224775000Y-63375000D03*
D14*
%TO.P,U4,53,PA4*%
%TO.N,unconnected-(U4-PA4-Pad53)*%
X226700000Y-65300000D03*
%TO.P,U4,54,PA5*%
%TO.N,USB_OTG_HS_ULPI_CK*%
X226700000Y-65800000D03*
%TO.P,U4,55,PA6*%
%TO.N,unconnected-(U4-PA6-Pad55)*%
X226700000Y-66300000D03*
%TO.P,U4,56,PA7*%
%TO.N,unconnected-(U4-PA7-Pad56)*%
X226700000Y-66800000D03*
%TO.P,U4,57,PC4*%
%TO.N,unconnected-(U4-PC4-Pad57)*%
X226700000Y-67300000D03*
%TO.P,U4,58,PC5*%
%TO.N,unconnected-(U4-PC5-Pad58)*%
X226700000Y-67800000D03*
%TO.P,U4,59,VDD*%
%TO.N,VDDSDMMC_STM32*%
X226700000Y-68300000D03*
%TO.P,U4,60,VSS*%
%TO.N,GND*%
X226700000Y-68800000D03*
%TO.P,U4,61,PB0*%
%TO.N,USB_OTG_HS_ULPI_D1*%
X226700000Y-69300000D03*
%TO.P,U4,62,PB1*%
%TO.N,USB_OTG_HS_ULPI_D2*%
X226700000Y-69800000D03*
%TO.P,U4,63,PB2*%
%TO.N,unconnected-(U4-PB2-Pad63)*%
X226700000Y-70300000D03*
%TO.P,U4,64,PI15*%
%TO.N,unconnected-(U4-PI15-Pad64)*%
X226700000Y-70800000D03*
%TO.P,U4,65,PJ0*%
%TO.N,unconnected-(U4-PJ0-Pad65)*%
X226700000Y-71300000D03*
%TO.P,U4,66,PJ1*%
%TO.N,unconnected-(U4-PJ1-Pad66)*%
X226700000Y-71800000D03*
%TO.P,U4,67,PJ2*%
%TO.N,unconnected-(U4-PJ2-Pad67)*%
X226700000Y-72300000D03*
%TO.P,U4,68,PJ3*%
%TO.N,unconnected-(U4-PJ3-Pad68)*%
X226700000Y-72800000D03*
%TO.P,U4,69,PJ4*%
%TO.N,unconnected-(U4-PJ4-Pad69)*%
X226700000Y-73300000D03*
%TO.P,U4,70,PF11*%
%TO.N,FMC_SDNRAS*%
X226700000Y-73800000D03*
%TO.P,U4,71,PF12*%
%TO.N,FMC_A6*%
X226700000Y-74300000D03*
%TO.P,U4,72,VSS*%
%TO.N,GND*%
X226700000Y-74800000D03*
%TO.P,U4,73,VDD*%
%TO.N,VDDSDMMC_STM32*%
X226700000Y-75300000D03*
%TO.P,U4,74,PF13*%
%TO.N,FMC_A7*%
X226700000Y-75800000D03*
%TO.P,U4,75,PF14*%
%TO.N,FMC_A8*%
X226700000Y-76300000D03*
%TO.P,U4,76,PF15*%
%TO.N,FMC_A9*%
X226700000Y-76800000D03*
%TO.P,U4,77,PG0*%
%TO.N,FMC_A10*%
X226700000Y-77300000D03*
%TO.P,U4,78,PG1*%
%TO.N,FMC_A11*%
X226700000Y-77800000D03*
%TO.P,U4,79,PE7*%
%TO.N,FMC_D4*%
X226700000Y-78300000D03*
%TO.P,U4,80,PE8*%
%TO.N,FMC_D5*%
X226700000Y-78800000D03*
%TO.P,U4,81,PE9*%
%TO.N,FMC_D6*%
X226700000Y-79300000D03*
%TO.P,U4,82,VSS*%
%TO.N,GND*%
X226700000Y-79800000D03*
%TO.P,U4,83,VDD*%
%TO.N,VDDSDMMC_STM32*%
X226700000Y-80300000D03*
%TO.P,U4,84,PE10*%
%TO.N,FMC_D7*%
X226700000Y-80800000D03*
%TO.P,U4,85,PE11*%
%TO.N,FMC_D8*%
X226700000Y-81300000D03*
%TO.P,U4,86,PE12*%
%TO.N,FMC_D9*%
X226700000Y-81800000D03*
%TO.P,U4,87,PE13*%
%TO.N,FMC_D10*%
X226700000Y-82300000D03*
%TO.P,U4,88,PE14*%
%TO.N,FMC_D11*%
X226700000Y-82800000D03*
%TO.P,U4,89,PE15*%
%TO.N,FMC_D12*%
X226700000Y-83300000D03*
%TO.P,U4,90,PB10*%
%TO.N,USB_OTG_HS_ULPI_D3*%
X226700000Y-83800000D03*
%TO.P,U4,91,PB11*%
%TO.N,USB_OTG_HS_ULPI_D4*%
X226700000Y-84300000D03*
%TO.P,U4,92,VCAP_1*%
%TO.N,Net-(U4-VCAP_1)*%
X226700000Y-84800000D03*
%TO.P,U4,93,VSS*%
%TO.N,GND*%
X226700000Y-85300000D03*
%TO.P,U4,94,VDD*%
%TO.N,VDDSDMMC_STM32*%
X226700000Y-85800000D03*
%TO.P,U4,95,PJ5*%
%TO.N,unconnected-(U4-PJ5-Pad95)*%
X226700000Y-86300000D03*
%TO.P,U4,96,PH6*%
%TO.N,unconnected-(U4-PH6-Pad96)*%
X226700000Y-86800000D03*
%TO.P,U4,97,PH7*%
%TO.N,unconnected-(U4-PH7-Pad97)*%
X226700000Y-87300000D03*
%TO.P,U4,98,PH8*%
%TO.N,unconnected-(U4-PH8-Pad98)*%
X226700000Y-87800000D03*
%TO.P,U4,99,PH9*%
%TO.N,unconnected-(U4-PH9-Pad99)*%
X226700000Y-88300000D03*
%TO.P,U4,100,PH10*%
%TO.N,unconnected-(U4-PH10-Pad100)*%
X226700000Y-88800000D03*
%TO.P,U4,101,PH11*%
%TO.N,unconnected-(U4-PH11-Pad101)*%
X226700000Y-89300000D03*
%TO.P,U4,102,PH12*%
%TO.N,unconnected-(U4-PH12-Pad102)*%
X226700000Y-89800000D03*
%TO.P,U4,103,VDD*%
%TO.N,VDDSDMMC_STM32*%
X226700000Y-90300000D03*
%TO.P,U4,104,PB12*%
%TO.N,USB_OTG_HS_ULPI_D5*%
X226700000Y-90800000D03*
D13*
%TO.P,U4,105,PB13*%
%TO.N,USB_OTG_HS_ULPI_D6*%
X224775000Y-92725000D03*
%TO.P,U4,106,PB14*%
%TO.N,USB_OTG_HS_DETECT*%
X224275000Y-92725000D03*
%TO.P,U4,107,PB15*%
%TO.N,Enable GPIO HS*%
X223775000Y-92725000D03*
%TO.P,U4,108,PD8*%
%TO.N,FMC_D13*%
X223275000Y-92725000D03*
%TO.P,U4,109,PD9*%
%TO.N,FMC_D14*%
X222775000Y-92725000D03*
%TO.P,U4,110,PD10*%
%TO.N,FMC_D15*%
X222275000Y-92725000D03*
%TO.P,U4,111,PD11*%
%TO.N,USB_OTG_HS_OverCurrent*%
X221775000Y-92725000D03*
%TO.P,U4,112,PD12*%
%TO.N,I2C_4_SCL*%
X221275000Y-92725000D03*
%TO.P,U4,113,PD13*%
%TO.N,I2C_4_SDA*%
X220775000Y-92725000D03*
%TO.P,U4,114,VSS*%
%TO.N,GND*%
X220275000Y-92725000D03*
%TO.P,U4,115,VDD*%
%TO.N,VDDSDMMC_STM32*%
X219775000Y-92725000D03*
%TO.P,U4,116,PD14*%
%TO.N,FMC_D0*%
X219275000Y-92725000D03*
%TO.P,U4,117,PD15*%
%TO.N,FMC_D1*%
X218775000Y-92725000D03*
%TO.P,U4,118,VDDDSI*%
%TO.N,VDDSDMMC_STM32*%
X218275000Y-92725000D03*
%TO.P,U4,119,VCAPDSI*%
%TO.N,VDD12DSI_STM32*%
X217775000Y-92725000D03*
%TO.P,U4,120,DSIHOST_D0P*%
%TO.N,DSIHOST_D0P*%
X217275000Y-92725000D03*
%TO.P,U4,121,DSIHOST_D0N*%
%TO.N,DSIHOST_D0N*%
X216775000Y-92725000D03*
%TO.P,U4,122,VSSDSI*%
%TO.N,GND*%
X216275000Y-92725000D03*
%TO.P,U4,123,DSIHOST_CKP*%
%TO.N,DSIHOST_CKP*%
X215775000Y-92725000D03*
%TO.P,U4,124,DSIHOST_CKN*%
%TO.N,DSIHOST_CKN*%
X215275000Y-92725000D03*
%TO.P,U4,125,VDD12DSI*%
%TO.N,VDD12DSI_STM32*%
X214775000Y-92725000D03*
%TO.P,U4,126,DSIHOST_D1P*%
%TO.N,DSIHOST_D1P*%
X214275000Y-92725000D03*
%TO.P,U4,127,DSIHOST_D1N*%
%TO.N,DSIHOST_D1N*%
X213775000Y-92725000D03*
%TO.P,U4,128,VSSDSI*%
%TO.N,GND*%
X213275000Y-92725000D03*
%TO.P,U4,129,PG2*%
%TO.N,unconnected-(U4-PG2-Pad129)*%
X212775000Y-92725000D03*
%TO.P,U4,130,PG3*%
%TO.N,unconnected-(U4-PG3-Pad130)*%
X212275000Y-92725000D03*
%TO.P,U4,131,PG4*%
%TO.N,FMC_BA0*%
X211775000Y-92725000D03*
%TO.P,U4,132,PG5*%
%TO.N,FMC_BA1*%
X211275000Y-92725000D03*
%TO.P,U4,133,PG6*%
%TO.N,unconnected-(U4-PG6-Pad133)*%
X210775000Y-92725000D03*
%TO.P,U4,134,PG7*%
%TO.N,unconnected-(U4-PG7-Pad134)*%
X210275000Y-92725000D03*
%TO.P,U4,135,PG8*%
%TO.N,FMC_SDCLK*%
X209775000Y-92725000D03*
%TO.P,U4,136,VSS*%
%TO.N,GND*%
X209275000Y-92725000D03*
%TO.P,U4,137,VDDUSB*%
%TO.N,VDDSDMMC_STM32*%
X208775000Y-92725000D03*
%TO.P,U4,138,PC6*%
%TO.N,SDMMC1_D6*%
X208275000Y-92725000D03*
%TO.P,U4,139,PC7*%
%TO.N,SDMMC1_D7*%
X207775000Y-92725000D03*
%TO.P,U4,140,PC8*%
%TO.N,SDMMC1_D0*%
X207275000Y-92725000D03*
%TO.P,U4,141,PC9*%
%TO.N,SDMMC1_D1*%
X206775000Y-92725000D03*
%TO.P,U4,142,PA8*%
%TO.N,Enable GPIO*%
X206275000Y-92725000D03*
%TO.P,U4,143,PA9*%
%TO.N,USB_OTG_FS_VBUS*%
X205775000Y-92725000D03*
%TO.P,U4,144,PA10*%
%TO.N,USB_OTG_FS_ID*%
X205275000Y-92725000D03*
%TO.P,U4,145,PA11*%
%TO.N,USB_OTG_FS_N*%
X204775000Y-92725000D03*
%TO.P,U4,146,PA12*%
%TO.N,USB_OTG_FS_P*%
X204275000Y-92725000D03*
%TO.P,U4,147,PA13*%
%TO.N,SWDIO*%
X203775000Y-92725000D03*
%TO.P,U4,148,VCAP_2*%
%TO.N,Net-(U4-VCAP_2)*%
X203275000Y-92725000D03*
%TO.P,U4,149,VSS*%
%TO.N,GND*%
X202775000Y-92725000D03*
%TO.P,U4,150,VDD*%
%TO.N,VDDSDMMC_STM32*%
X202275000Y-92725000D03*
%TO.P,U4,151,PH13*%
%TO.N,USB_OTG_FS_DETECT*%
X201775000Y-92725000D03*
%TO.P,U4,152,PH14*%
%TO.N,unconnected-(U4-PH14-Pad152)*%
X201275000Y-92725000D03*
%TO.P,U4,153,PH15*%
%TO.N,unconnected-(U4-PH15-Pad153)*%
X200775000Y-92725000D03*
%TO.P,U4,154,PI0*%
%TO.N,unconnected-(U4-PI0-Pad154)*%
X200275000Y-92725000D03*
%TO.P,U4,155,PI1*%
%TO.N,unconnected-(U4-PI1-Pad155)*%
X199775000Y-92725000D03*
%TO.P,U4,156,PI2*%
%TO.N,unconnected-(U4-PI2-Pad156)*%
X199275000Y-92725000D03*
D14*
%TO.P,U4,157,PI3*%
%TO.N,USB_OTG_FS_OverCurrent*%
X197350000Y-90800000D03*
%TO.P,U4,158,VDD*%
%TO.N,VDDSDMMC_STM32*%
X197350000Y-90300000D03*
%TO.P,U4,159,PA14*%
%TO.N,SWCLK*%
X197350000Y-89800000D03*
%TO.P,U4,160,PA15*%
%TO.N,unconnected-(U4-PA15-Pad160)*%
X197350000Y-89300000D03*
%TO.P,U4,161,PC10*%
%TO.N,SDMMC1_D2*%
X197350000Y-88800000D03*
%TO.P,U4,162,PC11*%
%TO.N,SDMMC1_D3*%
X197350000Y-88300000D03*
%TO.P,U4,163,PC12*%
%TO.N,SDMMC1_CK*%
X197350000Y-87800000D03*
%TO.P,U4,164,PD0*%
%TO.N,FMC_D2*%
X197350000Y-87300000D03*
%TO.P,U4,165,PD1*%
%TO.N,FMC_D3*%
X197350000Y-86800000D03*
%TO.P,U4,166,PD2*%
%TO.N,SDMMC1_CMD*%
X197350000Y-86300000D03*
%TO.P,U4,167,PD3*%
%TO.N,unconnected-(U4-PD3-Pad167)*%
X197350000Y-85800000D03*
%TO.P,U4,168,PD4*%
%TO.N,unconnected-(U4-PD4-Pad168)*%
X197350000Y-85300000D03*
%TO.P,U4,169,PD5*%
%TO.N,unconnected-(U4-PD5-Pad169)*%
X197350000Y-84800000D03*
%TO.P,U4,170,VSS*%
%TO.N,GND*%
X197350000Y-84300000D03*
%TO.P,U4,171,VDDSDMMC*%
%TO.N,VDDSDMMC_STM32*%
X197350000Y-83800000D03*
%TO.P,U4,172,PD6*%
%TO.N,unconnected-(U4-PD6-Pad172)*%
X197350000Y-83300000D03*
%TO.P,U4,173,PD7*%
%TO.N,unconnected-(U4-PD7-Pad173)*%
X197350000Y-82800000D03*
%TO.P,U4,174,PJ12*%
%TO.N,unconnected-(U4-PJ12-Pad174)*%
X197350000Y-82300000D03*
%TO.P,U4,175,PJ13*%
%TO.N,unconnected-(U4-PJ13-Pad175)*%
X197350000Y-81800000D03*
%TO.P,U4,176,PJ14*%
%TO.N,unconnected-(U4-PJ14-Pad176)*%
X197350000Y-81300000D03*
%TO.P,U4,177,PJ15*%
%TO.N,unconnected-(U4-PJ15-Pad177)*%
X197350000Y-80800000D03*
%TO.P,U4,178,PG9*%
%TO.N,STM32_LED*%
X197350000Y-80300000D03*
%TO.P,U4,179,PG10*%
%TO.N,unconnected-(U4-PG10-Pad179)*%
X197350000Y-79800000D03*
%TO.P,U4,180,PG11*%
%TO.N,unconnected-(U4-PG11-Pad180)*%
X197350000Y-79300000D03*
%TO.P,U4,181,PG12*%
%TO.N,unconnected-(U4-PG12-Pad181)*%
X197350000Y-78800000D03*
%TO.P,U4,182,PG13*%
%TO.N,unconnected-(U4-PG13-Pad182)*%
X197350000Y-78300000D03*
%TO.P,U4,183,PG14*%
%TO.N,unconnected-(U4-PG14-Pad183)*%
X197350000Y-77800000D03*
%TO.P,U4,184,VSS*%
%TO.N,GND*%
X197350000Y-77300000D03*
%TO.P,U4,185,VDD*%
%TO.N,VDDSDMMC_STM32*%
X197350000Y-76800000D03*
%TO.P,U4,186,PK3*%
%TO.N,unconnected-(U4-PK3-Pad186)*%
X197350000Y-76300000D03*
%TO.P,U4,187,PK4*%
%TO.N,unconnected-(U4-PK4-Pad187)*%
X197350000Y-75800000D03*
%TO.P,U4,188,PK5*%
%TO.N,unconnected-(U4-PK5-Pad188)*%
X197350000Y-75300000D03*
%TO.P,U4,189,PK6*%
%TO.N,unconnected-(U4-PK6-Pad189)*%
X197350000Y-74800000D03*
%TO.P,U4,190,PK7*%
%TO.N,unconnected-(U4-PK7-Pad190)*%
X197350000Y-74300000D03*
%TO.P,U4,191,PG15*%
%TO.N,FMC_SDNCAS*%
X197350000Y-73800000D03*
%TO.P,U4,192,PB3*%
%TO.N,SWO*%
X197350000Y-73300000D03*
%TO.P,U4,193,PB4*%
%TO.N,unconnected-(U4-PB4-Pad193)*%
X197350000Y-72800000D03*
%TO.P,U4,194,PB5*%
%TO.N,USB_OTG_HS_ULPI_D7*%
X197350000Y-72300000D03*
%TO.P,U4,195,PB6*%
%TO.N,unconnected-(U4-PB6-Pad195)*%
X197350000Y-71800000D03*
%TO.P,U4,196,PB7*%
%TO.N,unconnected-(U4-PB7-Pad196)*%
X197350000Y-71300000D03*
%TO.P,U4,197,BOOT0*%
%TO.N,BOOT0*%
X197350000Y-70800000D03*
%TO.P,U4,198,PB8*%
%TO.N,SDMMC1_D4*%
X197350000Y-70300000D03*
%TO.P,U4,199,PB9*%
%TO.N,SDMMC1_D5*%
X197350000Y-69800000D03*
%TO.P,U4,200,PE0*%
%TO.N,FMC_NBL0*%
X197350000Y-69300000D03*
%TO.P,U4,201,PE1*%
%TO.N,FMC_NBL1*%
X197350000Y-68800000D03*
%TO.P,U4,202,VSS*%
%TO.N,GND*%
X197350000Y-68300000D03*
%TO.P,U4,203,PDR_ON*%
%TO.N,PDR_ON*%
X197350000Y-67800000D03*
%TO.P,U4,204,VDD*%
%TO.N,VDDSDMMC_STM32*%
X197350000Y-67300000D03*
%TO.P,U4,205,PI4*%
%TO.N,unconnected-(U4-PI4-Pad205)*%
X197350000Y-66800000D03*
%TO.P,U4,206,PI5*%
%TO.N,unconnected-(U4-PI5-Pad206)*%
X197350000Y-66300000D03*
%TO.P,U4,207,PI6*%
%TO.N,unconnected-(U4-PI6-Pad207)*%
X197350000Y-65800000D03*
%TO.P,U4,208,PI7*%
%TO.N,unconnected-(U4-PI7-Pad208)*%
X197350000Y-65300000D03*
%TD*%
D15*
%TO.P,U12,A1,NC_1*%
%TO.N,SDMMC1_D3*%
X190900000Y-90150000D03*
%TO.P,U12,A2,NC_1*%
%TO.N,SDMMC1_D4*%
X190900000Y-89650000D03*
%TO.P,U12,A3,DAT0*%
%TO.N,SDMMC1_D0*%
X190900000Y-89150000D03*
%TO.P,U12,A4,DAT1*%
%TO.N,SDMMC1_D1*%
X190900000Y-88650000D03*
%TO.P,U12,A5,DAT2*%
%TO.N,SDMMC1_D2*%
X190900000Y-88150000D03*
%TO.P,U12,A6,VSS*%
%TO.N,GND*%
X190900000Y-87650000D03*
%TO.P,U12,A7,RFU_A7*%
%TO.N,SDMMC1_D7*%
X190900000Y-87150000D03*
%TO.P,U12,A8,NC_1*%
%TO.N,unconnected-(U12A-NC_1-PadA10)_7*%
X190900000Y-86650000D03*
%TO.P,U12,A9,NC_1*%
%TO.N,unconnected-(U12A-NC_1-PadA10)_5*%
X190900000Y-86150000D03*
%TO.P,U12,A10,NC_1*%
%TO.N,unconnected-(U12A-NC_1-PadA10)_4*%
X190900000Y-85650000D03*
%TO.P,U12,A11,NC_1*%
%TO.N,unconnected-(U12A-NC_1-PadA10)_2*%
X190900000Y-85150000D03*
%TO.P,U12,A12,NC_1*%
%TO.N,unconnected-(U12A-NC_1-PadA10)*%
X190900000Y-84650000D03*
%TO.P,U12,A13,NC_1*%
%TO.N,unconnected-(U12A-NC_1-PadA10)_9*%
X190900000Y-84150000D03*
%TO.P,U12,A14,NC_1*%
%TO.N,unconnected-(U12A-NC_1-PadA10)_8*%
X190900000Y-83650000D03*
%TO.P,U12,B1,NC_1*%
%TO.N,unconnected-(U12A-NC_1-PadA10)_0*%
X190400000Y-90150000D03*
%TO.P,U12,B2,DAT3*%
%TO.N,SDMMC1_D3*%
X190400000Y-89650000D03*
%TO.P,U12,B3,DAT4*%
%TO.N,SDMMC1_D4*%
X190400000Y-89150000D03*
%TO.P,U12,B4,DAT5*%
%TO.N,SDMMC1_D5*%
X190400000Y-88650000D03*
%TO.P,U12,B5,DAT6*%
%TO.N,SDMMC1_D6*%
X190400000Y-88150000D03*
%TO.P,U12,B6,DAT7*%
%TO.N,SDMMC1_D7*%
X190400000Y-87650000D03*
%TO.P,U12,B7,NC_1*%
%TO.N,unconnected-(U12A-NC_1-PadA10)_10*%
X190400000Y-87150000D03*
%TO.P,U12,B8,NC_1*%
%TO.N,unconnected-(U12A-NC_1-PadA10)_6*%
X190400000Y-86650000D03*
%TO.P,U12,B9,NC_1*%
%TO.N,unconnected-(U12A-NC_1-PadA10)_1*%
X190400000Y-86150000D03*
%TO.P,U12,B10,NC_1*%
%TO.N,unconnected-(U12A-NC_1-PadA10)_3*%
X190400000Y-85650000D03*
%TO.P,U12,B11,NC_2*%
%TO.N,unconnected-(U12A-NC_2-PadB11)_8*%
X190400000Y-85150000D03*
%TO.P,U12,B12,NC_2*%
%TO.N,unconnected-(U12A-NC_2-PadB11)_9*%
X190400000Y-84650000D03*
%TO.P,U12,B13,NC_2*%
%TO.N,unconnected-(U12A-NC_2-PadB11)_2*%
X190400000Y-84150000D03*
%TO.P,U12,B14,NC_2*%
%TO.N,unconnected-(U12A-NC_2-PadB11)*%
X190400000Y-83650000D03*
%TO.P,U12,C1,NC_2*%
%TO.N,Net-(U12A-VDDI)*%
X189900000Y-90150000D03*
%TO.P,U12,C2,VDDI*%
X189900000Y-89650000D03*
%TO.P,U12,C3,NC_2*%
%TO.N,SDMMC1_D5*%
X189900000Y-89150000D03*
%TO.P,U12,C4,VSSQ*%
%TO.N,GND*%
X189900000Y-88650000D03*
%TO.P,U12,C5,NC_2*%
%TO.N,SDMMC1_D6*%
X189900000Y-88150000D03*
%TO.P,U12,C6,VCCQ*%
%TO.N,VDDSDMMC_STM32*%
X189900000Y-87650000D03*
%TO.P,U12,C7,NC_2*%
%TO.N,unconnected-(U12A-NC_2-PadB11)_3*%
X189900000Y-87150000D03*
%TO.P,U12,C8,NC_2*%
%TO.N,unconnected-(U12A-NC_2-PadB11)_5*%
X189900000Y-86650000D03*
%TO.P,U12,C9,NC_2*%
%TO.N,unconnected-(U12A-NC_2-PadB11)_6*%
X189900000Y-86150000D03*
%TO.P,U12,C10,NC_2*%
%TO.N,unconnected-(U12A-NC_2-PadB11)_4*%
X189900000Y-85650000D03*
%TO.P,U12,C11,NC_2*%
%TO.N,unconnected-(U12A-NC_2-PadB11)_7*%
X189900000Y-85150000D03*
%TO.P,U12,C12,NC_2*%
%TO.N,unconnected-(U12A-NC_2-PadB11)_10*%
X189900000Y-84650000D03*
%TO.P,U12,C13,NC_2*%
%TO.N,unconnected-(U12A-NC_2-PadB11)_1*%
X189900000Y-84150000D03*
%TO.P,U12,C14,NC_2*%
%TO.N,unconnected-(U12A-NC_2-PadB11)_0*%
X189900000Y-83650000D03*
%TO.P,U12,D1,NC_3*%
%TO.N,SDMMC1_D5*%
X189400000Y-90150000D03*
%TO.P,U12,D2,NC_3*%
X189400000Y-89650000D03*
%TO.P,U12,D3,NC_3*%
X189400000Y-89150000D03*
%TO.P,U12,D4,NC_3*%
%TO.N,GND*%
X189400000Y-88650000D03*
%TO.P,U12,D12,NC_3*%
%TO.N,unconnected-(U12A-NC_3-PadD12)_4*%
X189400000Y-84650000D03*
%TO.P,U12,D13,NC_3*%
%TO.N,unconnected-(U12A-NC_3-PadD12)_3*%
X189400000Y-84150000D03*
%TO.P,U12,D14,NC_3*%
%TO.N,unconnected-(U12A-NC_3-PadD12)_1*%
X189400000Y-83650000D03*
%TO.P,U12,E1,NC_3*%
%TO.N,unconnected-(U12A-NC_3-PadD12)*%
X188900000Y-90150000D03*
%TO.P,U12,E2,NC_3*%
%TO.N,unconnected-(U12A-NC_3-PadD12)_2*%
X188900000Y-89650000D03*
%TO.P,U12,E3,NC_3*%
%TO.N,unconnected-(U12A-NC_3-PadD12)_5*%
X188900000Y-89150000D03*
%TO.P,U12,E5,RFU_E5*%
%TO.N,unconnected-(U12B-RFU_E5-PadE5)*%
X188900000Y-88150000D03*
%TO.P,U12,E6,VCC*%
%TO.N,VDDSDMMC_STM32*%
X188900000Y-87650000D03*
%TO.P,U12,E7,VSS*%
%TO.N,GND*%
X188900000Y-87150000D03*
%TO.P,U12,E8,VSF5*%
%TO.N,unconnected-(U12A-VSF5-PadE8)*%
X188900000Y-86650000D03*
%TO.P,U12,E9,VSF1*%
%TO.N,unconnected-(U12A-VSF1-PadE9)*%
X188900000Y-86150000D03*
%TO.P,U12,E10,VSF2*%
%TO.N,unconnected-(U12A-VSF2-PadE10)*%
X188900000Y-85650000D03*
%TO.P,U12,E12,NC_3*%
%TO.N,unconnected-(U12A-NC_3-PadD12)_0*%
X188900000Y-84650000D03*
%TO.P,U12,E13,NC_3*%
%TO.N,unconnected-(U12A-NC_3-PadD12)_6*%
X188900000Y-84150000D03*
%TO.P,U12,E14,NC_4*%
%TO.N,unconnected-(U12A-NC_4-PadE14)_0*%
X188900000Y-83650000D03*
%TO.P,U12,F1,NC_4*%
%TO.N,unconnected-(U12A-NC_4-PadE14)*%
X188400000Y-90150000D03*
%TO.P,U12,F2,NC_4*%
%TO.N,unconnected-(U12A-NC_4-PadE14)_4*%
X188400000Y-89650000D03*
%TO.P,U12,F3,NC_4*%
%TO.N,unconnected-(U12A-NC_4-PadE14)_9*%
X188400000Y-89150000D03*
%TO.P,U12,F5,VCC*%
%TO.N,VDDSDMMC_STM32*%
X188400000Y-88150000D03*
%TO.P,U12,F10,VSF3*%
%TO.N,unconnected-(U12A-VSF3-PadF10)*%
X188400000Y-85650000D03*
%TO.P,U12,F12,NC_4*%
%TO.N,unconnected-(U12A-NC_4-PadE14)_1*%
X188400000Y-84650000D03*
%TO.P,U12,F13,NC_4*%
%TO.N,unconnected-(U12A-NC_4-PadE14)_7*%
X188400000Y-84150000D03*
%TO.P,U12,F14,NC_4*%
%TO.N,unconnected-(U12A-NC_4-PadE14)_8*%
X188400000Y-83650000D03*
%TO.P,U12,G1,NC_4*%
%TO.N,unconnected-(U12A-NC_4-PadE14)_10*%
X187900000Y-90150000D03*
%TO.P,U12,G2,NC_4*%
%TO.N,unconnected-(U12A-NC_4-PadE14)_6*%
X187900000Y-89650000D03*
%TO.P,U12,G3,RFU_G3*%
%TO.N,unconnected-(U12B-RFU_G3-PadG3)*%
X187900000Y-89150000D03*
%TO.P,U12,G5,VSS*%
%TO.N,GND*%
X187900000Y-88150000D03*
%TO.P,U12,G10,VSF6*%
%TO.N,unconnected-(U12A-VSF6-PadG10)*%
X187900000Y-85650000D03*
%TO.P,U12,G12,NC_4*%
%TO.N,unconnected-(U12A-NC_4-PadE14)_5*%
X187900000Y-84650000D03*
%TO.P,U12,G13,NC_4*%
%TO.N,unconnected-(U12A-NC_4-PadE14)_2*%
X187900000Y-84150000D03*
%TO.P,U12,G14,NC_4*%
%TO.N,unconnected-(U12A-NC_4-PadE14)_3*%
X187900000Y-83650000D03*
%TO.P,U12,H1,NC_5*%
%TO.N,unconnected-(U12B-NC_5-PadH1)_2*%
X187400000Y-90150000D03*
%TO.P,U12,H2,NC_5*%
%TO.N,unconnected-(U12B-NC_5-PadH1)_4*%
X187400000Y-89650000D03*
%TO.P,U12,H3,NC_5*%
%TO.N,unconnected-(U12B-NC_5-PadH1)_0*%
X187400000Y-89150000D03*
%TO.P,U12,H5,DS*%
%TO.N,unconnected-(U12A-DS-PadH5)*%
X187400000Y-88150000D03*
%TO.P,U12,H10,VSS*%
%TO.N,GND*%
X187400000Y-85650000D03*
%TO.P,U12,H12,NC_5*%
%TO.N,unconnected-(U12B-NC_5-PadH1)_5*%
X187400000Y-84650000D03*
%TO.P,U12,H13,NC_5*%
%TO.N,unconnected-(U12B-NC_5-PadH1)_8*%
X187400000Y-84150000D03*
%TO.P,U12,H14,NC_5*%
%TO.N,unconnected-(U12B-NC_5-PadH1)*%
X187400000Y-83650000D03*
%TO.P,U12,J1,NC_5*%
%TO.N,unconnected-(U12B-NC_5-PadH1)_11*%
X186900000Y-90150000D03*
%TO.P,U12,J2,NC_5*%
%TO.N,unconnected-(U12B-NC_5-PadH1)_6*%
X186900000Y-89650000D03*
%TO.P,U12,J3,NC_5*%
%TO.N,unconnected-(U12B-NC_5-PadH1)_12*%
X186900000Y-89150000D03*
%TO.P,U12,J5,VSS*%
%TO.N,GND*%
X186900000Y-88150000D03*
%TO.P,U12,J10,VCC*%
%TO.N,VDDSDMMC_STM32*%
X186900000Y-85650000D03*
%TO.P,U12,J12,NC_5*%
%TO.N,unconnected-(U12B-NC_5-PadH1)_3*%
X186900000Y-84650000D03*
%TO.P,U12,J13,NC_5*%
%TO.N,unconnected-(U12B-NC_5-PadH1)_9*%
X186900000Y-84150000D03*
%TO.P,U12,J14,NC_5*%
%TO.N,unconnected-(U12B-NC_5-PadH1)_13*%
X186900000Y-83650000D03*
%TO.P,U12,K1,NC_5*%
%TO.N,unconnected-(U12B-NC_5-PadH1)_7*%
X186400000Y-90150000D03*
%TO.P,U12,K2,NC_5*%
%TO.N,unconnected-(U12B-NC_5-PadH1)_10*%
X186400000Y-89650000D03*
%TO.P,U12,K3,NC_5*%
%TO.N,unconnected-(U12B-NC_5-PadH1)_1*%
X186400000Y-89150000D03*
%TO.P,U12,K5,~{RST}*%
%TO.N,NRST*%
X186400000Y-88150000D03*
%TO.P,U12,K6,RFU_K6*%
%TO.N,unconnected-(U12B-RFU_K6-PadK6)*%
X186400000Y-87650000D03*
%TO.P,U12,K7,RFU_K7*%
%TO.N,unconnected-(U12B-RFU_K7-PadK7)*%
X186400000Y-87150000D03*
%TO.P,U12,K8,VSS*%
%TO.N,GND*%
X186400000Y-86650000D03*
%TO.P,U12,K9,VCC*%
%TO.N,VDDSDMMC_STM32*%
X186400000Y-86150000D03*
%TO.P,U12,K10,VSF4*%
%TO.N,unconnected-(U12A-VSF4-PadK10)*%
X186400000Y-85650000D03*
%TO.P,U12,K12,NC_6*%
%TO.N,unconnected-(U12B-NC_6-PadK12)_2*%
X186400000Y-84650000D03*
%TO.P,U12,K13,NC_6*%
%TO.N,unconnected-(U12B-NC_6-PadK12)_1*%
X186400000Y-84150000D03*
%TO.P,U12,K14,NC_6*%
%TO.N,unconnected-(U12B-NC_6-PadK12)_7*%
X186400000Y-83650000D03*
%TO.P,U12,L1,NC_6*%
%TO.N,unconnected-(U12B-NC_6-PadK12)_6*%
X185900000Y-90150000D03*
%TO.P,U12,L2,NC_6*%
%TO.N,unconnected-(U12B-NC_6-PadK12)*%
X185900000Y-89650000D03*
%TO.P,U12,L3,NC_6*%
%TO.N,unconnected-(U12B-NC_6-PadK12)_9*%
X185900000Y-89150000D03*
%TO.P,U12,L12,NC_6*%
%TO.N,unconnected-(U12B-NC_6-PadK12)_5*%
X185900000Y-84650000D03*
%TO.P,U12,L13,NC_6*%
%TO.N,unconnected-(U12B-NC_6-PadK12)_11*%
X185900000Y-84150000D03*
%TO.P,U12,L14,NC_6*%
%TO.N,unconnected-(U12B-NC_6-PadK12)_0*%
X185900000Y-83650000D03*
%TO.P,U12,M1,NC_6*%
%TO.N,unconnected-(U12B-NC_6-PadK12)_3*%
X185400000Y-90150000D03*
%TO.P,U12,M2,NC_6*%
%TO.N,unconnected-(U12B-NC_6-PadK12)_8*%
X185400000Y-89650000D03*
%TO.P,U12,M3,NC_6*%
%TO.N,unconnected-(U12B-NC_6-PadK12)_10*%
X185400000Y-89150000D03*
%TO.P,U12,M4,VCCQ*%
%TO.N,VDDSDMMC_STM32*%
X185400000Y-88650000D03*
%TO.P,U12,M5,CMD*%
%TO.N,SDMMC1_CMD*%
X185400000Y-88150000D03*
%TO.P,U12,M6,CLK*%
%TO.N,SDMMC1_CK*%
X185400000Y-87650000D03*
%TO.P,U12,M7,NC_6*%
%TO.N,unconnected-(U12B-NC_6-PadK12)_4*%
X185400000Y-87150000D03*
%TO.P,U12,M8,NC_7*%
%TO.N,unconnected-(U12B-NC_7-PadM10)_3*%
X185400000Y-86650000D03*
%TO.P,U12,M9,NC_7*%
%TO.N,unconnected-(U12B-NC_7-PadM10)_8*%
X185400000Y-86150000D03*
%TO.P,U12,M10,NC_7*%
%TO.N,unconnected-(U12B-NC_7-PadM10)_1*%
X185400000Y-85650000D03*
%TO.P,U12,M11,NC_7*%
%TO.N,unconnected-(U12B-NC_7-PadM10)_0*%
X185400000Y-85150000D03*
%TO.P,U12,M12,NC_7*%
%TO.N,unconnected-(U12B-NC_7-PadM10)*%
X185400000Y-84650000D03*
%TO.P,U12,M13,NC_7*%
%TO.N,unconnected-(U12B-NC_7-PadM10)_4*%
X185400000Y-84150000D03*
%TO.P,U12,M14,NC_7*%
%TO.N,unconnected-(U12B-NC_7-PadM10)_9*%
X185400000Y-83650000D03*
%TO.P,U12,N1,NC_7*%
%TO.N,unconnected-(U12B-NC_7-PadM10)_10*%
X184900000Y-90150000D03*
%TO.P,U12,N2,VSSQ*%
%TO.N,GND*%
X184900000Y-89650000D03*
%TO.P,U12,N3,NC_7*%
%TO.N,VDDSDMMC_STM32*%
X184900000Y-89150000D03*
%TO.P,U12,N4,VCCQ*%
X184900000Y-88650000D03*
%TO.P,U12,N5,VSSQ*%
%TO.N,GND*%
X184900000Y-88150000D03*
%TO.P,U12,N6,NC_7*%
X184900000Y-87650000D03*
%TO.P,U12,N7,NC_7*%
%TO.N,unconnected-(U12B-NC_7-PadM10)_6*%
X184900000Y-87150000D03*
%TO.P,U12,N8,NC_7*%
%TO.N,unconnected-(U12B-NC_7-PadM10)_7*%
X184900000Y-86650000D03*
%TO.P,U12,N9,NC_7*%
%TO.N,unconnected-(U12B-NC_7-PadM10)_2*%
X184900000Y-86150000D03*
%TO.P,U12,N10,NC_7*%
%TO.N,unconnected-(U12B-NC_7-PadM10)_5*%
X184900000Y-85650000D03*
%TO.P,U12,N11,NC_8*%
%TO.N,unconnected-(U12B-NC_8-PadN11)_4*%
X184900000Y-85150000D03*
%TO.P,U12,N12,NC_8*%
%TO.N,unconnected-(U12B-NC_8-PadN11)_1*%
X184900000Y-84650000D03*
%TO.P,U12,N13,NC_8*%
%TO.N,unconnected-(U12B-NC_8-PadN11)_3*%
X184900000Y-84150000D03*
%TO.P,U12,N14,NC_8*%
%TO.N,unconnected-(U12B-NC_8-PadN11)_2*%
X184900000Y-83650000D03*
%TO.P,U12,P1,NC_8*%
%TO.N,unconnected-(U12B-NC_8-PadN11)_5*%
X184400000Y-90150000D03*
%TO.P,U12,P2,NC_8*%
%TO.N,GND*%
X184400000Y-89650000D03*
%TO.P,U12,P3,VCCQ*%
%TO.N,VDDSDMMC_STM32*%
X184400000Y-89150000D03*
%TO.P,U12,P4,VSSQ*%
%TO.N,GND*%
X184400000Y-88650000D03*
%TO.P,U12,P5,VCCQ*%
%TO.N,VDDSDMMC_STM32*%
X184400000Y-88150000D03*
%TO.P,U12,P6,VSSQ*%
%TO.N,GND*%
X184400000Y-87650000D03*
%TO.P,U12,P7,RFU_P7*%
%TO.N,unconnected-(U12B-RFU_P7-PadP7)*%
X184400000Y-87150000D03*
%TO.P,U12,P8,NC_8*%
%TO.N,unconnected-(U12B-NC_8-PadN11)_0*%
X184400000Y-86650000D03*
%TO.P,U12,P9,NC_8*%
%TO.N,unconnected-(U12B-NC_8-PadN11)*%
X184400000Y-86150000D03*
%TO.P,U12,P10,RFU_P10*%
%TO.N,unconnected-(U12B-RFU_P10-PadP10)*%
X184400000Y-85650000D03*
%TO.P,U12,P11,NC_8*%
%TO.N,unconnected-(U12B-NC_8-PadN11)_9*%
X184400000Y-85150000D03*
%TO.P,U12,P12,NC_8*%
%TO.N,unconnected-(U12B-NC_8-PadN11)_6*%
X184400000Y-84650000D03*
%TO.P,U12,P13,NC_8*%
%TO.N,unconnected-(U12B-NC_8-PadN11)_8*%
X184400000Y-84150000D03*
%TO.P,U12,P14,NC_8*%
%TO.N,unconnected-(U12B-NC_8-PadN11)_7*%
X184400000Y-83650000D03*
%TD*%
D16*
%TO.N,GND*%
X191775000Y-66575000D03*
X182975000Y-70250000D03*
X182300000Y-68225000D03*
%TO.N,FMC_NBL0*%
X198540000Y-69806586D03*
X199390000Y-74676000D03*
%TO.N,FMC_D7*%
X216154000Y-79502000D03*
%TO.N,FMC_D1*%
X217678000Y-90932000D03*
D17*
%TO.N,FMC_D6*%
X216916000Y-79248000D03*
%TO.N,FMC_A3*%
X209550000Y-64516000D03*
X212090000Y-68580000D03*
%TO.N,FMC_D0*%
X213140000Y-87790000D03*
X218180000Y-90380000D03*
%TO.N,FMC_NBL0*%
X200600000Y-76600000D03*
%TO.N,+5V*%
X228500000Y-92160000D03*
%TO.N,GND*%
X230010000Y-92090000D03*
%TO.N,USB_OTG_HS_ULPI_D4*%
X225100000Y-83920000D03*
%TO.N,GND*%
X208000000Y-100800000D03*
X203700000Y-55800000D03*
D16*
X220650000Y-90700000D03*
D17*
X228250000Y-69100000D03*
X217300000Y-91440000D03*
X193300000Y-72450000D03*
X224450000Y-64750000D03*
X193700000Y-70200000D03*
X199650000Y-55850000D03*
X220750000Y-104400000D03*
X195800000Y-84500000D03*
X214350000Y-97400000D03*
X216950000Y-85550000D03*
X223100000Y-96200000D03*
X231160000Y-86275000D03*
D16*
X184050000Y-88650000D03*
X191400000Y-87450000D03*
X183500000Y-87120000D03*
D17*
X214600000Y-65850000D03*
X229500000Y-74150000D03*
X207700000Y-55800000D03*
X230400000Y-104400000D03*
D16*
X227930000Y-56365000D03*
D17*
X229180000Y-86100000D03*
X205600000Y-61850000D03*
X214700000Y-78200000D03*
X215900000Y-96100000D03*
X184700000Y-64200000D03*
X186200000Y-62150000D03*
X211700000Y-60900000D03*
X229500000Y-79100000D03*
X183450000Y-95985000D03*
X202000000Y-100800000D03*
X222050000Y-98150000D03*
X228250000Y-74500000D03*
X229300000Y-90780000D03*
X181550000Y-104400000D03*
X218200000Y-60800000D03*
X225050000Y-90860000D03*
X195650000Y-55800000D03*
X199000000Y-100800000D03*
X228700000Y-96200000D03*
X229650000Y-89400000D03*
X214050000Y-60300000D03*
X225300000Y-97700000D03*
X230200000Y-90800000D03*
D16*
X200550000Y-67750000D03*
D17*
X199000000Y-86300000D03*
X218950000Y-94500000D03*
X190250000Y-70250000D03*
X214600000Y-82200000D03*
X186050000Y-72500000D03*
X213300000Y-66300000D03*
X189200000Y-96000000D03*
D16*
X198650000Y-68500000D03*
D17*
X229300000Y-97850000D03*
X230950000Y-87700000D03*
X205000000Y-100800000D03*
X190200000Y-98100000D03*
D16*
X213000000Y-91550000D03*
D17*
X211000000Y-100800000D03*
X182500000Y-97850000D03*
X219150000Y-60800000D03*
X230000000Y-83800000D03*
X193950000Y-94300000D03*
X198750000Y-71850000D03*
X186850000Y-97600000D03*
X218800000Y-59600000D03*
X191200000Y-104400000D03*
X191600000Y-55800000D03*
X202750000Y-61800000D03*
X198700000Y-77550000D03*
X186200000Y-64250000D03*
X194250000Y-93000000D03*
X217200000Y-61800000D03*
D16*
X187250000Y-87250000D03*
D17*
X184650000Y-66250000D03*
X214550000Y-88600000D03*
D16*
X225734359Y-85321711D03*
X212100000Y-84600000D03*
D17*
X215800000Y-61600000D03*
X219150000Y-61800000D03*
D16*
X212100000Y-79800000D03*
X221600000Y-90700000D03*
D17*
X218750000Y-58050000D03*
X199000000Y-81800000D03*
D16*
X183500000Y-90180000D03*
D17*
X212700000Y-60900000D03*
X180990000Y-95675000D03*
X184650000Y-62150000D03*
X213300000Y-65000000D03*
D16*
X188050000Y-86550000D03*
D17*
X211700000Y-55800000D03*
X186400000Y-70200000D03*
X202680000Y-94250000D03*
X229200000Y-85000000D03*
D16*
X209530000Y-91600000D03*
D17*
X214600000Y-87000000D03*
D18*
X188900000Y-91000000D03*
D17*
X186150000Y-66250000D03*
X199800000Y-90350000D03*
X228250000Y-79500000D03*
%TO.N,+5V*%
X193000000Y-94300000D03*
X217425000Y-97650000D03*
X227750000Y-93850000D03*
X195620000Y-59810000D03*
X193300000Y-98500000D03*
X221600000Y-89950000D03*
X184550000Y-70250000D03*
%TO.N,+1V8*%
X195600000Y-73050000D03*
X228400000Y-87600000D03*
%TO.N,USB_OTG_FS_VBUS*%
X189250000Y-98100000D03*
X194280000Y-98510000D03*
X188100000Y-62100000D03*
X186850000Y-95350000D03*
%TO.N,VDDSDMMC_STM32*%
X211725000Y-65000000D03*
D16*
X201700000Y-94250000D03*
D17*
X185700000Y-92800000D03*
D16*
X218160110Y-87132456D03*
X193770000Y-85015000D03*
D17*
X213600000Y-87000000D03*
X206550000Y-61850000D03*
X191550000Y-78100000D03*
X189800000Y-78100000D03*
X213600000Y-82200000D03*
X190950000Y-78650000D03*
X198800000Y-90350000D03*
X192150000Y-79200000D03*
X189750000Y-79200000D03*
X192150000Y-78650000D03*
D16*
X218300000Y-94200000D03*
D17*
X191000000Y-73000000D03*
X210100000Y-97700000D03*
X190950000Y-78100000D03*
X221150000Y-94650000D03*
X213750000Y-78200000D03*
D16*
X219050000Y-83360000D03*
D17*
X228320000Y-90800000D03*
X199000000Y-85300000D03*
X190950000Y-79200000D03*
X228220000Y-86100000D03*
D16*
X208570000Y-91600000D03*
D17*
X189800000Y-78650000D03*
D16*
X217880000Y-85550000D03*
D17*
X191800000Y-70200000D03*
X213000000Y-100800000D03*
X201750000Y-61800000D03*
D16*
X187050000Y-86300000D03*
D17*
X199650000Y-59800000D03*
X198700000Y-76600000D03*
D16*
X183500000Y-88050000D03*
D17*
X199000000Y-80800000D03*
X228250000Y-80500000D03*
X218275000Y-91694000D03*
X209000000Y-97700000D03*
D16*
X193010000Y-85015000D03*
D17*
X191000000Y-72400000D03*
X218200000Y-61800000D03*
X190350000Y-78650000D03*
X192150000Y-78100000D03*
X228250000Y-75500000D03*
X229500000Y-80700000D03*
X195800000Y-83570000D03*
X212800000Y-97400000D03*
X190350000Y-79200000D03*
X229500000Y-75700000D03*
X211700000Y-61850000D03*
X231000000Y-97300000D03*
X218800000Y-56450000D03*
D16*
X183500000Y-89200000D03*
D17*
X190400000Y-78100000D03*
X213000000Y-98950000D03*
X214500000Y-64850000D03*
X191000000Y-71750000D03*
D16*
X194600000Y-89115000D03*
D17*
X195380000Y-96610000D03*
X228250000Y-68100000D03*
X191550000Y-79200000D03*
X228200000Y-85300000D03*
X225400000Y-64750000D03*
X212300000Y-66300000D03*
D16*
X198700000Y-67550000D03*
X228175000Y-58970000D03*
D17*
X212000000Y-100800000D03*
X213650000Y-88600000D03*
D16*
X188200000Y-87450000D03*
X196350000Y-76750000D03*
D17*
X191550000Y-78650000D03*
%TO.N,USB_OTG_HS_VBUS*%
X222600000Y-90900000D03*
X223100000Y-95200000D03*
X226050000Y-93300000D03*
X225250000Y-95400000D03*
X223050000Y-97150000D03*
X184750000Y-68000000D03*
X228756396Y-103481396D03*
X217390000Y-59360000D03*
D16*
%TO.N,VDDA_STM32*%
X220080000Y-61800000D03*
%TO.N,VDD12DSI_STM32*%
X217400000Y-96050000D03*
D17*
%TO.N,RCC_OSC_OUT*%
X215800000Y-60300000D03*
D16*
%TO.N,RCC_OSC_IN*%
X214100000Y-61600000D03*
D17*
%TO.N,NRST*%
X225200000Y-87400000D03*
D16*
X216480000Y-58220000D03*
X228030000Y-64200000D03*
X186325000Y-88500000D03*
D17*
X215530000Y-65850000D03*
X215500000Y-64850000D03*
%TO.N,Net-(U4-VCAP_1)*%
X228425000Y-83800000D03*
%TO.N,Net-(U4-VCAP_2)*%
X202550000Y-91550000D03*
%TO.N,USB_OTG_FS_OverCurrent*%
X191250000Y-92500000D03*
%TO.N,USB_OTG_HS_OverCurrent*%
X229650000Y-96200000D03*
D18*
%TO.N,Net-(U12A-VDDI)*%
X189880000Y-91000000D03*
D16*
%TO.N,SWO*%
X221090000Y-61960000D03*
X195730000Y-71920000D03*
D17*
%TO.N,SWDIO*%
X203750000Y-91600000D03*
X221650000Y-58810000D03*
%TO.N,SWCLK*%
X222400000Y-58875000D03*
X198600000Y-89400000D03*
%TO.N,Net-(J3-CC1)*%
X185150000Y-101225000D03*
X191200000Y-98900000D03*
D16*
%TO.N,DSIHOST_CKN*%
X213650000Y-91500000D03*
%TO.N,I2C_4_SDA*%
X210100000Y-98710000D03*
%TO.N,I2C_4_SCL*%
X209000000Y-98700000D03*
%TO.N,DSIHOST_D1P*%
X212800000Y-94625000D03*
%TO.N,DSIHOST_D1N*%
X212800000Y-93975000D03*
%TO.N,DSIHOST_D0N*%
X214825000Y-95000000D03*
%TO.N,DSIHOST_CKP*%
X215750000Y-91450000D03*
%TO.N,DSIHOST_D0P*%
X215475000Y-95000000D03*
%TO.N,PDR_ON*%
X196150000Y-67800000D03*
D17*
%TO.N,BOOT0*%
X198750000Y-70800000D03*
D16*
%TO.N,STM32_LED*%
X201330000Y-59760000D03*
X195860000Y-79180000D03*
X200620000Y-61730000D03*
D17*
%TO.N,Enable GPIO*%
X184400000Y-93635000D03*
%TO.N,USB_OTG_FS_DETECT*%
X191800000Y-94200000D03*
%TO.N,USB_OTG_FS_ID*%
X196850000Y-96700000D03*
%TO.N,Net-(J4-CC2)*%
X226300000Y-101700000D03*
X220450000Y-98000000D03*
%TO.N,USB_OTG_HS_DETECT*%
X222050000Y-96200000D03*
X225780000Y-92030000D03*
D16*
%TO.N,SDMMC1_CMD*%
X185800000Y-88200000D03*
D17*
X196100000Y-85800000D03*
%TO.N,SDMMC1_D3*%
X194600000Y-86685000D03*
D16*
X190920000Y-90570000D03*
%TO.N,SDMMC1_D1*%
X193000000Y-86685000D03*
X191340000Y-88530000D03*
D17*
X198650000Y-88200000D03*
%TO.N,SDMMC1_D2*%
X193800000Y-86700000D03*
%TO.N,SDMMC1_D0*%
X201375000Y-89425000D03*
D16*
X191230000Y-89150000D03*
D17*
%TO.N,SDMMC1_D5*%
X193000000Y-90750000D03*
D16*
X192773631Y-83681180D03*
D17*
%TO.N,SDMMC1_D7*%
X201950000Y-88900000D03*
D16*
X191500000Y-86840000D03*
X194600000Y-91110000D03*
D17*
%TO.N,SDMMC1_D6*%
X202750000Y-88950000D03*
D16*
X189480000Y-88070000D03*
D17*
%TO.N,SDMMC1_D4*%
X196220000Y-69040000D03*
D16*
X192170000Y-83660000D03*
D17*
X192200000Y-90750000D03*
X196430000Y-70300000D03*
D16*
%TO.N,FMC_A1*%
X205470000Y-68930000D03*
%TO.N,FMC_D5*%
X224290000Y-78810000D03*
X224310000Y-81740000D03*
X212100000Y-81400000D03*
D17*
%TO.N,USB_OTG_HS_ULPI_D3*%
X225750000Y-83790000D03*
D16*
X220600000Y-82790000D03*
%TO.N,FMC_A4*%
X210260000Y-68370000D03*
%TO.N,FMC_D11*%
X200600000Y-83000000D03*
%TO.N,FMC_A9*%
X200600000Y-72550000D03*
X224080000Y-76800000D03*
X224060000Y-72560000D03*
D17*
%TO.N,FMC_D3*%
X198400000Y-86800000D03*
X212100000Y-83800000D03*
D16*
%TO.N,FMC_SDNRAS*%
X213970000Y-74510000D03*
%TO.N,USB_OTG_HS_ULPI_STP*%
X216275000Y-65200000D03*
X224700000Y-86030000D03*
X223750000Y-84010000D03*
%TO.N,FMC_SDNWE*%
X218070000Y-76600000D03*
X218475000Y-69275000D03*
X212100000Y-76600000D03*
%TO.N,FMC_BA0*%
X211900000Y-91500000D03*
%TO.N,USB_OTG_HS_ULPI_NXT*%
X217775000Y-65680000D03*
%TO.N,FMC_D9*%
X200600000Y-80610000D03*
%TO.N,FMC_A0*%
X212150000Y-71000000D03*
X203750000Y-68820000D03*
X203730000Y-71870000D03*
%TO.N,FMC_D15*%
X200550000Y-87800000D03*
%TO.N,FMC_A2*%
X207775000Y-68480000D03*
%TO.N,USB_OTG_HS_ULPI_DIR*%
X225190000Y-85060000D03*
X217280000Y-64680000D03*
X224450000Y-83960000D03*
%TO.N,FMC_D12*%
X200600000Y-83800000D03*
%TO.N,FMC_D13*%
X200650000Y-85400000D03*
%TO.N,FMC_D8*%
X200610000Y-78990000D03*
%TO.N,USB_OTG_HS_ULPI_CK*%
X221830000Y-67260000D03*
D17*
%TO.N,USB_OTG_FS_N*%
X189000000Y-93800000D03*
D16*
%TO.N,FMC_SDCKE0*%
X214680000Y-67920000D03*
X201600000Y-74780000D03*
X214620000Y-75110000D03*
%TO.N,FMC_D4*%
X212100000Y-83000000D03*
X217540000Y-78320000D03*
X218080000Y-83250000D03*
%TO.N,FMC_A11*%
X223570000Y-73060000D03*
X201650000Y-73560000D03*
X223710000Y-77800000D03*
%TO.N,FMC_A7*%
X225215951Y-70855938D03*
X225800000Y-75800000D03*
X200600000Y-71000000D03*
%TO.N,USB_OTG_HS_ULPI_D0*%
X220520000Y-67830000D03*
%TO.N,FMC_SDNCAS*%
X212100000Y-75800000D03*
%TO.N,FMC_NBL1*%
X212100000Y-77400000D03*
X198940000Y-69300000D03*
%TO.N,USB_OTG_HS_ULPI_D4*%
X220100000Y-83160000D03*
%TO.N,USB_OTG_HS_ULPI_D2*%
X216050000Y-69760000D03*
%TO.N,FMC_A5*%
X210700000Y-68900000D03*
D17*
%TO.N,FMC_D2*%
X198750000Y-87550000D03*
D16*
X212100000Y-85400000D03*
%TO.N,FMC_D7*%
X210850000Y-78760000D03*
%TO.N,FMC_SDCLK*%
X200600000Y-75800000D03*
%TO.N,USB_OTG_HS_ULPI_D5*%
X218070000Y-83970000D03*
%TO.N,FMC_SDNE0*%
X212100000Y-74200000D03*
X217080000Y-69090000D03*
X217010000Y-73870000D03*
%TO.N,USB_OTG_HS_ULPI_D1*%
X219078978Y-69269655D03*
%TO.N,FMC_D10*%
X200590000Y-81370000D03*
%TO.N,FMC_A8*%
X224824771Y-71316152D03*
X200500000Y-71750000D03*
X225170000Y-76310000D03*
D17*
%TO.N,USB_OTG_HS_ULPI_D6*%
X216800000Y-84550000D03*
X227448676Y-91621324D03*
D16*
%TO.N,FMC_D14*%
X200600000Y-86200000D03*
%TO.N,FMC_BA1*%
X210900000Y-91450000D03*
%TO.N,FMC_A6*%
X225800000Y-74300000D03*
X225530000Y-70340000D03*
X201700000Y-70080000D03*
%TO.N,SDMMC1_CK*%
X195850000Y-87250000D03*
X185800000Y-87595997D03*
D17*
%TO.N,USB_OTG_FS_P*%
X187800000Y-95300000D03*
%TO.N,Enable GPIO HS*%
X217950000Y-88500000D03*
X229650000Y-93850000D03*
D16*
%TO.N,USB_OTG_HS_ULPI_D7*%
X218320000Y-86550000D03*
X198740000Y-72960000D03*
%TO.N,FMC_A10*%
X225170000Y-77300000D03*
X212100000Y-71800000D03*
X224474264Y-71808050D03*
D17*
%TO.N,/USB_OTG_HS/ESD_D-*%
X219850000Y-90000000D03*
X226250000Y-95400000D03*
%TO.N,/USB_OTG_HS/ESD_D+*%
X219224119Y-89937411D03*
X224300000Y-95200000D03*
%TO.N,Net-(J4-CC1)*%
X219700000Y-98550000D03*
X224300000Y-101600000D03*
%TD*%
D19*
%TO.N,USB_OTG_HS_VBUS*%
X185300000Y-70560661D02*
X185300000Y-68550000D01*
X181550000Y-74310661D02*
X185300000Y-70560661D01*
X181550000Y-97900000D02*
X181550000Y-74310661D01*
X181180000Y-98270000D02*
X181550000Y-97900000D01*
X184700000Y-105150000D02*
X181180000Y-101630000D01*
X227087792Y-105150000D02*
X184700000Y-105150000D01*
X228756396Y-103481396D02*
X227087792Y-105150000D01*
X181180000Y-101630000D02*
X181180000Y-98270000D01*
X185300000Y-68550000D02*
X184750000Y-68000000D01*
D20*
%TO.N,+5V*%
X230150000Y-93180000D02*
X228420000Y-93180000D01*
X230430000Y-93460000D02*
X230150000Y-93180000D01*
X231200000Y-98750000D02*
X230430000Y-97980000D01*
X230430000Y-97980000D02*
X230430000Y-93460000D01*
X231200000Y-102400000D02*
X231200000Y-98750000D01*
X217825000Y-102775000D02*
X230825000Y-102775000D01*
X230825000Y-102775000D02*
X231200000Y-102400000D01*
X217450000Y-103150000D02*
X217825000Y-102775000D01*
D19*
%TO.N,Net-(J3-CC1)*%
X192250000Y-99950000D02*
X191200000Y-98900000D01*
X186575000Y-102650000D02*
X191050000Y-102650000D01*
X185150000Y-101225000D02*
X186575000Y-102650000D01*
X191050000Y-102650000D02*
X192250000Y-101450000D01*
X192250000Y-101450000D02*
X192250000Y-99950000D01*
D21*
%TO.N,STM32_LED*%
X200620000Y-60470000D02*
X200620000Y-61730000D01*
X201330000Y-59760000D02*
X200620000Y-60470000D01*
D20*
%TO.N,+5V*%
X181850000Y-61650000D02*
X183690000Y-59810000D01*
X181850000Y-66675000D02*
X181850000Y-61650000D01*
X184550000Y-69375000D02*
X181850000Y-66675000D01*
X184550000Y-70250000D02*
X184550000Y-69375000D01*
X183690000Y-59810000D02*
X195620000Y-59810000D01*
D19*
%TO.N,NRST*%
X186400000Y-88150000D02*
X186400000Y-88425000D01*
X186400000Y-88425000D02*
X186325000Y-88500000D01*
D21*
%TO.N,FMC_A9*%
X207420000Y-72992467D02*
G75*
G02*
X207296033Y-72868467I0J123967D01*
G01*
X208040000Y-73126390D02*
G75*
G02*
X207916010Y-73002390I0J123990D01*
G01*
X208226000Y-73002390D02*
G75*
G02*
X208102000Y-73126400I-124000J-10D01*
G01*
X207296000Y-72674000D02*
G75*
G03*
X207172000Y-72550000I-124000J0D01*
G01*
X207606000Y-72868467D02*
G75*
G02*
X207482000Y-72992500I-124000J-33D01*
G01*
X208350000Y-72550000D02*
G75*
G03*
X208226000Y-72674000I0J-124000D01*
G01*
X207916000Y-72450000D02*
G75*
G03*
X207816000Y-72350000I-100000J0D01*
G01*
X207706000Y-72350000D02*
G75*
G03*
X207606000Y-72450000I0J-100000D01*
G01*
X201740000Y-72550000D02*
X200600000Y-72550000D01*
X207606000Y-72450000D02*
X207606000Y-72550000D01*
X224050000Y-72550000D02*
X208350000Y-72550000D01*
X207816000Y-72350000D02*
X207706000Y-72350000D01*
X207916000Y-72674000D02*
X207916000Y-72450000D01*
X207172000Y-72550000D02*
X207110000Y-72550000D01*
X207296000Y-72868467D02*
X207296000Y-72674000D01*
X207482000Y-72992467D02*
X207420000Y-72992467D01*
X224060000Y-72560000D02*
X224050000Y-72550000D01*
X207916000Y-73002390D02*
X207916000Y-72674000D01*
X208226000Y-72674000D02*
X208226000Y-73002390D01*
X207606000Y-72550000D02*
X207606000Y-72868467D01*
X208102000Y-73126390D02*
X208040000Y-73126390D01*
X207110000Y-72550000D02*
X201740000Y-72550000D01*
%TO.N,FMC_D10*%
X204697289Y-81057550D02*
G75*
G02*
X204821289Y-80933589I124011J-50D01*
G01*
X204573289Y-81780000D02*
G75*
G03*
X204697300Y-81656000I11J124000D01*
G01*
X205627289Y-82302450D02*
G75*
G03*
X205751289Y-82426411I124011J50D01*
G01*
X205193289Y-82426450D02*
G75*
G03*
X205317350Y-82302450I11J124050D01*
G01*
X205007289Y-82302450D02*
G75*
G03*
X205131289Y-82426411I124011J50D01*
G01*
X206557289Y-81904000D02*
G75*
G02*
X206681289Y-81779989I124011J0D01*
G01*
X206433289Y-82426449D02*
G75*
G03*
X206557349Y-82302449I11J124049D01*
G01*
X206247289Y-82302449D02*
G75*
G03*
X206371289Y-82426411I124011J49D01*
G01*
X206123289Y-80933546D02*
G75*
G02*
X206247254Y-81057546I11J-123954D01*
G01*
X205937289Y-81057546D02*
G75*
G02*
X206061289Y-80933489I124011J46D01*
G01*
X205503289Y-80933549D02*
G75*
G02*
X205627251Y-81057549I11J-123951D01*
G01*
X205317289Y-81057549D02*
G75*
G02*
X205441289Y-80933489I124011J49D01*
G01*
X205813289Y-82426450D02*
G75*
G03*
X205937350Y-82302450I11J124050D01*
G01*
X204883289Y-80933550D02*
G75*
G02*
X205007350Y-81057550I11J-124050D01*
G01*
X206371289Y-82426449D02*
X206433289Y-82426449D01*
X206247289Y-81057546D02*
X206247289Y-81780000D01*
X205441289Y-80933549D02*
X205503289Y-80933549D01*
X206681289Y-81780000D02*
X206743289Y-81780000D01*
X200590000Y-81370000D02*
X201000000Y-81780000D01*
X201000000Y-81780000D02*
X204573289Y-81780000D01*
X205751289Y-82426450D02*
X205813289Y-82426450D01*
X211035520Y-81780000D02*
X211899520Y-80916000D01*
X205627289Y-81780000D02*
X205627289Y-82302450D01*
X205007289Y-81656000D02*
X205007289Y-82302450D01*
X205317289Y-82302450D02*
X205317289Y-81780000D01*
X225560000Y-82300000D02*
X226700000Y-82300000D01*
X206743289Y-81780000D02*
X206956843Y-81780000D01*
X206557289Y-82302449D02*
X206557289Y-81904000D01*
X204697289Y-81656000D02*
X204697289Y-81057550D01*
X205317289Y-81780000D02*
X205317289Y-81057549D01*
X205007289Y-81057550D02*
X205007289Y-81656000D01*
X205131289Y-82426450D02*
X205193289Y-82426450D01*
X206247289Y-81780000D02*
X206247289Y-82302449D01*
X206061289Y-80933546D02*
X206123289Y-80933546D01*
X205627289Y-81057549D02*
X205627289Y-81780000D01*
X211899520Y-80916000D02*
X224176000Y-80916000D01*
X205937289Y-81780000D02*
X205937289Y-81057546D01*
X205937289Y-82302450D02*
X205937289Y-81780000D01*
X224176000Y-80916000D02*
X225560000Y-82300000D01*
X204821289Y-80933550D02*
X204883289Y-80933550D01*
X206956843Y-81780000D02*
X211035520Y-81780000D01*
%TO.N,FMC_A10*%
X221027000Y-71725000D02*
G75*
G02*
X221112000Y-71640000I85000J0D01*
G01*
X218772000Y-71640000D02*
G75*
G02*
X218857000Y-71725000I0J-85000D01*
G01*
X221647000Y-71725000D02*
G75*
G02*
X221732000Y-71640000I85000J0D01*
G01*
X218152000Y-71640000D02*
G75*
G02*
X218237000Y-71725000I0J-85000D01*
G01*
X220632000Y-71640000D02*
G75*
G02*
X220717000Y-71725000I0J-85000D01*
G01*
X217927000Y-71725000D02*
G75*
G02*
X218012000Y-71640000I85000J0D01*
G01*
X220407000Y-71725000D02*
G75*
G02*
X220492000Y-71640000I85000J0D01*
G01*
X218237000Y-72106000D02*
G75*
G03*
X218361000Y-72230000I124000J0D01*
G01*
X221957000Y-71725000D02*
G75*
G03*
X222042000Y-71810000I85000J0D01*
G01*
X221252000Y-71640000D02*
G75*
G02*
X221337000Y-71725000I0J-85000D01*
G01*
X217617000Y-72106000D02*
G75*
G03*
X217741000Y-72230000I124000J0D01*
G01*
X219787000Y-71725000D02*
G75*
G02*
X219872000Y-71640000I85000J0D01*
G01*
X221523000Y-72230000D02*
G75*
G03*
X221647000Y-72106000I0J124000D01*
G01*
X219392000Y-71640000D02*
G75*
G02*
X219477000Y-71725000I0J-85000D01*
G01*
X221337000Y-72106000D02*
G75*
G03*
X221461000Y-72230000I124000J0D01*
G01*
X219663000Y-72230000D02*
G75*
G03*
X219787000Y-72106000I0J124000D01*
G01*
X217803000Y-72230000D02*
G75*
G03*
X217927000Y-72106000I0J124000D01*
G01*
X220097000Y-72106000D02*
G75*
G03*
X220221000Y-72230000I124000J0D01*
G01*
X220012000Y-71640000D02*
G75*
G02*
X220097000Y-71725000I0J-85000D01*
G01*
X220903000Y-72230000D02*
G75*
G03*
X221027000Y-72106000I0J124000D01*
G01*
X221872000Y-71640000D02*
G75*
G02*
X221957000Y-71725000I0J-85000D01*
G01*
X216067000Y-71725000D02*
G75*
G02*
X216152000Y-71640000I85000J0D01*
G01*
X215943000Y-72230000D02*
G75*
G03*
X216067000Y-72106000I0J124000D01*
G01*
X216563000Y-72230000D02*
G75*
G03*
X216687000Y-72106000I0J124000D01*
G01*
X216377000Y-72106000D02*
G75*
G03*
X216501000Y-72230000I124000J0D01*
G01*
X220717000Y-72106000D02*
G75*
G03*
X220841000Y-72230000I124000J0D01*
G01*
X219167000Y-71725000D02*
G75*
G02*
X219252000Y-71640000I85000J0D01*
G01*
X218547000Y-71725000D02*
G75*
G02*
X218632000Y-71640000I85000J0D01*
G01*
X216292000Y-71640000D02*
G75*
G02*
X216377000Y-71725000I0J-85000D01*
G01*
X214517000Y-72106000D02*
G75*
G03*
X214641000Y-72230000I124000J0D01*
G01*
X215757000Y-72106000D02*
G75*
G03*
X215881000Y-72230000I124000J0D01*
G01*
X217532000Y-71640000D02*
G75*
G02*
X217617000Y-71725000I0J-85000D01*
G01*
X218423000Y-72230000D02*
G75*
G03*
X218547000Y-72106000I0J124000D01*
G01*
X215052000Y-71640000D02*
G75*
G02*
X215137000Y-71725000I0J-85000D01*
G01*
X215672000Y-71640000D02*
G75*
G02*
X215757000Y-71725000I0J-85000D01*
G01*
X219043000Y-72230000D02*
G75*
G03*
X219167000Y-72106000I0J124000D01*
G01*
X215447000Y-71725000D02*
G75*
G02*
X215532000Y-71640000I85000J0D01*
G01*
X220283000Y-72230000D02*
G75*
G03*
X220407000Y-72106000I0J124000D01*
G01*
X215323000Y-72230000D02*
G75*
G03*
X215447000Y-72106000I0J124000D01*
G01*
X214207000Y-71725000D02*
G75*
G02*
X214292000Y-71640000I85000J0D01*
G01*
X214703000Y-72230000D02*
G75*
G03*
X214827000Y-72106000I0J124000D01*
G01*
X214827000Y-71725000D02*
G75*
G02*
X214912000Y-71640000I85000J0D01*
G01*
X214122000Y-71810000D02*
G75*
G03*
X214207000Y-71725000I0J85000D01*
G01*
X215137000Y-72106000D02*
G75*
G03*
X215261000Y-72230000I124000J0D01*
G01*
X218857000Y-72106000D02*
G75*
G03*
X218981000Y-72230000I124000J0D01*
G01*
X214432000Y-71640000D02*
G75*
G02*
X214517000Y-71725000I0J-85000D01*
G01*
X216687000Y-71725000D02*
G75*
G02*
X216772000Y-71640000I85000J0D01*
G01*
X216912000Y-71640000D02*
G75*
G02*
X216997000Y-71725000I0J-85000D01*
G01*
X216997000Y-72106000D02*
G75*
G03*
X217121000Y-72230000I124000J0D01*
G01*
X219477000Y-72106000D02*
G75*
G03*
X219601000Y-72230000I124000J0D01*
G01*
X221647000Y-71810000D02*
X221647000Y-71725000D01*
X221732000Y-71640000D02*
X221872000Y-71640000D01*
X222504000Y-71810000D02*
X224472314Y-71810000D01*
X222182000Y-71810000D02*
X222504000Y-71810000D01*
X224472314Y-71810000D02*
X224474264Y-71808050D01*
X221337000Y-71810000D02*
X221337000Y-72106000D01*
X220717000Y-71810000D02*
X220717000Y-72106000D01*
X220097000Y-71725000D02*
X220097000Y-71810000D01*
X218857000Y-71725000D02*
X218857000Y-71810000D01*
X217927000Y-71810000D02*
X217927000Y-71725000D01*
X218632000Y-71640000D02*
X218772000Y-71640000D01*
X217307000Y-72106000D02*
X217307000Y-71810000D01*
X216152000Y-71640000D02*
X216292000Y-71640000D01*
X218857000Y-71810000D02*
X218857000Y-72106000D01*
X219787000Y-71810000D02*
X219787000Y-71725000D01*
X221337000Y-71725000D02*
X221337000Y-71810000D01*
X219477000Y-71725000D02*
X219477000Y-71810000D01*
X219252000Y-71640000D02*
X219392000Y-71640000D01*
X215447000Y-72106000D02*
X215447000Y-71810000D01*
X220492000Y-71640000D02*
X220632000Y-71640000D01*
X214517000Y-71810000D02*
X214517000Y-72106000D01*
X220097000Y-71810000D02*
X220097000Y-72106000D01*
X215757000Y-71810000D02*
X215757000Y-72106000D01*
X220221000Y-72230000D02*
X220283000Y-72230000D01*
X216501000Y-72230000D02*
X216563000Y-72230000D01*
X219872000Y-71640000D02*
X220012000Y-71640000D01*
X216377000Y-71725000D02*
X216377000Y-71810000D01*
X218237000Y-71810000D02*
X218237000Y-72106000D01*
X219167000Y-71810000D02*
X219167000Y-71725000D01*
X219787000Y-72106000D02*
X219787000Y-71810000D01*
X217617000Y-71810000D02*
X217617000Y-72106000D01*
X219477000Y-71810000D02*
X219477000Y-72106000D01*
X216687000Y-72106000D02*
X216687000Y-71810000D01*
X216997000Y-71725000D02*
X216997000Y-71810000D01*
X218981000Y-72230000D02*
X219043000Y-72230000D01*
X216687000Y-71810000D02*
X216687000Y-71725000D01*
X218237000Y-71725000D02*
X218237000Y-71810000D01*
X218012000Y-71640000D02*
X218152000Y-71640000D01*
X215261000Y-72230000D02*
X215323000Y-72230000D01*
X218547000Y-72106000D02*
X218547000Y-71810000D01*
X217392000Y-71640000D02*
X217532000Y-71640000D01*
X216772000Y-71640000D02*
X216912000Y-71640000D01*
X214912000Y-71640000D02*
X215052000Y-71640000D01*
X215881000Y-72230000D02*
X215943000Y-72230000D01*
X215137000Y-71810000D02*
X215137000Y-72106000D01*
X214827000Y-72106000D02*
X214827000Y-71810000D01*
X221112000Y-71640000D02*
X221252000Y-71640000D01*
X221027000Y-71810000D02*
X221027000Y-71725000D01*
X212100000Y-71800000D02*
X212110000Y-71810000D01*
X220407000Y-71810000D02*
X220407000Y-71725000D01*
X219167000Y-72106000D02*
X219167000Y-71810000D01*
X218547000Y-71810000D02*
X218547000Y-71725000D01*
X217741000Y-72230000D02*
X217803000Y-72230000D01*
X215532000Y-71640000D02*
X215672000Y-71640000D01*
X216067000Y-72106000D02*
X216067000Y-71810000D01*
X215447000Y-71810000D02*
X215447000Y-71725000D01*
X215757000Y-71725000D02*
X215757000Y-71810000D01*
X218361000Y-72230000D02*
X218423000Y-72230000D01*
X220841000Y-72230000D02*
X220903000Y-72230000D01*
X220407000Y-72106000D02*
X220407000Y-71810000D01*
X217617000Y-71725000D02*
X217617000Y-71810000D01*
X217307000Y-71810000D02*
X217307000Y-71725000D01*
X217121000Y-72230000D02*
X217183000Y-72230000D01*
X217927000Y-72106000D02*
X217927000Y-71810000D01*
X221027000Y-72106000D02*
X221027000Y-71810000D01*
X216997000Y-71810000D02*
X216997000Y-72106000D01*
X221461000Y-72230000D02*
X221523000Y-72230000D01*
X214641000Y-72230000D02*
X214703000Y-72230000D01*
X216067000Y-71810000D02*
X216067000Y-71725000D01*
X212110000Y-71810000D02*
X214122000Y-71810000D01*
X214827000Y-71810000D02*
X214827000Y-71725000D01*
X220717000Y-71725000D02*
X220717000Y-71810000D01*
X215137000Y-71725000D02*
X215137000Y-71810000D01*
X214517000Y-71725000D02*
X214517000Y-71810000D01*
X214292000Y-71640000D02*
X214432000Y-71640000D01*
X222042000Y-71810000D02*
X222182000Y-71810000D01*
X219601000Y-72230000D02*
X219663000Y-72230000D01*
X221647000Y-72106000D02*
X221647000Y-71810000D01*
X216377000Y-71810000D02*
X216377000Y-72106000D01*
X217307000Y-71725000D02*
G75*
G02*
X217392000Y-71640000I85000J0D01*
G01*
X217183000Y-72230000D02*
G75*
G03*
X217307000Y-72106000I0J124000D01*
G01*
%TO.N,FMC_A6*%
X205941156Y-69440000D02*
G75*
G03*
X206065200Y-69316000I44J124000D01*
G01*
X206375156Y-69316000D02*
G75*
G03*
X206499156Y-69440044I124044J0D01*
G01*
X206251156Y-68445848D02*
G75*
G02*
X206375152Y-68569848I44J-123952D01*
G01*
X206065156Y-68569848D02*
G75*
G02*
X206189156Y-68445756I124044J48D01*
G01*
X206499156Y-69440000D02*
X206561156Y-69440000D01*
X214730000Y-69440000D02*
X215630000Y-70340000D01*
X206189156Y-68445848D02*
X206251156Y-68445848D01*
X206561156Y-69440000D02*
X207876563Y-69440000D01*
X207876563Y-69440000D02*
X214730000Y-69440000D01*
X206375156Y-68569848D02*
X206375156Y-69316000D01*
X206065156Y-69316000D02*
X206065156Y-68569848D01*
X215630000Y-70340000D02*
X225530000Y-70340000D01*
X201700000Y-70080000D02*
X202340000Y-69440000D01*
X202340000Y-69440000D02*
X205941156Y-69440000D01*
%TO.N,FMC_D14*%
X211995774Y-88068662D02*
G75*
G02*
X211995733Y-88243980I-87674J-87638D01*
G01*
X211338166Y-87586413D02*
G75*
G02*
X211513526Y-87586413I87680J-87679D01*
G01*
X210704836Y-88044379D02*
G75*
G03*
X210880199Y-88044379I87682J87684D01*
G01*
X211557368Y-87630256D02*
G75*
G02*
X211557332Y-87805580I-87668J-87644D01*
G01*
X211581665Y-88921175D02*
G75*
G03*
X211757028Y-88921175I87682J87684D01*
G01*
X211537825Y-88701972D02*
G75*
G03*
X211537779Y-88877381I87675J-87728D01*
G01*
X211776571Y-88024819D02*
G75*
G02*
X211951934Y-88024819I87682J-87681D01*
G01*
X210899760Y-87148007D02*
G75*
G02*
X211075120Y-87148007I87680J-87679D01*
G01*
X211143252Y-88482776D02*
G75*
G03*
X211318613Y-88482776I87680J87683D01*
G01*
X212653384Y-88901631D02*
G75*
G02*
X212828744Y-88901631I87680J-87679D01*
G01*
X212011576Y-89105033D02*
G75*
G03*
X212011590Y-89280381I87724J-87667D01*
G01*
X212434180Y-88507068D02*
G75*
G02*
X212434133Y-88682380I-87680J-87632D01*
G01*
X211099411Y-88263574D02*
G75*
G03*
X211099367Y-88438981I87689J-87726D01*
G01*
X210680556Y-86753444D02*
G75*
G02*
X210680532Y-86928780I-87656J-87656D01*
G01*
X212214977Y-88463225D02*
G75*
G02*
X212390340Y-88463225I87682J-87681D01*
G01*
X212055416Y-89324235D02*
G75*
G03*
X212230779Y-89324235I87682J87684D01*
G01*
X210266430Y-87605973D02*
G75*
G03*
X210441793Y-87605973I87682J87684D01*
G01*
X211118962Y-87191850D02*
G75*
G02*
X211118932Y-87367180I-87662J-87650D01*
G01*
X210660996Y-87825177D02*
G75*
G03*
X210660954Y-88000581I87704J-87723D01*
G01*
X210222590Y-87386771D02*
G75*
G03*
X210222542Y-87562181I87710J-87729D01*
G01*
X211995775Y-88244023D02*
X211537825Y-88701972D01*
X201060000Y-86660000D02*
X210587114Y-86660000D01*
X211318614Y-88482777D02*
X211776571Y-88024819D01*
X200600000Y-86200000D02*
X201060000Y-86660000D01*
X211099411Y-88438937D02*
X211143251Y-88482777D01*
X211118963Y-87367211D02*
X210660996Y-87825177D01*
X211075121Y-87148006D02*
X211118963Y-87191849D01*
X212434181Y-88682429D02*
X212011576Y-89105033D01*
X210222590Y-87562133D02*
X210266430Y-87605973D01*
X210587114Y-86660000D02*
X210680557Y-86753443D01*
X212828745Y-88901630D02*
X212872587Y-88945473D01*
X211557369Y-87805617D02*
X211099411Y-88263574D01*
X210441793Y-87605973D02*
X210899759Y-87148006D01*
X210880199Y-88044379D02*
X211338165Y-87586412D01*
X210660996Y-88000539D02*
X210704836Y-88044379D01*
X211757028Y-88921175D02*
X212214977Y-88463225D01*
X211513527Y-87586412D02*
X211557369Y-87630255D01*
X211537825Y-88877335D02*
X211581665Y-88921175D01*
X223450000Y-89600000D02*
X223450000Y-91000000D01*
X222775000Y-91675000D02*
X222775000Y-92725000D01*
X212011576Y-89280395D02*
X212055416Y-89324235D01*
X223270000Y-89420000D02*
X223450000Y-89600000D01*
X212872587Y-88945473D02*
X212965801Y-89038687D01*
X213347114Y-89420000D02*
X223270000Y-89420000D01*
X210680557Y-86928805D02*
X210222590Y-87386771D01*
X212965801Y-89038687D02*
X213347114Y-89420000D01*
X212230779Y-89324235D02*
X212653383Y-88901630D01*
X211951934Y-88024819D02*
X211995775Y-88068661D01*
X223450000Y-91000000D02*
X222775000Y-91675000D01*
X212390340Y-88463225D02*
X212434181Y-88507067D01*
%TO.N,FMC_A8*%
X205356000Y-70810140D02*
G75*
G02*
X205480000Y-70686100I124000J40D01*
G01*
X205232000Y-71000000D02*
G75*
G03*
X205356000Y-70876000I0J124000D01*
G01*
X205542000Y-70686140D02*
G75*
G02*
X205665960Y-70810140I0J-123960D01*
G01*
X205666000Y-70876000D02*
G75*
G03*
X205790000Y-71000000I124000J0D01*
G01*
X200500000Y-71750000D02*
X201152886Y-71750000D01*
X211465520Y-71000000D02*
X211949520Y-70516000D01*
X211949520Y-70516000D02*
X212350480Y-70516000D01*
X205480000Y-70686140D02*
X205542000Y-70686140D01*
X205666000Y-70810140D02*
X205666000Y-70876000D01*
X212350480Y-70516000D02*
X213150632Y-71316152D01*
X213150632Y-71316152D02*
X224824771Y-71316152D01*
X205356000Y-70876000D02*
X205356000Y-70810140D01*
X205852000Y-71000000D02*
X209133463Y-71000000D01*
X205790000Y-71000000D02*
X205852000Y-71000000D01*
X201902886Y-71000000D02*
X205232000Y-71000000D01*
X209133463Y-71000000D02*
X211465520Y-71000000D01*
X201152886Y-71750000D02*
X201902886Y-71000000D01*
%TO.N,FMC_SDNE0*%
X218272247Y-68630073D02*
X218077085Y-68434911D01*
X217676867Y-67596284D02*
X218296293Y-68215710D01*
X218666815Y-68410869D02*
X218710655Y-68367028D01*
X218334479Y-66763308D02*
X218378319Y-66719469D01*
X217896071Y-67201716D02*
X217939911Y-67157877D01*
X218296293Y-68215710D02*
X218491453Y-68410869D01*
X217770205Y-68566437D02*
X218053045Y-68849277D01*
X219105223Y-67972461D02*
X219149063Y-67928620D01*
X218953901Y-67558095D02*
X218334478Y-66938672D01*
X217019256Y-68078532D02*
X217063098Y-68034691D01*
X217457663Y-67640124D02*
X217501503Y-67596285D01*
X218077085Y-68434911D02*
X217457662Y-67815488D01*
X217080000Y-69090000D02*
X217422000Y-69090000D01*
X218553683Y-66719468D02*
X219173109Y-67338894D01*
X218228407Y-68849277D02*
X218272247Y-68805436D01*
X219523832Y-66988167D02*
X219630174Y-66881826D01*
X217551000Y-68785638D02*
X217019256Y-68253894D01*
X217238460Y-68034692D02*
X217770205Y-68566437D01*
X217422000Y-69090000D02*
X217551000Y-68961000D01*
X218710655Y-68191665D02*
X218515493Y-67996503D01*
X219173109Y-67338894D02*
X219368269Y-67534053D01*
X219630174Y-66881826D02*
X222275000Y-64237000D01*
X218734701Y-67777302D02*
X218929861Y-67972461D01*
X219543631Y-67534053D02*
X219587471Y-67490212D01*
X219149063Y-67753257D02*
X218953901Y-67558095D01*
X218115275Y-67157876D02*
X218734701Y-67777302D01*
X218515493Y-67996503D02*
X217896070Y-67377080D01*
X222275000Y-64237000D02*
X222275000Y-63375000D01*
X219479990Y-67032006D02*
X219523832Y-66988167D01*
X219587471Y-67314849D02*
X219479990Y-67207368D01*
X219479991Y-67207367D02*
G75*
G02*
X219480004Y-67032020I87709J87667D01*
G01*
X217501503Y-67596285D02*
G75*
G02*
X217676881Y-67596270I87697J-87715D01*
G01*
X217896070Y-67377080D02*
G75*
G02*
X217896073Y-67201718I87730J87680D01*
G01*
X219149063Y-67928620D02*
G75*
G03*
X219149101Y-67753219I-87663J87720D01*
G01*
X218053046Y-68849276D02*
G75*
G03*
X218228406Y-68849276I87680J87679D01*
G01*
X217551000Y-68961000D02*
G75*
G03*
X217551019Y-68785619I-87700J87700D01*
G01*
X217457662Y-67815488D02*
G75*
G02*
X217457657Y-67640118I87638J87688D01*
G01*
X217019256Y-68253894D02*
G75*
G02*
X217019243Y-68078519I87644J87694D01*
G01*
X218272246Y-68805435D02*
G75*
G03*
X218272201Y-68630119I-87646J87635D01*
G01*
X217063098Y-68034691D02*
G75*
G02*
X217238481Y-68034671I87702J-87709D01*
G01*
X218710655Y-68367028D02*
G75*
G03*
X218710701Y-68191619I-87655J87728D01*
G01*
X219587471Y-67490212D02*
G75*
G03*
X219587501Y-67314819I-87671J87712D01*
G01*
X219368270Y-67534052D02*
G75*
G03*
X219543630Y-67534052I87680J87679D01*
G01*
X218378319Y-66719469D02*
G75*
G02*
X218553681Y-66719470I87681J-87631D01*
G01*
X218334478Y-66938672D02*
G75*
G02*
X218334489Y-66763318I87722J87672D01*
G01*
X218491454Y-68410868D02*
G75*
G03*
X218666814Y-68410868I87680J87679D01*
G01*
X218929862Y-67972460D02*
G75*
G03*
X219105222Y-67972460I87680J87679D01*
G01*
X217939911Y-67157877D02*
G75*
G02*
X218115281Y-67157870I87689J-87723D01*
G01*
%TO.N,FMC_SDCKE0*%
X207320000Y-74119044D02*
G75*
G02*
X207443956Y-74243044I0J-123956D01*
G01*
X207134000Y-74243044D02*
G75*
G02*
X207258000Y-74119000I124000J44D01*
G01*
X207444000Y-74876000D02*
G75*
G03*
X207568000Y-75000000I124000J0D01*
G01*
X207010000Y-75000000D02*
G75*
G03*
X207134000Y-74876000I0J124000D01*
G01*
X201820000Y-75000000D02*
X207010000Y-75000000D01*
X208280000Y-75000000D02*
X214510000Y-75000000D01*
X207630000Y-75000000D02*
X208280000Y-75000000D01*
X214510000Y-75000000D02*
X214620000Y-75110000D01*
X207258000Y-74119044D02*
X207320000Y-74119044D01*
X207568000Y-75000000D02*
X207630000Y-75000000D01*
X207444000Y-74243044D02*
X207444000Y-74876000D01*
X207134000Y-74876000D02*
X207134000Y-74243044D01*
X201600000Y-74780000D02*
X201820000Y-75000000D01*
X221775000Y-64058414D02*
X221775000Y-63375000D01*
X217808000Y-66164000D02*
X219669414Y-66164000D01*
X216052000Y-67920000D02*
X217808000Y-66164000D01*
X214680000Y-67920000D02*
X216052000Y-67920000D01*
X219669414Y-66164000D02*
X221775000Y-64058414D01*
%TO.N,FMC_SDCLK*%
X199073000Y-78826000D02*
G75*
G02*
X199197000Y-78702000I124000J0D01*
G01*
X199900000Y-79136000D02*
G75*
G03*
X199776000Y-79012000I-124000J0D01*
G01*
X199776000Y-78702000D02*
G75*
G03*
X199900000Y-78578000I0J124000D01*
G01*
X199900000Y-79756000D02*
G75*
G03*
X199776000Y-79632000I-124000J0D01*
G01*
X199073000Y-79446000D02*
G75*
G02*
X199197000Y-79322000I124000J0D01*
G01*
X199197000Y-79632000D02*
G75*
G02*
X199073000Y-79508000I0J124000D01*
G01*
X199197000Y-79012000D02*
G75*
G02*
X199073000Y-78888000I0J124000D01*
G01*
X199776000Y-79322000D02*
G75*
G03*
X199900000Y-79198000I0J124000D01*
G01*
X199073000Y-79508000D02*
X199073000Y-79446000D01*
X199900000Y-76500000D02*
X200600000Y-75800000D01*
X199900000Y-82296000D02*
X199900000Y-79756000D01*
X199073000Y-78888000D02*
X199073000Y-78826000D01*
X199197000Y-78702000D02*
X199776000Y-78702000D01*
X199900000Y-78516000D02*
X199900000Y-77949002D01*
X199900000Y-77949002D02*
X199900000Y-76500000D01*
X199900000Y-78578000D02*
X199900000Y-78516000D01*
X199900000Y-79198000D02*
X199900000Y-79136000D01*
X199197000Y-79322000D02*
X199776000Y-79322000D01*
X199776000Y-79632000D02*
X199197000Y-79632000D01*
X199776000Y-79012000D02*
X199197000Y-79012000D01*
X199776000Y-84402000D02*
G75*
G03*
X199900000Y-84278000I0J124000D01*
G01*
X199024000Y-82852000D02*
G75*
G02*
X198900000Y-82728000I0J124000D01*
G01*
X198900000Y-83286000D02*
G75*
G02*
X199024000Y-83162000I124000J0D01*
G01*
X198900000Y-82666000D02*
G75*
G02*
X199024000Y-82542000I124000J0D01*
G01*
X199776000Y-83162000D02*
G75*
G03*
X199900000Y-83038000I0J124000D01*
G01*
X199024000Y-83472000D02*
G75*
G02*
X198900000Y-83348000I0J124000D01*
G01*
X199900000Y-83596000D02*
G75*
G03*
X199776000Y-83472000I-124000J0D01*
G01*
X198900000Y-83906000D02*
G75*
G02*
X199024000Y-83782000I124000J0D01*
G01*
X199900000Y-84836000D02*
G75*
G03*
X199776000Y-84712000I-124000J0D01*
G01*
X199024000Y-84712000D02*
G75*
G02*
X198900000Y-84588000I0J124000D01*
G01*
X199900000Y-82976000D02*
G75*
G03*
X199776000Y-82852000I-124000J0D01*
G01*
X199776000Y-83782000D02*
G75*
G03*
X199900000Y-83658000I0J124000D01*
G01*
X198900000Y-84526000D02*
G75*
G02*
X199024000Y-84402000I124000J0D01*
G01*
X199024000Y-84092000D02*
G75*
G02*
X198900000Y-83968000I0J124000D01*
G01*
X199900000Y-84216000D02*
G75*
G03*
X199776000Y-84092000I-124000J0D01*
G01*
X199776000Y-82542000D02*
G75*
G03*
X199900000Y-82418000I0J124000D01*
G01*
X199024000Y-83162000D02*
X199776000Y-83162000D01*
X199900000Y-82356000D02*
X199900000Y-82296000D01*
X199900000Y-82418000D02*
X199900000Y-82356000D01*
X199776000Y-84092000D02*
X199024000Y-84092000D01*
X199776000Y-82852000D02*
X199024000Y-82852000D01*
X198900000Y-84588000D02*
X198900000Y-84526000D01*
X210014000Y-91214000D02*
X208200000Y-89400000D01*
X199900000Y-87834480D02*
X199900000Y-84836000D01*
X209775000Y-92039480D02*
X210014000Y-91800480D01*
X198900000Y-83348000D02*
X198900000Y-83286000D01*
X199900000Y-83038000D02*
X199900000Y-82976000D01*
X200349520Y-88284000D02*
X199900000Y-87834480D01*
X199900000Y-83658000D02*
X199900000Y-83596000D01*
X208200000Y-89400000D02*
X205600000Y-89400000D01*
X199776000Y-84712000D02*
X199024000Y-84712000D01*
X198900000Y-83968000D02*
X198900000Y-83906000D01*
X210014000Y-91800480D02*
X210014000Y-91214000D01*
X199024000Y-82542000D02*
X199776000Y-82542000D01*
X198900000Y-82728000D02*
X198900000Y-82666000D01*
X205600000Y-89400000D02*
X204484000Y-88284000D01*
X199900000Y-84278000D02*
X199900000Y-84216000D01*
X199024000Y-83782000D02*
X199776000Y-83782000D01*
X199024000Y-84402000D02*
X199776000Y-84402000D01*
X199776000Y-83472000D02*
X199024000Y-83472000D01*
X209775000Y-92725000D02*
X209775000Y-92039480D01*
X204484000Y-88284000D02*
X200349520Y-88284000D01*
%TO.N,FMC_D7*%
X224766000Y-79732000D02*
X216384000Y-79732000D01*
X225834000Y-80800000D02*
X224766000Y-79732000D01*
X226700000Y-80800000D02*
X225834000Y-80800000D01*
X216384000Y-79732000D02*
X216154000Y-79502000D01*
%TO.N,FMC_D1*%
X218197480Y-90932000D02*
X217678000Y-90932000D01*
X218775000Y-91509520D02*
X218197480Y-90932000D01*
X218775000Y-92725000D02*
X218775000Y-91509520D01*
D19*
%TO.N,GND*%
X216275000Y-91975001D02*
X216275000Y-92725000D01*
X217300000Y-91440000D02*
X216810001Y-91440000D01*
X216810001Y-91440000D02*
X216275000Y-91975001D01*
%TO.N,VDDSDMMC_STM32*%
X218275000Y-91694000D02*
X218275000Y-92725000D01*
D21*
%TO.N,FMC_D0*%
X218200000Y-90400000D02*
X218180000Y-90380000D01*
X219275000Y-92725000D02*
X219275000Y-91111178D01*
X219275000Y-91111178D02*
X218563822Y-90400000D01*
X218563822Y-90400000D02*
X218200000Y-90400000D01*
%TO.N,FMC_D1*%
X218775000Y-92725000D02*
X218784000Y-92716000D01*
%TO.N,FMC_SDNCAS*%
X206046000Y-75874000D02*
G75*
G03*
X205922000Y-75750000I-124000J0D01*
G01*
X206170000Y-76749339D02*
G75*
G02*
X206045961Y-76625339I0J124039D01*
G01*
X206356000Y-76625339D02*
G75*
G02*
X206232000Y-76749300I-124000J39D01*
G01*
X206480000Y-75350685D02*
G75*
G03*
X206355985Y-75474685I0J-124015D01*
G01*
X207410000Y-76749339D02*
G75*
G02*
X207285961Y-76625339I0J124039D01*
G01*
X207100000Y-75350685D02*
G75*
G03*
X206975985Y-75474685I0J-124015D01*
G01*
X206666000Y-75474685D02*
G75*
G03*
X206542000Y-75350700I-124000J-15D01*
G01*
X207286000Y-75474685D02*
G75*
G03*
X207162000Y-75350700I-124000J-15D01*
G01*
X207596000Y-76625339D02*
G75*
G02*
X207472000Y-76749300I-124000J39D01*
G01*
X208836000Y-76625315D02*
G75*
G02*
X208712000Y-76749300I-124000J15D01*
G01*
X206976000Y-76625339D02*
G75*
G02*
X206852000Y-76749300I-124000J39D01*
G01*
X210510000Y-76749339D02*
G75*
G02*
X210385961Y-76625339I0J124039D01*
G01*
X208030000Y-76749315D02*
G75*
G02*
X207905985Y-76625315I0J124015D01*
G01*
X209456000Y-76625315D02*
G75*
G02*
X209332000Y-76749300I-124000J15D01*
G01*
X210200000Y-75350661D02*
G75*
G03*
X210075961Y-75474661I0J-124039D01*
G01*
X208960000Y-75350661D02*
G75*
G03*
X208835961Y-75474661I0J-124039D01*
G01*
X209146000Y-75474661D02*
G75*
G03*
X209022000Y-75350700I-124000J-39D01*
G01*
X209580000Y-75350661D02*
G75*
G03*
X209455961Y-75474661I0J-124039D01*
G01*
X210076000Y-76625315D02*
G75*
G02*
X209952000Y-76749300I-124000J15D01*
G01*
X209766000Y-75474661D02*
G75*
G03*
X209642000Y-75350700I-124000J-39D01*
G01*
X210820000Y-75750000D02*
G75*
G03*
X210696000Y-75874000I0J-124000D01*
G01*
X209270000Y-76749315D02*
G75*
G02*
X209145985Y-76625315I0J124015D01*
G01*
X207720000Y-75350661D02*
G75*
G03*
X207595961Y-75474661I0J-124039D01*
G01*
X207906000Y-75474661D02*
G75*
G03*
X207782000Y-75350700I-124000J-39D01*
G01*
X208216000Y-76625315D02*
G75*
G02*
X208092000Y-76749300I-124000J15D01*
G01*
X210386000Y-75474661D02*
G75*
G03*
X210262000Y-75350700I-124000J-39D01*
G01*
X210696000Y-76625339D02*
G75*
G02*
X210572000Y-76749300I-124000J39D01*
G01*
X208340000Y-75350661D02*
G75*
G03*
X208215961Y-75474661I0J-124039D01*
G01*
X209890000Y-76749315D02*
G75*
G02*
X209765985Y-76625315I0J124015D01*
G01*
X206790000Y-76749339D02*
G75*
G02*
X206665961Y-76625339I0J124039D01*
G01*
X208526000Y-75474661D02*
G75*
G03*
X208402000Y-75350700I-124000J-39D01*
G01*
X208650000Y-76749315D02*
G75*
G02*
X208525985Y-76625315I0J124015D01*
G01*
X199284480Y-73800000D02*
X197350000Y-73800000D01*
X206356000Y-75474685D02*
X206356000Y-75750000D01*
X206666000Y-76625339D02*
X206666000Y-75750000D01*
X206666000Y-75750000D02*
X206666000Y-75474685D01*
X206356000Y-75750000D02*
X206356000Y-76625339D01*
X206542000Y-75350685D02*
X206480000Y-75350685D01*
X205860000Y-75750000D02*
X205168421Y-75750000D01*
X205168421Y-75750000D02*
X201234480Y-75750000D01*
X206232000Y-76749339D02*
X206170000Y-76749339D01*
X206046000Y-76625339D02*
X206046000Y-75874000D01*
X205922000Y-75750000D02*
X205860000Y-75750000D01*
X201234480Y-75750000D02*
X199284480Y-73800000D01*
X208836000Y-75750000D02*
X208836000Y-76625315D01*
X208092000Y-76749315D02*
X208030000Y-76749315D01*
X209022000Y-75350661D02*
X208960000Y-75350661D01*
X209146000Y-75750000D02*
X209146000Y-75474661D01*
X208712000Y-76749315D02*
X208650000Y-76749315D01*
X210386000Y-75874000D02*
X210386000Y-75474661D01*
X207906000Y-76625315D02*
X207906000Y-75750000D01*
X209952000Y-76749315D02*
X209890000Y-76749315D01*
X207596000Y-75474661D02*
X207596000Y-75750000D01*
X206976000Y-75750000D02*
X206976000Y-76625339D01*
X210262000Y-75350661D02*
X210200000Y-75350661D01*
X207162000Y-75350685D02*
X207100000Y-75350685D01*
X207286000Y-75750000D02*
X207286000Y-75474685D01*
X207596000Y-75750000D02*
X207596000Y-76625339D01*
X208402000Y-75350661D02*
X208340000Y-75350661D01*
X209146000Y-76625315D02*
X209146000Y-75750000D01*
X209456000Y-75474661D02*
X209456000Y-75750000D01*
X207782000Y-75350661D02*
X207720000Y-75350661D01*
X208836000Y-75474661D02*
X208836000Y-75750000D01*
X210386000Y-76625339D02*
X210386000Y-75874000D01*
X208216000Y-75474661D02*
X208216000Y-75750000D01*
X209766000Y-75750000D02*
X209766000Y-75474661D01*
X210076000Y-75474661D02*
X210076000Y-75750000D01*
X206852000Y-76749339D02*
X206790000Y-76749339D01*
X206976000Y-75474685D02*
X206976000Y-75750000D01*
X209766000Y-76625315D02*
X209766000Y-75750000D01*
X209642000Y-75350661D02*
X209580000Y-75350661D01*
X210696000Y-75874000D02*
X210696000Y-76625339D01*
X207286000Y-76625339D02*
X207286000Y-75750000D01*
X207472000Y-76749339D02*
X207410000Y-76749339D01*
X210076000Y-75750000D02*
X210076000Y-76625315D01*
X210572000Y-76749339D02*
X210510000Y-76749339D01*
X208216000Y-75750000D02*
X208216000Y-76625315D01*
X212100000Y-75800000D02*
X212050000Y-75750000D01*
X212050000Y-75750000D02*
X210820000Y-75750000D01*
X208526000Y-76625315D02*
X208526000Y-75750000D01*
X207906000Y-75750000D02*
X207906000Y-75474661D01*
X209332000Y-76749315D02*
X209270000Y-76749315D01*
X209456000Y-75750000D02*
X209456000Y-76625315D01*
X208526000Y-75750000D02*
X208526000Y-75474661D01*
%TO.N,FMC_D6*%
X216968000Y-79300000D02*
X226700000Y-79300000D01*
X216916000Y-79248000D02*
X216968000Y-79300000D01*
%TO.N,FMC_A7*%
X204629671Y-70536505D02*
G75*
G03*
X204753705Y-70412505I29J124005D01*
G01*
X204443671Y-70412505D02*
G75*
G03*
X204567671Y-70536529I124029J5D01*
G01*
X204753671Y-70354000D02*
G75*
G02*
X204877671Y-70229971I124029J0D01*
G01*
X204319671Y-69923495D02*
G75*
G02*
X204443705Y-70047495I29J-124005D01*
G01*
X204133671Y-70047495D02*
G75*
G02*
X204257671Y-69923471I124029J-5D01*
G01*
X204009671Y-70230000D02*
G75*
G03*
X204133700Y-70106000I29J124000D01*
G01*
X204443671Y-70047495D02*
X204443671Y-70106000D01*
X204133671Y-70106000D02*
X204133671Y-70047495D01*
X204257671Y-69923495D02*
X204319671Y-69923495D01*
X213092886Y-70820000D02*
X225180013Y-70820000D01*
X205250695Y-70230000D02*
X211797114Y-70230000D01*
X204877671Y-70230000D02*
X204939671Y-70230000D01*
X204567671Y-70536505D02*
X204629671Y-70536505D01*
X201464480Y-71000000D02*
X202234480Y-70230000D01*
X204443671Y-70106000D02*
X204443671Y-70412505D01*
X200600000Y-71000000D02*
X201464480Y-71000000D01*
X211797114Y-70230000D02*
X211821114Y-70206000D01*
X225180013Y-70820000D02*
X225215951Y-70855938D01*
X212478886Y-70206000D02*
X213092886Y-70820000D01*
X204753671Y-70412505D02*
X204753671Y-70354000D01*
X211821114Y-70206000D02*
X212478886Y-70206000D01*
X204939671Y-70230000D02*
X205250695Y-70230000D01*
X202234480Y-70230000D02*
X204009671Y-70230000D01*
%TO.N,FMC_A11*%
X201750000Y-73660000D02*
X201650000Y-73560000D01*
X203950574Y-73660000D02*
X201750000Y-73660000D01*
X212801594Y-73060000D02*
X212201594Y-73660000D01*
X206136000Y-73660000D02*
X203950574Y-73660000D01*
X206198000Y-73660000D02*
X206136000Y-73660000D01*
X206322000Y-74267847D02*
X206322000Y-73784000D01*
X212201594Y-73660000D02*
X206756000Y-73660000D01*
X223570000Y-73060000D02*
X212801594Y-73060000D01*
X206632000Y-73784000D02*
X206632000Y-74267847D01*
X206508000Y-74391847D02*
X206446000Y-74391847D01*
X206632000Y-74267847D02*
G75*
G02*
X206508000Y-74391800I-124000J47D01*
G01*
X206756000Y-73660000D02*
G75*
G03*
X206632000Y-73784000I0J-124000D01*
G01*
X206322000Y-73784000D02*
G75*
G03*
X206198000Y-73660000I-124000J0D01*
G01*
X206446000Y-74391847D02*
G75*
G02*
X206321953Y-74267847I0J124047D01*
G01*
%TO.N,FMC_D4*%
X218676000Y-77441653D02*
G75*
G02*
X218800000Y-77317700I124000J-47D01*
G01*
X219792000Y-78932351D02*
G75*
G03*
X219915951Y-78808351I0J123951D01*
G01*
X220102000Y-77317650D02*
G75*
G02*
X220226050Y-77441650I0J-124050D01*
G01*
X218862000Y-77317653D02*
G75*
G02*
X218986047Y-77441653I0J-124047D01*
G01*
X219172000Y-78932348D02*
G75*
G03*
X219296048Y-78808348I0J124048D01*
G01*
X220226000Y-78808352D02*
G75*
G03*
X220350000Y-78932400I124000J-48D01*
G01*
X219482000Y-77317650D02*
G75*
G02*
X219606050Y-77441650I0J-124050D01*
G01*
X218986000Y-78808348D02*
G75*
G03*
X219110000Y-78932300I124000J48D01*
G01*
X219606000Y-78808351D02*
G75*
G03*
X219730000Y-78932400I124000J-49D01*
G01*
X218552000Y-78932345D02*
G75*
G03*
X218676045Y-78808345I0J124045D01*
G01*
X220412000Y-78932352D02*
G75*
G03*
X220535952Y-78808352I0J123952D01*
G01*
X219916000Y-77441650D02*
G75*
G02*
X220040000Y-77317700I124000J-50D01*
G01*
X220536000Y-78424000D02*
G75*
G02*
X220660000Y-78300000I124000J0D01*
G01*
X218366000Y-78808345D02*
G75*
G03*
X218490000Y-78932300I124000J45D01*
G01*
X219296000Y-77441650D02*
G75*
G02*
X219420000Y-77317700I124000J-50D01*
G01*
X218242000Y-77317653D02*
G75*
G02*
X218366047Y-77441653I0J-124047D01*
G01*
X217932000Y-78300000D02*
G75*
G03*
X218056000Y-78176000I0J124000D01*
G01*
X218056000Y-77441653D02*
G75*
G02*
X218180000Y-77317700I124000J-47D01*
G01*
X219916000Y-78808351D02*
X219916000Y-78300000D01*
X220226000Y-77441650D02*
X220226000Y-78300000D01*
X218180000Y-77317653D02*
X218242000Y-77317653D01*
X218056000Y-78176000D02*
X218056000Y-77441653D01*
X220660000Y-78300000D02*
X220722000Y-78300000D01*
X219606000Y-77441650D02*
X219606000Y-78300000D01*
X219296000Y-78300000D02*
X219296000Y-77441650D01*
X220040000Y-77317650D02*
X220102000Y-77317650D01*
X220722000Y-78300000D02*
X220980000Y-78300000D01*
X218800000Y-77317653D02*
X218862000Y-77317653D01*
X217540000Y-78320000D02*
X217560000Y-78300000D01*
X218366000Y-78176000D02*
X218366000Y-78808345D01*
X220350000Y-78932352D02*
X220412000Y-78932352D01*
X220980000Y-78300000D02*
X226700000Y-78300000D01*
X219110000Y-78932348D02*
X219172000Y-78932348D01*
X218986000Y-77441653D02*
X218986000Y-78300000D01*
X219606000Y-78300000D02*
X219606000Y-78808351D01*
X218366000Y-77441653D02*
X218366000Y-78176000D01*
X220226000Y-78300000D02*
X220226000Y-78808352D01*
X219916000Y-78300000D02*
X219916000Y-77441650D01*
X217560000Y-78300000D02*
X217932000Y-78300000D01*
X218490000Y-78932345D02*
X218552000Y-78932345D01*
X219296000Y-78808348D02*
X219296000Y-78300000D01*
X218986000Y-78300000D02*
X218986000Y-78808348D01*
X218676000Y-78808345D02*
X218676000Y-78300000D01*
X219420000Y-77317650D02*
X219482000Y-77317650D01*
X219730000Y-78932351D02*
X219792000Y-78932351D01*
X220536000Y-78808352D02*
X220536000Y-78424000D01*
X218676000Y-78300000D02*
X218676000Y-77441653D01*
X212350000Y-83250000D02*
X218080000Y-83250000D01*
X212100000Y-83000000D02*
X212350000Y-83250000D01*
%TO.N,FMC_D8*%
X205890000Y-79286000D02*
G75*
G03*
X206014000Y-79410000I124000J0D01*
G01*
X204340000Y-78558513D02*
G75*
G02*
X204464000Y-78434500I124000J13D01*
G01*
X205580000Y-78558513D02*
G75*
G02*
X205704000Y-78434500I124000J13D01*
G01*
X204960000Y-78558513D02*
G75*
G02*
X205084000Y-78434500I124000J13D01*
G01*
X204216000Y-79410000D02*
G75*
G03*
X204340000Y-79286000I0J124000D01*
G01*
X205456000Y-80185463D02*
G75*
G03*
X205579963Y-80061463I0J123963D01*
G01*
X204650000Y-80061463D02*
G75*
G03*
X204774000Y-80185500I124000J-37D01*
G01*
X205270000Y-80061463D02*
G75*
G03*
X205394000Y-80185500I124000J-37D01*
G01*
X204526000Y-78434513D02*
G75*
G02*
X204649987Y-78558513I0J-123987D01*
G01*
X205766000Y-78434513D02*
G75*
G02*
X205889987Y-78558513I0J-123987D01*
G01*
X205146000Y-78434513D02*
G75*
G02*
X205269987Y-78558513I0J-123987D01*
G01*
X204836000Y-80185463D02*
G75*
G03*
X204959963Y-80061463I0J123963D01*
G01*
X204960000Y-80061463D02*
X204960000Y-79410000D01*
X204650000Y-78558513D02*
X204650000Y-79286000D01*
X204464000Y-78434513D02*
X204526000Y-78434513D01*
X205394000Y-80185463D02*
X205456000Y-80185463D01*
X205270000Y-79410000D02*
X205270000Y-80061463D01*
X204650000Y-79286000D02*
X204650000Y-80061463D01*
X204774000Y-80185463D02*
X204836000Y-80185463D01*
X207010000Y-79410000D02*
X211805520Y-79410000D01*
X204960000Y-79410000D02*
X204960000Y-78558513D01*
X204340000Y-79286000D02*
X204340000Y-78558513D01*
X212300480Y-79316000D02*
X213174480Y-80190000D01*
X206076000Y-79410000D02*
X207010000Y-79410000D01*
X205084000Y-78434513D02*
X205146000Y-78434513D01*
X211805520Y-79410000D02*
X211899520Y-79316000D01*
X224610000Y-80190000D02*
X225720000Y-81300000D01*
X211899520Y-79316000D02*
X212300480Y-79316000D01*
X213174480Y-80190000D02*
X224610000Y-80190000D01*
X205580000Y-79410000D02*
X205580000Y-78558513D01*
X206014000Y-79410000D02*
X206076000Y-79410000D01*
X205270000Y-78558513D02*
X205270000Y-79410000D01*
X225720000Y-81300000D02*
X226700000Y-81300000D01*
X205890000Y-78558513D02*
X205890000Y-79286000D01*
X201030000Y-79410000D02*
X204216000Y-79410000D01*
X200610000Y-78990000D02*
X201030000Y-79410000D01*
X205704000Y-78434513D02*
X205766000Y-78434513D01*
X205580000Y-80061463D02*
X205580000Y-79410000D01*
%TO.N,FMC_D13*%
X203350000Y-85306000D02*
G75*
G03*
X203474000Y-85430000I124000J0D01*
G01*
X202606000Y-84595382D02*
G75*
G02*
X202730018Y-84719382I0J-124018D01*
G01*
X203846000Y-84595382D02*
G75*
G02*
X203970018Y-84719382I0J-124018D01*
G01*
X203660000Y-84719382D02*
G75*
G02*
X203784000Y-84595400I124000J-18D01*
G01*
X201986000Y-84595382D02*
G75*
G02*
X202110018Y-84719382I0J-124018D01*
G01*
X203970000Y-85306000D02*
G75*
G03*
X204094000Y-85430000I124000J0D01*
G01*
X203040000Y-84719382D02*
G75*
G02*
X203164000Y-84595400I124000J-18D01*
G01*
X202420000Y-84719382D02*
G75*
G02*
X202544000Y-84595400I124000J-18D01*
G01*
X202296000Y-85430000D02*
G75*
G03*
X202420000Y-85306000I0J124000D01*
G01*
X203226000Y-84595382D02*
G75*
G02*
X203350018Y-84719382I0J-124018D01*
G01*
X202916000Y-85430000D02*
G75*
G03*
X203040000Y-85306000I0J124000D01*
G01*
X202110000Y-85306000D02*
G75*
G03*
X202234000Y-85430000I124000J0D01*
G01*
X202730000Y-85306000D02*
G75*
G03*
X202854000Y-85430000I124000J0D01*
G01*
X201800000Y-84719382D02*
G75*
G02*
X201924000Y-84595400I124000J-18D01*
G01*
X203536000Y-85430000D02*
G75*
G03*
X203660000Y-85306000I0J124000D01*
G01*
X201676000Y-85430000D02*
G75*
G03*
X201800000Y-85306000I0J124000D01*
G01*
X202854000Y-85430000D02*
X202916000Y-85430000D01*
X202234000Y-85430000D02*
X202296000Y-85430000D01*
X202544000Y-84595382D02*
X202606000Y-84595382D01*
X201924000Y-84595382D02*
X201986000Y-84595382D01*
X202420000Y-85306000D02*
X202420000Y-84719382D01*
X223850000Y-91046074D02*
X223275000Y-91621074D01*
X223460000Y-89110000D02*
X223850000Y-89500000D01*
X200650000Y-85400000D02*
X200680000Y-85430000D01*
X204216000Y-85430000D02*
X209795520Y-85430000D01*
X213475520Y-89110000D02*
X223460000Y-89110000D01*
X204094000Y-85430000D02*
X204156000Y-85430000D01*
X203474000Y-85430000D02*
X203536000Y-85430000D01*
X202730000Y-84719382D02*
X202730000Y-85306000D01*
X204156000Y-85430000D02*
X204216000Y-85430000D01*
X203970000Y-84719382D02*
X203970000Y-85306000D01*
X203164000Y-84595382D02*
X203226000Y-84595382D01*
X203784000Y-84595382D02*
X203846000Y-84595382D01*
X203660000Y-85306000D02*
X203660000Y-84719382D01*
X209795520Y-85430000D02*
X213475520Y-89110000D01*
X203040000Y-85306000D02*
X203040000Y-84719382D01*
X203350000Y-84719382D02*
X203350000Y-85306000D01*
X223275000Y-91621074D02*
X223275000Y-92725000D01*
X201800000Y-85306000D02*
X201800000Y-84719382D01*
X202110000Y-84719382D02*
X202110000Y-85306000D01*
X223850000Y-89500000D02*
X223850000Y-91046074D01*
X200680000Y-85430000D02*
X201676000Y-85430000D01*
%TO.N,FMC_D12*%
X205250000Y-84564089D02*
G75*
G02*
X205126000Y-84688100I-124000J-11D01*
G01*
X204134000Y-83201904D02*
G75*
G03*
X204010004Y-83325904I0J-123996D01*
G01*
X204320000Y-83325904D02*
G75*
G03*
X204196000Y-83201900I-124000J4D01*
G01*
X204630000Y-84564089D02*
G75*
G02*
X204506000Y-84688100I-124000J-11D01*
G01*
X204444000Y-84688089D02*
G75*
G02*
X204320011Y-84564089I0J123989D01*
G01*
X205064000Y-84688089D02*
G75*
G02*
X204940011Y-84564089I0J123989D01*
G01*
X205374000Y-83201904D02*
G75*
G03*
X205250004Y-83325904I0J-123996D01*
G01*
X204754000Y-83201904D02*
G75*
G03*
X204630004Y-83325904I0J-123996D01*
G01*
X205870000Y-84564089D02*
G75*
G02*
X205746000Y-84688100I-124000J-11D01*
G01*
X204010000Y-83646000D02*
G75*
G02*
X203886000Y-83770000I-124000J0D01*
G01*
X204940000Y-83325904D02*
G75*
G03*
X204816000Y-83201900I-124000J4D01*
G01*
X205684000Y-84688089D02*
G75*
G02*
X205560011Y-84564089I0J123989D01*
G01*
X205994000Y-83770000D02*
G75*
G03*
X205870000Y-83894000I0J-124000D01*
G01*
X205560000Y-83325904D02*
G75*
G03*
X205436000Y-83201900I-124000J4D01*
G01*
X203454000Y-83770000D02*
X200630000Y-83770000D01*
X211899520Y-82516000D02*
X210645520Y-83770000D01*
X205746000Y-84688089D02*
X205684000Y-84688089D01*
X205436000Y-83201904D02*
X205374000Y-83201904D01*
X205250000Y-83770000D02*
X205250000Y-84564089D01*
X204196000Y-83201904D02*
X204134000Y-83201904D01*
X204630000Y-83770000D02*
X204630000Y-84564089D01*
X205560000Y-84564089D02*
X205560000Y-83894000D01*
X205870000Y-83894000D02*
X205870000Y-84564089D01*
X205126000Y-84688089D02*
X205064000Y-84688089D01*
X226700000Y-83300000D02*
X221794480Y-83300000D01*
X210645520Y-83770000D02*
X205994000Y-83770000D01*
X213220000Y-82700000D02*
X213036000Y-82516000D01*
X204630000Y-83325904D02*
X204630000Y-83770000D01*
X204816000Y-83201904D02*
X204754000Y-83201904D01*
X221794480Y-83300000D02*
X220800480Y-82306000D01*
X205250000Y-83325904D02*
X205250000Y-83770000D01*
X200630000Y-83770000D02*
X200600000Y-83800000D01*
X219875520Y-82700000D02*
X213220000Y-82700000D01*
X204506000Y-84688089D02*
X204444000Y-84688089D01*
X220269520Y-82306000D02*
X219875520Y-82700000D01*
X204320000Y-84564089D02*
X204320000Y-83770000D01*
X204940000Y-83770000D02*
X204940000Y-83325904D01*
X203824000Y-83770000D02*
X203454000Y-83770000D01*
X205560000Y-83894000D02*
X205560000Y-83325904D01*
X204320000Y-83770000D02*
X204320000Y-83325904D01*
X203886000Y-83770000D02*
X203824000Y-83770000D01*
X213036000Y-82516000D02*
X211899520Y-82516000D01*
X204010000Y-83325904D02*
X204010000Y-83646000D01*
X220800480Y-82306000D02*
X220269520Y-82306000D01*
X204940000Y-84564089D02*
X204940000Y-83770000D01*
%TO.N,FMC_A3*%
X209775000Y-64291000D02*
X209775000Y-63375000D01*
X209550000Y-64516000D02*
X209775000Y-64291000D01*
%TO.N,FMC_A2*%
X207899000Y-66576000D02*
G75*
G02*
X207775000Y-66452000I0J124000D01*
G01*
X209372570Y-67320000D02*
G75*
G03*
X209248570Y-67196030I-123970J0D01*
G01*
X206777420Y-65150000D02*
G75*
G02*
X206901420Y-65026020I123980J0D01*
G01*
X209248570Y-67506000D02*
G75*
G03*
X209372600Y-67382000I30J124000D01*
G01*
X207775000Y-67630000D02*
G75*
G02*
X207899000Y-67506000I124000J0D01*
G01*
X207899000Y-67196000D02*
G75*
G02*
X207775000Y-67072000I0J124000D01*
G01*
X206301430Y-65956000D02*
G75*
G02*
X206177400Y-65832000I-30J124000D01*
G01*
X209372570Y-66080000D02*
G75*
G03*
X209248570Y-65956030I-123970J0D01*
G01*
X209248570Y-66266000D02*
G75*
G03*
X209372600Y-66142000I30J124000D01*
G01*
X207899000Y-67816000D02*
G75*
G02*
X207775000Y-67692000I0J124000D01*
G01*
X209372570Y-66700000D02*
G75*
G03*
X209248570Y-66576030I-123970J0D01*
G01*
X209048578Y-68126000D02*
G75*
G03*
X209172600Y-68002000I22J124000D01*
G01*
X209372570Y-65460000D02*
G75*
G03*
X209248570Y-65336030I-123970J0D01*
G01*
X209248570Y-66886000D02*
G75*
G03*
X209372600Y-66762000I30J124000D01*
G01*
X207775000Y-67010000D02*
G75*
G02*
X207899000Y-66886000I124000J0D01*
G01*
X209172578Y-67940000D02*
G75*
G03*
X209048578Y-67816022I-123978J0D01*
G01*
X207775000Y-66390000D02*
G75*
G02*
X207899000Y-66266000I124000J0D01*
G01*
X207651000Y-65026000D02*
G75*
G03*
X207775000Y-64902000I0J124000D01*
G01*
X207775000Y-68250000D02*
G75*
G02*
X207899000Y-68126000I124000J0D01*
G01*
X206901420Y-65336000D02*
G75*
G02*
X206777400Y-65212000I-20J124000D01*
G01*
X206177430Y-65770000D02*
G75*
G02*
X206301430Y-65646030I123970J0D01*
G01*
X209248570Y-65646000D02*
G75*
G03*
X209372600Y-65522000I30J124000D01*
G01*
X209248570Y-65956000D02*
X207899000Y-65956000D01*
X209248570Y-66576000D02*
X207899000Y-66576000D01*
X207775000Y-65336000D02*
X206901420Y-65336000D01*
X207899000Y-68126000D02*
X209048578Y-68126000D01*
X206777420Y-65212000D02*
X206777420Y-65150000D01*
X209372570Y-67382000D02*
X209372570Y-67320000D01*
X207775000Y-67072000D02*
X207775000Y-67010000D01*
X209248570Y-65336000D02*
X207775000Y-65336000D01*
X207775000Y-68480000D02*
X207775000Y-68250000D01*
X207899000Y-66266000D02*
X209248570Y-66266000D01*
X207899000Y-65956000D02*
X206301430Y-65956000D01*
X206177430Y-65832000D02*
X206177430Y-65770000D01*
X207899000Y-67506000D02*
X209248570Y-67506000D01*
X209372570Y-66142000D02*
X209372570Y-66080000D01*
X209372570Y-66762000D02*
X209372570Y-66700000D01*
X207899000Y-66886000D02*
X209248570Y-66886000D01*
X209172578Y-68002000D02*
X209172578Y-67940000D01*
X209372570Y-65522000D02*
X209372570Y-65460000D01*
X206901420Y-65026000D02*
X207651000Y-65026000D01*
X207775000Y-63754000D02*
X207775000Y-63375000D01*
X206301430Y-65646000D02*
X207775000Y-65646000D01*
X207775000Y-67692000D02*
X207775000Y-67630000D01*
X207775000Y-65646000D02*
X209248570Y-65646000D01*
X209248570Y-67196000D02*
X207899000Y-67196000D01*
X207775000Y-64840000D02*
X207775000Y-63754000D01*
X209048578Y-67816000D02*
X207899000Y-67816000D01*
X207775000Y-64902000D02*
X207775000Y-64840000D01*
X207775000Y-66452000D02*
X207775000Y-66390000D01*
%TO.N,FMC_D15*%
X222275000Y-91625000D02*
X222275000Y-92725000D01*
X209264000Y-87173478D02*
X209264000Y-87686000D01*
X209450000Y-87810000D02*
X209760000Y-87810000D01*
X211860000Y-89730000D02*
X218332228Y-89730000D01*
X209940000Y-87810000D02*
X211860000Y-89730000D01*
X219786228Y-91184000D02*
X221834000Y-91184000D01*
X209078000Y-87049478D02*
X209140000Y-87049478D01*
X208954000Y-88646497D02*
X208954000Y-87810000D01*
X208334000Y-87810000D02*
X208334000Y-87173478D01*
X208024000Y-87810000D02*
X208024000Y-88646521D01*
X207404000Y-87686000D02*
X207404000Y-88646521D01*
X207404000Y-87173478D02*
X207404000Y-87686000D01*
X200560000Y-87810000D02*
X206970000Y-87810000D01*
X209388000Y-87810000D02*
X209450000Y-87810000D01*
X218332228Y-89730000D02*
X219786228Y-91184000D01*
X207714000Y-88646521D02*
X207714000Y-87810000D01*
X208644000Y-87810000D02*
X208644000Y-88646497D01*
X208768000Y-88770497D02*
X208830000Y-88770497D01*
X209760000Y-87810000D02*
X209940000Y-87810000D01*
X208024000Y-87173478D02*
X208024000Y-87810000D01*
X208148000Y-88770521D02*
X208210000Y-88770521D01*
X208954000Y-87810000D02*
X208954000Y-87173478D01*
X207714000Y-87810000D02*
X207714000Y-87173478D01*
X207838000Y-87049478D02*
X207900000Y-87049478D01*
X207218000Y-87049478D02*
X207280000Y-87049478D01*
X200550000Y-87800000D02*
X200560000Y-87810000D01*
X208334000Y-88646521D02*
X208334000Y-87810000D01*
X208458000Y-87049478D02*
X208520000Y-87049478D01*
X208644000Y-87173478D02*
X208644000Y-87810000D01*
X221834000Y-91184000D02*
X222275000Y-91625000D01*
X207094000Y-87686000D02*
X207094000Y-87173478D01*
X207528000Y-88770521D02*
X207590000Y-88770521D01*
X207094000Y-87173478D02*
G75*
G02*
X207218000Y-87049500I124000J-22D01*
G01*
X207280000Y-87049478D02*
G75*
G02*
X207404022Y-87173478I0J-124022D01*
G01*
X206970000Y-87810000D02*
G75*
G03*
X207094000Y-87686000I0J124000D01*
G01*
X208334000Y-87173478D02*
G75*
G02*
X208458000Y-87049500I124000J-22D01*
G01*
X208830000Y-88770497D02*
G75*
G03*
X208953997Y-88646497I0J123997D01*
G01*
X207714000Y-87173478D02*
G75*
G02*
X207838000Y-87049500I124000J-22D01*
G01*
X207404000Y-88646521D02*
G75*
G03*
X207528000Y-88770500I124000J21D01*
G01*
X208024000Y-88646521D02*
G75*
G03*
X208148000Y-88770500I124000J21D01*
G01*
X208644000Y-88646497D02*
G75*
G03*
X208768000Y-88770500I124000J-3D01*
G01*
X209140000Y-87049478D02*
G75*
G02*
X209264022Y-87173478I0J-124022D01*
G01*
X209264000Y-87686000D02*
G75*
G03*
X209388000Y-87810000I124000J0D01*
G01*
X208954000Y-87173478D02*
G75*
G02*
X209078000Y-87049500I124000J-22D01*
G01*
X208210000Y-88770521D02*
G75*
G03*
X208334021Y-88646521I0J124021D01*
G01*
X207900000Y-87049478D02*
G75*
G02*
X208024022Y-87173478I0J-124022D01*
G01*
X208520000Y-87049478D02*
G75*
G02*
X208644022Y-87173478I0J-124022D01*
G01*
X207590000Y-88770521D02*
G75*
G03*
X207714021Y-88646521I0J124021D01*
G01*
%TO.N,FMC_A0*%
X201698049Y-65576000D02*
X203626000Y-65576000D01*
X201698039Y-66816000D02*
X203626000Y-66816000D01*
X203950000Y-64560000D02*
X206273414Y-64560000D01*
X203750000Y-66072000D02*
X203750000Y-66010000D01*
X203750000Y-68820000D02*
X203750000Y-67250000D01*
X201698049Y-66196000D02*
X203626000Y-66196000D01*
X206775000Y-64058414D02*
X206775000Y-63375000D01*
X201574049Y-66382000D02*
X201574049Y-66320000D01*
X203750000Y-65390000D02*
X203750000Y-65283072D01*
X203750000Y-64760000D02*
X203950000Y-64560000D01*
X203626000Y-65886000D02*
X201698049Y-65886000D01*
X206273414Y-64560000D02*
X206775000Y-64058414D01*
X201574049Y-65762000D02*
X201574049Y-65700000D01*
X203626000Y-66506000D02*
X201698049Y-66506000D01*
X203750000Y-65452000D02*
X203750000Y-65390000D01*
X203750000Y-66692000D02*
X203750000Y-66630000D01*
X203750000Y-65283072D02*
X203750000Y-64760000D01*
X203626000Y-67126000D02*
X201698039Y-67126000D01*
X201574039Y-67002000D02*
X201574039Y-66940000D01*
X201574049Y-66320000D02*
G75*
G02*
X201698049Y-66196049I123951J0D01*
G01*
X203626000Y-65576000D02*
G75*
G03*
X203750000Y-65452000I0J124000D01*
G01*
X201574049Y-65700000D02*
G75*
G02*
X201698049Y-65576049I123951J0D01*
G01*
X201698049Y-65886000D02*
G75*
G02*
X201574000Y-65762000I-49J124000D01*
G01*
X203750000Y-66010000D02*
G75*
G03*
X203626000Y-65886000I-124000J0D01*
G01*
X201698049Y-66506000D02*
G75*
G02*
X201574000Y-66382000I-49J124000D01*
G01*
X203626000Y-66196000D02*
G75*
G03*
X203750000Y-66072000I0J124000D01*
G01*
X203626000Y-66816000D02*
G75*
G03*
X203750000Y-66692000I0J124000D01*
G01*
X201574039Y-66940000D02*
G75*
G02*
X201698039Y-66816039I123961J0D01*
G01*
X203750000Y-67250000D02*
G75*
G03*
X203626000Y-67126000I-124000J0D01*
G01*
X201698039Y-67126000D02*
G75*
G02*
X201574000Y-67002000I-39J124000D01*
G01*
X203750000Y-66630000D02*
G75*
G03*
X203626000Y-66506000I-124000J0D01*
G01*
%TO.N,FMC_D9*%
X201880000Y-79785754D02*
G75*
G02*
X202004046Y-79909754I0J-124046D01*
G01*
X202500000Y-79785752D02*
G75*
G02*
X202624048Y-79909752I0J-124048D01*
G01*
X202934000Y-79909749D02*
G75*
G02*
X203058000Y-79785700I124000J49D01*
G01*
X202314000Y-79909752D02*
G75*
G02*
X202438000Y-79785800I124000J-48D01*
G01*
X203244000Y-81250248D02*
G75*
G03*
X203368000Y-81374200I124000J48D01*
G01*
X203430000Y-81374248D02*
G75*
G03*
X203554048Y-81250248I0J124048D01*
G01*
X202810000Y-81374250D02*
G75*
G03*
X202934050Y-81250250I0J124050D01*
G01*
X201570000Y-80530000D02*
G75*
G03*
X201694000Y-80406000I0J124000D01*
G01*
X203120000Y-79785749D02*
G75*
G02*
X203243951Y-79909749I0J-123951D01*
G01*
X201694000Y-79909754D02*
G75*
G02*
X201818000Y-79785800I124000J-46D01*
G01*
X203554000Y-80654000D02*
G75*
G02*
X203678000Y-80530000I124000J0D01*
G01*
X202004000Y-81250248D02*
G75*
G03*
X202128000Y-81374200I124000J48D01*
G01*
X202190000Y-81374248D02*
G75*
G03*
X202314048Y-81250248I0J124048D01*
G01*
X202624000Y-81250250D02*
G75*
G03*
X202748000Y-81374200I124000J50D01*
G01*
X200600000Y-80610000D02*
X200680000Y-80530000D01*
X225660000Y-81800000D02*
X226700000Y-81800000D01*
X224390000Y-80530000D02*
X225660000Y-81800000D01*
X205930000Y-80530000D02*
X224390000Y-80530000D01*
X203678000Y-80530000D02*
X203740000Y-80530000D01*
X203554000Y-81250248D02*
X203554000Y-80654000D01*
X203740000Y-80530000D02*
X205930000Y-80530000D01*
X202128000Y-81374248D02*
X202190000Y-81374248D01*
X202934000Y-80530000D02*
X202934000Y-79909749D01*
X203058000Y-79785749D02*
X203120000Y-79785749D01*
X202934000Y-81250250D02*
X202934000Y-80530000D01*
X202624000Y-79909752D02*
X202624000Y-80530000D01*
X202624000Y-80530000D02*
X202624000Y-81250250D01*
X203244000Y-80530000D02*
X203244000Y-81250248D01*
X201694000Y-80406000D02*
X201694000Y-79909754D01*
X202314000Y-80530000D02*
X202314000Y-79909752D01*
X203244000Y-79909749D02*
X203244000Y-80530000D01*
X202314000Y-81250248D02*
X202314000Y-80530000D01*
X202004000Y-80406000D02*
X202004000Y-81250248D01*
X200680000Y-80530000D02*
X201570000Y-80530000D01*
X202748000Y-81374250D02*
X202810000Y-81374250D01*
X202438000Y-79785752D02*
X202500000Y-79785752D01*
X202004000Y-79909754D02*
X202004000Y-80406000D01*
X203368000Y-81374248D02*
X203430000Y-81374248D01*
X201818000Y-79785754D02*
X201880000Y-79785754D01*
%TO.N,FMC_SDNWE*%
X215154000Y-76724000D02*
G75*
G02*
X215278000Y-76600000I124000J0D01*
G01*
X214224000Y-77403953D02*
G75*
G03*
X214348000Y-77528000I124000J-47D01*
G01*
X214844000Y-77403953D02*
G75*
G03*
X214968000Y-77528000I124000J-47D01*
G01*
X215030000Y-77527953D02*
G75*
G03*
X215153953Y-77403953I0J123953D01*
G01*
X213790000Y-77527953D02*
G75*
G03*
X213913953Y-77403953I0J123953D01*
G01*
X213914000Y-75796047D02*
G75*
G02*
X214038000Y-75672000I124000J47D01*
G01*
X213480000Y-75672047D02*
G75*
G02*
X213603953Y-75796047I0J-123953D01*
G01*
X214100000Y-75672047D02*
G75*
G02*
X214223953Y-75796047I0J-123953D01*
G01*
X213294000Y-75796047D02*
G75*
G02*
X213418000Y-75672000I124000J47D01*
G01*
X213170000Y-76600000D02*
G75*
G03*
X213294000Y-76476000I0J124000D01*
G01*
X214720000Y-75672047D02*
G75*
G02*
X214843953Y-75796047I0J-123953D01*
G01*
X214534000Y-75796047D02*
G75*
G02*
X214658000Y-75672000I124000J47D01*
G01*
X214410000Y-77527953D02*
G75*
G03*
X214533953Y-77403953I0J123953D01*
G01*
X213604000Y-77403953D02*
G75*
G03*
X213728000Y-77528000I124000J-47D01*
G01*
X215278000Y-76600000D02*
X215340000Y-76600000D01*
X214224000Y-76600000D02*
X214224000Y-77403953D01*
X213294000Y-76476000D02*
X213294000Y-75796047D01*
X212100000Y-76600000D02*
X213170000Y-76600000D01*
X215154000Y-77403953D02*
X215154000Y-76724000D01*
X215340000Y-76600000D02*
X216756656Y-76600000D01*
X213418000Y-75672047D02*
X213480000Y-75672047D01*
X213604000Y-75796047D02*
X213604000Y-76476000D01*
X214844000Y-76600000D02*
X214844000Y-77403953D01*
X214658000Y-75672047D02*
X214720000Y-75672047D01*
X214224000Y-75796047D02*
X214224000Y-76600000D01*
X213604000Y-76476000D02*
X213604000Y-77403953D01*
X214844000Y-75796047D02*
X214844000Y-76600000D01*
X214534000Y-76600000D02*
X214534000Y-75796047D01*
X214968000Y-77527953D02*
X215030000Y-77527953D01*
X214038000Y-75672047D02*
X214100000Y-75672047D01*
X216756656Y-76600000D02*
X218070000Y-76600000D01*
X213914000Y-77403953D02*
X213914000Y-76600000D01*
X214348000Y-77527953D02*
X214410000Y-77527953D01*
X213728000Y-77527953D02*
X213790000Y-77527953D01*
X214534000Y-77403953D02*
X214534000Y-76600000D01*
X213914000Y-76600000D02*
X213914000Y-75796047D01*
%TO.N,FMC_SDNRAS*%
X216894000Y-74634000D02*
X216894000Y-75510347D01*
X218568000Y-74510000D02*
X218630000Y-74510000D01*
X224905520Y-74510000D02*
X225615520Y-73800000D01*
X221358000Y-75634350D02*
X221420000Y-75634350D01*
X221544000Y-75510350D02*
X221544000Y-74634000D01*
X217824000Y-75510347D02*
X217824000Y-74634000D01*
X218134000Y-74634000D02*
X218134000Y-75510347D01*
X219374000Y-74634000D02*
X219374000Y-75510347D01*
X220118000Y-75634347D02*
X220180000Y-75634347D01*
X213970000Y-74510000D02*
X216770000Y-74510000D01*
X220304000Y-75510347D02*
X220304000Y-74634000D01*
X219064000Y-75510347D02*
X219064000Y-74634000D01*
X218754000Y-74634000D02*
X218754000Y-75510347D01*
X222784000Y-75510349D02*
X222784000Y-74634000D01*
X219808000Y-74510000D02*
X219870000Y-74510000D01*
X220738000Y-75634349D02*
X220800000Y-75634349D01*
X222288000Y-74510000D02*
X222350000Y-74510000D01*
X217328000Y-74510000D02*
X217390000Y-74510000D01*
X217514000Y-74634000D02*
X217514000Y-75510347D01*
X217638000Y-75634347D02*
X217700000Y-75634347D01*
X223300903Y-74510000D02*
X224905520Y-74510000D01*
X222908000Y-74510000D02*
X222970000Y-74510000D01*
X220924000Y-75510349D02*
X220924000Y-74634000D01*
X217948000Y-74510000D02*
X218010000Y-74510000D01*
X221978000Y-75634355D02*
X222040000Y-75634355D01*
X218444000Y-75510347D02*
X218444000Y-74634000D01*
X222598000Y-75634349D02*
X222660000Y-75634349D01*
X221234000Y-74634000D02*
X221234000Y-75510350D01*
X220428000Y-74510000D02*
X220490000Y-74510000D01*
X219684000Y-75510347D02*
X219684000Y-74634000D01*
X222474000Y-74634000D02*
X222474000Y-75510349D01*
X222164000Y-75510355D02*
X222164000Y-74634000D01*
X218878000Y-75634347D02*
X218940000Y-75634347D01*
X219188000Y-74510000D02*
X219250000Y-74510000D01*
X217018000Y-75634347D02*
X217080000Y-75634347D01*
X225615520Y-73800000D02*
X226700000Y-73800000D01*
X219498000Y-75634347D02*
X219560000Y-75634347D01*
X222970000Y-74510000D02*
X223300903Y-74510000D01*
X221854000Y-74634000D02*
X221854000Y-75510355D01*
X221048000Y-74510000D02*
X221110000Y-74510000D01*
X217204000Y-75510347D02*
X217204000Y-74634000D01*
X218258000Y-75634347D02*
X218320000Y-75634347D01*
X221668000Y-74510000D02*
X221730000Y-74510000D01*
X220614000Y-74634000D02*
X220614000Y-75510349D01*
X219994000Y-74634000D02*
X219994000Y-75510347D01*
X217514000Y-75510347D02*
G75*
G03*
X217638000Y-75634300I124000J47D01*
G01*
X217824000Y-74634000D02*
G75*
G02*
X217948000Y-74510000I124000J0D01*
G01*
X216770000Y-74510000D02*
G75*
G02*
X216894000Y-74634000I0J-124000D01*
G01*
X217204000Y-74634000D02*
G75*
G02*
X217328000Y-74510000I124000J0D01*
G01*
X216894000Y-75510347D02*
G75*
G03*
X217018000Y-75634300I124000J47D01*
G01*
X218010000Y-74510000D02*
G75*
G02*
X218134000Y-74634000I0J-124000D01*
G01*
X217390000Y-74510000D02*
G75*
G02*
X217514000Y-74634000I0J-124000D01*
G01*
X217700000Y-75634347D02*
G75*
G03*
X217824047Y-75510347I0J124047D01*
G01*
X220304000Y-74634000D02*
G75*
G02*
X220428000Y-74510000I124000J0D01*
G01*
X222474000Y-75510349D02*
G75*
G03*
X222598000Y-75634300I124000J49D01*
G01*
X217080000Y-75634347D02*
G75*
G03*
X217204047Y-75510347I0J124047D01*
G01*
X218134000Y-75510347D02*
G75*
G03*
X218258000Y-75634300I124000J47D01*
G01*
X218754000Y-75510347D02*
G75*
G03*
X218878000Y-75634300I124000J47D01*
G01*
X222350000Y-74510000D02*
G75*
G02*
X222474000Y-74634000I0J-124000D01*
G01*
X218630000Y-74510000D02*
G75*
G02*
X218754000Y-74634000I0J-124000D01*
G01*
X218444000Y-74634000D02*
G75*
G02*
X218568000Y-74510000I124000J0D01*
G01*
X218320000Y-75634347D02*
G75*
G03*
X218444047Y-75510347I0J124047D01*
G01*
X218940000Y-75634347D02*
G75*
G03*
X219064047Y-75510347I0J124047D01*
G01*
X222040000Y-75634355D02*
G75*
G03*
X222163955Y-75510355I0J123955D01*
G01*
X219870000Y-74510000D02*
G75*
G02*
X219994000Y-74634000I0J-124000D01*
G01*
X219560000Y-75634347D02*
G75*
G03*
X219684047Y-75510347I0J124047D01*
G01*
X219374000Y-75510347D02*
G75*
G03*
X219498000Y-75634300I124000J47D01*
G01*
X220490000Y-74510000D02*
G75*
G02*
X220614000Y-74634000I0J-124000D01*
G01*
X219684000Y-74634000D02*
G75*
G02*
X219808000Y-74510000I124000J0D01*
G01*
X221420000Y-75634350D02*
G75*
G03*
X221544050Y-75510350I0J124050D01*
G01*
X222164000Y-74634000D02*
G75*
G02*
X222288000Y-74510000I124000J0D01*
G01*
X222660000Y-75634349D02*
G75*
G03*
X222784049Y-75510349I0J124049D01*
G01*
X220180000Y-75634347D02*
G75*
G03*
X220304047Y-75510347I0J124047D01*
G01*
X220924000Y-74634000D02*
G75*
G02*
X221048000Y-74510000I124000J0D01*
G01*
X221730000Y-74510000D02*
G75*
G02*
X221854000Y-74634000I0J-124000D01*
G01*
X221544000Y-74634000D02*
G75*
G02*
X221668000Y-74510000I124000J0D01*
G01*
X220614000Y-75510349D02*
G75*
G03*
X220738000Y-75634300I124000J49D01*
G01*
X222784000Y-74634000D02*
G75*
G02*
X222908000Y-74510000I124000J0D01*
G01*
X220800000Y-75634349D02*
G75*
G03*
X220924049Y-75510349I0J124049D01*
G01*
X219064000Y-74634000D02*
G75*
G02*
X219188000Y-74510000I124000J0D01*
G01*
X221854000Y-75510355D02*
G75*
G03*
X221978000Y-75634400I124000J-45D01*
G01*
X219994000Y-75510347D02*
G75*
G03*
X220118000Y-75634300I124000J47D01*
G01*
X221110000Y-74510000D02*
G75*
G02*
X221234000Y-74634000I0J-124000D01*
G01*
X221234000Y-75510350D02*
G75*
G03*
X221358000Y-75634300I124000J50D01*
G01*
X219250000Y-74510000D02*
G75*
G02*
X219374000Y-74634000I0J-124000D01*
G01*
%TO.N,FMC_D11*%
X203760000Y-82149350D02*
G75*
G02*
X203884050Y-82273350I0J-124050D01*
G01*
X203574000Y-82273350D02*
G75*
G02*
X203698000Y-82149400I124000J-50D01*
G01*
X203884000Y-82686000D02*
G75*
G03*
X204008000Y-82810000I124000J0D01*
G01*
X202644000Y-83296649D02*
G75*
G03*
X202768000Y-83420600I124000J49D01*
G01*
X203140000Y-82149350D02*
G75*
G02*
X203264050Y-82273350I0J-124050D01*
G01*
X202954000Y-82273350D02*
G75*
G02*
X203078000Y-82149400I124000J-50D01*
G01*
X202830000Y-83420649D02*
G75*
G03*
X202954049Y-83296649I0J124049D01*
G01*
X202520000Y-82149351D02*
G75*
G02*
X202644049Y-82273351I0J-124049D01*
G01*
X202334000Y-82273351D02*
G75*
G02*
X202458000Y-82149400I124000J-49D01*
G01*
X202210000Y-83420646D02*
G75*
G03*
X202334046Y-83296646I0J124046D01*
G01*
X201900000Y-82149354D02*
G75*
G02*
X202024046Y-82273354I0J-124046D01*
G01*
X203450000Y-83420653D02*
G75*
G03*
X203573953Y-83296653I0J123953D01*
G01*
X203264000Y-83296653D02*
G75*
G03*
X203388000Y-83420700I124000J-47D01*
G01*
X202024000Y-83296646D02*
G75*
G03*
X202148000Y-83420600I124000J46D01*
G01*
X201714000Y-82273354D02*
G75*
G02*
X201838000Y-82149400I124000J-46D01*
G01*
X201590000Y-82810000D02*
G75*
G03*
X201714000Y-82686000I0J124000D01*
G01*
X214800480Y-81716000D02*
X215414480Y-82330000D01*
X202644000Y-82810000D02*
X202644000Y-83296649D01*
X202334000Y-83296646D02*
X202334000Y-82810000D01*
X220928886Y-81996000D02*
X221732886Y-82800000D01*
X202644000Y-82273351D02*
X202644000Y-82810000D01*
X203388000Y-83420653D02*
X203450000Y-83420653D01*
X201838000Y-82149354D02*
X201900000Y-82149354D01*
X219807114Y-82330000D02*
X220141114Y-81996000D01*
X203264000Y-82273350D02*
X203264000Y-82810000D01*
X211771114Y-82206000D02*
X212909520Y-82206000D01*
X215414480Y-82330000D02*
X219807114Y-82330000D01*
X213399520Y-81716000D02*
X214800480Y-81716000D01*
X204008000Y-82810000D02*
X204070000Y-82810000D01*
X203884000Y-82273350D02*
X203884000Y-82686000D01*
X204070000Y-82810000D02*
X207178433Y-82810000D01*
X203698000Y-82149350D02*
X203760000Y-82149350D01*
X221732886Y-82800000D02*
X226700000Y-82800000D01*
X202768000Y-83420649D02*
X202830000Y-83420649D01*
X202024000Y-82273354D02*
X202024000Y-82686000D01*
X201714000Y-82686000D02*
X201714000Y-82273354D01*
X203574000Y-82810000D02*
X203574000Y-82273350D01*
X200600000Y-83000000D02*
X200790000Y-82810000D01*
X220141114Y-81996000D02*
X220928886Y-81996000D01*
X203264000Y-82810000D02*
X203264000Y-83296653D01*
X211167114Y-82810000D02*
X211771114Y-82206000D01*
X202148000Y-83420646D02*
X202210000Y-83420646D01*
X202954000Y-82810000D02*
X202954000Y-82273350D01*
X202334000Y-82810000D02*
X202334000Y-82273351D01*
X202954000Y-83296649D02*
X202954000Y-82810000D01*
X203574000Y-83296653D02*
X203574000Y-82810000D01*
X202024000Y-82686000D02*
X202024000Y-83296646D01*
X207178433Y-82810000D02*
X211167114Y-82810000D01*
X200790000Y-82810000D02*
X201590000Y-82810000D01*
X202458000Y-82149351D02*
X202520000Y-82149351D01*
X203078000Y-82149350D02*
X203140000Y-82149350D01*
X212909520Y-82206000D02*
X213399520Y-81716000D01*
%TO.N,FMC_D5*%
X215154000Y-81576000D02*
G75*
G03*
X215278000Y-81700000I124000J0D01*
G01*
X219680000Y-81950000D02*
G75*
G03*
X219804000Y-81826000I0J124000D01*
G01*
X215960000Y-82000000D02*
G75*
G03*
X216084000Y-81876000I0J124000D01*
G01*
X215030000Y-81400000D02*
G75*
G02*
X215154000Y-81524000I0J-124000D01*
G01*
X218440000Y-82000000D02*
G75*
G03*
X218564000Y-81876000I0J124000D01*
G01*
X216270000Y-81400000D02*
G75*
G02*
X216394000Y-81524000I0J-124000D01*
G01*
X216084000Y-81524000D02*
G75*
G02*
X216208000Y-81400000I124000J0D01*
G01*
X216890000Y-81400000D02*
G75*
G02*
X217014000Y-81524000I0J-124000D01*
G01*
X220300000Y-81650000D02*
G75*
G03*
X220424000Y-81526000I0J124000D01*
G01*
X219990000Y-81400000D02*
G75*
G02*
X220114000Y-81524000I0J-124000D01*
G01*
X219804000Y-81524000D02*
G75*
G02*
X219928000Y-81400000I124000J0D01*
G01*
X222284000Y-81524000D02*
G75*
G02*
X222408000Y-81400000I124000J0D01*
G01*
X219184000Y-81524000D02*
G75*
G02*
X219308000Y-81400000I124000J0D01*
G01*
X218874000Y-81876000D02*
G75*
G03*
X218998000Y-82000000I124000J0D01*
G01*
X218750000Y-81400000D02*
G75*
G02*
X218874000Y-81524000I0J-124000D01*
G01*
X221354000Y-81926000D02*
G75*
G03*
X221478000Y-82050000I124000J0D01*
G01*
X216394000Y-81876000D02*
G75*
G03*
X216518000Y-82000000I124000J0D01*
G01*
X221044000Y-81524000D02*
G75*
G02*
X221168000Y-81400000I124000J0D01*
G01*
X217944000Y-81524000D02*
G75*
G02*
X218068000Y-81400000I124000J0D01*
G01*
X218564000Y-81524000D02*
G75*
G02*
X218688000Y-81400000I124000J0D01*
G01*
X217510000Y-81400000D02*
G75*
G02*
X217634000Y-81524000I0J-124000D01*
G01*
X216580000Y-82000000D02*
G75*
G03*
X216704000Y-81876000I0J124000D01*
G01*
X220114000Y-81526000D02*
G75*
G03*
X220238000Y-81650000I124000J0D01*
G01*
X217200000Y-82000000D02*
G75*
G03*
X217324000Y-81876000I0J124000D01*
G01*
X220424000Y-81524000D02*
G75*
G02*
X220548000Y-81400000I124000J0D01*
G01*
X217324000Y-81524000D02*
G75*
G02*
X217448000Y-81400000I124000J0D01*
G01*
X218254000Y-81876000D02*
G75*
G03*
X218378000Y-82000000I124000J0D01*
G01*
X216704000Y-81524000D02*
G75*
G02*
X216828000Y-81400000I124000J0D01*
G01*
X215774000Y-81876000D02*
G75*
G03*
X215898000Y-82000000I124000J0D01*
G01*
X221850000Y-81400000D02*
G75*
G02*
X221974000Y-81524000I0J-124000D01*
G01*
X219494000Y-81826000D02*
G75*
G03*
X219618000Y-81950000I124000J0D01*
G01*
X219370000Y-81400000D02*
G75*
G02*
X219494000Y-81524000I0J-124000D01*
G01*
X217820000Y-82000000D02*
G75*
G03*
X217944000Y-81876000I0J124000D01*
G01*
X219060000Y-82000000D02*
G75*
G03*
X219184000Y-81876000I0J124000D01*
G01*
X217634000Y-81876000D02*
G75*
G03*
X217758000Y-82000000I124000J0D01*
G01*
X218130000Y-81400000D02*
G75*
G02*
X218254000Y-81524000I0J-124000D01*
G01*
X222904000Y-81524000D02*
G75*
G02*
X223028000Y-81400000I124000J0D01*
G01*
X217014000Y-81876000D02*
G75*
G03*
X217138000Y-82000000I124000J0D01*
G01*
X215464000Y-81524000D02*
G75*
G02*
X215588000Y-81400000I124000J0D01*
G01*
X215650000Y-81400000D02*
G75*
G02*
X215774000Y-81524000I0J-124000D01*
G01*
X215340000Y-81700000D02*
G75*
G03*
X215464000Y-81576000I0J124000D01*
G01*
X222098000Y-82400000D02*
X222160000Y-82400000D01*
X223028000Y-81400000D02*
X223090000Y-81400000D01*
X221168000Y-81400000D02*
X221230000Y-81400000D01*
X222904000Y-82276000D02*
X222904000Y-81524000D01*
X221354000Y-81524000D02*
X221354000Y-81926000D01*
X222718000Y-82400000D02*
X222780000Y-82400000D01*
X223648000Y-81400000D02*
X223710000Y-81400000D01*
X222408000Y-81400000D02*
X222470000Y-81400000D01*
X223970000Y-81400000D02*
X224310000Y-81740000D01*
X223524000Y-82276000D02*
X223524000Y-81524000D01*
X223338000Y-82400000D02*
X223400000Y-82400000D01*
X222594000Y-81524000D02*
X222594000Y-82276000D01*
X223740000Y-81400000D02*
X223970000Y-81400000D01*
X221974000Y-81524000D02*
X221974000Y-82276000D01*
X221478000Y-82050000D02*
X221540000Y-82050000D01*
X223214000Y-81524000D02*
X223214000Y-82276000D01*
X220734000Y-81524000D02*
X220734000Y-81526000D01*
X222284000Y-82276000D02*
X222284000Y-81524000D01*
X220858000Y-81650000D02*
X220920000Y-81650000D01*
X218998000Y-82000000D02*
X219060000Y-82000000D01*
X217014000Y-81524000D02*
X217014000Y-81876000D01*
X215278000Y-81700000D02*
X215340000Y-81700000D01*
X215588000Y-81400000D02*
X215650000Y-81400000D01*
X221044000Y-81526000D02*
X221044000Y-81524000D01*
X215154000Y-81524000D02*
X215154000Y-81576000D01*
X220548000Y-81400000D02*
X220610000Y-81400000D01*
X219804000Y-81826000D02*
X219804000Y-81524000D01*
X219308000Y-81400000D02*
X219370000Y-81400000D01*
X220424000Y-81526000D02*
X220424000Y-81524000D01*
X220238000Y-81650000D02*
X220300000Y-81650000D01*
X220114000Y-81524000D02*
X220114000Y-81526000D01*
X219928000Y-81400000D02*
X219990000Y-81400000D01*
X216828000Y-81400000D02*
X216890000Y-81400000D01*
X217944000Y-81876000D02*
X217944000Y-81524000D01*
X219618000Y-81950000D02*
X219680000Y-81950000D01*
X219494000Y-81524000D02*
X219494000Y-81826000D01*
X219184000Y-81876000D02*
X219184000Y-81524000D01*
X218874000Y-81524000D02*
X218874000Y-81876000D01*
X218564000Y-81876000D02*
X218564000Y-81524000D01*
X217324000Y-81876000D02*
X217324000Y-81524000D01*
X216518000Y-82000000D02*
X216580000Y-82000000D01*
X216084000Y-81876000D02*
X216084000Y-81524000D01*
X217758000Y-82000000D02*
X217820000Y-82000000D01*
X217634000Y-81524000D02*
X217634000Y-81876000D01*
X212100000Y-81400000D02*
X215030000Y-81400000D01*
X216704000Y-81876000D02*
X216704000Y-81524000D01*
X218688000Y-81400000D02*
X218750000Y-81400000D01*
X218068000Y-81400000D02*
X218130000Y-81400000D01*
X218378000Y-82000000D02*
X218440000Y-82000000D01*
X218254000Y-81524000D02*
X218254000Y-81876000D01*
X215774000Y-81524000D02*
X215774000Y-81876000D01*
X215464000Y-81576000D02*
X215464000Y-81524000D01*
X217448000Y-81400000D02*
X217510000Y-81400000D01*
X216394000Y-81524000D02*
X216394000Y-81876000D01*
X223710000Y-81400000D02*
X223740000Y-81400000D01*
X216208000Y-81400000D02*
X216270000Y-81400000D01*
X217138000Y-82000000D02*
X217200000Y-82000000D01*
X221664000Y-81926000D02*
X221664000Y-81524000D01*
X215898000Y-82000000D02*
X215960000Y-82000000D01*
X221788000Y-81400000D02*
X221850000Y-81400000D01*
X223524000Y-81524000D02*
G75*
G02*
X223648000Y-81400000I124000J0D01*
G01*
X221540000Y-82050000D02*
G75*
G03*
X221664000Y-81926000I0J124000D01*
G01*
X220920000Y-81650000D02*
G75*
G03*
X221044000Y-81526000I0J124000D01*
G01*
X222594000Y-82276000D02*
G75*
G03*
X222718000Y-82400000I124000J0D01*
G01*
X222160000Y-82400000D02*
G75*
G03*
X222284000Y-82276000I0J124000D01*
G01*
X221664000Y-81524000D02*
G75*
G02*
X221788000Y-81400000I124000J0D01*
G01*
X221230000Y-81400000D02*
G75*
G02*
X221354000Y-81524000I0J-124000D01*
G01*
X222780000Y-82400000D02*
G75*
G03*
X222904000Y-82276000I0J124000D01*
G01*
X221974000Y-82276000D02*
G75*
G03*
X222098000Y-82400000I124000J0D01*
G01*
X220610000Y-81400000D02*
G75*
G02*
X220734000Y-81524000I0J-124000D01*
G01*
X222470000Y-81400000D02*
G75*
G02*
X222594000Y-81524000I0J-124000D01*
G01*
X223400000Y-82400000D02*
G75*
G03*
X223524000Y-82276000I0J124000D01*
G01*
X223214000Y-82276000D02*
G75*
G03*
X223338000Y-82400000I124000J0D01*
G01*
X220734000Y-81526000D02*
G75*
G03*
X220858000Y-81650000I124000J0D01*
G01*
X223090000Y-81400000D02*
G75*
G02*
X223214000Y-81524000I0J-124000D01*
G01*
%TO.N,FMC_A1*%
X204257379Y-66176000D02*
X205366000Y-66176000D01*
X205490000Y-68910000D02*
X205490000Y-68470000D01*
X204133379Y-67602000D02*
X204133379Y-67540000D01*
X205490000Y-67726000D02*
X204257379Y-67726000D01*
X207396606Y-67912000D02*
X207396606Y-67850000D01*
X204257397Y-68036000D02*
X205366000Y-68036000D01*
X205366000Y-68346000D02*
X204257397Y-68346000D01*
X204133397Y-68222000D02*
X204133397Y-68160000D01*
X205470000Y-68930000D02*
X205490000Y-68910000D01*
X205366000Y-68036000D02*
X207272606Y-68036000D01*
X207275000Y-64058414D02*
X207275000Y-63375000D01*
X207272606Y-67726000D02*
X205490000Y-67726000D01*
X207396619Y-66672000D02*
X207396619Y-66610000D01*
X204257379Y-67416000D02*
X205490000Y-67416000D01*
X204133379Y-66362000D02*
X204133379Y-66300000D01*
X204133379Y-66982000D02*
X204133379Y-66920000D01*
X204257379Y-66796000D02*
X205490000Y-66796000D01*
X205490000Y-67416000D02*
X207272606Y-67416000D01*
X205490000Y-66052000D02*
X205490000Y-65990000D01*
X207272606Y-67106000D02*
X205490000Y-67106000D01*
X205490000Y-66796000D02*
X207272619Y-66796000D01*
X205490000Y-66486000D02*
X204257379Y-66486000D01*
X205490000Y-67106000D02*
X204257379Y-67106000D01*
X205490000Y-65843414D02*
X207275000Y-64058414D01*
X207396606Y-67292000D02*
X207396606Y-67230000D01*
X207272619Y-66486000D02*
X205490000Y-66486000D01*
X205490000Y-65990000D02*
X205490000Y-65843414D01*
X207396606Y-67230000D02*
G75*
G03*
X207272606Y-67105994I-124006J0D01*
G01*
X207396619Y-66610000D02*
G75*
G03*
X207272619Y-66485981I-124019J0D01*
G01*
X207272619Y-66796000D02*
G75*
G03*
X207396600Y-66672000I-19J124000D01*
G01*
X205366000Y-66176000D02*
G75*
G03*
X205490000Y-66052000I0J124000D01*
G01*
X204257379Y-67106000D02*
G75*
G02*
X204133400Y-66982000I21J124000D01*
G01*
X204133379Y-66300000D02*
G75*
G02*
X204257379Y-66175979I124021J0D01*
G01*
X204133379Y-67540000D02*
G75*
G02*
X204257379Y-67415979I124021J0D01*
G01*
X204257379Y-67726000D02*
G75*
G02*
X204133400Y-67602000I21J124000D01*
G01*
X207272606Y-68036000D02*
G75*
G03*
X207396600Y-67912000I-6J124000D01*
G01*
X204257379Y-66486000D02*
G75*
G02*
X204133400Y-66362000I21J124000D01*
G01*
X207396606Y-67850000D02*
G75*
G03*
X207272606Y-67725994I-124006J0D01*
G01*
X204257397Y-68346000D02*
G75*
G02*
X204133400Y-68222000I3J124000D01*
G01*
X204133397Y-68160000D02*
G75*
G02*
X204257397Y-68035997I124003J0D01*
G01*
X205490000Y-68470000D02*
G75*
G03*
X205366000Y-68346000I-124000J0D01*
G01*
X207272606Y-67416000D02*
G75*
G03*
X207396600Y-67292000I-6J124000D01*
G01*
X204133379Y-66920000D02*
G75*
G02*
X204257379Y-66795979I124021J0D01*
G01*
%TO.N,FMC_A0*%
X211250000Y-71900000D02*
X212150000Y-71000000D01*
X203760000Y-71900000D02*
X211250000Y-71900000D01*
X203730000Y-71870000D02*
X203760000Y-71900000D01*
%TO.N,USB_OTG_HS_ULPI_D5*%
X219954000Y-87466000D02*
X219954000Y-88322450D01*
X221504000Y-87590000D02*
X221504000Y-86757549D01*
X219644000Y-87466000D02*
X219644000Y-86757550D01*
X224560000Y-88030000D02*
X224560000Y-89450000D01*
X223240000Y-87590000D02*
X223404397Y-87590000D01*
X222868000Y-86633543D02*
X222930000Y-86633543D01*
X220264000Y-87590000D02*
X220264000Y-86757549D01*
X223054000Y-86757543D02*
X223054000Y-87466000D01*
X220264000Y-88322450D02*
X220264000Y-87590000D01*
X220388000Y-86633549D02*
X220450000Y-86633549D01*
X221194000Y-86757549D02*
X221194000Y-87590000D01*
X220574000Y-86757549D02*
X220574000Y-87590000D01*
X221628000Y-86633549D02*
X221690000Y-86633549D01*
X222124000Y-88322450D02*
X222124000Y-87590000D01*
X221008000Y-86633549D02*
X221070000Y-86633549D01*
X219954000Y-86757550D02*
X219954000Y-87466000D01*
X222124000Y-87590000D02*
X222124000Y-86757549D01*
X225910000Y-90800000D02*
X226700000Y-90800000D01*
X221318000Y-88446450D02*
X221380000Y-88446450D01*
X224120000Y-87590000D02*
X224560000Y-88030000D01*
X220884000Y-88322450D02*
X220884000Y-87590000D01*
X221938000Y-88446450D02*
X222000000Y-88446450D01*
X224560000Y-89450000D02*
X225910000Y-90800000D01*
X218804000Y-87004000D02*
X219390000Y-87590000D01*
X223404397Y-87590000D02*
X224120000Y-87590000D01*
X222434000Y-86757549D02*
X222434000Y-87590000D01*
X222744000Y-88322450D02*
X222744000Y-87590000D01*
X221814000Y-86757549D02*
X221814000Y-87590000D01*
X219768000Y-86633550D02*
X219830000Y-86633550D01*
X219390000Y-87590000D02*
X219520000Y-87590000D01*
X222434000Y-87590000D02*
X222434000Y-88322450D01*
X220884000Y-87590000D02*
X220884000Y-86757549D01*
X220078000Y-88446450D02*
X220140000Y-88446450D01*
X220574000Y-87590000D02*
X220574000Y-88322450D01*
X220698000Y-88446450D02*
X220760000Y-88446450D01*
X221504000Y-88322450D02*
X221504000Y-87590000D01*
X223178000Y-87590000D02*
X223240000Y-87590000D01*
X222248000Y-86633549D02*
X222310000Y-86633549D01*
X218804000Y-84704000D02*
X218804000Y-87004000D01*
X221814000Y-87590000D02*
X221814000Y-88322450D01*
X222558000Y-88446450D02*
X222620000Y-88446450D01*
X218070000Y-83970000D02*
X218804000Y-84704000D01*
X221194000Y-87590000D02*
X221194000Y-88322450D01*
X222744000Y-87590000D02*
X222744000Y-86757543D01*
X220450000Y-86633549D02*
G75*
G02*
X220573951Y-86757549I0J-123951D01*
G01*
X220574000Y-88322450D02*
G75*
G03*
X220698000Y-88446400I124000J50D01*
G01*
X222744000Y-86757543D02*
G75*
G02*
X222868000Y-86633500I124000J43D01*
G01*
X221690000Y-86633549D02*
G75*
G02*
X221813951Y-86757549I0J-123951D01*
G01*
X221814000Y-88322450D02*
G75*
G03*
X221938000Y-88446400I124000J50D01*
G01*
X222124000Y-86757549D02*
G75*
G02*
X222248000Y-86633500I124000J49D01*
G01*
X221504000Y-86757549D02*
G75*
G02*
X221628000Y-86633500I124000J49D01*
G01*
X220264000Y-86757549D02*
G75*
G02*
X220388000Y-86633500I124000J49D01*
G01*
X219520000Y-87590000D02*
G75*
G03*
X219644000Y-87466000I0J124000D01*
G01*
X219644000Y-86757550D02*
G75*
G02*
X219768000Y-86633600I124000J-50D01*
G01*
X219954000Y-88322450D02*
G75*
G03*
X220078000Y-88446400I124000J50D01*
G01*
X222930000Y-86633543D02*
G75*
G02*
X223053957Y-86757543I0J-123957D01*
G01*
X220760000Y-88446450D02*
G75*
G03*
X220884050Y-88322450I0J124050D01*
G01*
X222434000Y-88322450D02*
G75*
G03*
X222558000Y-88446400I124000J50D01*
G01*
X222310000Y-86633549D02*
G75*
G02*
X222433951Y-86757549I0J-123951D01*
G01*
X221380000Y-88446450D02*
G75*
G03*
X221504050Y-88322450I0J124050D01*
G01*
X222000000Y-88446450D02*
G75*
G03*
X222124050Y-88322450I0J124050D01*
G01*
X220140000Y-88446450D02*
G75*
G03*
X220264050Y-88322450I0J124050D01*
G01*
X223054000Y-87466000D02*
G75*
G03*
X223178000Y-87590000I124000J0D01*
G01*
X221194000Y-88322450D02*
G75*
G03*
X221318000Y-88446400I124000J50D01*
G01*
X221070000Y-86633549D02*
G75*
G02*
X221193951Y-86757549I0J-123951D01*
G01*
X219830000Y-86633550D02*
G75*
G02*
X219954050Y-86757550I0J-124050D01*
G01*
X222620000Y-88446450D02*
G75*
G03*
X222744050Y-88322450I0J124050D01*
G01*
X220884000Y-86757549D02*
G75*
G02*
X221008000Y-86633500I124000J49D01*
G01*
D22*
%TO.N,+5V*%
X228500000Y-93100000D02*
X228420000Y-93180000D01*
X228500000Y-92160000D02*
X228500000Y-93100000D01*
D21*
%TO.N,USB_OTG_HS_ULPI_D4*%
X225110000Y-83920000D02*
X225100000Y-83920000D01*
X225490000Y-84300000D02*
X225110000Y-83920000D01*
%TO.N,USB_OTG_HS_ULPI_CK*%
X224764000Y-66007122D02*
X224764000Y-66860000D01*
X223834000Y-67712878D02*
X223834000Y-66860000D01*
X223834000Y-66860000D02*
X223834000Y-66007122D01*
X226016586Y-65800000D02*
X226700000Y-65800000D01*
X225260000Y-66860000D02*
X225720000Y-66860000D01*
X224454000Y-67712878D02*
X224454000Y-66860000D01*
X224144000Y-66007122D02*
X224144000Y-66860000D01*
X225720000Y-66860000D02*
X225720000Y-66096586D01*
X223338000Y-66233127D02*
X223400000Y-66233127D01*
X225074000Y-67712903D02*
X225074000Y-66984000D01*
X221830000Y-67260000D02*
X222230000Y-66860000D01*
X223958000Y-65883122D02*
X224020000Y-65883122D01*
X222230000Y-66860000D02*
X223090000Y-66860000D01*
X224454000Y-66860000D02*
X224454000Y-66007122D01*
X223524000Y-66736000D02*
X223524000Y-67712878D01*
X225198000Y-66860000D02*
X225260000Y-66860000D01*
X225720000Y-66096586D02*
X226016586Y-65800000D01*
X223524000Y-66357127D02*
X223524000Y-66736000D01*
X223648000Y-67836878D02*
X223710000Y-67836878D01*
X224578000Y-65883122D02*
X224640000Y-65883122D01*
X224764000Y-66860000D02*
X224764000Y-67712903D01*
X224888000Y-67836903D02*
X224950000Y-67836903D01*
X224144000Y-66860000D02*
X224144000Y-67712878D01*
X224268000Y-67836878D02*
X224330000Y-67836878D01*
X223214000Y-66736000D02*
X223214000Y-66357127D01*
X223710000Y-67836878D02*
G75*
G03*
X223833978Y-67712878I0J123978D01*
G01*
X224330000Y-67836878D02*
G75*
G03*
X224453978Y-67712878I0J123978D01*
G01*
X224454000Y-66007122D02*
G75*
G02*
X224578000Y-65883100I124000J22D01*
G01*
X225074000Y-66984000D02*
G75*
G02*
X225198000Y-66860000I124000J0D01*
G01*
X223090000Y-66860000D02*
G75*
G03*
X223214000Y-66736000I0J124000D01*
G01*
X224020000Y-65883122D02*
G75*
G02*
X224143978Y-66007122I0J-123978D01*
G01*
X224950000Y-67836903D02*
G75*
G03*
X225074003Y-67712903I0J124003D01*
G01*
X224764000Y-67712903D02*
G75*
G03*
X224888000Y-67836900I124000J3D01*
G01*
X223524000Y-67712878D02*
G75*
G03*
X223648000Y-67836900I124000J-22D01*
G01*
X224640000Y-65883122D02*
G75*
G02*
X224763978Y-66007122I0J-123978D01*
G01*
X224144000Y-67712878D02*
G75*
G03*
X224268000Y-67836900I124000J-22D01*
G01*
X223834000Y-66007122D02*
G75*
G02*
X223958000Y-65883100I124000J22D01*
G01*
X223214000Y-66357127D02*
G75*
G02*
X223338000Y-66233100I124000J27D01*
G01*
X223400000Y-66233127D02*
G75*
G02*
X223523973Y-66357127I0J-123973D01*
G01*
%TO.N,USB_OTG_FS_P*%
X188083552Y-93216448D02*
X187800000Y-93500000D01*
X204275000Y-93850001D02*
X202650001Y-95475000D01*
X191893200Y-95475000D02*
X189634648Y-93216448D01*
X189634648Y-93216448D02*
X188083552Y-93216448D01*
X187800000Y-93500000D02*
X187800000Y-95300000D01*
X204275000Y-92725000D02*
X204275000Y-93850001D01*
X202650001Y-95475000D02*
X191893200Y-95475000D01*
D19*
%TO.N,GND*%
X205775000Y-62025000D02*
X205775000Y-63375000D01*
X227950000Y-74800000D02*
X228250000Y-74500000D01*
D20*
X197350000Y-77300000D02*
X198450000Y-77300000D01*
D19*
X210950000Y-61450000D02*
X211500000Y-60900000D01*
D21*
X226700000Y-85300000D02*
X225756070Y-85300000D01*
D19*
X219211698Y-94500000D02*
X220275000Y-93436698D01*
D21*
X189900000Y-88650000D02*
X189400000Y-88650000D01*
D19*
X218950000Y-94500000D02*
X219211698Y-94500000D01*
X184400000Y-87650000D02*
X184030000Y-87650000D01*
X209530000Y-91600000D02*
X209275000Y-91855000D01*
D21*
X188050000Y-86547487D02*
X187400000Y-85897487D01*
D19*
X211275000Y-62485661D02*
X210950000Y-62160661D01*
D21*
X188900000Y-87150000D02*
X188652513Y-87150000D01*
D19*
X184900000Y-87650000D02*
X184400000Y-87650000D01*
X196000000Y-84300000D02*
X195800000Y-84500000D01*
X197350000Y-84300000D02*
X196000000Y-84300000D01*
D21*
X188652513Y-87150000D02*
X188052513Y-86550000D01*
D19*
X226700000Y-79800000D02*
X227950000Y-79800000D01*
X198650000Y-68500000D02*
X198450000Y-68300000D01*
D21*
X184030000Y-89650000D02*
X183500000Y-90180000D01*
X184400000Y-88650000D02*
X184050000Y-88650000D01*
D19*
X209275000Y-91855000D02*
X209275000Y-92725000D01*
D21*
X188052513Y-86550000D02*
X188050000Y-86550000D01*
X191200000Y-87650000D02*
X191400000Y-87450000D01*
X186900000Y-87600000D02*
X187250000Y-87250000D01*
D19*
X227950000Y-79800000D02*
X228250000Y-79500000D01*
D21*
X189400000Y-88650000D02*
X188152513Y-88650000D01*
D19*
X211500000Y-60900000D02*
X211700000Y-60900000D01*
D21*
X186400000Y-86650000D02*
X186647487Y-86650000D01*
X188152513Y-88650000D02*
X187900000Y-88397487D01*
D19*
X228250000Y-69100000D02*
X227950000Y-68800000D01*
X226700000Y-74800000D02*
X227950000Y-74800000D01*
X210950000Y-62160661D02*
X210950000Y-61450000D01*
D21*
X218775000Y-63375000D02*
X218775000Y-62175000D01*
X218775000Y-62175000D02*
X219150000Y-61800000D01*
D19*
X213275000Y-91837764D02*
X213000000Y-91562764D01*
D21*
X187250000Y-87250000D02*
X187250000Y-87252513D01*
X184900000Y-89650000D02*
X184400000Y-89650000D01*
X187250000Y-87252513D02*
X187900000Y-87902513D01*
X187400000Y-85897487D02*
X187400000Y-85650000D01*
D19*
X211275000Y-63375000D02*
X211275000Y-62485661D01*
D21*
X186647487Y-86650000D02*
X187247487Y-87250000D01*
D20*
X198450000Y-77300000D02*
X198700000Y-77550000D01*
D21*
X225756070Y-85300000D02*
X225734359Y-85321711D01*
D19*
X184900000Y-88150000D02*
X184900000Y-87650000D01*
D21*
X187247487Y-87250000D02*
X187250000Y-87250000D01*
X187900000Y-87902513D02*
X187900000Y-88150000D01*
D19*
X213000000Y-91562764D02*
X213000000Y-91550000D01*
X224275000Y-63375000D02*
X224275000Y-64575000D01*
D21*
X188050000Y-86550000D02*
X188050000Y-86547487D01*
D19*
X227950000Y-68800000D02*
X226700000Y-68800000D01*
X213275000Y-92725000D02*
X213275000Y-91837764D01*
X198450000Y-68300000D02*
X197350000Y-68300000D01*
X202775000Y-92725000D02*
X202775000Y-94155000D01*
D21*
X186900000Y-88150000D02*
X186900000Y-87600000D01*
X190900000Y-87650000D02*
X191200000Y-87650000D01*
D19*
X220275000Y-93436698D02*
X220275000Y-92725000D01*
D21*
X184400000Y-89650000D02*
X184030000Y-89650000D01*
D19*
X205600000Y-61850000D02*
X205775000Y-62025000D01*
D21*
X187900000Y-88397487D02*
X187900000Y-88150000D01*
D19*
X202775000Y-94155000D02*
X202680000Y-94250000D01*
X224275000Y-64575000D02*
X224450000Y-64750000D01*
X184030000Y-87650000D02*
X183500000Y-87120000D01*
D20*
%TO.N,+5V*%
X194550000Y-104350000D02*
X193300000Y-103100000D01*
X193300000Y-103100000D02*
X193300000Y-98500000D01*
X216250000Y-104350000D02*
X194550000Y-104350000D01*
X217425000Y-97650000D02*
X217450000Y-97675000D01*
X217450000Y-97675000D02*
X217450000Y-103150000D01*
X228420000Y-93180000D02*
X227750000Y-93850000D01*
X217450000Y-103150000D02*
X216250000Y-104350000D01*
D21*
%TO.N,USB_OTG_FS_VBUS*%
X205775000Y-92725000D02*
X205775000Y-94825000D01*
D20*
X189868629Y-97300000D02*
X193750000Y-97300000D01*
D21*
X205775000Y-94825000D02*
X202090000Y-98510000D01*
D20*
X193750000Y-97300000D02*
X194280000Y-97830000D01*
X189250000Y-98100000D02*
X189250000Y-97918629D01*
X189250000Y-97918629D02*
X189868629Y-97300000D01*
D21*
X202090000Y-98510000D02*
X194280000Y-98510000D01*
D20*
X194280000Y-97830000D02*
X194280000Y-98510000D01*
D21*
%TO.N,VDDSDMMC_STM32*%
X189840000Y-87650000D02*
X189900000Y-87650000D01*
D20*
X196400000Y-76800000D02*
X196350000Y-76750000D01*
D19*
X208570000Y-91600000D02*
X208775000Y-91805000D01*
D21*
X202275000Y-93675000D02*
X202275000Y-92725000D01*
D19*
X228250000Y-68100000D02*
X228050000Y-68300000D01*
X206550000Y-62150000D02*
X206275000Y-62425000D01*
X228050000Y-75300000D02*
X226700000Y-75300000D01*
X227450000Y-85800000D02*
X226700000Y-85800000D01*
X211775000Y-64950000D02*
X211725000Y-65000000D01*
X228200000Y-85300000D02*
X227950000Y-85300000D01*
X201775000Y-63375000D02*
X201775000Y-61825000D01*
X196370001Y-83570000D02*
X195800000Y-83570000D01*
D21*
X188526257Y-87776257D02*
X188652513Y-87650000D01*
D19*
X211775000Y-61925000D02*
X211700000Y-61850000D01*
X198700000Y-67550000D02*
X198450000Y-67300000D01*
D21*
X186773744Y-86023744D02*
X186900000Y-85897487D01*
X228320000Y-90800000D02*
X227949999Y-90800000D01*
D19*
X224775000Y-64014339D02*
X225400000Y-64639339D01*
X218300000Y-94200000D02*
X218571586Y-93928414D01*
X226700000Y-80300000D02*
X228050000Y-80300000D01*
D20*
X197350000Y-76800000D02*
X198500000Y-76800000D01*
D19*
X197350000Y-83800000D02*
X196600001Y-83800000D01*
D21*
X188526257Y-87776257D02*
X188200000Y-87450000D01*
D19*
X228050000Y-68300000D02*
X226700000Y-68300000D01*
X208775000Y-91805000D02*
X208775000Y-92725000D01*
D21*
X219775000Y-92725000D02*
X219775000Y-93408414D01*
D19*
X206275000Y-62425000D02*
X206275000Y-63375000D01*
X206550000Y-61850000D02*
X206550000Y-62150000D01*
X197350000Y-90300000D02*
X198750000Y-90300000D01*
X196600001Y-83800000D02*
X196370001Y-83570000D01*
X211775000Y-63375000D02*
X211775000Y-64950000D01*
D21*
X183550000Y-89150000D02*
X183500000Y-89200000D01*
X188400000Y-87902513D02*
X188526257Y-87776257D01*
X218275000Y-93408414D02*
X218275000Y-92725000D01*
X186773744Y-86023744D02*
X187050000Y-86300000D01*
X188652513Y-87650000D02*
X188900000Y-87650000D01*
X219775000Y-93408414D02*
X219478414Y-93705000D01*
D19*
X198750000Y-90300000D02*
X198800000Y-90350000D01*
D20*
X198700000Y-76600000D02*
X198650000Y-76600000D01*
D19*
X211775000Y-63375000D02*
X211775000Y-61925000D01*
X184400000Y-88150000D02*
X184350000Y-88100000D01*
D21*
X183500000Y-88050000D02*
X183600000Y-88150000D01*
D22*
X188350000Y-88100000D02*
X188400000Y-88150000D01*
D20*
X197350000Y-76800000D02*
X196400000Y-76800000D01*
D21*
X186900000Y-85897487D02*
X186900000Y-85650000D01*
X218571586Y-93705000D02*
X218275000Y-93408414D01*
D22*
X184900000Y-88650000D02*
X185400000Y-88650000D01*
D19*
X228250000Y-75500000D02*
X228050000Y-75300000D01*
D21*
X201700000Y-94250000D02*
X202275000Y-93675000D01*
X188400000Y-88150000D02*
X188400000Y-87902513D01*
X184400000Y-89150000D02*
X183550000Y-89150000D01*
X227949999Y-90800000D02*
X227449999Y-90300000D01*
X218275000Y-61875000D02*
X218200000Y-61800000D01*
D20*
X198500000Y-76800000D02*
X198700000Y-76600000D01*
D19*
X224775000Y-63375000D02*
X224775000Y-64014339D01*
D21*
X189730000Y-87540000D02*
X189840000Y-87650000D01*
D22*
X184900000Y-89150000D02*
X184900000Y-88650000D01*
X184400000Y-89150000D02*
X184900000Y-89150000D01*
D21*
X186400000Y-86150000D02*
X186647487Y-86150000D01*
D19*
X228050000Y-80300000D02*
X228250000Y-80500000D01*
D21*
X219478414Y-93705000D02*
X218571586Y-93705000D01*
D19*
X218571586Y-93928414D02*
X218571586Y-93705000D01*
X225400000Y-64639339D02*
X225400000Y-64750000D01*
D21*
X189010000Y-87540000D02*
X189730000Y-87540000D01*
X183600000Y-88150000D02*
X184400000Y-88150000D01*
X186647487Y-86150000D02*
X186773744Y-86023744D01*
D19*
X201775000Y-61825000D02*
X201750000Y-61800000D01*
X227950000Y-85300000D02*
X227450000Y-85800000D01*
D21*
X188900000Y-87650000D02*
X189010000Y-87540000D01*
X227449999Y-90300000D02*
X226700000Y-90300000D01*
X218275000Y-63375000D02*
X218275000Y-61875000D01*
D19*
X198450000Y-67300000D02*
X197350000Y-67300000D01*
%TO.N,USB_OTG_HS_VBUS*%
X229950000Y-87760661D02*
X231400000Y-89210661D01*
X223160661Y-95200000D02*
X223810661Y-95850000D01*
X219370000Y-59020000D02*
X222512450Y-62162450D01*
D21*
X223830000Y-96502376D02*
X223830000Y-95897624D01*
D19*
X231400000Y-91390000D02*
X228392764Y-91390000D01*
X223100000Y-95200000D02*
X223160661Y-95200000D01*
X227462450Y-62162450D02*
X230750000Y-65450000D01*
X226482764Y-93300000D02*
X226050000Y-93300000D01*
X217390000Y-59360000D02*
X217730000Y-59020000D01*
D21*
X223182376Y-97150000D02*
X223830000Y-96502376D01*
X223830000Y-95897624D02*
X223132376Y-95200000D01*
X223132376Y-95200000D02*
X223100000Y-95200000D01*
D19*
X231400000Y-89210661D02*
X231400000Y-91390000D01*
X223810661Y-95850000D02*
X224800000Y-95850000D01*
D21*
X223050000Y-97150000D02*
X223182376Y-97150000D01*
D19*
X224800000Y-95850000D02*
X225250000Y-95400000D01*
X228392764Y-91390000D02*
X226482764Y-93300000D01*
X229950000Y-84910661D02*
X229950000Y-87760661D01*
X230750000Y-84110661D02*
X229950000Y-84910661D01*
X217730000Y-59020000D02*
X219370000Y-59020000D01*
X222512450Y-62162450D02*
X227462450Y-62162450D01*
X230750000Y-65450000D02*
X230750000Y-84110661D01*
D21*
%TO.N,VDDA_STM32*%
X219275000Y-63375000D02*
X219775000Y-63375000D01*
X219775000Y-62105000D02*
X220080000Y-61800000D01*
X219775000Y-63375000D02*
X219775000Y-62105000D01*
D19*
%TO.N,VDD12DSI_STM32*%
X217775000Y-95675000D02*
X217775000Y-92725000D01*
X216850000Y-96050000D02*
X216296000Y-96604000D01*
X217400000Y-96050000D02*
X216850000Y-96050000D01*
X215054000Y-96604000D02*
X214300000Y-95850000D01*
X214300000Y-95850000D02*
X214300000Y-94043040D01*
X214300000Y-94043040D02*
X214775000Y-93568040D01*
X217400000Y-96050000D02*
X217775000Y-95675000D01*
X216296000Y-96604000D02*
X215054000Y-96604000D01*
X214775000Y-93568040D02*
X214775000Y-92725000D01*
%TO.N,RCC_OSC_OUT*%
X214950000Y-62300001D02*
X215275000Y-62625001D01*
X215800000Y-60300000D02*
X215250000Y-60300000D01*
X214950000Y-60600000D02*
X214950000Y-62300001D01*
X215275000Y-62625001D02*
X215275000Y-63375000D01*
X215250000Y-60300000D02*
X214950000Y-60600000D01*
D21*
%TO.N,RCC_OSC_IN*%
X214775000Y-62625001D02*
X214100000Y-61950001D01*
X214100000Y-61950001D02*
X214100000Y-61600000D01*
X214775000Y-63375000D02*
X214775000Y-62625001D01*
%TO.N,NRST*%
X216480000Y-61920001D02*
X215775000Y-62625001D01*
D19*
X215500000Y-64850000D02*
X215775000Y-64575000D01*
X215775000Y-64575000D02*
X215775000Y-63375000D01*
D21*
X216480000Y-58220000D02*
X216480000Y-61920001D01*
X215775000Y-62625001D02*
X215775000Y-63375000D01*
D20*
%TO.N,Net-(U4-VCAP_1)*%
X228425000Y-83800000D02*
X228425000Y-83943629D01*
X228425000Y-83943629D02*
X227568629Y-84800000D01*
X227568629Y-84800000D02*
X226700000Y-84800000D01*
D21*
%TO.N,Net-(U4-VCAP_2)*%
X203250000Y-91750000D02*
X203050000Y-91550000D01*
X203275000Y-91775000D02*
X203275000Y-92725000D01*
X203250000Y-91750000D02*
X203275000Y-91775000D01*
X203050000Y-91550000D02*
X202550000Y-91550000D01*
D19*
%TO.N,USB_OTG_FS_OverCurrent*%
X191750000Y-92000000D02*
X196700000Y-92000000D01*
X191250000Y-92500000D02*
X191750000Y-92000000D01*
X196700000Y-92000000D02*
X197350000Y-91350000D01*
X197350000Y-91350000D02*
X197350000Y-90800000D01*
%TO.N,USB_OTG_HS_OverCurrent*%
X229650000Y-96200000D02*
X229650000Y-95670000D01*
X229650000Y-95670000D02*
X228890000Y-94910000D01*
X227260000Y-94910000D02*
X226800000Y-94450000D01*
X222150000Y-94450000D02*
X221775000Y-94075000D01*
X221775000Y-94075000D02*
X221775000Y-92725000D01*
X228890000Y-94910000D02*
X227260000Y-94910000D01*
X226800000Y-94450000D02*
X222150000Y-94450000D01*
D20*
%TO.N,Net-(U12A-VDDI)*%
X189900000Y-90980000D02*
X189880000Y-91000000D01*
X189900000Y-89650000D02*
X189900000Y-90150000D01*
X189900000Y-90150000D02*
X189900000Y-90980000D01*
D21*
%TO.N,SWO*%
X195730000Y-72429999D02*
X195730000Y-71920000D01*
X196600001Y-73300000D02*
X195730000Y-72429999D01*
X197350000Y-73300000D02*
X196600001Y-73300000D01*
%TO.N,SWDIO*%
X203775000Y-92725000D02*
X203775000Y-91625000D01*
X203775000Y-91625000D02*
X203750000Y-91600000D01*
%TO.N,SWCLK*%
X198200000Y-89800000D02*
X198600000Y-89400000D01*
X197350000Y-89800000D02*
X198200000Y-89800000D01*
D19*
%TO.N,DSIHOST_CKN*%
X213650000Y-91500000D02*
X214961698Y-91500000D01*
X214961698Y-91500000D02*
X215275000Y-91813302D01*
X215275000Y-91813302D02*
X215275000Y-92725000D01*
D21*
%TO.N,I2C_4_SDA*%
X210760000Y-98050000D02*
X210100000Y-98710000D01*
X216192240Y-98050000D02*
X210760000Y-98050000D01*
X216500000Y-97742240D02*
X216192240Y-98050000D01*
X217000000Y-96600000D02*
X216500000Y-97100000D01*
X220775000Y-93408414D02*
X217583414Y-96600000D01*
X216500000Y-97100000D02*
X216500000Y-97742240D01*
X220775000Y-92725000D02*
X220775000Y-93408414D01*
X217583414Y-96600000D02*
X217000000Y-96600000D01*
%TO.N,I2C_4_SCL*%
X221275000Y-93475000D02*
X217840000Y-96910000D01*
X221275000Y-92725000D02*
X221275000Y-93475000D01*
X216810000Y-98090000D02*
X216540000Y-98360000D01*
X216810000Y-97228406D02*
X216810000Y-98090000D01*
X216540000Y-98360000D02*
X211134480Y-98360000D01*
X209494000Y-99194000D02*
X209000000Y-98700000D01*
X210300480Y-99194000D02*
X209494000Y-99194000D01*
X211134480Y-98360000D02*
X210300480Y-99194000D01*
X217840000Y-96910000D02*
X217128406Y-96910000D01*
X217128406Y-96910000D02*
X216810000Y-97228406D01*
D19*
%TO.N,DSIHOST_D1P*%
X213369066Y-94479000D02*
X212946000Y-94479000D01*
X214250001Y-92749999D02*
X214250001Y-93598065D01*
X214275000Y-92725000D02*
X214250001Y-92749999D01*
X212946000Y-94479000D02*
X212800000Y-94625000D01*
X214250001Y-93598065D02*
X213369066Y-94479000D01*
%TO.N,DSIHOST_D1N*%
X213799999Y-92749999D02*
X213799999Y-93411699D01*
X213775000Y-92725000D02*
X213799999Y-92749999D01*
X213799999Y-93411699D02*
X213236698Y-93975000D01*
X213236698Y-93975000D02*
X212800000Y-93975000D01*
%TO.N,DSIHOST_D0N*%
X214924999Y-94632565D02*
X214924999Y-94900001D01*
X216775000Y-92725000D02*
X216799999Y-92749999D01*
X216799999Y-93411699D02*
X216486698Y-93725000D01*
X216486698Y-93725000D02*
X215832564Y-93725000D01*
X216799999Y-92749999D02*
X216799999Y-93411699D01*
X214924999Y-94900001D02*
X214825000Y-95000000D01*
X215832564Y-93725000D02*
X214924999Y-94632565D01*
%TO.N,DSIHOST_CKP*%
X215750000Y-92700000D02*
X215775000Y-92725000D01*
X215750000Y-91450000D02*
X215750000Y-92700000D01*
%TO.N,DSIHOST_D0P*%
X215375001Y-94900001D02*
X215475000Y-95000000D01*
X215375001Y-94818963D02*
X215375001Y-94900001D01*
X216673086Y-94174980D02*
X216018984Y-94174980D01*
X217275000Y-92725000D02*
X217250001Y-92749999D01*
X217250001Y-93598065D02*
X216673086Y-94174980D01*
X217250001Y-92749999D02*
X217250001Y-93598065D01*
X216018984Y-94174980D02*
X215375001Y-94818963D01*
D20*
%TO.N,PDR_ON*%
X196150000Y-67800000D02*
X197350000Y-67800000D01*
%TO.N,BOOT0*%
X198750000Y-70800000D02*
X197350000Y-70800000D01*
D21*
%TO.N,STM32_LED*%
X196666586Y-80300000D02*
X197350000Y-80300000D01*
X195860000Y-79180000D02*
X195860000Y-79493414D01*
X195860000Y-79493414D02*
X196666586Y-80300000D01*
%TO.N,Enable GPIO*%
X191616000Y-92984000D02*
X192250000Y-92350000D01*
X198267414Y-91066000D02*
X203916000Y-91066000D01*
X192250000Y-92350000D02*
X196983414Y-92350000D01*
X184400000Y-93635000D02*
X184400000Y-92550000D01*
X184400000Y-92550000D02*
X184700000Y-92250000D01*
X190884000Y-92984000D02*
X191616000Y-92984000D01*
X190150000Y-92250000D02*
X190884000Y-92984000D01*
X184700000Y-92250000D02*
X190150000Y-92250000D01*
X203916000Y-91066000D02*
X204550000Y-91700000D01*
X205933414Y-91700000D02*
X206275000Y-92041586D01*
X204550000Y-91700000D02*
X205933414Y-91700000D01*
X206275000Y-92041586D02*
X206275000Y-92725000D01*
X196983414Y-92350000D02*
X198267414Y-91066000D01*
%TO.N,USB_OTG_FS_DETECT*%
X201775000Y-92725000D02*
X201775000Y-93490520D01*
X200481520Y-94784000D02*
X192384000Y-94784000D01*
X201775000Y-93490520D02*
X200481520Y-94784000D01*
X192384000Y-94784000D02*
X191800000Y-94200000D01*
%TO.N,USB_OTG_FS_ID*%
X196850000Y-96700000D02*
X203200000Y-96700000D01*
X203200000Y-96700000D02*
X205275000Y-94625000D01*
X205275000Y-94625000D02*
X205275000Y-92725000D01*
D19*
%TO.N,Net-(J4-CC2)*%
X222710661Y-99100000D02*
X221939339Y-99100000D01*
X226300000Y-101700000D02*
X225450000Y-100850000D01*
X221939339Y-99100000D02*
X220839339Y-98000000D01*
X220839339Y-98000000D02*
X220450000Y-98000000D01*
X224460661Y-100850000D02*
X222710661Y-99100000D01*
X225450000Y-100850000D02*
X224460661Y-100850000D01*
%TO.N,USB_OTG_HS_DETECT*%
X224275000Y-92013302D02*
X224275000Y-92725000D01*
X224563302Y-91725000D02*
X224275000Y-92013302D01*
X225475000Y-91725000D02*
X224563302Y-91725000D01*
X225780000Y-92030000D02*
X225475000Y-91725000D01*
D21*
%TO.N,SDMMC1_CMD*%
X185400000Y-88150000D02*
X185750000Y-88150000D01*
X196600000Y-86300000D02*
X196100000Y-85800000D01*
X185750000Y-88150000D02*
X185800000Y-88200000D01*
X197350000Y-86300000D02*
X196600000Y-86300000D01*
%TO.N,SDMMC1_D3*%
X194992000Y-87800000D02*
X194930000Y-87800000D01*
X190900000Y-90550000D02*
X190920000Y-90570000D01*
X195426000Y-87676000D02*
X195426000Y-87524000D01*
X194930000Y-87800000D02*
X194800000Y-87800000D01*
X195302000Y-87400000D02*
X195240000Y-87400000D01*
X195116000Y-87524000D02*
X195116000Y-87676000D01*
X194600000Y-87700000D02*
X194600000Y-86685000D01*
X196100001Y-87800000D02*
X195550000Y-87800000D01*
D23*
X190400000Y-89650000D02*
X190900000Y-90150000D01*
D21*
X194800000Y-87800000D02*
X194700000Y-87800000D01*
X194700000Y-87800000D02*
X194600000Y-87700000D01*
X196600001Y-88300000D02*
X196100001Y-87800000D01*
X197350000Y-88300000D02*
X196600001Y-88300000D01*
X190900000Y-90150000D02*
X190900000Y-90550000D01*
X195240000Y-87400000D02*
G75*
G03*
X195116000Y-87524000I0J-124000D01*
G01*
X195116000Y-87676000D02*
G75*
G02*
X194992000Y-87800000I-124000J0D01*
G01*
X195426000Y-87524000D02*
G75*
G03*
X195302000Y-87400000I-124000J0D01*
G01*
X195550000Y-87800000D02*
G75*
G02*
X195426000Y-87676000I0J124000D01*
G01*
%TO.N,SDMMC1_D1*%
X190900000Y-88650000D02*
X191220000Y-88650000D01*
X206400000Y-91250000D02*
X206775000Y-91625000D01*
X199400000Y-88200000D02*
X201300000Y-90100000D01*
X206775000Y-91625000D02*
X206775000Y-92725000D01*
X201300000Y-90100000D02*
X203600000Y-90100000D01*
X191220000Y-88650000D02*
X191340000Y-88530000D01*
X203600000Y-90100000D02*
X204750000Y-91250000D01*
X204750000Y-91250000D02*
X206400000Y-91250000D01*
X198650000Y-88200000D02*
X199400000Y-88200000D01*
%TO.N,SDMMC1_D2*%
X193580000Y-87980000D02*
X193720000Y-87980000D01*
X193084000Y-87980000D02*
X193084000Y-89568839D01*
X193208000Y-89692839D02*
X193270000Y-89692839D01*
X195393480Y-88666000D02*
X195393480Y-91516000D01*
X194319480Y-88150000D02*
X194959480Y-88790000D01*
X193720000Y-87980000D02*
X193830000Y-87980000D01*
X196013480Y-88790000D02*
X196013480Y-91516000D01*
X192774000Y-87980000D02*
X192774000Y-87691179D01*
X192898000Y-87567179D02*
X192960000Y-87567179D01*
X195827480Y-88140000D02*
X195889480Y-88140000D01*
X190972757Y-88150000D02*
X191142757Y-87980000D01*
X192278000Y-86267176D02*
X192340000Y-86267176D01*
X193084000Y-87691179D02*
X193084000Y-87980000D01*
X192154000Y-88104000D02*
X192154000Y-86391176D01*
X193518000Y-87980000D02*
X193580000Y-87980000D01*
X196323480Y-91516000D02*
X196323480Y-88914000D01*
X193394000Y-89568839D02*
X193394000Y-88104000D01*
X195517480Y-91640000D02*
X195579480Y-91640000D01*
X197340000Y-88790000D02*
X197350000Y-88800000D01*
X193830000Y-87980000D02*
X193830000Y-86730000D01*
X196013480Y-88264000D02*
X196013480Y-88790000D01*
X196770000Y-88790000D02*
X197340000Y-88790000D01*
X193830000Y-86730000D02*
X193800000Y-86700000D01*
X191360000Y-87980000D02*
X191720000Y-87980000D01*
X191142757Y-87980000D02*
X191360000Y-87980000D01*
X195393480Y-88264000D02*
X195393480Y-88666000D01*
X192588000Y-89692810D02*
X192650000Y-89692810D01*
X195207480Y-88140000D02*
X195269480Y-88140000D01*
X195703480Y-88790000D02*
X195703480Y-88264000D01*
X195083480Y-88666000D02*
X195083480Y-88264000D01*
X192464000Y-87980000D02*
X192464000Y-89568810D01*
X194000000Y-88150000D02*
X194319480Y-88150000D01*
X192464000Y-86391176D02*
X192464000Y-87980000D01*
X193830000Y-87980000D02*
X194000000Y-88150000D01*
X196509480Y-88790000D02*
X196770000Y-88790000D01*
X191968000Y-89592835D02*
X192030000Y-89592835D01*
X190900000Y-88150000D02*
X190972757Y-88150000D01*
X191844000Y-88104000D02*
X191844000Y-89468835D01*
X196447480Y-88790000D02*
X196509480Y-88790000D01*
X195703480Y-91516000D02*
X195703480Y-88790000D01*
X196137480Y-91640000D02*
X196199480Y-91640000D01*
X192774000Y-89568810D02*
X192774000Y-87980000D01*
X192154000Y-89468835D02*
X192154000Y-88104000D01*
X196199480Y-91640000D02*
G75*
G03*
X196323500Y-91516000I20J124000D01*
G01*
X192774000Y-87691179D02*
G75*
G02*
X192898000Y-87567200I124000J-21D01*
G01*
X192340000Y-86267176D02*
G75*
G02*
X192464024Y-86391176I0J-124024D01*
G01*
X195083480Y-88264000D02*
G75*
G02*
X195207480Y-88139980I124020J0D01*
G01*
X191844000Y-89468835D02*
G75*
G03*
X191968000Y-89592800I124000J35D01*
G01*
X191720000Y-87980000D02*
G75*
G02*
X191844000Y-88104000I0J-124000D01*
G01*
X192030000Y-89592835D02*
G75*
G03*
X192154035Y-89468835I0J124035D01*
G01*
X195269480Y-88140000D02*
G75*
G02*
X195393500Y-88264000I20J-124000D01*
G01*
X195579480Y-91640000D02*
G75*
G03*
X195703500Y-91516000I20J124000D01*
G01*
X193084000Y-89568839D02*
G75*
G03*
X193208000Y-89692800I124000J39D01*
G01*
X194959480Y-88790000D02*
G75*
G03*
X195083500Y-88666000I20J124000D01*
G01*
X195703480Y-88264000D02*
G75*
G02*
X195827480Y-88139980I124020J0D01*
G01*
X195889480Y-88140000D02*
G75*
G02*
X196013500Y-88264000I20J-124000D01*
G01*
X193270000Y-89692839D02*
G75*
G03*
X193394039Y-89568839I0J124039D01*
G01*
X192154000Y-86391176D02*
G75*
G02*
X192278000Y-86267200I124000J-24D01*
G01*
X196323480Y-88914000D02*
G75*
G02*
X196447480Y-88789980I124020J0D01*
G01*
X195393480Y-91516000D02*
G75*
G03*
X195517480Y-91640020I124020J0D01*
G01*
X193394000Y-88104000D02*
G75*
G02*
X193518000Y-87980000I124000J0D01*
G01*
X196013480Y-91516000D02*
G75*
G03*
X196137480Y-91640020I124020J0D01*
G01*
X192960000Y-87567179D02*
G75*
G02*
X193084021Y-87691179I0J-124021D01*
G01*
X192464000Y-89568810D02*
G75*
G03*
X192588000Y-89692800I124000J10D01*
G01*
X192650000Y-89692810D02*
G75*
G03*
X192774010Y-89568810I0J124010D01*
G01*
%TO.N,SDMMC1_D0*%
X203794000Y-89744000D02*
X204900000Y-90850000D01*
X204900000Y-90850000D02*
X206650000Y-90850000D01*
X201375000Y-89425000D02*
X202036594Y-89425000D01*
X207275000Y-91475000D02*
X207275000Y-92725000D01*
X190900000Y-89150000D02*
X191230000Y-89150000D01*
X202355594Y-89744000D02*
X203794000Y-89744000D01*
X206650000Y-90850000D02*
X207275000Y-91475000D01*
X202036594Y-89425000D02*
X202355594Y-89744000D01*
%TO.N,SDMMC1_D5*%
X189400000Y-89150000D02*
X189400000Y-89650000D01*
X189400000Y-90150000D02*
X189396000Y-90154000D01*
X192773631Y-83681180D02*
X194400000Y-82054811D01*
X193000000Y-90810000D02*
X193000000Y-90750000D01*
X192180000Y-91630000D02*
X193000000Y-90810000D01*
X196100000Y-69800000D02*
X197350000Y-69800000D01*
X189520000Y-91630000D02*
X192180000Y-91630000D01*
X189396000Y-91506000D02*
X189520000Y-91630000D01*
X189400000Y-89650000D02*
X189400000Y-90150000D01*
D23*
X190400000Y-88650000D02*
X189900000Y-89150000D01*
D21*
X189900000Y-89150000D02*
X189400000Y-89150000D01*
X194400000Y-82054811D02*
X194400000Y-71500000D01*
X189396000Y-90154000D02*
X189396000Y-91506000D01*
X194400000Y-71500000D02*
X196100000Y-69800000D01*
%TO.N,SDMMC1_D7*%
X207775000Y-92725000D02*
X207775000Y-91975001D01*
X191015520Y-87150000D02*
X191325520Y-86840000D01*
X207700000Y-91900001D02*
X207700000Y-91050000D01*
X203134480Y-89250000D02*
X202950480Y-89434000D01*
X207775000Y-91975001D02*
X207700000Y-91900001D01*
X202484000Y-89434000D02*
X201950000Y-88900000D01*
X205000000Y-90300000D02*
X203950000Y-89250000D01*
D23*
X190400000Y-87650000D02*
X190900000Y-87150000D01*
D21*
X207700000Y-91050000D02*
X206950000Y-90300000D01*
X191325520Y-86840000D02*
X191500000Y-86840000D01*
X202950480Y-89434000D02*
X202484000Y-89434000D01*
X203950000Y-89250000D02*
X203134480Y-89250000D01*
X206950000Y-90300000D02*
X205000000Y-90300000D01*
X190900000Y-87150000D02*
X191015520Y-87150000D01*
%TO.N,SDMMC1_D6*%
X208086000Y-90286000D02*
X207650000Y-89850000D01*
X204250000Y-88800000D02*
X202900000Y-88800000D01*
X208086000Y-91800480D02*
X208086000Y-90286000D01*
X205300000Y-89850000D02*
X204250000Y-88800000D01*
X202900000Y-88800000D02*
X202750000Y-88950000D01*
X208275000Y-92725000D02*
X208275000Y-91989480D01*
X189900000Y-88150000D02*
X189560000Y-88150000D01*
X189560000Y-88150000D02*
X189480000Y-88070000D01*
X190400000Y-88150000D02*
X189900000Y-88150000D01*
X207650000Y-89850000D02*
X205300000Y-89850000D01*
X208275000Y-91989480D02*
X208086000Y-91800480D01*
%TO.N,SDMMC1_D4*%
X191147487Y-89650000D02*
X192200000Y-90702513D01*
X193940000Y-81830331D02*
X193940000Y-71320000D01*
X196430000Y-70300000D02*
X197350000Y-70300000D01*
D23*
X190400000Y-89150000D02*
X190900000Y-89650000D01*
D21*
X190900000Y-89650000D02*
X191147487Y-89650000D01*
X192200000Y-90702513D02*
X192200000Y-90750000D01*
X192170000Y-83600331D02*
X193940000Y-81830331D01*
X193940000Y-71320000D02*
X196220000Y-69040000D01*
X192170000Y-83660000D02*
X192170000Y-83600331D01*
%TO.N,FMC_D5*%
X224300000Y-78800000D02*
X226700000Y-78800000D01*
X224290000Y-78810000D02*
X224300000Y-78800000D01*
%TO.N,USB_OTG_HS_ULPI_D3*%
X226700000Y-83800000D02*
X225760000Y-83800000D01*
X225760000Y-83800000D02*
X225750000Y-83790000D01*
%TO.N,FMC_A4*%
X210275000Y-68355000D02*
X210275000Y-63375000D01*
X210260000Y-68370000D02*
X210275000Y-68355000D01*
%TO.N,FMC_A9*%
X224080000Y-76800000D02*
X226700000Y-76800000D01*
%TO.N,FMC_D3*%
X197350000Y-86800000D02*
X198400000Y-86800000D01*
%TO.N,USB_OTG_HS_ULPI_STP*%
X216275000Y-65200000D02*
X216275000Y-63375000D01*
%TO.N,FMC_NBL0*%
X198033414Y-69300000D02*
X197350000Y-69300000D01*
X198540000Y-69806586D02*
X198033414Y-69300000D01*
%TO.N,FMC_SDNWE*%
X222924000Y-65686000D02*
X223275000Y-65335000D01*
X218475000Y-69275000D02*
X218475000Y-69070520D01*
X223275000Y-65335000D02*
X223275000Y-63375000D01*
X221859520Y-65686000D02*
X222924000Y-65686000D01*
X218475000Y-69070520D02*
X221859520Y-65686000D01*
%TO.N,FMC_BA0*%
X211775000Y-91625000D02*
X211900000Y-91500000D01*
X211775000Y-92725000D02*
X211775000Y-91625000D01*
%TO.N,USB_OTG_HS_ULPI_NXT*%
X217775000Y-65680000D02*
X217775000Y-63375000D01*
%TO.N,USB_OTG_HS_ULPI_DIR*%
X217280000Y-64680000D02*
X217275000Y-64675000D01*
X224450000Y-83960000D02*
X225190000Y-84700000D01*
X225190000Y-84700000D02*
X225190000Y-85060000D01*
X217275000Y-64675000D02*
X217275000Y-63375000D01*
%TO.N,USB_OTG_FS_N*%
X202943200Y-95925000D02*
X204775000Y-94093200D01*
X191706800Y-95925000D02*
X202943200Y-95925000D01*
X189448250Y-93666450D02*
X191706800Y-95925000D01*
X189133550Y-93666450D02*
X189448250Y-93666450D01*
X204775000Y-94093200D02*
X204775000Y-92725000D01*
X189000000Y-93800000D02*
X189133550Y-93666450D01*
%TO.N,FMC_A11*%
X223710000Y-77800000D02*
X226700000Y-77800000D01*
%TO.N,FMC_A7*%
X225800000Y-75800000D02*
X226700000Y-75800000D01*
%TO.N,USB_OTG_HS_ULPI_D0*%
X220520000Y-67590000D02*
X222114000Y-65996000D01*
X220520000Y-67830000D02*
X220520000Y-67590000D01*
X223775000Y-65273406D02*
X223775000Y-63375000D01*
X222114000Y-65996000D02*
X223052406Y-65996000D01*
X223052406Y-65996000D02*
X223775000Y-65273406D01*
%TO.N,FMC_NBL1*%
X198940000Y-69300000D02*
X198599999Y-69300000D01*
X198099999Y-68800000D02*
X197350000Y-68800000D01*
X198599999Y-69300000D02*
X198099999Y-68800000D01*
%TO.N,USB_OTG_HS_ULPI_D4*%
X225490000Y-84300000D02*
X226700000Y-84300000D01*
%TO.N,USB_OTG_HS_ULPI_D2*%
X216090000Y-69800000D02*
X226700000Y-69800000D01*
X216050000Y-69760000D02*
X216090000Y-69800000D01*
%TO.N,FMC_A5*%
X210700000Y-68900000D02*
X210780000Y-68820000D01*
X210780000Y-68820000D02*
X210780000Y-68660000D01*
X210775000Y-68655000D02*
X210775000Y-63375000D01*
X210780000Y-68660000D02*
X210775000Y-68655000D01*
%TO.N,FMC_D2*%
X198500000Y-87300000D02*
X197350000Y-87300000D01*
X198750000Y-87550000D02*
X198500000Y-87300000D01*
%TO.N,FMC_SDNE0*%
X212430000Y-73870000D02*
X212100000Y-74200000D01*
X217010000Y-73870000D02*
X212430000Y-73870000D01*
%TO.N,USB_OTG_HS_ULPI_D1*%
X226580000Y-69180000D02*
X226700000Y-69300000D01*
X225816586Y-69100000D02*
X225896586Y-69180000D01*
X225896586Y-69180000D02*
X226580000Y-69180000D01*
X219248633Y-69100000D02*
X225816586Y-69100000D01*
X219078978Y-69269655D02*
X219248633Y-69100000D01*
%TO.N,FMC_A8*%
X225180000Y-76300000D02*
X226700000Y-76300000D01*
X225170000Y-76310000D02*
X225180000Y-76300000D01*
%TO.N,USB_OTG_HS_ULPI_D6*%
X226550000Y-92520000D02*
X224980000Y-92520000D01*
X224980000Y-92520000D02*
X224775000Y-92725000D01*
X227448676Y-91621324D02*
X226550000Y-92520000D01*
%TO.N,FMC_BA1*%
X211275000Y-92725000D02*
X211275000Y-91825000D01*
X211275000Y-91825000D02*
X210900000Y-91450000D01*
%TO.N,FMC_A6*%
X226700000Y-74300000D02*
X225800000Y-74300000D01*
%TO.N,SDMMC1_CK*%
X196600001Y-87800000D02*
X197350000Y-87800000D01*
X196050001Y-87250000D02*
X196600001Y-87800000D01*
X185400000Y-87650000D02*
X185745997Y-87650000D01*
X195850000Y-87250000D02*
X196050001Y-87250000D01*
X185745997Y-87650000D02*
X185800000Y-87595997D01*
%TO.N,Enable GPIO HS*%
X226917624Y-94050000D02*
X224416586Y-94050000D01*
X224416586Y-94050000D02*
X223775000Y-93408414D01*
X223775000Y-91559480D02*
X223775000Y-92725000D01*
X223775000Y-93408414D02*
X223775000Y-92725000D01*
X218250000Y-88800000D02*
X223750000Y-88800000D01*
X217950000Y-88500000D02*
X218250000Y-88800000D01*
X229650000Y-93850000D02*
X228920000Y-94580000D01*
X224250000Y-91084480D02*
X223775000Y-91559480D01*
X224250000Y-89300000D02*
X224250000Y-91084480D01*
X228920000Y-94580000D02*
X227447624Y-94580000D01*
X227447624Y-94580000D02*
X226917624Y-94050000D01*
X223750000Y-88800000D02*
X224250000Y-89300000D01*
%TO.N,USB_OTG_HS_ULPI_D7*%
X198080000Y-72300000D02*
X197350000Y-72300000D01*
X198740000Y-72960000D02*
X198080000Y-72300000D01*
%TO.N,FMC_A10*%
X225170000Y-77300000D02*
X226700000Y-77300000D01*
D19*
%TO.N,Net-(J4-CC1)*%
X219700000Y-100737792D02*
X220907208Y-101945000D01*
X220907208Y-101945000D02*
X223955000Y-101945000D01*
X219700000Y-98550000D02*
X219700000Y-100737792D01*
X223955000Y-101945000D02*
X224300000Y-101600000D01*
%TD*%
M02*
