%TF.GenerationSoftware,KiCad,Pcbnew,8.0.1*%
%TF.CreationDate,2024-04-17T21:00:07+02:00*%
%TF.ProjectId,STM32_Dev_Board,53544d33-325f-4446-9576-5f426f617264,rev?*%
%TF.SameCoordinates,Original*%
%TF.FileFunction,Copper,L3,Inr*%
%TF.FilePolarity,Positive*%
%FSLAX46Y46*%
G04 Gerber Fmt 4.6, Leading zero omitted, Abs format (unit mm)*
G04 Created by KiCad (PCBNEW 8.0.1) date 2024-04-17 21:00:07*
%MOMM*%
%LPD*%
G01*
G04 APERTURE LIST*
G04 Aperture macros list*
%AMRoundRect*
0 Rectangle with rounded corners*
0 $1 Rounding radius*
0 $2 $3 $4 $5 $6 $7 $8 $9 X,Y pos of 4 corners*
0 Add a 4 corners polygon primitive as box body*
4,1,4,$2,$3,$4,$5,$6,$7,$8,$9,$2,$3,0*
0 Add four circle primitives for the rounded corners*
1,1,$1+$1,$2,$3*
1,1,$1+$1,$4,$5*
1,1,$1+$1,$6,$7*
1,1,$1+$1,$8,$9*
0 Add four rect primitives between the rounded corners*
20,1,$1+$1,$2,$3,$4,$5,0*
20,1,$1+$1,$4,$5,$6,$7,0*
20,1,$1+$1,$6,$7,$8,$9,0*
20,1,$1+$1,$8,$9,$2,$3,0*%
G04 Aperture macros list end*
%TA.AperFunction,ComponentPad*%
%ADD10RoundRect,0.250000X-0.600000X-0.750000X0.600000X-0.750000X0.600000X0.750000X-0.600000X0.750000X0*%
%TD*%
%TA.AperFunction,ComponentPad*%
%ADD11O,1.700000X2.000000*%
%TD*%
%TA.AperFunction,ComponentPad*%
%ADD12O,1.000000X2.100000*%
%TD*%
%TA.AperFunction,ViaPad*%
%ADD13C,0.400000*%
%TD*%
%TA.AperFunction,ViaPad*%
%ADD14C,0.450000*%
%TD*%
%TA.AperFunction,ViaPad*%
%ADD15C,0.500000*%
%TD*%
%TA.AperFunction,Conductor*%
%ADD16C,0.160000*%
%TD*%
%TA.AperFunction,Conductor*%
%ADD17C,0.200000*%
%TD*%
%TA.AperFunction,Conductor*%
%ADD18C,0.300000*%
%TD*%
G04 APERTURE END LIST*
D10*
%TO.N,9V_DC_Jack*%
%TO.C,J1*%
X183400000Y-57200000D03*
D11*
%TO.N,GND*%
X185900000Y-57200000D03*
%TD*%
D12*
%TO.N,GND*%
%TO.C,J3*%
X182080000Y-100495000D03*
X190720000Y-100495000D03*
%TD*%
%TO.N,GND*%
%TO.C,J4*%
X221280000Y-100495000D03*
X229920000Y-100495000D03*
%TD*%
D13*
%TO.N,GND*%
X191775000Y-66575000D03*
X182975000Y-70250000D03*
X182300000Y-68225000D03*
%TO.N,FMC_NBL0*%
X198540000Y-69806586D03*
X199390000Y-74676000D03*
%TO.N,FMC_D7*%
X216154000Y-79502000D03*
%TO.N,FMC_D1*%
X217678000Y-90932000D03*
D14*
%TO.N,FMC_D6*%
X216916000Y-79248000D03*
%TO.N,FMC_A3*%
X209550000Y-64516000D03*
X212090000Y-68580000D03*
%TO.N,FMC_D0*%
X213140000Y-87790000D03*
X218180000Y-90380000D03*
%TO.N,FMC_NBL0*%
X200600000Y-76600000D03*
%TO.N,+5V*%
X228500000Y-92160000D03*
%TO.N,GND*%
X230010000Y-92090000D03*
%TO.N,USB_OTG_HS_ULPI_D4*%
X225100000Y-83920000D03*
%TO.N,GND*%
X208000000Y-100800000D03*
X203700000Y-55800000D03*
D13*
X220650000Y-90700000D03*
D14*
X228250000Y-69100000D03*
X217300000Y-91440000D03*
X193300000Y-72450000D03*
X224450000Y-64750000D03*
X193700000Y-70200000D03*
X199650000Y-55850000D03*
X220750000Y-104400000D03*
X195800000Y-84500000D03*
X214350000Y-97400000D03*
X216950000Y-85550000D03*
X223100000Y-96200000D03*
X231160000Y-86275000D03*
D13*
X184050000Y-88650000D03*
X191400000Y-87450000D03*
X183500000Y-87120000D03*
D14*
X214600000Y-65850000D03*
X229500000Y-74150000D03*
X207700000Y-55800000D03*
X230400000Y-104400000D03*
D13*
X227930000Y-56365000D03*
D14*
X229180000Y-86100000D03*
X205600000Y-61850000D03*
X214700000Y-78200000D03*
X215900000Y-96100000D03*
X184700000Y-64200000D03*
X186200000Y-62150000D03*
X211700000Y-60900000D03*
X229500000Y-79100000D03*
X183450000Y-95985000D03*
X202000000Y-100800000D03*
X222050000Y-98150000D03*
X228250000Y-74500000D03*
X229300000Y-90780000D03*
X181550000Y-104400000D03*
X218200000Y-60800000D03*
X225050000Y-90860000D03*
X195650000Y-55800000D03*
X199000000Y-100800000D03*
X228700000Y-96200000D03*
X229650000Y-89400000D03*
X214050000Y-60300000D03*
X225300000Y-97700000D03*
X230200000Y-90800000D03*
D13*
X200550000Y-67750000D03*
D14*
X199000000Y-86300000D03*
X218950000Y-94500000D03*
X190250000Y-70250000D03*
X214600000Y-82200000D03*
X186050000Y-72500000D03*
X213300000Y-66300000D03*
X189200000Y-96000000D03*
D13*
X198650000Y-68500000D03*
D14*
X229300000Y-97850000D03*
X230950000Y-87700000D03*
X205000000Y-100800000D03*
X190200000Y-98100000D03*
D13*
X213000000Y-91550000D03*
D14*
X211000000Y-100800000D03*
X182500000Y-97850000D03*
X219150000Y-60800000D03*
X230000000Y-83800000D03*
X193950000Y-94300000D03*
X198750000Y-71850000D03*
X186850000Y-97600000D03*
X218800000Y-59600000D03*
X191200000Y-104400000D03*
X191600000Y-55800000D03*
X202750000Y-61800000D03*
X198700000Y-77550000D03*
X186200000Y-64250000D03*
X194250000Y-93000000D03*
X217200000Y-61800000D03*
D13*
X187250000Y-87250000D03*
D14*
X184650000Y-66250000D03*
X214550000Y-88600000D03*
D13*
X225734359Y-85321711D03*
X212100000Y-84600000D03*
D14*
X215800000Y-61600000D03*
X219150000Y-61800000D03*
D13*
X212100000Y-79800000D03*
X221600000Y-90700000D03*
D14*
X218750000Y-58050000D03*
X199000000Y-81800000D03*
D13*
X183500000Y-90180000D03*
D14*
X212700000Y-60900000D03*
X180990000Y-95675000D03*
X184650000Y-62150000D03*
X213300000Y-65000000D03*
D13*
X188050000Y-86550000D03*
D14*
X211700000Y-55800000D03*
X186400000Y-70200000D03*
X202680000Y-94250000D03*
X229200000Y-85000000D03*
D13*
X209530000Y-91600000D03*
D14*
X214600000Y-87000000D03*
D15*
X188900000Y-91000000D03*
D14*
X186150000Y-66250000D03*
X199800000Y-90350000D03*
X228250000Y-79500000D03*
%TO.N,+5V*%
X193000000Y-94300000D03*
X217425000Y-97650000D03*
X227750000Y-93850000D03*
X195620000Y-59810000D03*
X193300000Y-98500000D03*
X221600000Y-89950000D03*
X184550000Y-70250000D03*
%TO.N,+1V8*%
X195600000Y-73050000D03*
X228400000Y-87600000D03*
%TO.N,USB_OTG_FS_VBUS*%
X189250000Y-98100000D03*
X194280000Y-98510000D03*
X188100000Y-62100000D03*
X186850000Y-95350000D03*
%TO.N,VDDSDMMC_STM32*%
X211725000Y-65000000D03*
D13*
X201700000Y-94250000D03*
D14*
X185700000Y-92800000D03*
D13*
X218160110Y-87132456D03*
X193770000Y-85015000D03*
D14*
X213600000Y-87000000D03*
X206550000Y-61850000D03*
X191550000Y-78100000D03*
X189800000Y-78100000D03*
X213600000Y-82200000D03*
X190950000Y-78650000D03*
X198800000Y-90350000D03*
X192150000Y-79200000D03*
X189750000Y-79200000D03*
X192150000Y-78650000D03*
D13*
X218300000Y-94200000D03*
D14*
X191000000Y-73000000D03*
X210100000Y-97700000D03*
X190950000Y-78100000D03*
X221150000Y-94650000D03*
X213750000Y-78200000D03*
D13*
X219050000Y-83360000D03*
D14*
X228320000Y-90800000D03*
X199000000Y-85300000D03*
X190950000Y-79200000D03*
X228220000Y-86100000D03*
D13*
X208570000Y-91600000D03*
D14*
X189800000Y-78650000D03*
D13*
X217880000Y-85550000D03*
D14*
X191800000Y-70200000D03*
X213000000Y-100800000D03*
X201750000Y-61800000D03*
D13*
X187050000Y-86300000D03*
D14*
X199650000Y-59800000D03*
X198700000Y-76600000D03*
D13*
X183500000Y-88050000D03*
D14*
X199000000Y-80800000D03*
X228250000Y-80500000D03*
X218275000Y-91694000D03*
X209000000Y-97700000D03*
D13*
X193010000Y-85015000D03*
D14*
X191000000Y-72400000D03*
X218200000Y-61800000D03*
X190350000Y-78650000D03*
X192150000Y-78100000D03*
X228250000Y-75500000D03*
X229500000Y-80700000D03*
X195800000Y-83570000D03*
X212800000Y-97400000D03*
X190350000Y-79200000D03*
X229500000Y-75700000D03*
X211700000Y-61850000D03*
X231000000Y-97300000D03*
X218800000Y-56450000D03*
D13*
X183500000Y-89200000D03*
D14*
X190400000Y-78100000D03*
X213000000Y-98950000D03*
X214500000Y-64850000D03*
X191000000Y-71750000D03*
D13*
X194600000Y-89115000D03*
D14*
X195380000Y-96610000D03*
X228250000Y-68100000D03*
X191550000Y-79200000D03*
X228200000Y-85300000D03*
X225400000Y-64750000D03*
X212300000Y-66300000D03*
D13*
X198700000Y-67550000D03*
X228175000Y-58970000D03*
D14*
X212000000Y-100800000D03*
X213650000Y-88600000D03*
D13*
X188200000Y-87450000D03*
X196350000Y-76750000D03*
D14*
X191550000Y-78650000D03*
%TO.N,USB_OTG_HS_VBUS*%
X222600000Y-90900000D03*
X223100000Y-95200000D03*
X226050000Y-93300000D03*
X225250000Y-95400000D03*
X223050000Y-97150000D03*
X184750000Y-68000000D03*
X228756396Y-103481396D03*
X217390000Y-59360000D03*
D13*
%TO.N,VDDA_STM32*%
X220080000Y-61800000D03*
%TO.N,VDD12DSI_STM32*%
X217400000Y-96050000D03*
D14*
%TO.N,RCC_OSC_OUT*%
X215800000Y-60300000D03*
D13*
%TO.N,RCC_OSC_IN*%
X214100000Y-61600000D03*
D14*
%TO.N,NRST*%
X225200000Y-87400000D03*
D13*
X216480000Y-58220000D03*
X228030000Y-64200000D03*
X186325000Y-88500000D03*
D14*
X215530000Y-65850000D03*
X215500000Y-64850000D03*
%TO.N,Net-(U4-VCAP_1)*%
X228425000Y-83800000D03*
%TO.N,Net-(U4-VCAP_2)*%
X202550000Y-91550000D03*
%TO.N,USB_OTG_FS_OverCurrent*%
X191250000Y-92500000D03*
%TO.N,USB_OTG_HS_OverCurrent*%
X229650000Y-96200000D03*
D15*
%TO.N,Net-(U12A-VDDI)*%
X189880000Y-91000000D03*
D13*
%TO.N,SWO*%
X221090000Y-61960000D03*
X195730000Y-71920000D03*
D14*
%TO.N,SWDIO*%
X203750000Y-91600000D03*
X221650000Y-58810000D03*
%TO.N,SWCLK*%
X222400000Y-58875000D03*
X198600000Y-89400000D03*
%TO.N,Net-(J3-CC1)*%
X185150000Y-101225000D03*
X191200000Y-98900000D03*
D13*
%TO.N,DSIHOST_CKN*%
X213650000Y-91500000D03*
%TO.N,I2C_4_SDA*%
X210100000Y-98710000D03*
%TO.N,I2C_4_SCL*%
X209000000Y-98700000D03*
%TO.N,DSIHOST_D1P*%
X212800000Y-94625000D03*
%TO.N,DSIHOST_D1N*%
X212800000Y-93975000D03*
%TO.N,DSIHOST_D0N*%
X214825000Y-95000000D03*
%TO.N,DSIHOST_CKP*%
X215750000Y-91450000D03*
%TO.N,DSIHOST_D0P*%
X215475000Y-95000000D03*
%TO.N,PDR_ON*%
X196150000Y-67800000D03*
D14*
%TO.N,BOOT0*%
X198750000Y-70800000D03*
D13*
%TO.N,STM32_LED*%
X201330000Y-59760000D03*
X195860000Y-79180000D03*
X200620000Y-61730000D03*
D14*
%TO.N,Enable GPIO*%
X184400000Y-93635000D03*
%TO.N,USB_OTG_FS_DETECT*%
X191800000Y-94200000D03*
%TO.N,USB_OTG_FS_ID*%
X196850000Y-96700000D03*
%TO.N,Net-(J4-CC2)*%
X226300000Y-101700000D03*
X220450000Y-98000000D03*
%TO.N,USB_OTG_HS_DETECT*%
X222050000Y-96200000D03*
X225780000Y-92030000D03*
D13*
%TO.N,SDMMC1_CMD*%
X185800000Y-88200000D03*
D14*
X196100000Y-85800000D03*
%TO.N,SDMMC1_D3*%
X194600000Y-86685000D03*
D13*
X190920000Y-90570000D03*
%TO.N,SDMMC1_D1*%
X193000000Y-86685000D03*
X191340000Y-88530000D03*
D14*
X198650000Y-88200000D03*
%TO.N,SDMMC1_D2*%
X193800000Y-86700000D03*
%TO.N,SDMMC1_D0*%
X201375000Y-89425000D03*
D13*
X191230000Y-89150000D03*
D14*
%TO.N,SDMMC1_D5*%
X193000000Y-90750000D03*
D13*
X192773631Y-83681180D03*
D14*
%TO.N,SDMMC1_D7*%
X201950000Y-88900000D03*
D13*
X191500000Y-86840000D03*
X194600000Y-91110000D03*
D14*
%TO.N,SDMMC1_D6*%
X202750000Y-88950000D03*
D13*
X189480000Y-88070000D03*
D14*
%TO.N,SDMMC1_D4*%
X196220000Y-69040000D03*
D13*
X192170000Y-83660000D03*
D14*
X192200000Y-90750000D03*
X196430000Y-70300000D03*
D13*
%TO.N,FMC_A1*%
X205470000Y-68930000D03*
%TO.N,FMC_D5*%
X224290000Y-78810000D03*
X224310000Y-81740000D03*
X212100000Y-81400000D03*
D14*
%TO.N,USB_OTG_HS_ULPI_D3*%
X225750000Y-83790000D03*
D13*
X220600000Y-82790000D03*
%TO.N,FMC_A4*%
X210260000Y-68370000D03*
%TO.N,FMC_D11*%
X200600000Y-83000000D03*
%TO.N,FMC_A9*%
X200600000Y-72550000D03*
X224080000Y-76800000D03*
X224060000Y-72560000D03*
D14*
%TO.N,FMC_D3*%
X198400000Y-86800000D03*
X212100000Y-83800000D03*
D13*
%TO.N,FMC_SDNRAS*%
X213970000Y-74510000D03*
%TO.N,USB_OTG_HS_ULPI_STP*%
X216275000Y-65200000D03*
X224700000Y-86030000D03*
X223750000Y-84010000D03*
%TO.N,FMC_SDNWE*%
X218070000Y-76600000D03*
X218475000Y-69275000D03*
X212100000Y-76600000D03*
%TO.N,FMC_BA0*%
X211900000Y-91500000D03*
%TO.N,USB_OTG_HS_ULPI_NXT*%
X217775000Y-65680000D03*
%TO.N,FMC_D9*%
X200600000Y-80610000D03*
%TO.N,FMC_A0*%
X212150000Y-71000000D03*
X203750000Y-68820000D03*
X203730000Y-71870000D03*
%TO.N,FMC_D15*%
X200550000Y-87800000D03*
%TO.N,FMC_A2*%
X207775000Y-68480000D03*
%TO.N,USB_OTG_HS_ULPI_DIR*%
X225190000Y-85060000D03*
X217280000Y-64680000D03*
X224450000Y-83960000D03*
%TO.N,FMC_D12*%
X200600000Y-83800000D03*
%TO.N,FMC_D13*%
X200650000Y-85400000D03*
%TO.N,FMC_D8*%
X200610000Y-78990000D03*
%TO.N,USB_OTG_HS_ULPI_CK*%
X221830000Y-67260000D03*
D14*
%TO.N,USB_OTG_FS_N*%
X189000000Y-93800000D03*
D13*
%TO.N,FMC_SDCKE0*%
X214680000Y-67920000D03*
X201600000Y-74780000D03*
X214620000Y-75110000D03*
%TO.N,FMC_D4*%
X212100000Y-83000000D03*
X217540000Y-78320000D03*
X218080000Y-83250000D03*
%TO.N,FMC_A11*%
X223570000Y-73060000D03*
X201650000Y-73560000D03*
X223710000Y-77800000D03*
%TO.N,FMC_A7*%
X225215951Y-70855938D03*
X225800000Y-75800000D03*
X200600000Y-71000000D03*
%TO.N,USB_OTG_HS_ULPI_D0*%
X220520000Y-67830000D03*
%TO.N,FMC_SDNCAS*%
X212100000Y-75800000D03*
%TO.N,FMC_NBL1*%
X212100000Y-77400000D03*
X198940000Y-69300000D03*
%TO.N,USB_OTG_HS_ULPI_D4*%
X220100000Y-83160000D03*
%TO.N,USB_OTG_HS_ULPI_D2*%
X216050000Y-69760000D03*
%TO.N,FMC_A5*%
X210700000Y-68900000D03*
D14*
%TO.N,FMC_D2*%
X198750000Y-87550000D03*
D13*
X212100000Y-85400000D03*
%TO.N,FMC_D7*%
X210850000Y-78760000D03*
%TO.N,FMC_SDCLK*%
X200600000Y-75800000D03*
%TO.N,USB_OTG_HS_ULPI_D5*%
X218070000Y-83970000D03*
%TO.N,FMC_SDNE0*%
X212100000Y-74200000D03*
X217080000Y-69090000D03*
X217010000Y-73870000D03*
%TO.N,USB_OTG_HS_ULPI_D1*%
X219078978Y-69269655D03*
%TO.N,FMC_D10*%
X200590000Y-81370000D03*
%TO.N,FMC_A8*%
X224824771Y-71316152D03*
X200500000Y-71750000D03*
X225170000Y-76310000D03*
D14*
%TO.N,USB_OTG_HS_ULPI_D6*%
X216800000Y-84550000D03*
X227448676Y-91621324D03*
D13*
%TO.N,FMC_D14*%
X200600000Y-86200000D03*
%TO.N,FMC_BA1*%
X210900000Y-91450000D03*
%TO.N,FMC_A6*%
X225800000Y-74300000D03*
X225530000Y-70340000D03*
X201700000Y-70080000D03*
%TO.N,SDMMC1_CK*%
X195850000Y-87250000D03*
X185800000Y-87595997D03*
D14*
%TO.N,USB_OTG_FS_P*%
X187800000Y-95300000D03*
%TO.N,Enable GPIO HS*%
X217950000Y-88500000D03*
X229650000Y-93850000D03*
D13*
%TO.N,USB_OTG_HS_ULPI_D7*%
X218320000Y-86550000D03*
X198740000Y-72960000D03*
%TO.N,FMC_A10*%
X225170000Y-77300000D03*
X212100000Y-71800000D03*
X224474264Y-71808050D03*
D14*
%TO.N,/USB_OTG_HS/ESD_D-*%
X219850000Y-90000000D03*
X226250000Y-95400000D03*
%TO.N,/USB_OTG_HS/ESD_D+*%
X219224119Y-89937411D03*
X224300000Y-95200000D03*
%TO.N,Net-(J4-CC1)*%
X219700000Y-98550000D03*
X224300000Y-101600000D03*
%TD*%
D16*
%TO.N,SWCLK*%
X197700000Y-89400000D02*
X198600000Y-89400000D01*
X197500000Y-89200000D02*
X197700000Y-89400000D01*
X197500000Y-85400000D02*
X197500000Y-89200000D01*
X197100000Y-85000000D02*
X197500000Y-85400000D01*
X195615520Y-85000000D02*
X197100000Y-85000000D01*
X194960000Y-84344480D02*
X195615520Y-85000000D01*
X194960000Y-63990000D02*
X194960000Y-84344480D01*
X197800000Y-61150000D02*
X194960000Y-63990000D01*
X210765520Y-61150000D02*
X197800000Y-61150000D01*
X211499520Y-60416000D02*
X210765520Y-61150000D01*
X212900480Y-60416000D02*
X211499520Y-60416000D01*
X213584960Y-61100480D02*
X212900480Y-60416000D01*
X216464000Y-61100480D02*
X213584960Y-61100480D01*
X217424480Y-60140000D02*
X216464000Y-61100480D01*
X222400000Y-59800000D02*
X222060000Y-60140000D01*
X222060000Y-60140000D02*
X217424480Y-60140000D01*
X222400000Y-58875000D02*
X222400000Y-59800000D01*
%TO.N,SWDIO*%
X203316000Y-92034000D02*
X203750000Y-91600000D01*
X198684000Y-92034000D02*
X203316000Y-92034000D01*
X197150000Y-90500000D02*
X198684000Y-92034000D01*
X197150000Y-85750000D02*
X197150000Y-90500000D01*
X196710000Y-85310000D02*
X197150000Y-85750000D01*
X194650000Y-84472886D02*
X195487114Y-85310000D01*
X194650000Y-63650000D02*
X194650000Y-84472886D01*
X197660000Y-60640000D02*
X194650000Y-63650000D01*
X210550000Y-60640000D02*
X197660000Y-60640000D01*
X221650000Y-58810000D02*
X212380000Y-58810000D01*
X195487114Y-85310000D02*
X196710000Y-85310000D01*
X212380000Y-58810000D02*
X210550000Y-60640000D01*
%TO.N,NRST*%
X216470000Y-58210000D02*
X216480000Y-58220000D01*
X212290000Y-58210000D02*
X216470000Y-58210000D01*
X197240000Y-60330000D02*
X210170000Y-60330000D01*
X210170000Y-60330000D02*
X212290000Y-58210000D01*
X194340000Y-63230000D02*
X197240000Y-60330000D01*
X185310000Y-88394480D02*
X185310000Y-81905520D01*
X185599520Y-88684000D02*
X185310000Y-88394480D01*
X186141000Y-88684000D02*
X185599520Y-88684000D01*
X185310000Y-81905520D02*
X194340000Y-72875520D01*
X186325000Y-88500000D02*
X186141000Y-88684000D01*
X194340000Y-72875520D02*
X194340000Y-63230000D01*
D17*
%TO.N,+5V*%
X223075000Y-89950000D02*
X221600000Y-89950000D01*
X227750000Y-93060000D02*
X226100000Y-91410000D01*
X226100000Y-91410000D02*
X224535000Y-91410000D01*
X227750000Y-93850000D02*
X227750000Y-93060000D01*
X224535000Y-91410000D02*
X223075000Y-89950000D01*
D16*
%TO.N,FMC_NBL0*%
X202319246Y-76940000D02*
G75*
G02*
X202443200Y-77064000I-46J-124000D01*
G01*
X202009246Y-79559140D02*
G75*
G03*
X202133240Y-79435140I-46J124040D01*
G01*
X202443246Y-79435140D02*
G75*
G03*
X202567246Y-79559054I123954J40D01*
G01*
X202629246Y-79559140D02*
G75*
G03*
X202753240Y-79435140I-46J124040D01*
G01*
X202939246Y-76940000D02*
G75*
G02*
X203063200Y-77064000I-46J-124000D01*
G01*
X202133246Y-77064000D02*
G75*
G02*
X202257246Y-76940046I123954J0D01*
G01*
X201699246Y-76940000D02*
G75*
G02*
X201823200Y-77064000I-46J-124000D01*
G01*
X203249246Y-79559120D02*
G75*
G03*
X203373220Y-79435120I-46J124020D01*
G01*
X203063246Y-79435120D02*
G75*
G03*
X203187246Y-79559054I123954J20D01*
G01*
X203373246Y-77064000D02*
G75*
G02*
X203497246Y-76940046I123954J0D01*
G01*
X202753246Y-77064000D02*
G75*
G02*
X202877246Y-76940046I123954J0D01*
G01*
X201823246Y-79435140D02*
G75*
G03*
X201947246Y-79559054I123954J40D01*
G01*
X202556000Y-74296000D02*
X199770000Y-74296000D01*
X204780000Y-76940000D02*
X204780000Y-76520000D01*
X203559246Y-76940000D02*
X204506325Y-76940000D01*
X203373246Y-79435120D02*
X203373246Y-77064000D01*
X204780000Y-76520000D02*
X202556000Y-74296000D01*
X203497246Y-76940000D02*
X203559246Y-76940000D01*
X199770000Y-74296000D02*
X199390000Y-74676000D01*
X202443246Y-77064000D02*
X202443246Y-79435140D01*
X202133246Y-79435140D02*
X202133246Y-77064000D01*
X201947246Y-79559140D02*
X202009246Y-79559140D01*
X202567246Y-79559140D02*
X202629246Y-79559140D01*
X201823246Y-77064000D02*
X201823246Y-79435140D01*
X204506325Y-76940000D02*
X204780000Y-76940000D01*
X202753246Y-79435140D02*
X202753246Y-77064000D01*
X203063246Y-77064000D02*
X203063246Y-79435120D01*
X203187246Y-79559120D02*
X203249246Y-79559120D01*
X202877246Y-76940000D02*
X202939246Y-76940000D01*
X202257246Y-76940000D02*
X202319246Y-76940000D01*
X200940000Y-76940000D02*
X201699246Y-76940000D01*
X200600000Y-76600000D02*
X200940000Y-76940000D01*
X199324000Y-74676000D02*
X199300000Y-74700000D01*
X199390000Y-74676000D02*
X199324000Y-74676000D01*
%TO.N,FMC_D7*%
X213118000Y-78884000D02*
G75*
G03*
X212994000Y-78760000I-124000J0D01*
G01*
X214482000Y-80984904D02*
G75*
G02*
X214357996Y-80860904I0J124004D01*
G01*
X214358000Y-78884000D02*
G75*
G03*
X214234000Y-78760000I-124000J0D01*
G01*
X213862000Y-80984888D02*
G75*
G02*
X213738012Y-80860888I0J123988D01*
G01*
X214172000Y-78760000D02*
G75*
G03*
X214048000Y-78884000I0J-124000D01*
G01*
X215102000Y-80984904D02*
G75*
G02*
X214977996Y-80860904I0J124004D01*
G01*
X213428000Y-80860904D02*
G75*
G02*
X213304000Y-80984900I-124000J4D01*
G01*
X214668000Y-80860904D02*
G75*
G02*
X214544000Y-80984900I-124000J4D01*
G01*
X215412000Y-78760000D02*
G75*
G03*
X215288000Y-78884000I0J-124000D01*
G01*
X213738000Y-78884000D02*
G75*
G03*
X213614000Y-78760000I-124000J0D01*
G01*
X214048000Y-80860888D02*
G75*
G02*
X213924000Y-80984900I-124000J-12D01*
G01*
X213552000Y-78760000D02*
G75*
G03*
X213428000Y-78884000I0J-124000D01*
G01*
X215288000Y-80860904D02*
G75*
G02*
X215164000Y-80984900I-124000J4D01*
G01*
X214978000Y-78884000D02*
G75*
G03*
X214854000Y-78760000I-124000J0D01*
G01*
X214792000Y-78760000D02*
G75*
G03*
X214668000Y-78884000I0J-124000D01*
G01*
X213242000Y-80984904D02*
G75*
G02*
X213117996Y-80860904I0J124004D01*
G01*
X212932000Y-78760000D02*
X212375243Y-78760000D01*
X213428000Y-78884000D02*
X213428000Y-80860904D01*
X213614000Y-78760000D02*
X213552000Y-78760000D01*
X213924000Y-80984888D02*
X213862000Y-80984888D01*
X212375243Y-78760000D02*
X210850000Y-78760000D01*
X215432000Y-78740000D02*
X215412000Y-78760000D01*
X214978000Y-80860904D02*
X214978000Y-78884000D01*
X214854000Y-78760000D02*
X214792000Y-78760000D01*
X214544000Y-80984904D02*
X214482000Y-80984904D01*
X213304000Y-80984904D02*
X213242000Y-80984904D01*
X215164000Y-80984904D02*
X215102000Y-80984904D01*
X213738000Y-80860888D02*
X213738000Y-78884000D01*
X216154000Y-78740000D02*
X215432000Y-78740000D01*
X216154000Y-79502000D02*
X216154000Y-78740000D01*
X215288000Y-78884000D02*
X215288000Y-80860904D01*
X213118000Y-80860904D02*
X213118000Y-78884000D01*
X212994000Y-78760000D02*
X212932000Y-78760000D01*
X214358000Y-80860904D02*
X214358000Y-78884000D01*
X214668000Y-78884000D02*
X214668000Y-80860904D01*
X214048000Y-78884000D02*
X214048000Y-80860888D01*
X214234000Y-78760000D02*
X214172000Y-78760000D01*
D17*
%TO.N,FMC_D0*%
X217060000Y-90220000D02*
G75*
G03*
X217200000Y-90360000I140000J0D01*
G01*
X213420000Y-89367618D02*
G75*
G02*
X213559982Y-89507618I0J-139982D01*
G01*
X214470000Y-91352382D02*
G75*
G03*
X214609982Y-91212382I0J139982D01*
G01*
X213210000Y-89507618D02*
G75*
G02*
X213350000Y-89367600I140000J18D01*
G01*
X215310000Y-89507631D02*
G75*
G02*
X215450000Y-89367600I140000J31D01*
G01*
X213910000Y-89507618D02*
G75*
G02*
X214050000Y-89367600I140000J18D01*
G01*
X212860000Y-90862363D02*
G75*
G03*
X213000000Y-91002400I140000J-37D01*
G01*
X216920000Y-89367631D02*
G75*
G02*
X217059969Y-89507631I0J-139969D01*
G01*
X216710000Y-89507631D02*
G75*
G02*
X216850000Y-89367600I140000J31D01*
G01*
X216570000Y-91352369D02*
G75*
G03*
X216709969Y-91212369I0J139969D01*
G01*
X216360000Y-91212369D02*
G75*
G03*
X216500000Y-91352400I140000J-31D01*
G01*
X212370000Y-90360000D02*
G75*
G03*
X212510000Y-90220000I0J140000D01*
G01*
X216220000Y-89367631D02*
G75*
G02*
X216359969Y-89507631I0J-139969D01*
G01*
X216010000Y-89507631D02*
G75*
G02*
X216150000Y-89367600I140000J31D01*
G01*
X213560000Y-90812382D02*
G75*
G03*
X213700000Y-90952400I140000J-18D01*
G01*
X215870000Y-90902371D02*
G75*
G03*
X216009971Y-90762371I0J139971D01*
G01*
X215660000Y-90762371D02*
G75*
G03*
X215800000Y-90902400I140000J-29D01*
G01*
X212510000Y-89507618D02*
G75*
G02*
X212650000Y-89367600I140000J18D01*
G01*
X214260000Y-91212382D02*
G75*
G03*
X214400000Y-91352400I140000J-18D01*
G01*
X214960000Y-91162376D02*
G75*
G03*
X215100000Y-91302400I140000J-24D01*
G01*
X215520000Y-89367631D02*
G75*
G02*
X215659969Y-89507631I0J-139969D01*
G01*
X215170000Y-91302376D02*
G75*
G03*
X215309976Y-91162376I0J139976D01*
G01*
X214610000Y-89507618D02*
G75*
G02*
X214750000Y-89367600I140000J18D01*
G01*
X214820000Y-89367618D02*
G75*
G02*
X214959982Y-89507618I0J-139982D01*
G01*
X214120000Y-89367618D02*
G75*
G02*
X214259982Y-89507618I0J-139982D01*
G01*
X213770000Y-90952382D02*
G75*
G03*
X213909982Y-90812382I0J139982D01*
G01*
X213070000Y-91002363D02*
G75*
G03*
X213209963Y-90862363I0J139963D01*
G01*
X212720000Y-89367618D02*
G75*
G02*
X212859982Y-89507618I0J-139982D01*
G01*
X216710000Y-90360000D02*
X216710000Y-89507631D01*
X216710000Y-91212369D02*
X216710000Y-90360000D01*
X214960000Y-90360000D02*
X214960000Y-91162376D01*
X215800000Y-90902371D02*
X215870000Y-90902371D01*
X215450000Y-89367631D02*
X215520000Y-89367631D01*
X217424000Y-90360000D02*
X218160000Y-90360000D01*
X216360000Y-90360000D02*
X216360000Y-91212369D01*
X213560000Y-90360000D02*
X213560000Y-90812382D01*
X211808764Y-89896000D02*
X212272764Y-90360000D01*
X212650000Y-89367618D02*
X212720000Y-89367618D01*
X213000000Y-91002363D02*
X213070000Y-91002363D01*
X214050000Y-89367618D02*
X214120000Y-89367618D01*
X217060000Y-89507631D02*
X217060000Y-90220000D01*
X213210000Y-90862363D02*
X213210000Y-90360000D01*
X217270000Y-90360000D02*
X217424000Y-90360000D01*
X218160000Y-90360000D02*
X218180000Y-90380000D01*
X214260000Y-90360000D02*
X214260000Y-91212382D01*
X211808764Y-88181236D02*
X211808764Y-89896000D01*
X214260000Y-89507618D02*
X214260000Y-90360000D01*
X213210000Y-90360000D02*
X213210000Y-89507618D01*
X212510000Y-90220000D02*
X212510000Y-89507618D01*
X214750000Y-89367618D02*
X214820000Y-89367618D01*
X215100000Y-91302376D02*
X215170000Y-91302376D01*
X213140000Y-87790000D02*
X212200000Y-87790000D01*
X215660000Y-89507631D02*
X215660000Y-90360000D01*
X212200000Y-87790000D02*
X211808764Y-88181236D01*
X214400000Y-91352382D02*
X214470000Y-91352382D01*
X216850000Y-89367631D02*
X216920000Y-89367631D01*
X215310000Y-90360000D02*
X215310000Y-89507631D01*
X216500000Y-91352369D02*
X216570000Y-91352369D01*
X216010000Y-90762371D02*
X216010000Y-90360000D01*
X216150000Y-89367631D02*
X216220000Y-89367631D01*
X214960000Y-89507618D02*
X214960000Y-90360000D01*
X216360000Y-89507631D02*
X216360000Y-90360000D01*
X216010000Y-90360000D02*
X216010000Y-89507631D01*
X212860000Y-89507618D02*
X212860000Y-90220000D01*
X214610000Y-91212382D02*
X214610000Y-90360000D01*
X215310000Y-91162376D02*
X215310000Y-90360000D01*
X213560000Y-89507618D02*
X213560000Y-90360000D01*
X212272764Y-90360000D02*
X212370000Y-90360000D01*
X213910000Y-90812382D02*
X213910000Y-90360000D01*
X213700000Y-90952382D02*
X213770000Y-90952382D01*
X212860000Y-90220000D02*
X212860000Y-90862363D01*
X213910000Y-90360000D02*
X213910000Y-89507618D01*
X214610000Y-90360000D02*
X214610000Y-89507618D01*
X213350000Y-89367618D02*
X213420000Y-89367618D01*
X217200000Y-90360000D02*
X217270000Y-90360000D01*
X215660000Y-90360000D02*
X215660000Y-90762371D01*
D16*
%TO.N,/USB_OTG_HS/ESD_D+*%
X219224119Y-89937411D02*
X219250000Y-89963292D01*
X222170000Y-94470000D02*
X224270000Y-94470000D01*
X219250000Y-89963292D02*
X219250000Y-91550000D01*
X219250000Y-91550000D02*
X222170000Y-94470000D01*
X224300000Y-94500000D02*
X224300000Y-95200000D01*
X224270000Y-94470000D02*
X224300000Y-94500000D01*
%TO.N,FMC_D2*%
X208168000Y-87374000D02*
G75*
G02*
X208292000Y-87250000I124000J0D01*
G01*
X207858000Y-88053746D02*
G75*
G03*
X207982000Y-88177700I124000J46D01*
G01*
X207114000Y-87250000D02*
G75*
G02*
X207238000Y-87374000I0J-124000D01*
G01*
X206928000Y-87374000D02*
G75*
G02*
X207052000Y-87250000I124000J0D01*
G01*
X201658000Y-88053734D02*
G75*
G03*
X201782000Y-88177700I124000J34D01*
G01*
X202588000Y-87374000D02*
G75*
G02*
X202712000Y-87250000I124000J0D01*
G01*
X202464000Y-88177734D02*
G75*
G03*
X202588034Y-88053734I0J124034D01*
G01*
X201224000Y-88177734D02*
G75*
G03*
X201348034Y-88053734I0J124034D01*
G01*
X201038000Y-88053734D02*
G75*
G03*
X201162000Y-88177700I124000J34D01*
G01*
X205378000Y-88053746D02*
G75*
G03*
X205502000Y-88177700I124000J46D01*
G01*
X206618000Y-88053746D02*
G75*
G03*
X206742000Y-88177700I124000J46D01*
G01*
X207238000Y-88053746D02*
G75*
G03*
X207362000Y-88177700I124000J46D01*
G01*
X206494000Y-87250000D02*
G75*
G02*
X206618000Y-87374000I0J-124000D01*
G01*
X205564000Y-88177746D02*
G75*
G03*
X205688046Y-88053746I0J124046D01*
G01*
X204138000Y-88053734D02*
G75*
G03*
X204262000Y-88177700I124000J34D01*
G01*
X205254000Y-87250000D02*
G75*
G02*
X205378000Y-87374000I0J-124000D01*
G01*
X203394000Y-87250000D02*
G75*
G02*
X203518000Y-87374000I0J-124000D01*
G01*
X204944000Y-88177734D02*
G75*
G03*
X205068034Y-88053734I0J124034D01*
G01*
X201534000Y-87250000D02*
G75*
G02*
X201658000Y-87374000I0J-124000D01*
G01*
X201844000Y-88177734D02*
G75*
G03*
X201968034Y-88053734I0J124034D01*
G01*
X201348000Y-87374000D02*
G75*
G02*
X201472000Y-87250000I124000J0D01*
G01*
X205068000Y-87374000D02*
G75*
G02*
X205192000Y-87250000I124000J0D01*
G01*
X202898000Y-88053734D02*
G75*
G03*
X203022000Y-88177700I124000J34D01*
G01*
X203704000Y-88177734D02*
G75*
G03*
X203828034Y-88053734I0J124034D01*
G01*
X203518000Y-88053734D02*
G75*
G03*
X203642000Y-88177700I124000J34D01*
G01*
X203084000Y-88177734D02*
G75*
G03*
X203208034Y-88053734I0J124034D01*
G01*
X206804000Y-88177746D02*
G75*
G03*
X206928046Y-88053746I0J124046D01*
G01*
X205688000Y-87374000D02*
G75*
G02*
X205812000Y-87250000I124000J0D01*
G01*
X204014000Y-87250000D02*
G75*
G02*
X204138000Y-87374000I0J-124000D01*
G01*
X204324000Y-88177734D02*
G75*
G03*
X204448034Y-88053734I0J124034D01*
G01*
X203208000Y-87374000D02*
G75*
G02*
X203332000Y-87250000I124000J0D01*
G01*
X203828000Y-87374000D02*
G75*
G02*
X203952000Y-87250000I124000J0D01*
G01*
X202278000Y-88053734D02*
G75*
G03*
X202402000Y-88177700I124000J34D01*
G01*
X207548000Y-87374000D02*
G75*
G02*
X207672000Y-87250000I124000J0D01*
G01*
X207424000Y-88177746D02*
G75*
G03*
X207548046Y-88053746I0J124046D01*
G01*
X206308000Y-87374000D02*
G75*
G02*
X206432000Y-87250000I124000J0D01*
G01*
X205998000Y-88053746D02*
G75*
G03*
X206122000Y-88177700I124000J46D01*
G01*
X207734000Y-87250000D02*
G75*
G02*
X207858000Y-87374000I0J-124000D01*
G01*
X208044000Y-88177746D02*
G75*
G03*
X208168046Y-88053746I0J124046D01*
G01*
X201968000Y-87374000D02*
G75*
G02*
X202092000Y-87250000I124000J0D01*
G01*
X204634000Y-87250000D02*
G75*
G02*
X204758000Y-87374000I0J-124000D01*
G01*
X202154000Y-87250000D02*
G75*
G02*
X202278000Y-87374000I0J-124000D01*
G01*
X204758000Y-88053734D02*
G75*
G03*
X204882000Y-88177700I124000J34D01*
G01*
X200914000Y-87250000D02*
G75*
G02*
X201038000Y-87374000I0J-124000D01*
G01*
X206184000Y-88177746D02*
G75*
G03*
X206308046Y-88053746I0J124046D01*
G01*
X205874000Y-87250000D02*
G75*
G02*
X205998000Y-87374000I0J-124000D01*
G01*
X204448000Y-87374000D02*
G75*
G02*
X204572000Y-87250000I124000J0D01*
G01*
X202774000Y-87250000D02*
G75*
G02*
X202898000Y-87374000I0J-124000D01*
G01*
X199200000Y-87550000D02*
X199500000Y-87250000D01*
X201162000Y-88177734D02*
X201224000Y-88177734D01*
X205502000Y-88177746D02*
X205564000Y-88177746D01*
X207672000Y-87250000D02*
X207734000Y-87250000D01*
X198750000Y-87550000D02*
X199200000Y-87550000D01*
X202898000Y-87374000D02*
X202898000Y-88053734D01*
X201348000Y-88053734D02*
X201348000Y-87374000D01*
X199500000Y-87250000D02*
X200914000Y-87250000D01*
X207362000Y-88177746D02*
X207424000Y-88177746D01*
X205192000Y-87250000D02*
X205254000Y-87250000D01*
X202278000Y-87374000D02*
X202278000Y-88053734D01*
X208788000Y-87250000D02*
X208914000Y-87250000D01*
X210764000Y-85400000D02*
X212100000Y-85400000D01*
X208914000Y-87250000D02*
X210764000Y-85400000D01*
X208168000Y-88053746D02*
X208168000Y-87374000D01*
X208354000Y-87250000D02*
X208788000Y-87250000D01*
X208292000Y-87250000D02*
X208354000Y-87250000D01*
X207982000Y-88177746D02*
X208044000Y-88177746D01*
X207858000Y-87374000D02*
X207858000Y-88053746D01*
X207548000Y-88053746D02*
X207548000Y-87374000D01*
X207052000Y-87250000D02*
X207114000Y-87250000D01*
X207238000Y-87374000D02*
X207238000Y-88053746D01*
X206928000Y-88053746D02*
X206928000Y-87374000D01*
X206742000Y-88177746D02*
X206804000Y-88177746D01*
X203952000Y-87250000D02*
X204014000Y-87250000D01*
X201658000Y-87374000D02*
X201658000Y-88053734D01*
X205688000Y-88053746D02*
X205688000Y-87374000D01*
X202402000Y-88177734D02*
X202464000Y-88177734D01*
X204882000Y-88177734D02*
X204944000Y-88177734D01*
X204448000Y-88053734D02*
X204448000Y-87374000D01*
X204758000Y-87374000D02*
X204758000Y-88053734D01*
X204262000Y-88177734D02*
X204324000Y-88177734D01*
X201968000Y-88053734D02*
X201968000Y-87374000D01*
X204138000Y-87374000D02*
X204138000Y-88053734D01*
X203642000Y-88177734D02*
X203704000Y-88177734D01*
X202588000Y-88053734D02*
X202588000Y-87374000D01*
X202092000Y-87250000D02*
X202154000Y-87250000D01*
X203518000Y-87374000D02*
X203518000Y-88053734D01*
X201782000Y-88177734D02*
X201844000Y-88177734D01*
X203332000Y-87250000D02*
X203394000Y-87250000D01*
X205812000Y-87250000D02*
X205874000Y-87250000D01*
X204572000Y-87250000D02*
X204634000Y-87250000D01*
X203022000Y-88177734D02*
X203084000Y-88177734D01*
X206618000Y-87374000D02*
X206618000Y-88053746D01*
X205378000Y-87374000D02*
X205378000Y-88053746D01*
X206432000Y-87250000D02*
X206494000Y-87250000D01*
X205068000Y-88053734D02*
X205068000Y-87374000D01*
X202712000Y-87250000D02*
X202774000Y-87250000D01*
X201472000Y-87250000D02*
X201534000Y-87250000D01*
X206308000Y-88053746D02*
X206308000Y-87374000D01*
X206122000Y-88177746D02*
X206184000Y-88177746D01*
X203828000Y-88053734D02*
X203828000Y-87374000D01*
X205998000Y-87374000D02*
X205998000Y-88053746D01*
X201038000Y-87374000D02*
X201038000Y-88053734D01*
X203208000Y-88053734D02*
X203208000Y-87374000D01*
%TO.N,FMC_NBL1*%
X204332649Y-74054829D02*
G75*
G02*
X204332601Y-73879419I87651J87729D01*
G01*
X206305472Y-75852341D02*
G75*
G02*
X206130112Y-75852341I-87680J87679D01*
G01*
X205867061Y-75413930D02*
G75*
G02*
X205691701Y-75413930I-87680J87679D01*
G01*
X204113408Y-73660295D02*
G75*
G02*
X203938048Y-73660295I-87680J87679D01*
G01*
X205498289Y-73327601D02*
G75*
G03*
X205322929Y-73327601I-87680J-87679D01*
G01*
X206857375Y-74862030D02*
G75*
G03*
X206857423Y-74686619I-87675J87730D01*
G01*
X205980552Y-73985207D02*
G75*
G03*
X205980579Y-73809819I-87652J87707D01*
G01*
X205542133Y-73546806D02*
G75*
G03*
X205542157Y-73371419I-87633J87706D01*
G01*
X204551854Y-74098671D02*
G75*
G02*
X204376520Y-74098646I-87654J87671D01*
G01*
X204771035Y-74493264D02*
G75*
G02*
X204771051Y-74317920I87665J87664D01*
G01*
X205209446Y-74931675D02*
G75*
G02*
X205209451Y-74756320I87654J87675D01*
G01*
X205936709Y-73766003D02*
G75*
G03*
X205761349Y-73766003I-87680J-87679D01*
G01*
X206813531Y-74642825D02*
G75*
G03*
X206638171Y-74642825I-87680J-87679D01*
G01*
X205428650Y-74975519D02*
G75*
G02*
X205253290Y-74975519I-87680J87679D01*
G01*
X206524699Y-76246886D02*
G75*
G02*
X206524693Y-76071520I87701J87686D01*
G01*
X203894203Y-73616452D02*
G75*
G02*
X203894232Y-73441119I87697J87652D01*
G01*
X206375120Y-74204414D02*
G75*
G03*
X206199760Y-74204414I-87680J-87679D01*
G01*
X204990239Y-74537108D02*
G75*
G02*
X204814879Y-74537108I-87680J87679D01*
G01*
X204665363Y-72669932D02*
G75*
G03*
X204665313Y-72494619I-87663J87632D01*
G01*
X205059887Y-72889181D02*
G75*
G03*
X204884527Y-72889181I-87680J-87679D01*
G01*
X204621522Y-72450728D02*
G75*
G03*
X204446160Y-72450729I-87681J-87681D01*
G01*
X206418964Y-74423619D02*
G75*
G03*
X206419001Y-74248219I-87664J87719D01*
G01*
X205647857Y-75370086D02*
G75*
G02*
X205647851Y-75194720I87643J87686D01*
G01*
X206743904Y-76290730D02*
G75*
G02*
X206568518Y-76290753I-87704J87730D01*
G01*
X205103731Y-73108386D02*
G75*
G03*
X205103735Y-72933019I-87731J87686D01*
G01*
X203936124Y-72960762D02*
G75*
G02*
X203760762Y-72960761I-87681J87681D01*
G01*
X207295803Y-75300424D02*
G75*
G03*
X207295845Y-75125019I-87703J87724D01*
G01*
X206086268Y-75808497D02*
G75*
G02*
X206086251Y-75633120I87632J87697D01*
G01*
X207251959Y-75081219D02*
G75*
G03*
X207076599Y-75081219I-87680J-87679D01*
G01*
X207005000Y-76205000D02*
G75*
G03*
X206829619Y-76204982I-87700J-87700D01*
G01*
X204286853Y-73486852D02*
X204286854Y-73486854D01*
X204944469Y-74144469D02*
X205542133Y-73546806D01*
X205253289Y-74975520D02*
X205209445Y-74931676D01*
X204446159Y-72450728D02*
X203936124Y-72960762D01*
X205542133Y-73371443D02*
X205498290Y-73327600D01*
X203716923Y-72916923D02*
X203313743Y-72513743D01*
X203938047Y-73660296D02*
X203894203Y-73616452D01*
X200156000Y-70516000D02*
X198940000Y-69300000D01*
X204884526Y-72889180D02*
X204286853Y-73486852D01*
X203313743Y-72513743D02*
X201316000Y-70516000D01*
X201316000Y-70516000D02*
X200156000Y-70516000D01*
X205322928Y-73327600D02*
X204725264Y-73925263D01*
X203894203Y-73441090D02*
X204067647Y-73267647D01*
X205980553Y-73809845D02*
X205936710Y-73766002D01*
X204332649Y-73879467D02*
X204506056Y-73706057D01*
X204506056Y-73706057D02*
X204506059Y-73706059D01*
X205382880Y-74582880D02*
X205980553Y-73985208D01*
X204286854Y-73486854D02*
X204113409Y-73660296D01*
X204665363Y-72494569D02*
X204621522Y-72450728D01*
X204067647Y-73267647D02*
X204665363Y-72669932D01*
X205103731Y-72933023D02*
X205059888Y-72889180D01*
X205761348Y-73766002D02*
X205163675Y-74363674D01*
X204376493Y-74098673D02*
X204332649Y-74054829D01*
X204725265Y-73925265D02*
X204551855Y-74098672D01*
X204771034Y-74317903D02*
X204944469Y-74144469D01*
X204725264Y-73925263D02*
X204725265Y-73925265D01*
X203760761Y-72960762D02*
X203716923Y-72916923D01*
X206857375Y-74686667D02*
X206813532Y-74642824D01*
X206040497Y-75240496D02*
X206040498Y-75240498D01*
X206698111Y-75898113D02*
X206698114Y-75898114D01*
X206130111Y-75852342D02*
X206086267Y-75808498D01*
X204506059Y-73706059D02*
X205103731Y-73108386D01*
X206199759Y-74204413D02*
X205602086Y-74802085D01*
X204814878Y-74537109D02*
X204771034Y-74493265D01*
X206418964Y-74248256D02*
X206375121Y-74204413D01*
X206086267Y-75633136D02*
X206259702Y-75459702D01*
X206524698Y-76071525D02*
X206610430Y-75985794D01*
X206040498Y-75240498D02*
X205867062Y-75413931D01*
X206638170Y-74642824D02*
X206040497Y-75240496D01*
X205163676Y-74363676D02*
X204990240Y-74537109D01*
X206259702Y-75459702D02*
X206857375Y-74862030D01*
X208200000Y-77400000D02*
X207005000Y-76205000D01*
X205821291Y-75021291D02*
X206418964Y-74423619D01*
X205602087Y-74802087D02*
X205428651Y-74975520D01*
X206478908Y-75678907D02*
X206478909Y-75678909D01*
X207076598Y-75081218D02*
X206478908Y-75678907D01*
X206478909Y-75678909D02*
X206305473Y-75852342D01*
X206698114Y-75898114D02*
X207295803Y-75300424D01*
X206610430Y-75985794D02*
X206698111Y-75898113D01*
X205602086Y-74802085D02*
X205602087Y-74802087D01*
X205163675Y-74363674D02*
X205163676Y-74363676D01*
X205209445Y-74756314D02*
X205382880Y-74582880D01*
X205647856Y-75194725D02*
X205821291Y-75021291D01*
X206568541Y-76290730D02*
X206524698Y-76246887D01*
X205691700Y-75413931D02*
X205647856Y-75370087D01*
X207295803Y-75125061D02*
X207251960Y-75081218D01*
X212100000Y-77400000D02*
X208200000Y-77400000D01*
X206829636Y-76204999D02*
X206743905Y-76290731D01*
%TO.N,FMC_A3*%
X209990000Y-66026000D02*
G75*
G03*
X209866000Y-65902000I-124000J0D01*
G01*
X209866000Y-66212000D02*
G75*
G03*
X209990000Y-66088000I0J124000D01*
G01*
X209866000Y-65592000D02*
G75*
G03*
X209990000Y-65468000I0J124000D01*
G01*
X206475220Y-65902000D02*
G75*
G02*
X206351200Y-65778000I-20J124000D01*
G01*
X206351220Y-65716000D02*
G75*
G02*
X206475220Y-65592020I123980J0D01*
G01*
X206351220Y-66336000D02*
G75*
G02*
X206475220Y-66212020I123980J0D01*
G01*
X206475220Y-66522000D02*
G75*
G02*
X206351200Y-66398000I-20J124000D01*
G01*
X209990000Y-66646000D02*
G75*
G03*
X209866000Y-66522000I-124000J0D01*
G01*
X206351220Y-66956000D02*
G75*
G02*
X206475220Y-66832020I123980J0D01*
G01*
X209990000Y-67266000D02*
G75*
G03*
X209866000Y-67142000I-124000J0D01*
G01*
X206475220Y-67142000D02*
G75*
G02*
X206351200Y-67018000I-20J124000D01*
G01*
X209866000Y-66832000D02*
G75*
G03*
X209990000Y-66708000I0J124000D01*
G01*
X209866000Y-67452000D02*
G75*
G03*
X209990000Y-67328000I0J124000D01*
G01*
X206475220Y-67762000D02*
G75*
G02*
X206351200Y-67638000I-20J124000D01*
G01*
X206351220Y-67576000D02*
G75*
G02*
X206475220Y-67452020I123980J0D01*
G01*
X209990000Y-67886000D02*
G75*
G03*
X209866000Y-67762000I-124000J0D01*
G01*
X209990000Y-65406000D02*
X209990000Y-64956000D01*
X209804000Y-64770000D02*
X209550000Y-64516000D01*
X212090000Y-68580000D02*
X211396000Y-67886000D01*
X209866000Y-67142000D02*
X206475220Y-67142000D01*
X209990000Y-65468000D02*
X209990000Y-65406000D01*
X209990000Y-66088000D02*
X209990000Y-66026000D01*
X209990000Y-64956000D02*
X209804000Y-64770000D01*
X209866000Y-66522000D02*
X206475220Y-66522000D01*
X206351220Y-67018000D02*
X206351220Y-66956000D01*
X206475220Y-66212000D02*
X209866000Y-66212000D01*
X206475220Y-65592000D02*
X209866000Y-65592000D01*
X206475220Y-67452000D02*
X209866000Y-67452000D01*
X209866000Y-65902000D02*
X206475220Y-65902000D01*
X206475220Y-66832000D02*
X209866000Y-66832000D01*
X206351220Y-66398000D02*
X206351220Y-66336000D01*
X210058000Y-67886000D02*
X209990000Y-67886000D01*
X206351220Y-67638000D02*
X206351220Y-67576000D01*
X209866000Y-67762000D02*
X206475220Y-67762000D01*
X211396000Y-67886000D02*
X210058000Y-67886000D01*
X206351220Y-65778000D02*
X206351220Y-65716000D01*
X209990000Y-67328000D02*
X209990000Y-67266000D01*
X209990000Y-66708000D02*
X209990000Y-66646000D01*
%TO.N,FMC_D3*%
X206168000Y-85702263D02*
X206230000Y-85702263D01*
X205847634Y-86911269D02*
X205930366Y-86911269D01*
X202634000Y-86684000D02*
X202634000Y-86797635D01*
X207463433Y-86684000D02*
X208116000Y-86684000D01*
X205424000Y-86797635D02*
X205424000Y-86684000D01*
X199627594Y-86684000D02*
X201580000Y-86684000D01*
X208116000Y-86684000D02*
X211000000Y-83800000D01*
X204494000Y-85826288D02*
X204494000Y-86684000D01*
X203564000Y-86797635D02*
X203564000Y-86684000D01*
X202324000Y-86684000D02*
X202324000Y-85826288D01*
X207160000Y-86684000D02*
X207463433Y-86684000D01*
X207098000Y-86684000D02*
X207160000Y-86684000D01*
X205227634Y-86911269D02*
X205310366Y-86911269D01*
X204308000Y-85702288D02*
X204370000Y-85702288D01*
X202014000Y-86560000D02*
X202014000Y-86797635D01*
X204184000Y-86797635D02*
X204184000Y-86684000D01*
X202127634Y-86911269D02*
X202210366Y-86911269D01*
X206664000Y-86684000D02*
X206664000Y-85826288D01*
X205114000Y-85826263D02*
X205114000Y-86684000D01*
X203987634Y-86911269D02*
X204070366Y-86911269D01*
X206354000Y-85826263D02*
X206354000Y-86684000D01*
X205114000Y-86684000D02*
X205114000Y-86797635D01*
X205734000Y-86684000D02*
X205734000Y-86797635D01*
X203367634Y-86911269D02*
X203450366Y-86911269D01*
X204184000Y-86684000D02*
X204184000Y-85826288D01*
X202747634Y-86911269D02*
X202830366Y-86911269D01*
X203254000Y-85826288D02*
X203254000Y-86684000D01*
X203068000Y-85702288D02*
X203130000Y-85702288D01*
X206467634Y-86911269D02*
X206550366Y-86911269D01*
X205548000Y-85702288D02*
X205610000Y-85702288D01*
X201704000Y-86560000D02*
X201704000Y-85826288D01*
X204804000Y-86797635D02*
X204804000Y-86684000D01*
X204928000Y-85702263D02*
X204990000Y-85702263D01*
X202448000Y-85702288D02*
X202510000Y-85702288D01*
X204494000Y-86684000D02*
X204494000Y-86797635D01*
X203874000Y-85826288D02*
X203874000Y-86684000D01*
X202634000Y-85826288D02*
X202634000Y-86684000D01*
X202014000Y-85826288D02*
X202014000Y-86560000D01*
X211000000Y-83800000D02*
X212100000Y-83800000D01*
X203254000Y-86684000D02*
X203254000Y-86797635D01*
X206664000Y-86797635D02*
X206664000Y-86684000D01*
X206788000Y-85702288D02*
X206850000Y-85702288D01*
X204607634Y-86911269D02*
X204690366Y-86911269D01*
X206044000Y-86797635D02*
X206044000Y-86684000D01*
X205734000Y-85826288D02*
X205734000Y-86684000D01*
X206044000Y-86684000D02*
X206044000Y-85826263D01*
X204804000Y-86684000D02*
X204804000Y-85826263D01*
X203874000Y-86684000D02*
X203874000Y-86797635D01*
X206974000Y-85826288D02*
X206974000Y-86560000D01*
X205424000Y-86684000D02*
X205424000Y-85826288D01*
X203564000Y-86684000D02*
X203564000Y-85826288D01*
X199511594Y-86800000D02*
X199627594Y-86684000D01*
X203688000Y-85702288D02*
X203750000Y-85702288D01*
X201828000Y-85702288D02*
X201890000Y-85702288D01*
X206354000Y-86684000D02*
X206354000Y-86797635D01*
X198400000Y-86800000D02*
X199511594Y-86800000D01*
X202944000Y-86684000D02*
X202944000Y-85826288D01*
X202324000Y-86797635D02*
X202324000Y-86684000D01*
X202944000Y-86797635D02*
X202944000Y-86684000D01*
X205930366Y-86911269D02*
G75*
G03*
X206044069Y-86797635I34J113669D01*
G01*
X206230000Y-85702263D02*
G75*
G02*
X206354037Y-85826263I0J-124037D01*
G01*
X205734000Y-86797635D02*
G75*
G03*
X205847634Y-86911200I113600J35D01*
G01*
X206354000Y-86797635D02*
G75*
G03*
X206467634Y-86911200I113600J35D01*
G01*
X206974000Y-86560000D02*
G75*
G03*
X207098000Y-86684000I124000J0D01*
G01*
X206664000Y-85826288D02*
G75*
G02*
X206788000Y-85702300I124000J-12D01*
G01*
X206850000Y-85702288D02*
G75*
G02*
X206974012Y-85826288I0J-124012D01*
G01*
X206550366Y-86911269D02*
G75*
G03*
X206664069Y-86797635I34J113669D01*
G01*
X205424000Y-85826288D02*
G75*
G02*
X205548000Y-85702300I124000J-12D01*
G01*
X202944000Y-85826288D02*
G75*
G02*
X203068000Y-85702300I124000J-12D01*
G01*
X202830366Y-86911269D02*
G75*
G03*
X202944069Y-86797635I34J113669D01*
G01*
X202324000Y-85826288D02*
G75*
G02*
X202448000Y-85702300I124000J-12D01*
G01*
X201890000Y-85702288D02*
G75*
G02*
X202014012Y-85826288I0J-124012D01*
G01*
X201580000Y-86684000D02*
G75*
G03*
X201704000Y-86560000I0J124000D01*
G01*
X202210366Y-86911269D02*
G75*
G03*
X202324069Y-86797635I34J113669D01*
G01*
X205610000Y-85702288D02*
G75*
G02*
X205734012Y-85826288I0J-124012D01*
G01*
X205310366Y-86911269D02*
G75*
G03*
X205424069Y-86797635I34J113669D01*
G01*
X205114000Y-86797635D02*
G75*
G03*
X205227634Y-86911200I113600J35D01*
G01*
X204990000Y-85702263D02*
G75*
G02*
X205114037Y-85826263I0J-124037D01*
G01*
X202510000Y-85702288D02*
G75*
G02*
X202634012Y-85826288I0J-124012D01*
G01*
X203564000Y-85826288D02*
G75*
G02*
X203688000Y-85702300I124000J-12D01*
G01*
X203874000Y-86797635D02*
G75*
G03*
X203987634Y-86911200I113600J35D01*
G01*
X204804000Y-85826263D02*
G75*
G02*
X204928000Y-85702300I124000J-37D01*
G01*
X204690366Y-86911269D02*
G75*
G03*
X204804069Y-86797635I34J113669D01*
G01*
X206044000Y-85826263D02*
G75*
G02*
X206168000Y-85702300I124000J-37D01*
G01*
X204494000Y-86797635D02*
G75*
G03*
X204607634Y-86911200I113600J35D01*
G01*
X204370000Y-85702288D02*
G75*
G02*
X204494012Y-85826288I0J-124012D01*
G01*
X204184000Y-85826288D02*
G75*
G02*
X204308000Y-85702300I124000J-12D01*
G01*
X204070366Y-86911269D02*
G75*
G03*
X204184069Y-86797635I34J113669D01*
G01*
X203254000Y-86797635D02*
G75*
G03*
X203367634Y-86911200I113600J35D01*
G01*
X203750000Y-85702288D02*
G75*
G02*
X203874012Y-85826288I0J-124012D01*
G01*
X202014000Y-86797635D02*
G75*
G03*
X202127634Y-86911200I113600J35D01*
G01*
X203450366Y-86911269D02*
G75*
G03*
X203564069Y-86797635I34J113669D01*
G01*
X203130000Y-85702288D02*
G75*
G02*
X203254012Y-85826288I0J-124012D01*
G01*
X202634000Y-86797635D02*
G75*
G03*
X202747634Y-86911200I113600J35D01*
G01*
X201704000Y-85826288D02*
G75*
G02*
X201828000Y-85702300I124000J-12D01*
G01*
%TO.N,USB_OTG_HS_ULPI_D7*%
X207303827Y-77090217D02*
X207259984Y-77046374D01*
X207396148Y-77611667D02*
X207396149Y-77611669D01*
X207084622Y-77046374D02*
X206957738Y-77173257D01*
X202818480Y-73034000D02*
X198814000Y-73034000D01*
X206416087Y-76631607D02*
X202818480Y-73034000D01*
X206669637Y-78162816D02*
X206625794Y-78118973D01*
X207396149Y-77611669D02*
X206844999Y-78162816D01*
X206607014Y-76822534D02*
X206416087Y-76631607D01*
X207523032Y-77484784D02*
X207396148Y-77611667D01*
X206957738Y-77173257D02*
X206957739Y-77173259D01*
X206625794Y-77943611D02*
X207176943Y-77392463D01*
X206187387Y-77505203D02*
X206650852Y-77041735D01*
X206650853Y-76866373D02*
X206607014Y-76822534D01*
X198814000Y-73034000D02*
X198740000Y-72960000D01*
X206231227Y-77724406D02*
X206187386Y-77680565D01*
X207176943Y-77392463D02*
X207303827Y-77265580D01*
X207742237Y-77528627D02*
X207698394Y-77484784D01*
X206957739Y-77173259D02*
X206406589Y-77724406D01*
X207527670Y-77918554D02*
X207615352Y-77830872D01*
X207064225Y-78381998D02*
X207527670Y-77918554D01*
X207108068Y-78601203D02*
X207064225Y-78557360D01*
X207746876Y-78137759D02*
X207283432Y-78601204D01*
X218320000Y-86550000D02*
X216334480Y-86550000D01*
X216334480Y-86550000D02*
X207922240Y-78137760D01*
X207615354Y-77830874D02*
X207742237Y-77703990D01*
X207615352Y-77830872D02*
X207615354Y-77830874D01*
X206187386Y-77680565D02*
G75*
G02*
X206187403Y-77505219I87714J87665D01*
G01*
X206650852Y-77041735D02*
G75*
G03*
X206650806Y-76866420I-87652J87635D01*
G01*
X207698393Y-77484785D02*
G75*
G03*
X207523033Y-77484785I-87680J-87679D01*
G01*
X207303827Y-77265580D02*
G75*
G03*
X207303825Y-77090219I-87727J87680D01*
G01*
X207259983Y-77046375D02*
G75*
G03*
X207084623Y-77046375I-87680J-87679D01*
G01*
X206844998Y-78162815D02*
G75*
G02*
X206669638Y-78162815I-87680J87679D01*
G01*
X207922240Y-78137760D02*
G75*
G03*
X207746919Y-78137802I-87640J-87640D01*
G01*
X207064225Y-78557360D02*
G75*
G02*
X207064246Y-78382019I87675J87660D01*
G01*
X206406588Y-77724405D02*
G75*
G02*
X206231228Y-77724405I-87680J87679D01*
G01*
X207283432Y-78601204D02*
G75*
G02*
X207108118Y-78601153I-87632J87704D01*
G01*
X207742236Y-77703989D02*
G75*
G03*
X207742245Y-77528619I-87636J87689D01*
G01*
X206625794Y-78118973D02*
G75*
G02*
X206625802Y-77943619I87706J87673D01*
G01*
%TO.N,USB_OTG_HS_ULPI_D6*%
X220017741Y-87036000D02*
G75*
G03*
X220141700Y-86912000I-41J124000D01*
G01*
X218804000Y-86540000D02*
G75*
G02*
X218928000Y-86416000I124000J0D01*
G01*
X218928000Y-86726000D02*
G75*
G02*
X218804000Y-86602000I0J124000D01*
G01*
X218928000Y-86106000D02*
G75*
G02*
X218804000Y-85982000I0J124000D01*
G01*
X220017746Y-86416000D02*
G75*
G03*
X220141700Y-86292000I-46J124000D01*
G01*
X220141741Y-86850000D02*
G75*
G03*
X220017741Y-86725959I-124041J0D01*
G01*
X218804000Y-87160000D02*
G75*
G02*
X218928000Y-87036000I124000J0D01*
G01*
X218928000Y-87346000D02*
G75*
G02*
X218804000Y-87222000I0J124000D01*
G01*
X218804000Y-88400000D02*
G75*
G02*
X218928000Y-88276000I124000J0D01*
G01*
X220017731Y-88896000D02*
G75*
G03*
X220141700Y-88772000I-31J124000D01*
G01*
X220141741Y-87470000D02*
G75*
G03*
X220017741Y-87345959I-124041J0D01*
G01*
X220017741Y-87656000D02*
G75*
G03*
X220141700Y-87532000I-41J124000D01*
G01*
X218804000Y-87780000D02*
G75*
G02*
X218928000Y-87656000I124000J0D01*
G01*
X220017741Y-88276000D02*
G75*
G03*
X220141700Y-88152000I-41J124000D01*
G01*
X218928000Y-87966000D02*
G75*
G02*
X218804000Y-87842000I0J124000D01*
G01*
X218928000Y-88586000D02*
G75*
G02*
X218804000Y-88462000I0J124000D01*
G01*
X220141731Y-88710000D02*
G75*
G03*
X220017731Y-88585969I-124031J0D01*
G01*
X220141746Y-86230000D02*
G75*
G03*
X220017746Y-86105954I-124046J0D01*
G01*
X218804000Y-89020000D02*
G75*
G02*
X218928000Y-88896000I124000J0D01*
G01*
X220141741Y-88090000D02*
G75*
G03*
X220017741Y-87965959I-124041J0D01*
G01*
X218804000Y-89394000D02*
X218804000Y-89020000D01*
X218804000Y-86602000D02*
X218804000Y-86540000D01*
X217316000Y-85066000D02*
X216800000Y-84550000D01*
X220017746Y-86106000D02*
X218928000Y-86106000D01*
X218804000Y-85982000D02*
X218804000Y-85920000D01*
X218928000Y-88276000D02*
X220017741Y-88276000D01*
X218804000Y-88462000D02*
X218804000Y-88400000D01*
X218804000Y-85920000D02*
X218804000Y-85789520D01*
X220017741Y-86726000D02*
X218928000Y-86726000D01*
X218928000Y-87656000D02*
X220017741Y-87656000D01*
X218863411Y-89453411D02*
X218804000Y-89394000D01*
X220141741Y-86912000D02*
X220141741Y-86850000D01*
X218928000Y-88896000D02*
X220017731Y-88896000D01*
X218928000Y-86416000D02*
X220017746Y-86416000D01*
X218928000Y-87036000D02*
X220017741Y-87036000D01*
X220141731Y-88772000D02*
X220141731Y-88710000D01*
X225280763Y-89453411D02*
X218863411Y-89453411D01*
X218080480Y-85066000D02*
X217316000Y-85066000D01*
X220017741Y-87346000D02*
X218928000Y-87346000D01*
X218804000Y-85789520D02*
X218080480Y-85066000D01*
X220141741Y-87532000D02*
X220141741Y-87470000D01*
X220141746Y-86292000D02*
X220141746Y-86230000D01*
X220017741Y-87966000D02*
X218928000Y-87966000D01*
X218804000Y-87222000D02*
X218804000Y-87160000D01*
X227448676Y-91621324D02*
X225280763Y-89453411D01*
X220141741Y-88152000D02*
X220141741Y-88090000D01*
X218804000Y-87842000D02*
X218804000Y-87780000D01*
X220017731Y-88586000D02*
X218928000Y-88586000D01*
%TO.N,USB_OTG_HS_ULPI_D4*%
X221832000Y-83476000D02*
X221770000Y-83476000D01*
X222452000Y-79108740D02*
X222390000Y-79108740D01*
X222266000Y-79232740D02*
X222266000Y-83476000D01*
X221956000Y-87669250D02*
X221956000Y-83600000D01*
X222576000Y-83600000D02*
X222576000Y-79232740D01*
X222266000Y-83476000D02*
X222266000Y-87669250D01*
X224656000Y-83476000D02*
X223010000Y-83476000D01*
X222886000Y-83600000D02*
X222886000Y-87719260D01*
X222576000Y-87719260D02*
X222576000Y-83600000D01*
X220416000Y-83476000D02*
X220100000Y-83160000D01*
X222762000Y-87843260D02*
X222700000Y-87843260D01*
X225100000Y-83920000D02*
X224656000Y-83476000D01*
X222142000Y-87793250D02*
X222080000Y-87793250D01*
X221770000Y-83476000D02*
X220416000Y-83476000D01*
X222700000Y-87843260D02*
G75*
G02*
X222576040Y-87719260I0J123960D01*
G01*
X222080000Y-87793250D02*
G75*
G02*
X221955950Y-87669250I0J124050D01*
G01*
X222886000Y-87719260D02*
G75*
G02*
X222762000Y-87843300I-124000J-40D01*
G01*
X221956000Y-83600000D02*
G75*
G03*
X221832000Y-83476000I-124000J0D01*
G01*
X223010000Y-83476000D02*
G75*
G03*
X222886000Y-83600000I0J-124000D01*
G01*
X222390000Y-79108740D02*
G75*
G03*
X222266040Y-79232740I0J-123960D01*
G01*
X222576000Y-79232740D02*
G75*
G03*
X222452000Y-79108700I-124000J40D01*
G01*
X222266000Y-87669250D02*
G75*
G02*
X222142000Y-87793200I-124000J50D01*
G01*
D18*
%TO.N,+5V*%
X192150000Y-94850000D02*
X192700000Y-94300000D01*
X193300000Y-98500000D02*
X192150000Y-97350000D01*
X192150000Y-97350000D02*
X192150000Y-94850000D01*
X192700000Y-94300000D02*
X193000000Y-94300000D01*
D17*
%TO.N,+1V8*%
X197650000Y-63050000D02*
X229050000Y-63050000D01*
X231400000Y-84974339D02*
X228774339Y-87600000D01*
X197650000Y-70839339D02*
X197650000Y-63050000D01*
X195600000Y-73050000D02*
X195600000Y-72889339D01*
X195600000Y-72889339D02*
X197650000Y-70839339D01*
X228774339Y-87600000D02*
X228400000Y-87600000D01*
X231400000Y-65400000D02*
X231400000Y-84974339D01*
X229050000Y-63050000D02*
X231400000Y-65400000D01*
%TO.N,USB_OTG_FS_VBUS*%
X186550000Y-95050000D02*
X186550000Y-90300000D01*
X186550000Y-90300000D02*
X184900000Y-88650000D01*
X186850000Y-95350000D02*
X186550000Y-95050000D01*
X184900000Y-88650000D02*
X184900000Y-74800000D01*
X188100000Y-71600000D02*
X188100000Y-62100000D01*
X184900000Y-74800000D02*
X188100000Y-71600000D01*
D16*
%TO.N,USB_OTG_HS_VBUS*%
X226050000Y-93300000D02*
X225000000Y-93300000D01*
X225000000Y-93300000D02*
X222600000Y-90900000D01*
D17*
%TO.N,NRST*%
X230950000Y-82050000D02*
X230950000Y-66200000D01*
X228400000Y-63650000D02*
X215720000Y-63650000D01*
X230950000Y-66200000D02*
X228400000Y-63650000D01*
X215720000Y-63650000D02*
X215530000Y-63840000D01*
D16*
X228030000Y-64200000D02*
X228030000Y-64020000D01*
D17*
X225200000Y-87400000D02*
X225550000Y-87400000D01*
X225550000Y-87400000D02*
X227400000Y-85550000D01*
X227400000Y-83764339D02*
X228714339Y-82450000D01*
X215530000Y-63840000D02*
X215530000Y-65850000D01*
X227400000Y-85550000D02*
X227400000Y-83764339D01*
X228714339Y-82450000D02*
X230550000Y-82450000D01*
X230550000Y-82450000D02*
X230950000Y-82050000D01*
D16*
X228030000Y-64020000D02*
X228400000Y-63650000D01*
%TO.N,SWO*%
X195320000Y-71104480D02*
X195320000Y-64510000D01*
X195320000Y-71510000D02*
X195320000Y-71104480D01*
X197110000Y-62720000D02*
X220330000Y-62720000D01*
X195320000Y-64510000D02*
X197110000Y-62720000D01*
X195730000Y-71920000D02*
X195320000Y-71510000D01*
X220330000Y-62720000D02*
X221090000Y-61960000D01*
D17*
%TO.N,USB_OTG_HS_DETECT*%
X225780000Y-92030000D02*
X226800000Y-93050000D01*
X221300000Y-96950000D02*
X222050000Y-96200000D01*
X226800000Y-93050000D02*
X226800000Y-96500000D01*
X221300000Y-98460661D02*
X221300000Y-96950000D01*
X224800000Y-96500000D02*
X222400000Y-98900000D01*
X221739339Y-98900000D02*
X221300000Y-98460661D01*
X222400000Y-98900000D02*
X221739339Y-98900000D01*
X226800000Y-96500000D02*
X224800000Y-96500000D01*
D16*
%TO.N,SDMMC1_D3*%
X191470000Y-91600000D02*
X190920000Y-91050000D01*
X194107500Y-87177500D02*
X193990000Y-87295000D01*
X193990000Y-90805000D02*
X193990000Y-91020000D01*
X192232000Y-91600000D02*
X192170000Y-91600000D01*
X193866000Y-87729000D02*
X195729154Y-87729000D01*
X194379156Y-88659000D02*
X194114000Y-88659000D01*
X193866000Y-87419000D02*
X193800849Y-87419000D01*
X193990000Y-88783000D02*
X193990000Y-88845000D01*
X193990000Y-88845000D02*
X193990000Y-89565000D01*
X191922000Y-92613152D02*
X191860000Y-92613152D01*
X193162000Y-92013151D02*
X193100000Y-92013151D01*
X194114000Y-89689000D02*
X195879151Y-89689000D01*
X194114000Y-90309000D02*
X195879151Y-90309000D01*
X193800849Y-87729000D02*
X193866000Y-87729000D01*
X192666000Y-91724000D02*
X192666000Y-92489149D01*
X193990000Y-90123000D02*
X193990000Y-90185000D01*
X192046000Y-91724000D02*
X192046000Y-92489152D01*
X193286000Y-91724000D02*
X193286000Y-91889151D01*
X191736000Y-92489152D02*
X191736000Y-91724000D01*
X193990000Y-90743000D02*
X193990000Y-90805000D01*
X192542000Y-92613149D02*
X192480000Y-92613149D01*
X195853154Y-87853000D02*
X195853154Y-87915000D01*
X195729154Y-88039000D02*
X194114000Y-88039000D01*
X194503156Y-88473000D02*
X194503156Y-88535000D01*
X195879151Y-89999000D02*
X194114000Y-89999000D01*
X195879151Y-90619000D02*
X194114000Y-90619000D01*
X196003151Y-89813000D02*
X196003151Y-89875000D01*
X194114000Y-88349000D02*
X194379156Y-88349000D01*
X192356000Y-92489149D02*
X192356000Y-91724000D01*
X193990000Y-91020000D02*
X193410000Y-91600000D01*
X196003151Y-90433000D02*
X196003151Y-90495000D01*
X193676849Y-87543000D02*
X193676849Y-87605000D01*
X191550000Y-91600000D02*
X191470000Y-91600000D01*
X192852000Y-91600000D02*
X192790000Y-91600000D01*
X191612000Y-91600000D02*
X191550000Y-91600000D01*
X192976000Y-91889151D02*
X192976000Y-91724000D01*
X194600000Y-86685000D02*
X194107500Y-87177500D01*
X190920000Y-91050000D02*
X190920000Y-90570000D01*
X193990000Y-88163000D02*
X193990000Y-88225000D01*
X193990000Y-90185000D02*
G75*
G03*
X194114000Y-90309000I124000J0D01*
G01*
X196003151Y-89875000D02*
G75*
G02*
X195879151Y-89998951I-123951J0D01*
G01*
X193800849Y-87419000D02*
G75*
G03*
X193676800Y-87543000I-49J-124000D01*
G01*
X192170000Y-91600000D02*
G75*
G03*
X192046000Y-91724000I0J-124000D01*
G01*
X194114000Y-90619000D02*
G75*
G03*
X193990000Y-90743000I0J-124000D01*
G01*
X194503156Y-88535000D02*
G75*
G02*
X194379156Y-88658956I-123956J0D01*
G01*
X195853154Y-87915000D02*
G75*
G02*
X195729154Y-88038954I-123954J0D01*
G01*
X193990000Y-88225000D02*
G75*
G03*
X194114000Y-88349000I124000J0D01*
G01*
X194114000Y-89999000D02*
G75*
G03*
X193990000Y-90123000I0J-124000D01*
G01*
X193100000Y-92013151D02*
G75*
G02*
X192976049Y-91889151I0J123951D01*
G01*
X194379156Y-88349000D02*
G75*
G02*
X194503200Y-88473000I44J-124000D01*
G01*
X191736000Y-91724000D02*
G75*
G03*
X191612000Y-91600000I-124000J0D01*
G01*
X193676849Y-87605000D02*
G75*
G03*
X193800849Y-87728951I123951J0D01*
G01*
X192976000Y-91724000D02*
G75*
G03*
X192852000Y-91600000I-124000J0D01*
G01*
X192356000Y-91724000D02*
G75*
G03*
X192232000Y-91600000I-124000J0D01*
G01*
X193286000Y-91889151D02*
G75*
G02*
X193162000Y-92013200I-124000J-49D01*
G01*
X194114000Y-88039000D02*
G75*
G03*
X193990000Y-88163000I0J-124000D01*
G01*
X193990000Y-87295000D02*
G75*
G02*
X193866000Y-87419000I-124000J0D01*
G01*
X193410000Y-91600000D02*
G75*
G03*
X193286000Y-91724000I0J-124000D01*
G01*
X192480000Y-92613149D02*
G75*
G02*
X192355951Y-92489149I0J124049D01*
G01*
X192046000Y-92489152D02*
G75*
G02*
X191922000Y-92613200I-124000J-48D01*
G01*
X195879151Y-90309000D02*
G75*
G02*
X196003200Y-90433000I49J-124000D01*
G01*
X192790000Y-91600000D02*
G75*
G03*
X192666000Y-91724000I0J-124000D01*
G01*
X194114000Y-88659000D02*
G75*
G03*
X193990000Y-88783000I0J-124000D01*
G01*
X192666000Y-92489149D02*
G75*
G02*
X192542000Y-92613100I-124000J49D01*
G01*
X193990000Y-89565000D02*
G75*
G03*
X194114000Y-89689000I124000J0D01*
G01*
X195729154Y-87729000D02*
G75*
G02*
X195853200Y-87853000I46J-124000D01*
G01*
X195879151Y-89689000D02*
G75*
G02*
X196003200Y-89813000I49J-124000D01*
G01*
X191860000Y-92613152D02*
G75*
G02*
X191736048Y-92489152I0J123952D01*
G01*
X196003151Y-90495000D02*
G75*
G02*
X195879151Y-90618951I-123951J0D01*
G01*
%TO.N,SDMMC1_D1*%
X191714000Y-88904000D02*
X191340000Y-88530000D01*
X193484000Y-90986000D02*
X193236000Y-91234000D01*
X193484000Y-89022958D02*
X193484000Y-89084958D01*
X191714000Y-90948480D02*
X191714000Y-88904000D01*
X191999520Y-91234000D02*
X191714000Y-90948480D01*
X193236000Y-91234000D02*
X191999520Y-91234000D01*
X193360000Y-88588958D02*
X193051897Y-88588958D01*
X193000000Y-86685000D02*
X193000000Y-87480000D01*
X193484000Y-87964000D02*
X193484000Y-88464958D01*
X193484000Y-89090000D02*
X193484000Y-90986000D01*
X193051897Y-88898958D02*
X193360000Y-88898958D01*
X192927897Y-88712958D02*
X192927897Y-88774958D01*
X193484000Y-89084958D02*
X193484000Y-89090000D01*
X193000000Y-87480000D02*
X193484000Y-87964000D01*
X193484000Y-88464958D02*
G75*
G02*
X193360000Y-88589000I-124000J-42D01*
G01*
X192927897Y-88774958D02*
G75*
G03*
X193051897Y-88899003I124003J-42D01*
G01*
X193051897Y-88588958D02*
G75*
G03*
X192927858Y-88712958I3J-124042D01*
G01*
X193360000Y-88898958D02*
G75*
G02*
X193484042Y-89022958I0J-124042D01*
G01*
%TO.N,SDMMC1_D5*%
X192360000Y-90110000D02*
X192360000Y-84154480D01*
X192654000Y-83800811D02*
X192773631Y-83681180D01*
X192360000Y-84154480D02*
X192654000Y-83860480D01*
X192654000Y-83860480D02*
X192654000Y-83800811D01*
X193000000Y-90750000D02*
X192360000Y-90110000D01*
%TO.N,SDMMC1_D7*%
X191758000Y-93355386D02*
X191820000Y-93355386D01*
X191634000Y-93108000D02*
X191634000Y-93231386D01*
X192130000Y-92984000D02*
X192230000Y-92984000D01*
X192726000Y-92984000D02*
X194600000Y-91110000D01*
X191325520Y-86840000D02*
X190380000Y-87785520D01*
X191500000Y-86840000D02*
X191325520Y-86840000D01*
X191049520Y-92984000D02*
X191510000Y-92984000D01*
X191944000Y-93231386D02*
X191944000Y-93108000D01*
X192230000Y-92984000D02*
X192726000Y-92984000D01*
X190380000Y-87785520D02*
X190380000Y-92314480D01*
X192068000Y-92984000D02*
X192130000Y-92984000D01*
X190380000Y-92314480D02*
X191049520Y-92984000D01*
X191944000Y-93108000D02*
G75*
G02*
X192068000Y-92984000I124000J0D01*
G01*
X191634000Y-93231386D02*
G75*
G03*
X191758000Y-93355400I124000J-14D01*
G01*
X191510000Y-92984000D02*
G75*
G02*
X191634000Y-93108000I0J-124000D01*
G01*
X191820000Y-93355386D02*
G75*
G03*
X191943986Y-93231386I0J123986D01*
G01*
%TO.N,SDMMC1_D4*%
X192050000Y-83780000D02*
X192170000Y-83660000D01*
X192050000Y-90600000D02*
X192050000Y-83780000D01*
X192200000Y-90750000D02*
X192050000Y-90600000D01*
%TO.N,USB_OTG_HS_ULPI_D3*%
X221423048Y-78706000D02*
X220600000Y-78706000D01*
X220600000Y-80566000D02*
X219776943Y-80566000D01*
X220600000Y-79326000D02*
X219776949Y-79326000D01*
X220600000Y-78210000D02*
X220600000Y-77930000D01*
X221547051Y-79512000D02*
X221547051Y-79450000D01*
X220600000Y-78272000D02*
X220600000Y-78210000D01*
X219776949Y-78396000D02*
X220476000Y-78396000D01*
X220600000Y-79636000D02*
X221423051Y-79636000D01*
X219776943Y-80256000D02*
X220600000Y-80256000D01*
X221547057Y-80752000D02*
X221547057Y-80690000D01*
X220476000Y-81186000D02*
X219776943Y-81186000D01*
X221547048Y-78892000D02*
X221547048Y-78830000D01*
X224680000Y-82720000D02*
X225750000Y-83790000D01*
X220600000Y-77930000D02*
X220600000Y-77830000D01*
X220600000Y-78706000D02*
X219776949Y-78706000D01*
X220600000Y-79946000D02*
X219776949Y-79946000D01*
X221423057Y-79946000D02*
X220600000Y-79946000D01*
X219652949Y-78582000D02*
X219652949Y-78520000D01*
X219652943Y-81062000D02*
X219652943Y-81000000D01*
X220600000Y-77830000D02*
X223050000Y-77830000D01*
X219776949Y-79016000D02*
X220600000Y-79016000D01*
X220600000Y-82790000D02*
X220600000Y-81310000D01*
X219776943Y-80876000D02*
X220476000Y-80876000D01*
X219652949Y-79202000D02*
X219652949Y-79140000D01*
X221547057Y-80132000D02*
X221547057Y-80070000D01*
X219652949Y-79822000D02*
X219652949Y-79760000D01*
X220476000Y-80876000D02*
X221423057Y-80876000D01*
X221423057Y-80566000D02*
X220600000Y-80566000D01*
X219652943Y-80442000D02*
X219652943Y-80380000D01*
X221423051Y-79326000D02*
X220600000Y-79326000D01*
X223050000Y-77830000D02*
X223050000Y-82720000D01*
X219776949Y-79636000D02*
X220600000Y-79636000D01*
X220600000Y-80256000D02*
X221423057Y-80256000D01*
X220600000Y-79016000D02*
X221423048Y-79016000D01*
X223050000Y-82720000D02*
X224680000Y-82720000D01*
X221547057Y-80070000D02*
G75*
G03*
X221423057Y-79946043I-123957J0D01*
G01*
X221547057Y-80690000D02*
G75*
G03*
X221423057Y-80566043I-123957J0D01*
G01*
X219776949Y-79946000D02*
G75*
G02*
X219652900Y-79822000I-49J124000D01*
G01*
X221547051Y-79450000D02*
G75*
G03*
X221423051Y-79326049I-123951J0D01*
G01*
X219652949Y-79140000D02*
G75*
G02*
X219776949Y-79016049I123951J0D01*
G01*
X221547048Y-78830000D02*
G75*
G03*
X221423048Y-78705952I-124048J0D01*
G01*
X219776943Y-81186000D02*
G75*
G02*
X219652900Y-81062000I-43J124000D01*
G01*
X221423057Y-80256000D02*
G75*
G03*
X221547100Y-80132000I43J124000D01*
G01*
X220600000Y-81310000D02*
G75*
G03*
X220476000Y-81186000I-124000J0D01*
G01*
X221423057Y-80876000D02*
G75*
G03*
X221547100Y-80752000I43J124000D01*
G01*
X220476000Y-78396000D02*
G75*
G03*
X220600000Y-78272000I0J124000D01*
G01*
X221423048Y-79016000D02*
G75*
G03*
X221547000Y-78892000I-48J124000D01*
G01*
X219776949Y-79326000D02*
G75*
G02*
X219652900Y-79202000I-49J124000D01*
G01*
X219652943Y-81000000D02*
G75*
G02*
X219776943Y-80876043I123957J0D01*
G01*
X221423051Y-79636000D02*
G75*
G03*
X221547100Y-79512000I49J124000D01*
G01*
X219776949Y-78706000D02*
G75*
G02*
X219652900Y-78582000I-49J124000D01*
G01*
X219776943Y-80566000D02*
G75*
G02*
X219652900Y-80442000I-43J124000D01*
G01*
X219652949Y-79760000D02*
G75*
G02*
X219776949Y-79636049I123951J0D01*
G01*
X219652949Y-78520000D02*
G75*
G02*
X219776949Y-78396049I123951J0D01*
G01*
X219652943Y-80380000D02*
G75*
G02*
X219776943Y-80256043I123957J0D01*
G01*
%TO.N,USB_OTG_HS_ULPI_STP*%
X224700000Y-84960000D02*
X224700000Y-86030000D01*
X223750000Y-84010000D02*
X224700000Y-84960000D01*
%TO.N,SDMMC1_CK*%
X194260000Y-85660000D02*
X194260000Y-83170000D01*
X186741357Y-83560354D02*
X187315500Y-84134497D01*
X187451253Y-85322431D02*
X187407410Y-85366275D01*
X188279999Y-83345364D02*
X188766503Y-83831868D01*
X188766504Y-84007230D02*
X188722661Y-84051074D01*
X186307162Y-85142837D02*
X186187292Y-85262708D01*
X187096297Y-84353706D02*
X186522135Y-83779543D01*
X187179732Y-83121911D02*
X187753909Y-83696088D01*
X188108884Y-84489474D02*
X187534707Y-83915297D01*
X188547299Y-84051074D02*
X188060796Y-83564571D01*
X186302931Y-83998746D02*
X186877091Y-84572906D01*
X187232048Y-85366275D02*
X186657888Y-84792115D01*
X185908329Y-84217918D02*
X185864488Y-84261758D01*
X187670457Y-84927866D02*
X187096297Y-84353706D01*
X185864488Y-84437121D02*
X186351001Y-84923634D01*
X194260000Y-83170000D02*
X188280000Y-83170000D01*
X186877091Y-84572906D02*
X187451253Y-85147069D01*
X186351001Y-85098996D02*
X186307162Y-85142837D01*
X186187292Y-85262708D02*
X185800000Y-85650000D01*
X187889662Y-84884022D02*
X187845819Y-84927866D01*
X187753909Y-83696088D02*
X188328088Y-84270268D01*
X188060796Y-83564571D02*
X187973115Y-83476890D01*
X186657888Y-84792115D02*
X186083692Y-84217918D01*
X187315500Y-84134497D02*
X187889662Y-84708660D01*
X186346773Y-83779543D02*
X186302931Y-83823384D01*
X187973115Y-83476890D02*
X187973114Y-83476886D01*
X186785199Y-83341151D02*
X186741357Y-83384992D01*
X185800000Y-85650000D02*
X185800000Y-87595997D01*
X187223574Y-82902708D02*
X187179732Y-82946549D01*
X188328087Y-84445632D02*
X188284246Y-84489474D01*
X187534707Y-83915297D02*
X186960561Y-83341151D01*
X187973114Y-83476886D02*
X187398936Y-82902708D01*
X195850000Y-87250000D02*
X194260000Y-85660000D01*
X188328087Y-84270269D02*
G75*
G02*
X188328037Y-84445582I-87687J-87631D01*
G01*
X186522134Y-83779544D02*
G75*
G03*
X186346774Y-83779544I-87680J-87679D01*
G01*
X187179732Y-82946549D02*
G75*
G03*
X187179762Y-83121881I87668J-87651D01*
G01*
X187889662Y-84708660D02*
G75*
G02*
X187889621Y-84883981I-87662J-87640D01*
G01*
X187398935Y-82902709D02*
G75*
G03*
X187223575Y-82902709I-87680J-87679D01*
G01*
X186960560Y-83341152D02*
G75*
G03*
X186785200Y-83341152I-87680J-87679D01*
G01*
X187845818Y-84927865D02*
G75*
G02*
X187670458Y-84927865I-87680J87679D01*
G01*
X187407409Y-85366274D02*
G75*
G02*
X187232049Y-85366274I-87680J87679D01*
G01*
X188766503Y-83831868D02*
G75*
G02*
X188766454Y-84007180I-87703J-87632D01*
G01*
X186351001Y-84923634D02*
G75*
G02*
X186350986Y-85098981I-87701J-87666D01*
G01*
X185864488Y-84261758D02*
G75*
G03*
X185864527Y-84437081I87712J-87642D01*
G01*
X187451253Y-85147069D02*
G75*
G02*
X187451203Y-85322381I-87653J-87631D01*
G01*
X186741358Y-83384993D02*
G75*
G03*
X186741331Y-83560380I87642J-87707D01*
G01*
X188280000Y-83170000D02*
G75*
G03*
X188279982Y-83345381I87700J-87700D01*
G01*
X188722660Y-84051073D02*
G75*
G02*
X188547300Y-84051073I-87680J87679D01*
G01*
X188284245Y-84489473D02*
G75*
G02*
X188108885Y-84489473I-87680J87679D01*
G01*
X186083692Y-84217918D02*
G75*
G03*
X185908330Y-84217919I-87681J-87681D01*
G01*
X186302932Y-83823385D02*
G75*
G03*
X186302897Y-83998780I87668J-87715D01*
G01*
%TO.N,/USB_OTG_HS/ESD_D-*%
X223432376Y-92550000D02*
X226250000Y-95367624D01*
X219850000Y-91332376D02*
X221067624Y-92550000D01*
X226250000Y-95367624D02*
X226250000Y-95400000D01*
X221067624Y-92550000D02*
X223432376Y-92550000D01*
X219850000Y-90000000D02*
X219850000Y-91332376D01*
%TD*%
M02*
