%TF.GenerationSoftware,KiCad,Pcbnew,8.0.1*%
%TF.CreationDate,2024-04-17T21:00:08+02:00*%
%TF.ProjectId,STM32_Dev_Board,53544d33-325f-4446-9576-5f426f617264,rev?*%
%TF.SameCoordinates,Original*%
%TF.FileFunction,Legend,Top*%
%TF.FilePolarity,Positive*%
%FSLAX46Y46*%
G04 Gerber Fmt 4.6, Leading zero omitted, Abs format (unit mm)*
G04 Created by KiCad (PCBNEW 8.0.1) date 2024-04-17 21:00:08*
%MOMM*%
%LPD*%
G01*
G04 APERTURE LIST*
%ADD10C,0.120000*%
%ADD11C,0.150000*%
%ADD12C,0.127000*%
%ADD13C,0.177800*%
G04 APERTURE END LIST*
D10*
X231600000Y-62225000D02*
X231600000Y-59375000D01*
X231600000Y-62225000D02*
X231100000Y-62225000D01*
X223625000Y-62225000D02*
X223125000Y-62225000D01*
X223125000Y-62225000D02*
X223125000Y-59375000D01*
D11*
G36*
X225348873Y-62657004D02*
G01*
X225349653Y-62993640D01*
X225336326Y-63000559D01*
X225228827Y-63001543D01*
X225184020Y-62979987D01*
X225164689Y-62961492D01*
X225141441Y-62916715D01*
X225140315Y-62737900D01*
X225161967Y-62692893D01*
X225180461Y-62673562D01*
X225225327Y-62650268D01*
X225332825Y-62649284D01*
X225348873Y-62657004D01*
G37*
G36*
X224664304Y-62864111D02*
G01*
X224670753Y-62863652D01*
X224671212Y-62993572D01*
X224657807Y-63000532D01*
X224514660Y-63001600D01*
X224479655Y-62984759D01*
X224462699Y-62952101D01*
X224462090Y-62915752D01*
X224478623Y-62881385D01*
X224510989Y-62864581D01*
X224662329Y-62863452D01*
X224664304Y-62864111D01*
G37*
G36*
X227699059Y-62670840D02*
G01*
X227718392Y-62689335D01*
X227741639Y-62734111D01*
X227742765Y-62912927D01*
X227721113Y-62957933D01*
X227702618Y-62977265D01*
X227657669Y-63000603D01*
X227585784Y-63001454D01*
X227541162Y-62979987D01*
X227521831Y-62961492D01*
X227498583Y-62916715D01*
X227497457Y-62737900D01*
X227519109Y-62692893D01*
X227537603Y-62673562D01*
X227582553Y-62650224D01*
X227654438Y-62649373D01*
X227699059Y-62670840D01*
G37*
G36*
X229724852Y-62666067D02*
G01*
X229738972Y-62693261D01*
X229533277Y-62735215D01*
X229533119Y-62702291D01*
X229550049Y-62667099D01*
X229582468Y-62650268D01*
X229689966Y-62649284D01*
X229724852Y-62666067D01*
G37*
G36*
X231116287Y-63483747D02*
G01*
X223588220Y-63483747D01*
X223588220Y-62340046D01*
X223671553Y-62340046D01*
X223682752Y-62367082D01*
X223703444Y-62387774D01*
X223730480Y-62398973D01*
X223745112Y-62400414D01*
X223884538Y-62399960D01*
X223885839Y-63090046D01*
X223897038Y-63117082D01*
X223917730Y-63137774D01*
X223944766Y-63148973D01*
X223974030Y-63148973D01*
X224001066Y-63137774D01*
X224021758Y-63117082D01*
X224032957Y-63090046D01*
X224034398Y-63075414D01*
X224034061Y-62896842D01*
X224312970Y-62896842D01*
X224313987Y-62957604D01*
X224313559Y-62958890D01*
X224314147Y-62967174D01*
X224314411Y-62982903D01*
X224315442Y-62985392D01*
X224315633Y-62988080D01*
X224320888Y-63001812D01*
X224356166Y-63069759D01*
X224358527Y-63076842D01*
X224361806Y-63080623D01*
X224364434Y-63085684D01*
X224371538Y-63091845D01*
X224377700Y-63098950D01*
X224385105Y-63103611D01*
X224386542Y-63104857D01*
X224387695Y-63105241D01*
X224390143Y-63106782D01*
X224452406Y-63136735D01*
X224453445Y-63137774D01*
X224461505Y-63141112D01*
X224475304Y-63147751D01*
X224477991Y-63147941D01*
X224480481Y-63148973D01*
X224495113Y-63150414D01*
X224662328Y-63149166D01*
X224664303Y-63149825D01*
X224674884Y-63149073D01*
X224688316Y-63148973D01*
X224690805Y-63147941D01*
X224693493Y-63147751D01*
X224707225Y-63142496D01*
X224710606Y-63140740D01*
X224730481Y-63148973D01*
X224759745Y-63148973D01*
X224786781Y-63137774D01*
X224807473Y-63117082D01*
X224818672Y-63090046D01*
X224820113Y-63075414D01*
X224819014Y-62764892D01*
X224819524Y-62763365D01*
X224818982Y-62755748D01*
X224818849Y-62718271D01*
X224991541Y-62718271D01*
X224992817Y-62921112D01*
X224992130Y-62923176D01*
X224992898Y-62933998D01*
X224992982Y-62947189D01*
X224994013Y-62949678D01*
X224994204Y-62952366D01*
X224999459Y-62966098D01*
X225036464Y-63037372D01*
X225039894Y-63045652D01*
X225042261Y-63048536D01*
X225043005Y-63049969D01*
X225044503Y-63051268D01*
X225049221Y-63057017D01*
X225086797Y-63092968D01*
X225091985Y-63098950D01*
X225095096Y-63100908D01*
X225096300Y-63102060D01*
X225098130Y-63102818D01*
X225104428Y-63106782D01*
X225166691Y-63136735D01*
X225167730Y-63137774D01*
X225175790Y-63141112D01*
X225189589Y-63147751D01*
X225192276Y-63147941D01*
X225194766Y-63148973D01*
X225209398Y-63150414D01*
X225341027Y-63149209D01*
X225342874Y-63149825D01*
X225350014Y-63149317D01*
X225350044Y-63162645D01*
X225328256Y-63207933D01*
X225309760Y-63227267D01*
X225264812Y-63250603D01*
X225192928Y-63251454D01*
X225122064Y-63217363D01*
X225092874Y-63215289D01*
X225065113Y-63224543D01*
X225043005Y-63243716D01*
X225029918Y-63269891D01*
X225027844Y-63299081D01*
X225037098Y-63326842D01*
X225056271Y-63348950D01*
X225068714Y-63356782D01*
X225130977Y-63386735D01*
X225132016Y-63387774D01*
X225140076Y-63391112D01*
X225153875Y-63397751D01*
X225156562Y-63397941D01*
X225159052Y-63398973D01*
X225173684Y-63400414D01*
X225269799Y-63399276D01*
X225271445Y-63399825D01*
X225281034Y-63399143D01*
X225295458Y-63398973D01*
X225297947Y-63397941D01*
X225300635Y-63397751D01*
X225314367Y-63392496D01*
X225385640Y-63355491D01*
X225393924Y-63352060D01*
X225396807Y-63349693D01*
X225398239Y-63348950D01*
X225399537Y-63347452D01*
X225405289Y-63342732D01*
X225441235Y-63305158D01*
X225447218Y-63299970D01*
X225449178Y-63296855D01*
X225450330Y-63295652D01*
X225451087Y-63293823D01*
X225455051Y-63287527D01*
X225485004Y-63225264D01*
X225486044Y-63224225D01*
X225489386Y-63216155D01*
X225496020Y-63202367D01*
X225496210Y-63199680D01*
X225497243Y-63197189D01*
X225498684Y-63182557D01*
X225497807Y-62804332D01*
X225707267Y-62804332D01*
X225718466Y-62831368D01*
X225739158Y-62852060D01*
X225766194Y-62863259D01*
X225780826Y-62864700D01*
X226366887Y-62863259D01*
X226393923Y-62852060D01*
X226414615Y-62831368D01*
X226425814Y-62804332D01*
X226425814Y-62775068D01*
X226414615Y-62748032D01*
X226393923Y-62727340D01*
X226366887Y-62716141D01*
X226352255Y-62714700D01*
X225766194Y-62716141D01*
X225739158Y-62727340D01*
X225718466Y-62748032D01*
X225707267Y-62775068D01*
X225707267Y-62804332D01*
X225497807Y-62804332D01*
X225497442Y-62646842D01*
X226598683Y-62646842D01*
X226599903Y-62750022D01*
X226598772Y-62757630D01*
X226600100Y-62766616D01*
X226600124Y-62768617D01*
X226600547Y-62769638D01*
X226600922Y-62772175D01*
X226636550Y-62909484D01*
X226637060Y-62916651D01*
X226641254Y-62927611D01*
X226641583Y-62928878D01*
X226641905Y-62929313D01*
X226642315Y-62930383D01*
X226679321Y-63001660D01*
X226682751Y-63009939D01*
X226685116Y-63012821D01*
X226685861Y-63014255D01*
X226687359Y-63015554D01*
X226692078Y-63021304D01*
X226756537Y-63084177D01*
X226757290Y-63085683D01*
X226764425Y-63091871D01*
X226774872Y-63102061D01*
X226777364Y-63103093D01*
X226779398Y-63104857D01*
X226792823Y-63110851D01*
X226900132Y-63145278D01*
X226909051Y-63148973D01*
X226912797Y-63149341D01*
X226914303Y-63149825D01*
X226916277Y-63149684D01*
X226923683Y-63150414D01*
X226995791Y-63149206D01*
X227004491Y-63149825D01*
X227008118Y-63149000D01*
X227009743Y-63148973D01*
X227011574Y-63148214D01*
X227018828Y-63146565D01*
X227115109Y-63113259D01*
X227116886Y-63113259D01*
X227125890Y-63109529D01*
X227139397Y-63104857D01*
X227141432Y-63103091D01*
X227143923Y-63102060D01*
X227155288Y-63092732D01*
X227200329Y-63045652D01*
X227211527Y-63018615D01*
X227211527Y-62989352D01*
X227200328Y-62962316D01*
X227179635Y-62941624D01*
X227152598Y-62930426D01*
X227123336Y-62930426D01*
X227096299Y-62941625D01*
X227084934Y-62950953D01*
X227062937Y-62973945D01*
X226985981Y-63000566D01*
X226938364Y-63001364D01*
X226858308Y-62975680D01*
X226807952Y-62926563D01*
X226781239Y-62875112D01*
X226748629Y-62749435D01*
X226748260Y-62718271D01*
X227348683Y-62718271D01*
X227349959Y-62921112D01*
X227349272Y-62923176D01*
X227350040Y-62933998D01*
X227350124Y-62947189D01*
X227351155Y-62949678D01*
X227351346Y-62952366D01*
X227356601Y-62966098D01*
X227393606Y-63037372D01*
X227397036Y-63045652D01*
X227399403Y-63048536D01*
X227400147Y-63049969D01*
X227401645Y-63051268D01*
X227406363Y-63057017D01*
X227443939Y-63092968D01*
X227449127Y-63098950D01*
X227452238Y-63100908D01*
X227453442Y-63102060D01*
X227455272Y-63102818D01*
X227461570Y-63106782D01*
X227523833Y-63136735D01*
X227524872Y-63137774D01*
X227532932Y-63141112D01*
X227546731Y-63147751D01*
X227549418Y-63147941D01*
X227551908Y-63148973D01*
X227566540Y-63150414D01*
X227662656Y-63149276D01*
X227664302Y-63149825D01*
X227673891Y-63149143D01*
X227688315Y-63148973D01*
X227690804Y-63147941D01*
X227693492Y-63147751D01*
X227707224Y-63142496D01*
X227778500Y-63105488D01*
X227786779Y-63102060D01*
X227789661Y-63099694D01*
X227791095Y-63098950D01*
X227792394Y-63097451D01*
X227798144Y-63092733D01*
X227834091Y-63055158D01*
X227840076Y-63049969D01*
X227842035Y-63046855D01*
X227843187Y-63045652D01*
X227843944Y-63043822D01*
X227847908Y-63037526D01*
X227877861Y-62975263D01*
X227878900Y-62974225D01*
X227882239Y-62966163D01*
X227888877Y-62952366D01*
X227889067Y-62949678D01*
X227890099Y-62947189D01*
X227891540Y-62932557D01*
X227890263Y-62729715D01*
X227890951Y-62727652D01*
X227890182Y-62716829D01*
X227890099Y-62703639D01*
X227889067Y-62701149D01*
X227888877Y-62698462D01*
X227883622Y-62684731D01*
X227846617Y-62613457D01*
X227843186Y-62605173D01*
X227840819Y-62602289D01*
X227840076Y-62600858D01*
X227838578Y-62599559D01*
X227833858Y-62593808D01*
X227814631Y-62575414D01*
X228062968Y-62575414D01*
X228064409Y-63090046D01*
X228075608Y-63117082D01*
X228096300Y-63137774D01*
X228123336Y-63148973D01*
X228152600Y-63148973D01*
X228179636Y-63137774D01*
X228200328Y-63117082D01*
X228211527Y-63090046D01*
X228212968Y-63075414D01*
X228211855Y-62678076D01*
X228216174Y-62673562D01*
X228261124Y-62650224D01*
X228333009Y-62649373D01*
X228367710Y-62666067D01*
X228384452Y-62698312D01*
X228385838Y-63090046D01*
X228397037Y-63117082D01*
X228417729Y-63137774D01*
X228444765Y-63148973D01*
X228474029Y-63148973D01*
X228501065Y-63137774D01*
X228521757Y-63117082D01*
X228532956Y-63090046D01*
X228534397Y-63075414D01*
X228533048Y-62694214D01*
X228533808Y-62691937D01*
X228533000Y-62680575D01*
X228532956Y-62667925D01*
X228531925Y-62665436D01*
X228531734Y-62662747D01*
X228526479Y-62649015D01*
X228491200Y-62581071D01*
X228489315Y-62575414D01*
X228741539Y-62575414D01*
X228742980Y-63090046D01*
X228754179Y-63117082D01*
X228774871Y-63137774D01*
X228801907Y-63148973D01*
X228831171Y-63148973D01*
X228858207Y-63137774D01*
X228878899Y-63117082D01*
X228890098Y-63090046D01*
X228891539Y-63075414D01*
X228890426Y-62678076D01*
X228894745Y-62673562D01*
X228939695Y-62650224D01*
X229011580Y-62649373D01*
X229046281Y-62666067D01*
X229063023Y-62698312D01*
X229064409Y-63090046D01*
X229075608Y-63117082D01*
X229096300Y-63137774D01*
X229123336Y-63148973D01*
X229152600Y-63148973D01*
X229179636Y-63137774D01*
X229200328Y-63117082D01*
X229211527Y-63090046D01*
X229212968Y-63075414D01*
X229212084Y-62825492D01*
X229384396Y-62825492D01*
X229385098Y-62829005D01*
X229385711Y-62956711D01*
X229384985Y-62958890D01*
X229385775Y-62970010D01*
X229385837Y-62982903D01*
X229386868Y-62985392D01*
X229387059Y-62988080D01*
X229392314Y-63001812D01*
X229427592Y-63069759D01*
X229429953Y-63076842D01*
X229433232Y-63080623D01*
X229435860Y-63085684D01*
X229442964Y-63091845D01*
X229449126Y-63098950D01*
X229456531Y-63103611D01*
X229457968Y-63104857D01*
X229459121Y-63105241D01*
X229461569Y-63106782D01*
X229523832Y-63136735D01*
X229524871Y-63137774D01*
X229532931Y-63141112D01*
X229546730Y-63147751D01*
X229549417Y-63147941D01*
X229551907Y-63148973D01*
X229566539Y-63150414D01*
X229698168Y-63149209D01*
X229700015Y-63149825D01*
X229710229Y-63149099D01*
X229724028Y-63148973D01*
X229726517Y-63147941D01*
X229729205Y-63147751D01*
X229742937Y-63142496D01*
X229826808Y-63098950D01*
X229845981Y-63076842D01*
X229855235Y-63049081D01*
X229853161Y-63019891D01*
X229840074Y-62993716D01*
X229817966Y-62974543D01*
X229790205Y-62965289D01*
X229761015Y-62967363D01*
X229747283Y-62972618D01*
X229693466Y-63000559D01*
X229585968Y-63001543D01*
X229551081Y-62984759D01*
X229534320Y-62952476D01*
X229534004Y-62886740D01*
X229824240Y-62827544D01*
X229831171Y-62827544D01*
X229837893Y-62824759D01*
X229845313Y-62823246D01*
X229851418Y-62819156D01*
X229858207Y-62816345D01*
X229863457Y-62811094D01*
X229869628Y-62806962D01*
X229873704Y-62800848D01*
X229878899Y-62795653D01*
X229881740Y-62788793D01*
X229885860Y-62782614D01*
X229887286Y-62775405D01*
X229890098Y-62768617D01*
X229891539Y-62753985D01*
X229891537Y-62753913D01*
X229891539Y-62753907D01*
X229891537Y-62753899D01*
X229890940Y-62718271D01*
X230027253Y-62718271D01*
X230028529Y-62921112D01*
X230027842Y-62923176D01*
X230028610Y-62933998D01*
X230028694Y-62947189D01*
X230029725Y-62949678D01*
X230029916Y-62952366D01*
X230035171Y-62966098D01*
X230072176Y-63037372D01*
X230075606Y-63045652D01*
X230077973Y-63048536D01*
X230078717Y-63049969D01*
X230080215Y-63051268D01*
X230084933Y-63057017D01*
X230122509Y-63092968D01*
X230127697Y-63098950D01*
X230130808Y-63100908D01*
X230132012Y-63102060D01*
X230133842Y-63102818D01*
X230140140Y-63106782D01*
X230202403Y-63136735D01*
X230203442Y-63137774D01*
X230211502Y-63141112D01*
X230225301Y-63147751D01*
X230227988Y-63147941D01*
X230230478Y-63148973D01*
X230245110Y-63150414D01*
X230376739Y-63149209D01*
X230378586Y-63149825D01*
X230388800Y-63149099D01*
X230402599Y-63148973D01*
X230405088Y-63147941D01*
X230407776Y-63147751D01*
X230421508Y-63142496D01*
X230505380Y-63098950D01*
X230524553Y-63076842D01*
X230533807Y-63049081D01*
X230531733Y-63019891D01*
X230518646Y-62993716D01*
X230496539Y-62974543D01*
X230468777Y-62965289D01*
X230439587Y-62967363D01*
X230425856Y-62972618D01*
X230372038Y-63000559D01*
X230264539Y-63001543D01*
X230219732Y-62979987D01*
X230200401Y-62961492D01*
X230177153Y-62916715D01*
X230176027Y-62737900D01*
X230197679Y-62692893D01*
X230216173Y-62673562D01*
X230261039Y-62650268D01*
X230368537Y-62649284D01*
X230439587Y-62683465D01*
X230468777Y-62685539D01*
X230496539Y-62676285D01*
X230518646Y-62657112D01*
X230531733Y-62630937D01*
X230533807Y-62601747D01*
X230529907Y-62590046D01*
X230600122Y-62590046D01*
X230611321Y-62617082D01*
X230632013Y-62637774D01*
X230659049Y-62648973D01*
X230673681Y-62650414D01*
X230706535Y-62650256D01*
X230707207Y-62956507D01*
X230706413Y-62958890D01*
X230707237Y-62970498D01*
X230707265Y-62982903D01*
X230708296Y-62985392D01*
X230708487Y-62988080D01*
X230713742Y-63001812D01*
X230749020Y-63069759D01*
X230751381Y-63076842D01*
X230754660Y-63080623D01*
X230757288Y-63085684D01*
X230764392Y-63091845D01*
X230770554Y-63098950D01*
X230777959Y-63103611D01*
X230779396Y-63104857D01*
X230780549Y-63105241D01*
X230782997Y-63106782D01*
X230845260Y-63136735D01*
X230846299Y-63137774D01*
X230854359Y-63141112D01*
X230868158Y-63147751D01*
X230870845Y-63147941D01*
X230873335Y-63148973D01*
X230887967Y-63150414D01*
X230974027Y-63148973D01*
X231001063Y-63137774D01*
X231021755Y-63117082D01*
X231032954Y-63090046D01*
X231032954Y-63060782D01*
X231021755Y-63033746D01*
X231001063Y-63013054D01*
X230974027Y-63001855D01*
X230959395Y-63000414D01*
X230906877Y-63001293D01*
X230872509Y-62984759D01*
X230855789Y-62952556D01*
X230855125Y-62649543D01*
X230974027Y-62648973D01*
X231001063Y-62637774D01*
X231021755Y-62617082D01*
X231032954Y-62590046D01*
X231032954Y-62560782D01*
X231021755Y-62533746D01*
X231001063Y-62513054D01*
X230974027Y-62501855D01*
X230959395Y-62500414D01*
X230854799Y-62500915D01*
X230854383Y-62310782D01*
X230843184Y-62283746D01*
X230822492Y-62263054D01*
X230795456Y-62251855D01*
X230766192Y-62251855D01*
X230739156Y-62263054D01*
X230718464Y-62283746D01*
X230707265Y-62310782D01*
X230705824Y-62325414D01*
X230706210Y-62501628D01*
X230659049Y-62501855D01*
X230632013Y-62513054D01*
X230611321Y-62533746D01*
X230600122Y-62560782D01*
X230600122Y-62590046D01*
X230529907Y-62590046D01*
X230524553Y-62573986D01*
X230505380Y-62551878D01*
X230492937Y-62544046D01*
X230430673Y-62514092D01*
X230429635Y-62513054D01*
X230421574Y-62509715D01*
X230407776Y-62503077D01*
X230405088Y-62502886D01*
X230402599Y-62501855D01*
X230387967Y-62500414D01*
X230256337Y-62501618D01*
X230254491Y-62501003D01*
X230244276Y-62501728D01*
X230230478Y-62501855D01*
X230227988Y-62502886D01*
X230225301Y-62503077D01*
X230211570Y-62508332D01*
X230140293Y-62545337D01*
X230132013Y-62548768D01*
X230129130Y-62551133D01*
X230127697Y-62551878D01*
X230126397Y-62553376D01*
X230120648Y-62558095D01*
X230084701Y-62595667D01*
X230078717Y-62600858D01*
X230076756Y-62603972D01*
X230075607Y-62605174D01*
X230074849Y-62607001D01*
X230070885Y-62613301D01*
X230040931Y-62675564D01*
X230039893Y-62676603D01*
X230036554Y-62684663D01*
X230029916Y-62698462D01*
X230029725Y-62701149D01*
X230028694Y-62703639D01*
X230027253Y-62718271D01*
X229890940Y-62718271D01*
X229890521Y-62693222D01*
X229890950Y-62691937D01*
X229890361Y-62683651D01*
X229890098Y-62667925D01*
X229889067Y-62665436D01*
X229888876Y-62662747D01*
X229883621Y-62649015D01*
X229848342Y-62581071D01*
X229845981Y-62573986D01*
X229842699Y-62570201D01*
X229840073Y-62565144D01*
X229832971Y-62558984D01*
X229826808Y-62551878D01*
X229819402Y-62547216D01*
X229817966Y-62545971D01*
X229816812Y-62545586D01*
X229814365Y-62544046D01*
X229752102Y-62514092D01*
X229751064Y-62513054D01*
X229743002Y-62509714D01*
X229729205Y-62503077D01*
X229726517Y-62502886D01*
X229724028Y-62501855D01*
X229709396Y-62500414D01*
X229577766Y-62501618D01*
X229575920Y-62501003D01*
X229565705Y-62501728D01*
X229551907Y-62501855D01*
X229549417Y-62502886D01*
X229546730Y-62503077D01*
X229532999Y-62508332D01*
X229465050Y-62543609D01*
X229457968Y-62545971D01*
X229454186Y-62549250D01*
X229449126Y-62551878D01*
X229442964Y-62558982D01*
X229435860Y-62565144D01*
X229431198Y-62572549D01*
X229429953Y-62573986D01*
X229429568Y-62575139D01*
X229428028Y-62577587D01*
X229398074Y-62639850D01*
X229397036Y-62640889D01*
X229393697Y-62648949D01*
X229387059Y-62662748D01*
X229386868Y-62665435D01*
X229385837Y-62667925D01*
X229384396Y-62682557D01*
X229385065Y-62822107D01*
X229384396Y-62825492D01*
X229212084Y-62825492D01*
X229211619Y-62694214D01*
X229212379Y-62691937D01*
X229211571Y-62680575D01*
X229211527Y-62667925D01*
X229210496Y-62665436D01*
X229210305Y-62662747D01*
X229205050Y-62649015D01*
X229169771Y-62581071D01*
X229167410Y-62573986D01*
X229164128Y-62570201D01*
X229161502Y-62565144D01*
X229154400Y-62558984D01*
X229148237Y-62551878D01*
X229140831Y-62547216D01*
X229139395Y-62545971D01*
X229138241Y-62545586D01*
X229135794Y-62544046D01*
X229073531Y-62514092D01*
X229072493Y-62513054D01*
X229064431Y-62509714D01*
X229050634Y-62503077D01*
X229047946Y-62502886D01*
X229045457Y-62501855D01*
X229030825Y-62500414D01*
X228934708Y-62501551D01*
X228933063Y-62501003D01*
X228923473Y-62501684D01*
X228909050Y-62501855D01*
X228906560Y-62502886D01*
X228903873Y-62503077D01*
X228890142Y-62508332D01*
X228866012Y-62520859D01*
X228858207Y-62513054D01*
X228831171Y-62501855D01*
X228801907Y-62501855D01*
X228774871Y-62513054D01*
X228754179Y-62533746D01*
X228742980Y-62560782D01*
X228741539Y-62575414D01*
X228489315Y-62575414D01*
X228488839Y-62573986D01*
X228485557Y-62570201D01*
X228482931Y-62565144D01*
X228475829Y-62558984D01*
X228469666Y-62551878D01*
X228462260Y-62547216D01*
X228460824Y-62545971D01*
X228459670Y-62545586D01*
X228457223Y-62544046D01*
X228394960Y-62514092D01*
X228393922Y-62513054D01*
X228385860Y-62509714D01*
X228372063Y-62503077D01*
X228369375Y-62502886D01*
X228366886Y-62501855D01*
X228352254Y-62500414D01*
X228256137Y-62501551D01*
X228254492Y-62501003D01*
X228244902Y-62501684D01*
X228230479Y-62501855D01*
X228227989Y-62502886D01*
X228225302Y-62503077D01*
X228211571Y-62508332D01*
X228187441Y-62520859D01*
X228179636Y-62513054D01*
X228152600Y-62501855D01*
X228123336Y-62501855D01*
X228096300Y-62513054D01*
X228075608Y-62533746D01*
X228064409Y-62560782D01*
X228062968Y-62575414D01*
X227814631Y-62575414D01*
X227796283Y-62557861D01*
X227791095Y-62551878D01*
X227787981Y-62549918D01*
X227786778Y-62548767D01*
X227784948Y-62548009D01*
X227778652Y-62544046D01*
X227716389Y-62514092D01*
X227715351Y-62513054D01*
X227707289Y-62509714D01*
X227693492Y-62503077D01*
X227690804Y-62502886D01*
X227688315Y-62501855D01*
X227673683Y-62500414D01*
X227577566Y-62501551D01*
X227575921Y-62501003D01*
X227566331Y-62501684D01*
X227551908Y-62501855D01*
X227549418Y-62502886D01*
X227546731Y-62503077D01*
X227533000Y-62508332D01*
X227461723Y-62545337D01*
X227453443Y-62548768D01*
X227450560Y-62551133D01*
X227449127Y-62551878D01*
X227447827Y-62553376D01*
X227442078Y-62558095D01*
X227406131Y-62595667D01*
X227400147Y-62600858D01*
X227398186Y-62603972D01*
X227397037Y-62605174D01*
X227396279Y-62607001D01*
X227392315Y-62613301D01*
X227362361Y-62675564D01*
X227361323Y-62676603D01*
X227357984Y-62684663D01*
X227351346Y-62698462D01*
X227351155Y-62701149D01*
X227350124Y-62703639D01*
X227348683Y-62718271D01*
X226748260Y-62718271D01*
X226747574Y-62660331D01*
X226777755Y-62534872D01*
X226804696Y-62478872D01*
X226855177Y-62427117D01*
X226932813Y-62400261D01*
X226980429Y-62399463D01*
X227060815Y-62425253D01*
X227096300Y-62459202D01*
X227123336Y-62470401D01*
X227152599Y-62470401D01*
X227179636Y-62459202D01*
X227200328Y-62438510D01*
X227211527Y-62411473D01*
X227211527Y-62382210D01*
X227200328Y-62355174D01*
X227191001Y-62343809D01*
X227161929Y-62315995D01*
X227161504Y-62315145D01*
X227156537Y-62310837D01*
X227143922Y-62298768D01*
X227141433Y-62297737D01*
X227139397Y-62295971D01*
X227125971Y-62289977D01*
X227018661Y-62255549D01*
X227009743Y-62251855D01*
X227005996Y-62251486D01*
X227004491Y-62251003D01*
X227002516Y-62251143D01*
X226995111Y-62250414D01*
X226923005Y-62251621D01*
X226914303Y-62251003D01*
X226910675Y-62251827D01*
X226909051Y-62251855D01*
X226907218Y-62252613D01*
X226899967Y-62254263D01*
X226803686Y-62287569D01*
X226801909Y-62287569D01*
X226792899Y-62291300D01*
X226779398Y-62295971D01*
X226777364Y-62297734D01*
X226774872Y-62298767D01*
X226763507Y-62308095D01*
X226692997Y-62380383D01*
X226685861Y-62386573D01*
X226683860Y-62389751D01*
X226682751Y-62390889D01*
X226681993Y-62392716D01*
X226678029Y-62399016D01*
X226645458Y-62466718D01*
X226641583Y-62471949D01*
X226637660Y-62482928D01*
X226637060Y-62484176D01*
X226637021Y-62484715D01*
X226636636Y-62485795D01*
X226603203Y-62624776D01*
X226600124Y-62632210D01*
X226599229Y-62641296D01*
X226598772Y-62643197D01*
X226598934Y-62644288D01*
X226598683Y-62646842D01*
X225497442Y-62646842D01*
X225497361Y-62612065D01*
X225498095Y-62601747D01*
X225497332Y-62599459D01*
X225497243Y-62560782D01*
X225486044Y-62533746D01*
X225465352Y-62513054D01*
X225438316Y-62501855D01*
X225409052Y-62501855D01*
X225387969Y-62510587D01*
X225385862Y-62509715D01*
X225372064Y-62503077D01*
X225369376Y-62502886D01*
X225366887Y-62501855D01*
X225352255Y-62500414D01*
X225220625Y-62501618D01*
X225218779Y-62501003D01*
X225208564Y-62501728D01*
X225194766Y-62501855D01*
X225192276Y-62502886D01*
X225189589Y-62503077D01*
X225175858Y-62508332D01*
X225104581Y-62545337D01*
X225096301Y-62548768D01*
X225093418Y-62551133D01*
X225091985Y-62551878D01*
X225090685Y-62553376D01*
X225084936Y-62558095D01*
X225048989Y-62595667D01*
X225043005Y-62600858D01*
X225041044Y-62603972D01*
X225039895Y-62605174D01*
X225039137Y-62607001D01*
X225035173Y-62613301D01*
X225005219Y-62675564D01*
X225004181Y-62676603D01*
X225000842Y-62684663D01*
X224994204Y-62698462D01*
X224994013Y-62701149D01*
X224992982Y-62703639D01*
X224991541Y-62718271D01*
X224818849Y-62718271D01*
X224818764Y-62694214D01*
X224819524Y-62691937D01*
X224818716Y-62680575D01*
X224818672Y-62667925D01*
X224817641Y-62665436D01*
X224817450Y-62662747D01*
X224812195Y-62649015D01*
X224776916Y-62581071D01*
X224774555Y-62573986D01*
X224771273Y-62570201D01*
X224768647Y-62565144D01*
X224761545Y-62558984D01*
X224755382Y-62551878D01*
X224747976Y-62547216D01*
X224746540Y-62545971D01*
X224745386Y-62545586D01*
X224742939Y-62544046D01*
X224680676Y-62514092D01*
X224679638Y-62513054D01*
X224671576Y-62509714D01*
X224657779Y-62503077D01*
X224655091Y-62502886D01*
X224652602Y-62501855D01*
X224637970Y-62500414D01*
X224506340Y-62501618D01*
X224504494Y-62501003D01*
X224494279Y-62501728D01*
X224480481Y-62501855D01*
X224477991Y-62502886D01*
X224475304Y-62503077D01*
X224461573Y-62508332D01*
X224377700Y-62551878D01*
X224358527Y-62573986D01*
X224349273Y-62601747D01*
X224351347Y-62630937D01*
X224364434Y-62657112D01*
X224386542Y-62676285D01*
X224414303Y-62685539D01*
X224443493Y-62683465D01*
X224457225Y-62678210D01*
X224511042Y-62650268D01*
X224618540Y-62649284D01*
X224653426Y-62666067D01*
X224670168Y-62698312D01*
X224670204Y-62708381D01*
X224657807Y-62714818D01*
X224506468Y-62715947D01*
X224504494Y-62715289D01*
X224493912Y-62716040D01*
X224480481Y-62716141D01*
X224477991Y-62717172D01*
X224475304Y-62717363D01*
X224461573Y-62722618D01*
X224393624Y-62757895D01*
X224386542Y-62760257D01*
X224382760Y-62763536D01*
X224377700Y-62766164D01*
X224371538Y-62773268D01*
X224364434Y-62779430D01*
X224359772Y-62786835D01*
X224358527Y-62788272D01*
X224358142Y-62789425D01*
X224356602Y-62791873D01*
X224326648Y-62854135D01*
X224325610Y-62855174D01*
X224322270Y-62863235D01*
X224315633Y-62877033D01*
X224315442Y-62879720D01*
X224314411Y-62882210D01*
X224312970Y-62896842D01*
X224034061Y-62896842D01*
X224033124Y-62399477D01*
X224188316Y-62398973D01*
X224215352Y-62387774D01*
X224236044Y-62367082D01*
X224247243Y-62340046D01*
X224247243Y-62310782D01*
X224236044Y-62283746D01*
X224215352Y-62263054D01*
X224188316Y-62251855D01*
X224173684Y-62250414D01*
X223730480Y-62251855D01*
X223703444Y-62263054D01*
X223682752Y-62283746D01*
X223671553Y-62310782D01*
X223671553Y-62340046D01*
X223588220Y-62340046D01*
X223588220Y-62167081D01*
X231116287Y-62167081D01*
X231116287Y-63483747D01*
G37*
D10*
X211675000Y-67365625D02*
X211675000Y-66725000D01*
X201050000Y-67365625D02*
X201050000Y-66725000D01*
X211675000Y-66725000D02*
X208775000Y-66725000D01*
X201050000Y-66725000D02*
X203900000Y-66725000D01*
D11*
G36*
X205408108Y-65711290D02*
G01*
X205482317Y-65784080D01*
X205521008Y-65859215D01*
X205565626Y-66032645D01*
X205566768Y-66157417D01*
X205524742Y-66330540D01*
X205486017Y-66410350D01*
X205411740Y-66486076D01*
X205298661Y-66524867D01*
X205144054Y-66525749D01*
X205142845Y-65674398D01*
X205291512Y-65673551D01*
X205408108Y-65711290D01*
G37*
G36*
X206498946Y-65706871D02*
G01*
X206530273Y-65737115D01*
X206565731Y-65805972D01*
X206566716Y-65913604D01*
X206533536Y-65981985D01*
X206503291Y-66013313D01*
X206434603Y-66048684D01*
X206308452Y-66049144D01*
X206305630Y-66048646D01*
X206303296Y-66049162D01*
X206143378Y-66049745D01*
X206142845Y-65674550D01*
X206430179Y-65673503D01*
X206498946Y-65706871D01*
G37*
G36*
X207394698Y-66239406D02*
G01*
X207124658Y-66240199D01*
X207259203Y-65834742D01*
X207394698Y-66239406D01*
G37*
G36*
X208779080Y-66785930D02*
G01*
X203883049Y-66785930D01*
X203883049Y-65790295D01*
X203994160Y-65790295D01*
X203995265Y-65874601D01*
X203994749Y-65876152D01*
X203995407Y-65885421D01*
X203995601Y-65900165D01*
X203996632Y-65902654D01*
X203996823Y-65905342D01*
X204002078Y-65919074D01*
X204050770Y-66013630D01*
X204054419Y-66022439D01*
X204056801Y-66025341D01*
X204057529Y-66026755D01*
X204059027Y-66028054D01*
X204063746Y-66033804D01*
X204112781Y-66081145D01*
X204118414Y-66087640D01*
X204121559Y-66089619D01*
X204122730Y-66090750D01*
X204124557Y-66091507D01*
X204130857Y-66095472D01*
X204222089Y-66139740D01*
X204227600Y-66143823D01*
X204238615Y-66147758D01*
X204239826Y-66148346D01*
X204240366Y-66148384D01*
X204241446Y-66148770D01*
X204418929Y-66191854D01*
X204498946Y-66230680D01*
X204530273Y-66260924D01*
X204565795Y-66329905D01*
X204566584Y-66390066D01*
X204533536Y-66458175D01*
X204503290Y-66489504D01*
X204434540Y-66524907D01*
X204227759Y-66526086D01*
X204078540Y-66477789D01*
X204049350Y-66479864D01*
X204023177Y-66492950D01*
X204004003Y-66515057D01*
X203994749Y-66542820D01*
X203996824Y-66572010D01*
X204009910Y-66598183D01*
X204032017Y-66617357D01*
X204045443Y-66623351D01*
X204188024Y-66669500D01*
X204197385Y-66673378D01*
X204201148Y-66673748D01*
X204202636Y-66674230D01*
X204204610Y-66674089D01*
X204212017Y-66674819D01*
X204438621Y-66673526D01*
X204440731Y-66674230D01*
X204451673Y-66673452D01*
X204464744Y-66673378D01*
X204467233Y-66672346D01*
X204469921Y-66672156D01*
X204483653Y-66666901D01*
X204578207Y-66618209D01*
X204587018Y-66614560D01*
X204589920Y-66612177D01*
X204591334Y-66611450D01*
X204592634Y-66609950D01*
X204598384Y-66605232D01*
X204645725Y-66556195D01*
X204652219Y-66550564D01*
X204654198Y-66547418D01*
X204655330Y-66546247D01*
X204656087Y-66544417D01*
X204660051Y-66538121D01*
X204701726Y-66452231D01*
X204702948Y-66451010D01*
X204706617Y-66442150D01*
X204712925Y-66429152D01*
X204713116Y-66426462D01*
X204714147Y-66423974D01*
X204715588Y-66409342D01*
X204714482Y-66325034D01*
X204714999Y-66323484D01*
X204714340Y-66314213D01*
X204714147Y-66299472D01*
X204713116Y-66296983D01*
X204712925Y-66294294D01*
X204707670Y-66280563D01*
X204658978Y-66186008D01*
X204655329Y-66177198D01*
X204652946Y-66174295D01*
X204652219Y-66172882D01*
X204650720Y-66171582D01*
X204646002Y-66165833D01*
X204596966Y-66118491D01*
X204591334Y-66111997D01*
X204588188Y-66110017D01*
X204587018Y-66108887D01*
X204585190Y-66108129D01*
X204578891Y-66104165D01*
X204487659Y-66059898D01*
X204482148Y-66055814D01*
X204471128Y-66051876D01*
X204469921Y-66051291D01*
X204469381Y-66051252D01*
X204468302Y-66050867D01*
X204290818Y-66007782D01*
X204210802Y-65968957D01*
X204179474Y-65938712D01*
X204143952Y-65869731D01*
X204143163Y-65809570D01*
X204176212Y-65741460D01*
X204206456Y-65710133D01*
X204275207Y-65674730D01*
X204481988Y-65673551D01*
X204631207Y-65721849D01*
X204660397Y-65719774D01*
X204686571Y-65706688D01*
X204705745Y-65684580D01*
X204714999Y-65656818D01*
X204712924Y-65627628D01*
X204699837Y-65601455D01*
X204697951Y-65599819D01*
X204994160Y-65599819D01*
X204995601Y-66614451D01*
X205006800Y-66641487D01*
X205027492Y-66662179D01*
X205054528Y-66673378D01*
X205069160Y-66674819D01*
X205305929Y-66673468D01*
X205316635Y-66674230D01*
X205320343Y-66673386D01*
X205321887Y-66673378D01*
X205323718Y-66672619D01*
X205330972Y-66670970D01*
X205462762Y-66625759D01*
X205464744Y-66625759D01*
X205474296Y-66621802D01*
X205487254Y-66617357D01*
X205489289Y-66615591D01*
X205491780Y-66614560D01*
X205503145Y-66605233D01*
X205597077Y-66509468D01*
X205604600Y-66502945D01*
X205606612Y-66499748D01*
X205607711Y-66498628D01*
X205608468Y-66496798D01*
X205612432Y-66490502D01*
X205656700Y-66399269D01*
X205660783Y-66393759D01*
X205664718Y-66382743D01*
X205665306Y-66381533D01*
X205665344Y-66380992D01*
X205665730Y-66379913D01*
X205710970Y-66193547D01*
X205714147Y-66185879D01*
X205715044Y-66176764D01*
X205715499Y-66174893D01*
X205715336Y-66173800D01*
X205715588Y-66171247D01*
X205714320Y-66032667D01*
X205715499Y-66024744D01*
X205714164Y-66015719D01*
X205714147Y-66013758D01*
X205713724Y-66012736D01*
X205713349Y-66010200D01*
X205665831Y-65825501D01*
X205665306Y-65818104D01*
X205661102Y-65807121D01*
X205660783Y-65805878D01*
X205660460Y-65805442D01*
X205660051Y-65804373D01*
X205611362Y-65709823D01*
X205607711Y-65701008D01*
X205605326Y-65698102D01*
X205604600Y-65696692D01*
X205603103Y-65695393D01*
X205598383Y-65689643D01*
X205510212Y-65603158D01*
X205509361Y-65601455D01*
X205507475Y-65599819D01*
X205994160Y-65599819D01*
X205995601Y-66614451D01*
X206006800Y-66641487D01*
X206027492Y-66662179D01*
X206054528Y-66673378D01*
X206083792Y-66673378D01*
X206110828Y-66662179D01*
X206131520Y-66641487D01*
X206142719Y-66614451D01*
X206144160Y-66599819D01*
X206143589Y-66198356D01*
X206267812Y-66197904D01*
X206588717Y-66653989D01*
X206613396Y-66669716D01*
X206642213Y-66674802D01*
X206670784Y-66668472D01*
X206694758Y-66651690D01*
X206710485Y-66627012D01*
X206715570Y-66598194D01*
X206713852Y-66590439D01*
X206851892Y-66590439D01*
X206853967Y-66619629D01*
X206867053Y-66645802D01*
X206889160Y-66664976D01*
X206916923Y-66674230D01*
X206946113Y-66672155D01*
X206972286Y-66659069D01*
X206991460Y-66636962D01*
X206997454Y-66623536D01*
X207075299Y-66388946D01*
X207444405Y-66387862D01*
X207527812Y-66636961D01*
X207546986Y-66659068D01*
X207573159Y-66672155D01*
X207602349Y-66674230D01*
X207630111Y-66664976D01*
X207652219Y-66645802D01*
X207665305Y-66619628D01*
X207667380Y-66590438D01*
X207664120Y-66576102D01*
X207337229Y-65599819D01*
X207851303Y-65599819D01*
X207852744Y-66614451D01*
X207863943Y-66641487D01*
X207884635Y-66662179D01*
X207911671Y-66673378D01*
X207940935Y-66673378D01*
X207967971Y-66662179D01*
X207988663Y-66641487D01*
X207999862Y-66614451D01*
X208001303Y-66599819D01*
X208000358Y-65934441D01*
X208191733Y-66342619D01*
X208195506Y-66352993D01*
X208197742Y-66355435D01*
X208199166Y-66358471D01*
X208207575Y-66366171D01*
X208215270Y-66374574D01*
X208218288Y-66375982D01*
X208220747Y-66378234D01*
X208231459Y-66382129D01*
X208241788Y-66386950D01*
X208245116Y-66387096D01*
X208248248Y-66388235D01*
X208259642Y-66387734D01*
X208271024Y-66388234D01*
X208274152Y-66387096D01*
X208277484Y-66386950D01*
X208287819Y-66382126D01*
X208298525Y-66378234D01*
X208300980Y-66375984D01*
X208304002Y-66374575D01*
X208311703Y-66366164D01*
X208320106Y-66358470D01*
X208322589Y-66354277D01*
X208323766Y-66352993D01*
X208324426Y-66351177D01*
X208327600Y-66345820D01*
X208518444Y-65934943D01*
X208519410Y-66614451D01*
X208530609Y-66641487D01*
X208551301Y-66662179D01*
X208578337Y-66673378D01*
X208607601Y-66673378D01*
X208634637Y-66662179D01*
X208655329Y-66641487D01*
X208666528Y-66614451D01*
X208667969Y-66599819D01*
X208666550Y-65600923D01*
X208667099Y-65588431D01*
X208666530Y-65586867D01*
X208666528Y-65585187D01*
X208661546Y-65573160D01*
X208657099Y-65560930D01*
X208655969Y-65559696D01*
X208655329Y-65558151D01*
X208646129Y-65548951D01*
X208637335Y-65539348D01*
X208635818Y-65538640D01*
X208634637Y-65537459D01*
X208622624Y-65532482D01*
X208610817Y-65526973D01*
X208609144Y-65526899D01*
X208607601Y-65526260D01*
X208594595Y-65526260D01*
X208581581Y-65525688D01*
X208580008Y-65526260D01*
X208578337Y-65526260D01*
X208566318Y-65531238D01*
X208554080Y-65535689D01*
X208552846Y-65536819D01*
X208551301Y-65537459D01*
X208542102Y-65546657D01*
X208532499Y-65555452D01*
X208531323Y-65557436D01*
X208530609Y-65558151D01*
X208529932Y-65559784D01*
X208525005Y-65568102D01*
X208260101Y-66138422D01*
X207993402Y-65569592D01*
X207988663Y-65558151D01*
X207987486Y-65556974D01*
X207986773Y-65555453D01*
X207977176Y-65546664D01*
X207967971Y-65537459D01*
X207966425Y-65536818D01*
X207965192Y-65535689D01*
X207952961Y-65531241D01*
X207940935Y-65526260D01*
X207939261Y-65526260D01*
X207937691Y-65525689D01*
X207924690Y-65526260D01*
X207911671Y-65526260D01*
X207910126Y-65526899D01*
X207908455Y-65526973D01*
X207896656Y-65532479D01*
X207884635Y-65537459D01*
X207883452Y-65538641D01*
X207881937Y-65539349D01*
X207873148Y-65548945D01*
X207863943Y-65558151D01*
X207863302Y-65559696D01*
X207862173Y-65560930D01*
X207857725Y-65573160D01*
X207852744Y-65585187D01*
X207852517Y-65587482D01*
X207852173Y-65588431D01*
X207852250Y-65590197D01*
X207851303Y-65599819D01*
X207337229Y-65599819D01*
X207332342Y-65585223D01*
X207331972Y-65580010D01*
X207327808Y-65571683D01*
X207324793Y-65562676D01*
X207321281Y-65558627D01*
X207318886Y-65553836D01*
X207311782Y-65547674D01*
X207305619Y-65540569D01*
X207300825Y-65538172D01*
X207296778Y-65534662D01*
X207287856Y-65531688D01*
X207279446Y-65527483D01*
X207274101Y-65527103D01*
X207269016Y-65525408D01*
X207259636Y-65526074D01*
X207250256Y-65525408D01*
X207245170Y-65527103D01*
X207239826Y-65527483D01*
X207231418Y-65531687D01*
X207222493Y-65534662D01*
X207218442Y-65538175D01*
X207213653Y-65540570D01*
X207207494Y-65547670D01*
X207200386Y-65553836D01*
X207197989Y-65558629D01*
X207194479Y-65562677D01*
X207188485Y-65576102D01*
X206950310Y-66293850D01*
X206947982Y-66299472D01*
X206947982Y-66300867D01*
X206851892Y-66590439D01*
X206713852Y-66590439D01*
X206709241Y-66569623D01*
X206702031Y-66556810D01*
X206449174Y-66197439D01*
X206452072Y-66197233D01*
X206464744Y-66197187D01*
X206467233Y-66196155D01*
X206469921Y-66195965D01*
X206483653Y-66190710D01*
X206578209Y-66142017D01*
X206587018Y-66138369D01*
X206589920Y-66135986D01*
X206591334Y-66135259D01*
X206592633Y-66133760D01*
X206598383Y-66129042D01*
X206645724Y-66080006D01*
X206652219Y-66074374D01*
X206654198Y-66071228D01*
X206655329Y-66070058D01*
X206656086Y-66068230D01*
X206660051Y-66061931D01*
X206701726Y-65976041D01*
X206702948Y-65974820D01*
X206706617Y-65965960D01*
X206712925Y-65952962D01*
X206713116Y-65950272D01*
X206714147Y-65947784D01*
X206715588Y-65933152D01*
X206714383Y-65801521D01*
X206714999Y-65799675D01*
X206714273Y-65789460D01*
X206714147Y-65775663D01*
X206713116Y-65773174D01*
X206712925Y-65770485D01*
X206707670Y-65756754D01*
X206658978Y-65662199D01*
X206655329Y-65653389D01*
X206652946Y-65650486D01*
X206652219Y-65649073D01*
X206650720Y-65647773D01*
X206646002Y-65642024D01*
X206596966Y-65594682D01*
X206591334Y-65588188D01*
X206588188Y-65586208D01*
X206587018Y-65585078D01*
X206585190Y-65584320D01*
X206578891Y-65580356D01*
X206493002Y-65538681D01*
X206491780Y-65537459D01*
X206482914Y-65533786D01*
X206469921Y-65527482D01*
X206467233Y-65527291D01*
X206464744Y-65526260D01*
X206450112Y-65524819D01*
X206054528Y-65526260D01*
X206027492Y-65537459D01*
X206006800Y-65558151D01*
X205995601Y-65585187D01*
X205994160Y-65599819D01*
X205507475Y-65599819D01*
X205501718Y-65594826D01*
X205491780Y-65585078D01*
X205489289Y-65584046D01*
X205487254Y-65582281D01*
X205473829Y-65576287D01*
X205331250Y-65530138D01*
X205321887Y-65526260D01*
X205318121Y-65525889D01*
X205316635Y-65525408D01*
X205314660Y-65525548D01*
X205307255Y-65524819D01*
X205054528Y-65526260D01*
X205027492Y-65537459D01*
X205006800Y-65558151D01*
X204995601Y-65585187D01*
X204994160Y-65599819D01*
X204697951Y-65599819D01*
X204677730Y-65582281D01*
X204664305Y-65576287D01*
X204521726Y-65530138D01*
X204512363Y-65526260D01*
X204508597Y-65525889D01*
X204507111Y-65525408D01*
X204505136Y-65525548D01*
X204497731Y-65524819D01*
X204271125Y-65526111D01*
X204269016Y-65525408D01*
X204258073Y-65526185D01*
X204245004Y-65526260D01*
X204242515Y-65527290D01*
X204239826Y-65527482D01*
X204226095Y-65532737D01*
X204131540Y-65581428D01*
X204122730Y-65585078D01*
X204119827Y-65587460D01*
X204118414Y-65588188D01*
X204117114Y-65589686D01*
X204111365Y-65594405D01*
X204064023Y-65643440D01*
X204057529Y-65649073D01*
X204055549Y-65652218D01*
X204054419Y-65653389D01*
X204053661Y-65655216D01*
X204049697Y-65661516D01*
X204008022Y-65747404D01*
X204006800Y-65748627D01*
X204003127Y-65757492D01*
X203996823Y-65770486D01*
X203996632Y-65773173D01*
X203995601Y-65775663D01*
X203994160Y-65790295D01*
X203883049Y-65790295D01*
X203883049Y-65413708D01*
X208779080Y-65413708D01*
X208779080Y-66785930D01*
G37*
D10*
X218050000Y-101750000D02*
X218050000Y-99190000D01*
X208500000Y-99190000D02*
X218050000Y-99190000D01*
X193980000Y-101750000D02*
X193980000Y-99190000D01*
X193980000Y-99190000D02*
X202350000Y-99190000D01*
D11*
G36*
X206742869Y-98081290D02*
G01*
X206817078Y-98154080D01*
X206855769Y-98229215D01*
X206900387Y-98402645D01*
X206901529Y-98527417D01*
X206859503Y-98700540D01*
X206820778Y-98780350D01*
X206746501Y-98856076D01*
X206633422Y-98894867D01*
X206478815Y-98895749D01*
X206477606Y-98044398D01*
X206626273Y-98043551D01*
X206742869Y-98081290D01*
G37*
G36*
X204595612Y-98076871D02*
G01*
X204626939Y-98107115D01*
X204662397Y-98175972D01*
X204663382Y-98283604D01*
X204630202Y-98351985D01*
X204599957Y-98383313D01*
X204531269Y-98418684D01*
X204240044Y-98419745D01*
X204239511Y-98044550D01*
X204526845Y-98043503D01*
X204595612Y-98076871D01*
G37*
G36*
X208542413Y-99251168D02*
G01*
X202360668Y-99251168D01*
X202360668Y-99079689D01*
X205330362Y-99079689D01*
X205341561Y-99106725D01*
X205362253Y-99127417D01*
X205389289Y-99138616D01*
X205403921Y-99140057D01*
X206180457Y-99138616D01*
X206207493Y-99127417D01*
X206228185Y-99106725D01*
X206239384Y-99079689D01*
X206239384Y-99050425D01*
X206228185Y-99023389D01*
X206207493Y-99002697D01*
X206180457Y-98991498D01*
X206165825Y-98990057D01*
X205389289Y-98991498D01*
X205362253Y-99002697D01*
X205341561Y-99023389D01*
X205330362Y-99050425D01*
X205330362Y-99079689D01*
X202360668Y-99079689D01*
X202360668Y-97969819D01*
X202471779Y-97969819D01*
X202473220Y-98984451D01*
X202484419Y-99011487D01*
X202505111Y-99032179D01*
X202532147Y-99043378D01*
X202561411Y-99043378D01*
X202588447Y-99032179D01*
X202609139Y-99011487D01*
X202620338Y-98984451D01*
X202621779Y-98969819D01*
X202620834Y-98304441D01*
X202812209Y-98712619D01*
X202815982Y-98722993D01*
X202818218Y-98725435D01*
X202819642Y-98728471D01*
X202828051Y-98736171D01*
X202835746Y-98744574D01*
X202838764Y-98745982D01*
X202841223Y-98748234D01*
X202851935Y-98752129D01*
X202862264Y-98756950D01*
X202865592Y-98757096D01*
X202868724Y-98758235D01*
X202880118Y-98757734D01*
X202891500Y-98758234D01*
X202894628Y-98757096D01*
X202897960Y-98756950D01*
X202908295Y-98752126D01*
X202919001Y-98748234D01*
X202921456Y-98745984D01*
X202924478Y-98744575D01*
X202932179Y-98736164D01*
X202940582Y-98728470D01*
X202943065Y-98724277D01*
X202944242Y-98722993D01*
X202944902Y-98721177D01*
X202948076Y-98715820D01*
X203138920Y-98304943D01*
X203139886Y-98984451D01*
X203151085Y-99011487D01*
X203171777Y-99032179D01*
X203198813Y-99043378D01*
X203228077Y-99043378D01*
X203255113Y-99032179D01*
X203275805Y-99011487D01*
X203287004Y-98984451D01*
X203288445Y-98969819D01*
X203287026Y-97970923D01*
X203287075Y-97969819D01*
X203614636Y-97969819D01*
X203616077Y-98984451D01*
X203627276Y-99011487D01*
X203647968Y-99032179D01*
X203675004Y-99043378D01*
X203704268Y-99043378D01*
X203731304Y-99032179D01*
X203751996Y-99011487D01*
X203763195Y-98984451D01*
X203764636Y-98969819D01*
X203763216Y-97969819D01*
X204090826Y-97969819D01*
X204092267Y-98984451D01*
X204103466Y-99011487D01*
X204124158Y-99032179D01*
X204151194Y-99043378D01*
X204180458Y-99043378D01*
X204207494Y-99032179D01*
X204228186Y-99011487D01*
X204239385Y-98984451D01*
X204240826Y-98969819D01*
X204240255Y-98568356D01*
X204535128Y-98567282D01*
X204537397Y-98568039D01*
X204548738Y-98567233D01*
X204561410Y-98567187D01*
X204563899Y-98566155D01*
X204566587Y-98565965D01*
X204580319Y-98560710D01*
X204674875Y-98512017D01*
X204683684Y-98508369D01*
X204686586Y-98505986D01*
X204688000Y-98505259D01*
X204689299Y-98503760D01*
X204695049Y-98499042D01*
X204742390Y-98450006D01*
X204748885Y-98444374D01*
X204750864Y-98441228D01*
X204751995Y-98440058D01*
X204752752Y-98438230D01*
X204756717Y-98431931D01*
X204798392Y-98346041D01*
X204799614Y-98344820D01*
X204803283Y-98335960D01*
X204809591Y-98322962D01*
X204809782Y-98320272D01*
X204810813Y-98317784D01*
X204812254Y-98303152D01*
X204811049Y-98171521D01*
X204811665Y-98169675D01*
X204810939Y-98159460D01*
X204810813Y-98145663D01*
X204809782Y-98143174D01*
X204809591Y-98140485D01*
X204804336Y-98126754D01*
X204755644Y-98032199D01*
X204751995Y-98023389D01*
X204749612Y-98020486D01*
X204748885Y-98019073D01*
X204747386Y-98017773D01*
X204742668Y-98012024D01*
X204698953Y-97969819D01*
X205090826Y-97969819D01*
X205092267Y-98984451D01*
X205103466Y-99011487D01*
X205124158Y-99032179D01*
X205151194Y-99043378D01*
X205180458Y-99043378D01*
X205207494Y-99032179D01*
X205228186Y-99011487D01*
X205239385Y-98984451D01*
X205240826Y-98969819D01*
X205239406Y-97969819D01*
X206328921Y-97969819D01*
X206330362Y-98984451D01*
X206341561Y-99011487D01*
X206362253Y-99032179D01*
X206389289Y-99043378D01*
X206403921Y-99044819D01*
X206640690Y-99043468D01*
X206651396Y-99044230D01*
X206655104Y-99043386D01*
X206656648Y-99043378D01*
X206658479Y-99042619D01*
X206665733Y-99040970D01*
X206797523Y-98995759D01*
X206799505Y-98995759D01*
X206809057Y-98991802D01*
X206822015Y-98987357D01*
X206824050Y-98985591D01*
X206826541Y-98984560D01*
X206837906Y-98975233D01*
X206931838Y-98879468D01*
X206939361Y-98872945D01*
X206941373Y-98869748D01*
X206942472Y-98868628D01*
X206943229Y-98866798D01*
X206947193Y-98860502D01*
X206991461Y-98769269D01*
X206995544Y-98763759D01*
X206999479Y-98752743D01*
X207000067Y-98751533D01*
X207000105Y-98750992D01*
X207000491Y-98749913D01*
X207045731Y-98563547D01*
X207048908Y-98555879D01*
X207049805Y-98546764D01*
X207050260Y-98544893D01*
X207050097Y-98543800D01*
X207050349Y-98541247D01*
X207049081Y-98402667D01*
X207050260Y-98394744D01*
X207048925Y-98385719D01*
X207048908Y-98383758D01*
X207048485Y-98382736D01*
X207048110Y-98380200D01*
X207000592Y-98195501D01*
X207000067Y-98188104D01*
X206995863Y-98177121D01*
X206995544Y-98175878D01*
X206995221Y-98175442D01*
X206994812Y-98174373D01*
X206987562Y-98160295D01*
X207281302Y-98160295D01*
X207282407Y-98244601D01*
X207281891Y-98246152D01*
X207282549Y-98255421D01*
X207282743Y-98270165D01*
X207283774Y-98272654D01*
X207283965Y-98275342D01*
X207289220Y-98289074D01*
X207337912Y-98383630D01*
X207341561Y-98392439D01*
X207343943Y-98395341D01*
X207344671Y-98396755D01*
X207346169Y-98398054D01*
X207350888Y-98403804D01*
X207399923Y-98451145D01*
X207405556Y-98457640D01*
X207408701Y-98459619D01*
X207409872Y-98460750D01*
X207411699Y-98461507D01*
X207417999Y-98465472D01*
X207509231Y-98509740D01*
X207514742Y-98513823D01*
X207525757Y-98517758D01*
X207526968Y-98518346D01*
X207527508Y-98518384D01*
X207528588Y-98518770D01*
X207706071Y-98561854D01*
X207786088Y-98600680D01*
X207817415Y-98630924D01*
X207852937Y-98699905D01*
X207853726Y-98760066D01*
X207820678Y-98828175D01*
X207790432Y-98859504D01*
X207721682Y-98894907D01*
X207514901Y-98896086D01*
X207365682Y-98847789D01*
X207336492Y-98849864D01*
X207310319Y-98862950D01*
X207291145Y-98885057D01*
X207281891Y-98912820D01*
X207283966Y-98942010D01*
X207297052Y-98968183D01*
X207319159Y-98987357D01*
X207332585Y-98993351D01*
X207475166Y-99039500D01*
X207484527Y-99043378D01*
X207488290Y-99043748D01*
X207489778Y-99044230D01*
X207491752Y-99044089D01*
X207499159Y-99044819D01*
X207725763Y-99043526D01*
X207727873Y-99044230D01*
X207738815Y-99043452D01*
X207751886Y-99043378D01*
X207754375Y-99042346D01*
X207757063Y-99042156D01*
X207770795Y-99036901D01*
X207865349Y-98988209D01*
X207874160Y-98984560D01*
X207877062Y-98982177D01*
X207878476Y-98981450D01*
X207879776Y-98979950D01*
X207885526Y-98975232D01*
X207932867Y-98926195D01*
X207939361Y-98920564D01*
X207941340Y-98917418D01*
X207942472Y-98916247D01*
X207943229Y-98914417D01*
X207947193Y-98908121D01*
X207988868Y-98822231D01*
X207990090Y-98821010D01*
X207993759Y-98812150D01*
X208000067Y-98799152D01*
X208000258Y-98796462D01*
X208001289Y-98793974D01*
X208002730Y-98779342D01*
X208001624Y-98695034D01*
X208002141Y-98693484D01*
X208001482Y-98684213D01*
X208001289Y-98669472D01*
X208000258Y-98666983D01*
X208000067Y-98664294D01*
X207994812Y-98650563D01*
X207946120Y-98556008D01*
X207942471Y-98547198D01*
X207940088Y-98544295D01*
X207939361Y-98542882D01*
X207937862Y-98541582D01*
X207933144Y-98535833D01*
X207884108Y-98488491D01*
X207878476Y-98481997D01*
X207875330Y-98480017D01*
X207874160Y-98478887D01*
X207872332Y-98478129D01*
X207866033Y-98474165D01*
X207774801Y-98429898D01*
X207769290Y-98425814D01*
X207758270Y-98421876D01*
X207757063Y-98421291D01*
X207756523Y-98421252D01*
X207755444Y-98420867D01*
X207577960Y-98377782D01*
X207497944Y-98338957D01*
X207466616Y-98308712D01*
X207431094Y-98239731D01*
X207430305Y-98179570D01*
X207463354Y-98111460D01*
X207493598Y-98080133D01*
X207562349Y-98044730D01*
X207769130Y-98043551D01*
X207918349Y-98091849D01*
X207947539Y-98089774D01*
X207973713Y-98076688D01*
X207992887Y-98054580D01*
X208002141Y-98026818D01*
X208000066Y-97997628D01*
X207986979Y-97971455D01*
X207985093Y-97969819D01*
X208281302Y-97969819D01*
X208282743Y-98984451D01*
X208293942Y-99011487D01*
X208314634Y-99032179D01*
X208341670Y-99043378D01*
X208370934Y-99043378D01*
X208397970Y-99032179D01*
X208418662Y-99011487D01*
X208429861Y-98984451D01*
X208431302Y-98969819D01*
X208429861Y-97955187D01*
X208418662Y-97928151D01*
X208397970Y-97907459D01*
X208370934Y-97896260D01*
X208341670Y-97896260D01*
X208314634Y-97907459D01*
X208293942Y-97928151D01*
X208282743Y-97955187D01*
X208281302Y-97969819D01*
X207985093Y-97969819D01*
X207964872Y-97952281D01*
X207951447Y-97946287D01*
X207808868Y-97900138D01*
X207799505Y-97896260D01*
X207795739Y-97895889D01*
X207794253Y-97895408D01*
X207792278Y-97895548D01*
X207784873Y-97894819D01*
X207558267Y-97896111D01*
X207556158Y-97895408D01*
X207545215Y-97896185D01*
X207532146Y-97896260D01*
X207529657Y-97897290D01*
X207526968Y-97897482D01*
X207513237Y-97902737D01*
X207418682Y-97951428D01*
X207409872Y-97955078D01*
X207406969Y-97957460D01*
X207405556Y-97958188D01*
X207404256Y-97959686D01*
X207398507Y-97964405D01*
X207351165Y-98013440D01*
X207344671Y-98019073D01*
X207342691Y-98022218D01*
X207341561Y-98023389D01*
X207340803Y-98025216D01*
X207336839Y-98031516D01*
X207295164Y-98117404D01*
X207293942Y-98118627D01*
X207290269Y-98127492D01*
X207283965Y-98140486D01*
X207283774Y-98143173D01*
X207282743Y-98145663D01*
X207281302Y-98160295D01*
X206987562Y-98160295D01*
X206946123Y-98079823D01*
X206942472Y-98071008D01*
X206940087Y-98068102D01*
X206939361Y-98066692D01*
X206937864Y-98065393D01*
X206933144Y-98059643D01*
X206844973Y-97973158D01*
X206844122Y-97971455D01*
X206836479Y-97964826D01*
X206826541Y-97955078D01*
X206824050Y-97954046D01*
X206822015Y-97952281D01*
X206808590Y-97946287D01*
X206666011Y-97900138D01*
X206656648Y-97896260D01*
X206652882Y-97895889D01*
X206651396Y-97895408D01*
X206649421Y-97895548D01*
X206642016Y-97894819D01*
X206389289Y-97896260D01*
X206362253Y-97907459D01*
X206341561Y-97928151D01*
X206330362Y-97955187D01*
X206328921Y-97969819D01*
X205239406Y-97969819D01*
X205239385Y-97955187D01*
X205228186Y-97928151D01*
X205207494Y-97907459D01*
X205180458Y-97896260D01*
X205151194Y-97896260D01*
X205124158Y-97907459D01*
X205103466Y-97928151D01*
X205092267Y-97955187D01*
X205090826Y-97969819D01*
X204698953Y-97969819D01*
X204693632Y-97964682D01*
X204688000Y-97958188D01*
X204684854Y-97956208D01*
X204683684Y-97955078D01*
X204681856Y-97954320D01*
X204675557Y-97950356D01*
X204589668Y-97908681D01*
X204588446Y-97907459D01*
X204579580Y-97903786D01*
X204566587Y-97897482D01*
X204563899Y-97897291D01*
X204561410Y-97896260D01*
X204546778Y-97894819D01*
X204151194Y-97896260D01*
X204124158Y-97907459D01*
X204103466Y-97928151D01*
X204092267Y-97955187D01*
X204090826Y-97969819D01*
X203763216Y-97969819D01*
X203763195Y-97955187D01*
X203751996Y-97928151D01*
X203731304Y-97907459D01*
X203704268Y-97896260D01*
X203675004Y-97896260D01*
X203647968Y-97907459D01*
X203627276Y-97928151D01*
X203616077Y-97955187D01*
X203614636Y-97969819D01*
X203287075Y-97969819D01*
X203287575Y-97958431D01*
X203287006Y-97956867D01*
X203287004Y-97955187D01*
X203282022Y-97943160D01*
X203277575Y-97930930D01*
X203276445Y-97929696D01*
X203275805Y-97928151D01*
X203266605Y-97918951D01*
X203257811Y-97909348D01*
X203256294Y-97908640D01*
X203255113Y-97907459D01*
X203243100Y-97902482D01*
X203231293Y-97896973D01*
X203229620Y-97896899D01*
X203228077Y-97896260D01*
X203215071Y-97896260D01*
X203202057Y-97895688D01*
X203200484Y-97896260D01*
X203198813Y-97896260D01*
X203186794Y-97901238D01*
X203174556Y-97905689D01*
X203173322Y-97906819D01*
X203171777Y-97907459D01*
X203162578Y-97916657D01*
X203152975Y-97925452D01*
X203151799Y-97927436D01*
X203151085Y-97928151D01*
X203150408Y-97929784D01*
X203145481Y-97938102D01*
X202880577Y-98508422D01*
X202613878Y-97939592D01*
X202609139Y-97928151D01*
X202607962Y-97926974D01*
X202607249Y-97925453D01*
X202597652Y-97916664D01*
X202588447Y-97907459D01*
X202586901Y-97906818D01*
X202585668Y-97905689D01*
X202573437Y-97901241D01*
X202561411Y-97896260D01*
X202559737Y-97896260D01*
X202558167Y-97895689D01*
X202545166Y-97896260D01*
X202532147Y-97896260D01*
X202530602Y-97896899D01*
X202528931Y-97896973D01*
X202517132Y-97902479D01*
X202505111Y-97907459D01*
X202503928Y-97908641D01*
X202502413Y-97909349D01*
X202493624Y-97918945D01*
X202484419Y-97928151D01*
X202483778Y-97929696D01*
X202482649Y-97930930D01*
X202478201Y-97943160D01*
X202473220Y-97955187D01*
X202472993Y-97957482D01*
X202472649Y-97958431D01*
X202472726Y-97960197D01*
X202471779Y-97969819D01*
X202360668Y-97969819D01*
X202360668Y-97783708D01*
X208542413Y-97783708D01*
X208542413Y-99251168D01*
G37*
G36*
X210114367Y-58206463D02*
G01*
X210145694Y-58236707D01*
X210181073Y-58305410D01*
X210182082Y-58549068D01*
X209854513Y-58549534D01*
X209853520Y-58309784D01*
X209886871Y-58241052D01*
X209917115Y-58209725D01*
X209986096Y-58174203D01*
X210046257Y-58173414D01*
X210114367Y-58206463D01*
G37*
G36*
X210638176Y-58158844D02*
G01*
X210669504Y-58189089D01*
X210704875Y-58257776D01*
X210705933Y-58548324D01*
X210330701Y-58548857D01*
X210329694Y-58305773D01*
X210367566Y-58188767D01*
X210393305Y-58162106D01*
X210462162Y-58126648D01*
X210569794Y-58125663D01*
X210638176Y-58158844D01*
G37*
G36*
X211061168Y-60809331D02*
G01*
X209593708Y-60809331D01*
X209593708Y-60637852D01*
X209706260Y-60637852D01*
X209717459Y-60664888D01*
X209738151Y-60685580D01*
X209765187Y-60696779D01*
X209779819Y-60698220D01*
X210577543Y-60696825D01*
X210579961Y-60697631D01*
X210591648Y-60696800D01*
X210603974Y-60696779D01*
X210606463Y-60695747D01*
X210609151Y-60695557D01*
X210622883Y-60690302D01*
X210717435Y-60641611D01*
X210726247Y-60637962D01*
X210729151Y-60635578D01*
X210730564Y-60634851D01*
X210731863Y-60633352D01*
X210737612Y-60628635D01*
X210784953Y-60579599D01*
X210791450Y-60573966D01*
X210793429Y-60570820D01*
X210794560Y-60569650D01*
X210795317Y-60567822D01*
X210799282Y-60561523D01*
X210840957Y-60475633D01*
X210842179Y-60474412D01*
X210845848Y-60465552D01*
X210852156Y-60452554D01*
X210852347Y-60449864D01*
X210853378Y-60447376D01*
X210854819Y-60432744D01*
X210853560Y-60253655D01*
X210854230Y-60251648D01*
X210853471Y-60240975D01*
X210853378Y-60227636D01*
X210852347Y-60225147D01*
X210852156Y-60222458D01*
X210846901Y-60208727D01*
X210798209Y-60114172D01*
X210794560Y-60105362D01*
X210792177Y-60102459D01*
X210791450Y-60101046D01*
X210789950Y-60099745D01*
X210785232Y-60093996D01*
X210736195Y-60046654D01*
X210730564Y-60040161D01*
X210727418Y-60038181D01*
X210726247Y-60037050D01*
X210724417Y-60036292D01*
X210718121Y-60032329D01*
X210632232Y-59990654D01*
X210631010Y-59989432D01*
X210622144Y-59985759D01*
X210609151Y-59979455D01*
X210606463Y-59979264D01*
X210603974Y-59978233D01*
X210589342Y-59976792D01*
X209765187Y-59978233D01*
X209738151Y-59989432D01*
X209717459Y-60010124D01*
X209706260Y-60037160D01*
X209706260Y-60066424D01*
X209717459Y-60093460D01*
X209738151Y-60114152D01*
X209765187Y-60125351D01*
X209779819Y-60126792D01*
X210569274Y-60125411D01*
X210638176Y-60158844D01*
X210669504Y-60189089D01*
X210704928Y-60257879D01*
X210706018Y-60413048D01*
X210672767Y-60481577D01*
X210642521Y-60512904D01*
X210573890Y-60548247D01*
X209765187Y-60549661D01*
X209738151Y-60560860D01*
X209717459Y-60581552D01*
X209706260Y-60608588D01*
X209706260Y-60637852D01*
X209593708Y-60637852D01*
X209593708Y-59194649D01*
X209704819Y-59194649D01*
X209706111Y-59421253D01*
X209705408Y-59423363D01*
X209706185Y-59434305D01*
X209706260Y-59447376D01*
X209707291Y-59449865D01*
X209707482Y-59452553D01*
X209712737Y-59466285D01*
X209761429Y-59560841D01*
X209765078Y-59569650D01*
X209767460Y-59572552D01*
X209768188Y-59573966D01*
X209769686Y-59575265D01*
X209774405Y-59581015D01*
X209823440Y-59628356D01*
X209829073Y-59634851D01*
X209832218Y-59636830D01*
X209833389Y-59637961D01*
X209835216Y-59638718D01*
X209841516Y-59642683D01*
X209927405Y-59684358D01*
X209928627Y-59685580D01*
X209937486Y-59689249D01*
X209950485Y-59695557D01*
X209953174Y-59695748D01*
X209955663Y-59696779D01*
X209970295Y-59698220D01*
X210054601Y-59697114D01*
X210056152Y-59697631D01*
X210065421Y-59696972D01*
X210080165Y-59696779D01*
X210082654Y-59695747D01*
X210085342Y-59695557D01*
X210099074Y-59690302D01*
X210193630Y-59641609D01*
X210202439Y-59637961D01*
X210205341Y-59635578D01*
X210206755Y-59634851D01*
X210208054Y-59633352D01*
X210213804Y-59628634D01*
X210261145Y-59579598D01*
X210267640Y-59573966D01*
X210269619Y-59570820D01*
X210270750Y-59569650D01*
X210271507Y-59567822D01*
X210275472Y-59561523D01*
X210319740Y-59470290D01*
X210323823Y-59464780D01*
X210327758Y-59453764D01*
X210328346Y-59452554D01*
X210328384Y-59452013D01*
X210328770Y-59450934D01*
X210371854Y-59273450D01*
X210410680Y-59193433D01*
X210440924Y-59162106D01*
X210509905Y-59126584D01*
X210570066Y-59125795D01*
X210638176Y-59158844D01*
X210669504Y-59189089D01*
X210704907Y-59257839D01*
X210706086Y-59464620D01*
X210657789Y-59613840D01*
X210659864Y-59643030D01*
X210672950Y-59669203D01*
X210695057Y-59688377D01*
X210722820Y-59697631D01*
X210752010Y-59695556D01*
X210778183Y-59682470D01*
X210797357Y-59660363D01*
X210803351Y-59646937D01*
X210849500Y-59504355D01*
X210853378Y-59494995D01*
X210853748Y-59491231D01*
X210854230Y-59489744D01*
X210854089Y-59487769D01*
X210854819Y-59480363D01*
X210853526Y-59253757D01*
X210854230Y-59251648D01*
X210853452Y-59240705D01*
X210853378Y-59227636D01*
X210852347Y-59225147D01*
X210852156Y-59222458D01*
X210846901Y-59208727D01*
X210798209Y-59114172D01*
X210794560Y-59105362D01*
X210792177Y-59102459D01*
X210791450Y-59101046D01*
X210789950Y-59099745D01*
X210785232Y-59093996D01*
X210736195Y-59046654D01*
X210730564Y-59040161D01*
X210727418Y-59038181D01*
X210726247Y-59037050D01*
X210724417Y-59036292D01*
X210718121Y-59032329D01*
X210632232Y-58990654D01*
X210631010Y-58989432D01*
X210622144Y-58985759D01*
X210609151Y-58979455D01*
X210606463Y-58979264D01*
X210603974Y-58978233D01*
X210589342Y-58976792D01*
X210505034Y-58977897D01*
X210503484Y-58977381D01*
X210494213Y-58978039D01*
X210479472Y-58978233D01*
X210476983Y-58979263D01*
X210474294Y-58979455D01*
X210460563Y-58984710D01*
X210366008Y-59033401D01*
X210357198Y-59037051D01*
X210354295Y-59039433D01*
X210352882Y-59040161D01*
X210351582Y-59041659D01*
X210345833Y-59046378D01*
X210298491Y-59095413D01*
X210291997Y-59101046D01*
X210290017Y-59104191D01*
X210288887Y-59105362D01*
X210288129Y-59107189D01*
X210284165Y-59113489D01*
X210239898Y-59204720D01*
X210235814Y-59210232D01*
X210231876Y-59221251D01*
X210231291Y-59222459D01*
X210231252Y-59222998D01*
X210230867Y-59224078D01*
X210187782Y-59401561D01*
X210148957Y-59481577D01*
X210118712Y-59512905D01*
X210049731Y-59548427D01*
X209989570Y-59549216D01*
X209921461Y-59516168D01*
X209890133Y-59485923D01*
X209854730Y-59417172D01*
X209853551Y-59210391D01*
X209901849Y-59061173D01*
X209899774Y-59031983D01*
X209886688Y-59005809D01*
X209864580Y-58986635D01*
X209836818Y-58977381D01*
X209807628Y-58979456D01*
X209781455Y-58992543D01*
X209762281Y-59014650D01*
X209756287Y-59028075D01*
X209710138Y-59170653D01*
X209706260Y-59180017D01*
X209705889Y-59183782D01*
X209705408Y-59185269D01*
X209705548Y-59187243D01*
X209704819Y-59194649D01*
X209593708Y-59194649D01*
X209593708Y-58289887D01*
X209704819Y-58289887D01*
X209706260Y-58637852D01*
X209717459Y-58664888D01*
X209738151Y-58685580D01*
X209765187Y-58696779D01*
X209779819Y-58698220D01*
X210794451Y-58696779D01*
X210821487Y-58685580D01*
X210842179Y-58664888D01*
X210853378Y-58637852D01*
X210854819Y-58623220D01*
X210853473Y-58253916D01*
X210854230Y-58251648D01*
X210853424Y-58240306D01*
X210853378Y-58227636D01*
X210852347Y-58225147D01*
X210852156Y-58222458D01*
X210846901Y-58208727D01*
X210798209Y-58114172D01*
X210794560Y-58105362D01*
X210792177Y-58102459D01*
X210791450Y-58101046D01*
X210789950Y-58099745D01*
X210785232Y-58093996D01*
X210736195Y-58046654D01*
X210730564Y-58040161D01*
X210727418Y-58038181D01*
X210726247Y-58037050D01*
X210724417Y-58036292D01*
X210718121Y-58032329D01*
X210632232Y-57990654D01*
X210631010Y-57989432D01*
X210622144Y-57985759D01*
X210609151Y-57979455D01*
X210606463Y-57979264D01*
X210603974Y-57978233D01*
X210589342Y-57976792D01*
X210457711Y-57977996D01*
X210455865Y-57977381D01*
X210445650Y-57978106D01*
X210431853Y-57978233D01*
X210429364Y-57979263D01*
X210426675Y-57979455D01*
X210412944Y-57984710D01*
X210318389Y-58033401D01*
X210309579Y-58037051D01*
X210306676Y-58039433D01*
X210305263Y-58040161D01*
X210303963Y-58041659D01*
X210298214Y-58046378D01*
X210258798Y-58087204D01*
X210257645Y-58087781D01*
X210252371Y-58093860D01*
X210241268Y-58105362D01*
X210240236Y-58107852D01*
X210238471Y-58109888D01*
X210235485Y-58116574D01*
X210212387Y-58094274D01*
X210206755Y-58087780D01*
X210203609Y-58085800D01*
X210202439Y-58084670D01*
X210200611Y-58083912D01*
X210194312Y-58079948D01*
X210108423Y-58038273D01*
X210107201Y-58037051D01*
X210098335Y-58033378D01*
X210085342Y-58027074D01*
X210082654Y-58026883D01*
X210080165Y-58025852D01*
X210065533Y-58024411D01*
X209981225Y-58025516D01*
X209979675Y-58025000D01*
X209970404Y-58025658D01*
X209955663Y-58025852D01*
X209953174Y-58026882D01*
X209950485Y-58027074D01*
X209936754Y-58032329D01*
X209842199Y-58081020D01*
X209833389Y-58084670D01*
X209830486Y-58087052D01*
X209829073Y-58087780D01*
X209827773Y-58089278D01*
X209822024Y-58093997D01*
X209774682Y-58143032D01*
X209768188Y-58148665D01*
X209766208Y-58151810D01*
X209765078Y-58152981D01*
X209764320Y-58154808D01*
X209760356Y-58161108D01*
X209718681Y-58246996D01*
X209717459Y-58248219D01*
X209713786Y-58257084D01*
X209707482Y-58270078D01*
X209707291Y-58272765D01*
X209706260Y-58275255D01*
X209704819Y-58289887D01*
X209593708Y-58289887D01*
X209593708Y-57099411D01*
X210800057Y-57099411D01*
X210801498Y-57875948D01*
X210812697Y-57902984D01*
X210833389Y-57923676D01*
X210860425Y-57934875D01*
X210889689Y-57934875D01*
X210916725Y-57923676D01*
X210937417Y-57902984D01*
X210948616Y-57875948D01*
X210950057Y-57861316D01*
X210948616Y-57084779D01*
X210937417Y-57057743D01*
X210916725Y-57037051D01*
X210889689Y-57025852D01*
X210860425Y-57025852D01*
X210833389Y-57037051D01*
X210812697Y-57057743D01*
X210801498Y-57084779D01*
X210800057Y-57099411D01*
X209593708Y-57099411D01*
X209593708Y-56875947D01*
X209706260Y-56875947D01*
X209717459Y-56902983D01*
X209738151Y-56923675D01*
X209765187Y-56934874D01*
X209779819Y-56936315D01*
X210794451Y-56934874D01*
X210821487Y-56923675D01*
X210842179Y-56902983D01*
X210853378Y-56875947D01*
X210853378Y-56846683D01*
X210842179Y-56819647D01*
X210821487Y-56798955D01*
X210794451Y-56787756D01*
X210779819Y-56786315D01*
X210330826Y-56786952D01*
X210329786Y-56364105D01*
X210794451Y-56363446D01*
X210821487Y-56352247D01*
X210842179Y-56331555D01*
X210853378Y-56304519D01*
X210853378Y-56275255D01*
X210842179Y-56248219D01*
X210821487Y-56227527D01*
X210794451Y-56216328D01*
X210779819Y-56214887D01*
X209765187Y-56216328D01*
X209738151Y-56227527D01*
X209717459Y-56248219D01*
X209706260Y-56275255D01*
X209706260Y-56304519D01*
X209717459Y-56331555D01*
X209738151Y-56352247D01*
X209765187Y-56363446D01*
X209779819Y-56364887D01*
X210181192Y-56364316D01*
X210182231Y-56787163D01*
X209765187Y-56787756D01*
X209738151Y-56798955D01*
X209717459Y-56819647D01*
X209706260Y-56846683D01*
X209706260Y-56875947D01*
X209593708Y-56875947D01*
X209593708Y-55432744D01*
X209704819Y-55432744D01*
X209706111Y-55659348D01*
X209705408Y-55661458D01*
X209706185Y-55672400D01*
X209706260Y-55685471D01*
X209707291Y-55687960D01*
X209707482Y-55690648D01*
X209712737Y-55704380D01*
X209761429Y-55798936D01*
X209765078Y-55807745D01*
X209767460Y-55810647D01*
X209768188Y-55812061D01*
X209769686Y-55813360D01*
X209774405Y-55819110D01*
X209823440Y-55866451D01*
X209829073Y-55872946D01*
X209832218Y-55874925D01*
X209833389Y-55876056D01*
X209835216Y-55876813D01*
X209841516Y-55880778D01*
X209927405Y-55922453D01*
X209928627Y-55923675D01*
X209937486Y-55927344D01*
X209950485Y-55933652D01*
X209953174Y-55933843D01*
X209955663Y-55934874D01*
X209970295Y-55936315D01*
X210054601Y-55935209D01*
X210056152Y-55935726D01*
X210065421Y-55935067D01*
X210080165Y-55934874D01*
X210082654Y-55933842D01*
X210085342Y-55933652D01*
X210099074Y-55928397D01*
X210193630Y-55879704D01*
X210202439Y-55876056D01*
X210205341Y-55873673D01*
X210206755Y-55872946D01*
X210208054Y-55871447D01*
X210213804Y-55866729D01*
X210261145Y-55817693D01*
X210267640Y-55812061D01*
X210269619Y-55808915D01*
X210270750Y-55807745D01*
X210271507Y-55805917D01*
X210275472Y-55799618D01*
X210319740Y-55708385D01*
X210323823Y-55702875D01*
X210327758Y-55691859D01*
X210328346Y-55690649D01*
X210328384Y-55690108D01*
X210328770Y-55689029D01*
X210371854Y-55511545D01*
X210410680Y-55431528D01*
X210440924Y-55400201D01*
X210509905Y-55364679D01*
X210570066Y-55363890D01*
X210638176Y-55396939D01*
X210669504Y-55427184D01*
X210704907Y-55495934D01*
X210706086Y-55702715D01*
X210657789Y-55851935D01*
X210659864Y-55881125D01*
X210672950Y-55907298D01*
X210695057Y-55926472D01*
X210722820Y-55935726D01*
X210752010Y-55933651D01*
X210778183Y-55920565D01*
X210797357Y-55898458D01*
X210803351Y-55885032D01*
X210849500Y-55742450D01*
X210853378Y-55733090D01*
X210853748Y-55729326D01*
X210854230Y-55727839D01*
X210854089Y-55725864D01*
X210854819Y-55718458D01*
X210853526Y-55491852D01*
X210854230Y-55489743D01*
X210853452Y-55478800D01*
X210853378Y-55465731D01*
X210852347Y-55463242D01*
X210852156Y-55460553D01*
X210846901Y-55446822D01*
X210798209Y-55352267D01*
X210794560Y-55343457D01*
X210792177Y-55340554D01*
X210791450Y-55339141D01*
X210789950Y-55337840D01*
X210785232Y-55332091D01*
X210736195Y-55284749D01*
X210730564Y-55278256D01*
X210727418Y-55276276D01*
X210726247Y-55275145D01*
X210724417Y-55274387D01*
X210718121Y-55270424D01*
X210632232Y-55228749D01*
X210631010Y-55227527D01*
X210622144Y-55223854D01*
X210609151Y-55217550D01*
X210606463Y-55217359D01*
X210603974Y-55216328D01*
X210589342Y-55214887D01*
X210505034Y-55215992D01*
X210503484Y-55215476D01*
X210494213Y-55216134D01*
X210479472Y-55216328D01*
X210476983Y-55217358D01*
X210474294Y-55217550D01*
X210460563Y-55222805D01*
X210366008Y-55271496D01*
X210357198Y-55275146D01*
X210354295Y-55277528D01*
X210352882Y-55278256D01*
X210351582Y-55279754D01*
X210345833Y-55284473D01*
X210298491Y-55333508D01*
X210291997Y-55339141D01*
X210290017Y-55342286D01*
X210288887Y-55343457D01*
X210288129Y-55345284D01*
X210284165Y-55351584D01*
X210239898Y-55442815D01*
X210235814Y-55448327D01*
X210231876Y-55459346D01*
X210231291Y-55460554D01*
X210231252Y-55461093D01*
X210230867Y-55462173D01*
X210187782Y-55639656D01*
X210148957Y-55719672D01*
X210118712Y-55751000D01*
X210049731Y-55786522D01*
X209989570Y-55787311D01*
X209921461Y-55754263D01*
X209890133Y-55724018D01*
X209854730Y-55655267D01*
X209853551Y-55448486D01*
X209901849Y-55299268D01*
X209899774Y-55270078D01*
X209886688Y-55243904D01*
X209864580Y-55224730D01*
X209836818Y-55215476D01*
X209807628Y-55217551D01*
X209781455Y-55230638D01*
X209762281Y-55252745D01*
X209756287Y-55266170D01*
X209710138Y-55408748D01*
X209706260Y-55418112D01*
X209705889Y-55421877D01*
X209705408Y-55423364D01*
X209705548Y-55425338D01*
X209704819Y-55432744D01*
X209593708Y-55432744D01*
X209593708Y-55103776D01*
X211061168Y-55103776D01*
X211061168Y-60809331D01*
G37*
D10*
X212380000Y-55165000D02*
X210760000Y-55165000D01*
X212380000Y-55165000D02*
X212380000Y-58115000D01*
D11*
G36*
X206114367Y-58016463D02*
G01*
X206145694Y-58046707D01*
X206181073Y-58115410D01*
X206182082Y-58359068D01*
X205854513Y-58359534D01*
X205853520Y-58119784D01*
X205886871Y-58051052D01*
X205917115Y-58019725D01*
X205986096Y-57984203D01*
X206046257Y-57983414D01*
X206114367Y-58016463D01*
G37*
G36*
X206638176Y-57968844D02*
G01*
X206669504Y-57999089D01*
X206704875Y-58067776D01*
X206705933Y-58358324D01*
X206330701Y-58358857D01*
X206329694Y-58115773D01*
X206367566Y-57998767D01*
X206393305Y-57972106D01*
X206462162Y-57936648D01*
X206569794Y-57935663D01*
X206638176Y-57968844D01*
G37*
G36*
X207061168Y-60619331D02*
G01*
X205593708Y-60619331D01*
X205593708Y-60447852D01*
X205706260Y-60447852D01*
X205717459Y-60474888D01*
X205738151Y-60495580D01*
X205765187Y-60506779D01*
X205779819Y-60508220D01*
X206577543Y-60506825D01*
X206579961Y-60507631D01*
X206591648Y-60506800D01*
X206603974Y-60506779D01*
X206606463Y-60505747D01*
X206609151Y-60505557D01*
X206622883Y-60500302D01*
X206717435Y-60451611D01*
X206726247Y-60447962D01*
X206729151Y-60445578D01*
X206730564Y-60444851D01*
X206731863Y-60443352D01*
X206737612Y-60438635D01*
X206784953Y-60389599D01*
X206791450Y-60383966D01*
X206793429Y-60380820D01*
X206794560Y-60379650D01*
X206795317Y-60377822D01*
X206799282Y-60371523D01*
X206840957Y-60285633D01*
X206842179Y-60284412D01*
X206845848Y-60275552D01*
X206852156Y-60262554D01*
X206852347Y-60259864D01*
X206853378Y-60257376D01*
X206854819Y-60242744D01*
X206853560Y-60063655D01*
X206854230Y-60061648D01*
X206853471Y-60050975D01*
X206853378Y-60037636D01*
X206852347Y-60035147D01*
X206852156Y-60032458D01*
X206846901Y-60018727D01*
X206798209Y-59924172D01*
X206794560Y-59915362D01*
X206792177Y-59912459D01*
X206791450Y-59911046D01*
X206789950Y-59909745D01*
X206785232Y-59903996D01*
X206736195Y-59856654D01*
X206730564Y-59850161D01*
X206727418Y-59848181D01*
X206726247Y-59847050D01*
X206724417Y-59846292D01*
X206718121Y-59842329D01*
X206632232Y-59800654D01*
X206631010Y-59799432D01*
X206622144Y-59795759D01*
X206609151Y-59789455D01*
X206606463Y-59789264D01*
X206603974Y-59788233D01*
X206589342Y-59786792D01*
X205765187Y-59788233D01*
X205738151Y-59799432D01*
X205717459Y-59820124D01*
X205706260Y-59847160D01*
X205706260Y-59876424D01*
X205717459Y-59903460D01*
X205738151Y-59924152D01*
X205765187Y-59935351D01*
X205779819Y-59936792D01*
X206569274Y-59935411D01*
X206638176Y-59968844D01*
X206669504Y-59999089D01*
X206704928Y-60067879D01*
X206706018Y-60223048D01*
X206672767Y-60291577D01*
X206642521Y-60322904D01*
X206573890Y-60358247D01*
X205765187Y-60359661D01*
X205738151Y-60370860D01*
X205717459Y-60391552D01*
X205706260Y-60418588D01*
X205706260Y-60447852D01*
X205593708Y-60447852D01*
X205593708Y-59004649D01*
X205704819Y-59004649D01*
X205706111Y-59231253D01*
X205705408Y-59233363D01*
X205706185Y-59244305D01*
X205706260Y-59257376D01*
X205707291Y-59259865D01*
X205707482Y-59262553D01*
X205712737Y-59276285D01*
X205761429Y-59370841D01*
X205765078Y-59379650D01*
X205767460Y-59382552D01*
X205768188Y-59383966D01*
X205769686Y-59385265D01*
X205774405Y-59391015D01*
X205823440Y-59438356D01*
X205829073Y-59444851D01*
X205832218Y-59446830D01*
X205833389Y-59447961D01*
X205835216Y-59448718D01*
X205841516Y-59452683D01*
X205927405Y-59494358D01*
X205928627Y-59495580D01*
X205937486Y-59499249D01*
X205950485Y-59505557D01*
X205953174Y-59505748D01*
X205955663Y-59506779D01*
X205970295Y-59508220D01*
X206054601Y-59507114D01*
X206056152Y-59507631D01*
X206065421Y-59506972D01*
X206080165Y-59506779D01*
X206082654Y-59505747D01*
X206085342Y-59505557D01*
X206099074Y-59500302D01*
X206193630Y-59451609D01*
X206202439Y-59447961D01*
X206205341Y-59445578D01*
X206206755Y-59444851D01*
X206208054Y-59443352D01*
X206213804Y-59438634D01*
X206261145Y-59389598D01*
X206267640Y-59383966D01*
X206269619Y-59380820D01*
X206270750Y-59379650D01*
X206271507Y-59377822D01*
X206275472Y-59371523D01*
X206319740Y-59280290D01*
X206323823Y-59274780D01*
X206327758Y-59263764D01*
X206328346Y-59262554D01*
X206328384Y-59262013D01*
X206328770Y-59260934D01*
X206371854Y-59083450D01*
X206410680Y-59003433D01*
X206440924Y-58972106D01*
X206509905Y-58936584D01*
X206570066Y-58935795D01*
X206638176Y-58968844D01*
X206669504Y-58999089D01*
X206704907Y-59067839D01*
X206706086Y-59274620D01*
X206657789Y-59423840D01*
X206659864Y-59453030D01*
X206672950Y-59479203D01*
X206695057Y-59498377D01*
X206722820Y-59507631D01*
X206752010Y-59505556D01*
X206778183Y-59492470D01*
X206797357Y-59470363D01*
X206803351Y-59456937D01*
X206849500Y-59314355D01*
X206853378Y-59304995D01*
X206853748Y-59301231D01*
X206854230Y-59299744D01*
X206854089Y-59297769D01*
X206854819Y-59290363D01*
X206853526Y-59063757D01*
X206854230Y-59061648D01*
X206853452Y-59050705D01*
X206853378Y-59037636D01*
X206852347Y-59035147D01*
X206852156Y-59032458D01*
X206846901Y-59018727D01*
X206798209Y-58924172D01*
X206794560Y-58915362D01*
X206792177Y-58912459D01*
X206791450Y-58911046D01*
X206789950Y-58909745D01*
X206785232Y-58903996D01*
X206736195Y-58856654D01*
X206730564Y-58850161D01*
X206727418Y-58848181D01*
X206726247Y-58847050D01*
X206724417Y-58846292D01*
X206718121Y-58842329D01*
X206632232Y-58800654D01*
X206631010Y-58799432D01*
X206622144Y-58795759D01*
X206609151Y-58789455D01*
X206606463Y-58789264D01*
X206603974Y-58788233D01*
X206589342Y-58786792D01*
X206505034Y-58787897D01*
X206503484Y-58787381D01*
X206494213Y-58788039D01*
X206479472Y-58788233D01*
X206476983Y-58789263D01*
X206474294Y-58789455D01*
X206460563Y-58794710D01*
X206366008Y-58843401D01*
X206357198Y-58847051D01*
X206354295Y-58849433D01*
X206352882Y-58850161D01*
X206351582Y-58851659D01*
X206345833Y-58856378D01*
X206298491Y-58905413D01*
X206291997Y-58911046D01*
X206290017Y-58914191D01*
X206288887Y-58915362D01*
X206288129Y-58917189D01*
X206284165Y-58923489D01*
X206239898Y-59014720D01*
X206235814Y-59020232D01*
X206231876Y-59031251D01*
X206231291Y-59032459D01*
X206231252Y-59032998D01*
X206230867Y-59034078D01*
X206187782Y-59211561D01*
X206148957Y-59291577D01*
X206118712Y-59322905D01*
X206049731Y-59358427D01*
X205989570Y-59359216D01*
X205921461Y-59326168D01*
X205890133Y-59295923D01*
X205854730Y-59227172D01*
X205853551Y-59020391D01*
X205901849Y-58871173D01*
X205899774Y-58841983D01*
X205886688Y-58815809D01*
X205864580Y-58796635D01*
X205836818Y-58787381D01*
X205807628Y-58789456D01*
X205781455Y-58802543D01*
X205762281Y-58824650D01*
X205756287Y-58838075D01*
X205710138Y-58980653D01*
X205706260Y-58990017D01*
X205705889Y-58993782D01*
X205705408Y-58995269D01*
X205705548Y-58997243D01*
X205704819Y-59004649D01*
X205593708Y-59004649D01*
X205593708Y-58099887D01*
X205704819Y-58099887D01*
X205706260Y-58447852D01*
X205717459Y-58474888D01*
X205738151Y-58495580D01*
X205765187Y-58506779D01*
X205779819Y-58508220D01*
X206794451Y-58506779D01*
X206821487Y-58495580D01*
X206842179Y-58474888D01*
X206853378Y-58447852D01*
X206854819Y-58433220D01*
X206853473Y-58063916D01*
X206854230Y-58061648D01*
X206853424Y-58050306D01*
X206853378Y-58037636D01*
X206852347Y-58035147D01*
X206852156Y-58032458D01*
X206846901Y-58018727D01*
X206798209Y-57924172D01*
X206794560Y-57915362D01*
X206792177Y-57912459D01*
X206791450Y-57911046D01*
X206789950Y-57909745D01*
X206785232Y-57903996D01*
X206736195Y-57856654D01*
X206730564Y-57850161D01*
X206727418Y-57848181D01*
X206726247Y-57847050D01*
X206724417Y-57846292D01*
X206718121Y-57842329D01*
X206632232Y-57800654D01*
X206631010Y-57799432D01*
X206622144Y-57795759D01*
X206609151Y-57789455D01*
X206606463Y-57789264D01*
X206603974Y-57788233D01*
X206589342Y-57786792D01*
X206457711Y-57787996D01*
X206455865Y-57787381D01*
X206445650Y-57788106D01*
X206431853Y-57788233D01*
X206429364Y-57789263D01*
X206426675Y-57789455D01*
X206412944Y-57794710D01*
X206318389Y-57843401D01*
X206309579Y-57847051D01*
X206306676Y-57849433D01*
X206305263Y-57850161D01*
X206303963Y-57851659D01*
X206298214Y-57856378D01*
X206258798Y-57897204D01*
X206257645Y-57897781D01*
X206252371Y-57903860D01*
X206241268Y-57915362D01*
X206240236Y-57917852D01*
X206238471Y-57919888D01*
X206235485Y-57926574D01*
X206212387Y-57904274D01*
X206206755Y-57897780D01*
X206203609Y-57895800D01*
X206202439Y-57894670D01*
X206200611Y-57893912D01*
X206194312Y-57889948D01*
X206108423Y-57848273D01*
X206107201Y-57847051D01*
X206098335Y-57843378D01*
X206085342Y-57837074D01*
X206082654Y-57836883D01*
X206080165Y-57835852D01*
X206065533Y-57834411D01*
X205981225Y-57835516D01*
X205979675Y-57835000D01*
X205970404Y-57835658D01*
X205955663Y-57835852D01*
X205953174Y-57836882D01*
X205950485Y-57837074D01*
X205936754Y-57842329D01*
X205842199Y-57891020D01*
X205833389Y-57894670D01*
X205830486Y-57897052D01*
X205829073Y-57897780D01*
X205827773Y-57899278D01*
X205822024Y-57903997D01*
X205774682Y-57953032D01*
X205768188Y-57958665D01*
X205766208Y-57961810D01*
X205765078Y-57962981D01*
X205764320Y-57964808D01*
X205760356Y-57971108D01*
X205718681Y-58056996D01*
X205717459Y-58058219D01*
X205713786Y-58067084D01*
X205707482Y-58080078D01*
X205707291Y-58082765D01*
X205706260Y-58085255D01*
X205704819Y-58099887D01*
X205593708Y-58099887D01*
X205593708Y-56909411D01*
X206800057Y-56909411D01*
X206801498Y-57685948D01*
X206812697Y-57712984D01*
X206833389Y-57733676D01*
X206860425Y-57744875D01*
X206889689Y-57744875D01*
X206916725Y-57733676D01*
X206937417Y-57712984D01*
X206948616Y-57685948D01*
X206950057Y-57671316D01*
X206948616Y-56894779D01*
X206937417Y-56867743D01*
X206916725Y-56847051D01*
X206889689Y-56835852D01*
X206860425Y-56835852D01*
X206833389Y-56847051D01*
X206812697Y-56867743D01*
X206801498Y-56894779D01*
X206800057Y-56909411D01*
X205593708Y-56909411D01*
X205593708Y-56195125D01*
X205704819Y-56195125D01*
X205706260Y-56685947D01*
X205717459Y-56712983D01*
X205738151Y-56733675D01*
X205765187Y-56744874D01*
X205779819Y-56746315D01*
X206794451Y-56744874D01*
X206821487Y-56733675D01*
X206842179Y-56712983D01*
X206853378Y-56685947D01*
X206853378Y-56656683D01*
X206842179Y-56629647D01*
X206821487Y-56608955D01*
X206794451Y-56597756D01*
X206779819Y-56596315D01*
X206330701Y-56596952D01*
X206329568Y-56323350D01*
X206318369Y-56296314D01*
X206297677Y-56275622D01*
X206270641Y-56264423D01*
X206241377Y-56264423D01*
X206214341Y-56275622D01*
X206193649Y-56296314D01*
X206182450Y-56323350D01*
X206181009Y-56337982D01*
X206182082Y-56597163D01*
X205854602Y-56597629D01*
X205853378Y-56180493D01*
X205842179Y-56153457D01*
X205821487Y-56132765D01*
X205794451Y-56121566D01*
X205765187Y-56121566D01*
X205738151Y-56132765D01*
X205717459Y-56153457D01*
X205706260Y-56180493D01*
X205704819Y-56195125D01*
X205593708Y-56195125D01*
X205593708Y-55433220D01*
X205704819Y-55433220D01*
X205706111Y-55659824D01*
X205705408Y-55661934D01*
X205706185Y-55672876D01*
X205706260Y-55685947D01*
X205707291Y-55688436D01*
X205707482Y-55691124D01*
X205712737Y-55704856D01*
X205761429Y-55799412D01*
X205765078Y-55808221D01*
X205767460Y-55811123D01*
X205768188Y-55812537D01*
X205769686Y-55813836D01*
X205774405Y-55819586D01*
X205823440Y-55866927D01*
X205829073Y-55873422D01*
X205832218Y-55875401D01*
X205833389Y-55876532D01*
X205835216Y-55877289D01*
X205841516Y-55881254D01*
X205927405Y-55922929D01*
X205928627Y-55924151D01*
X205937486Y-55927820D01*
X205950485Y-55934128D01*
X205953174Y-55934319D01*
X205955663Y-55935350D01*
X205970295Y-55936791D01*
X206054601Y-55935685D01*
X206056152Y-55936202D01*
X206065421Y-55935543D01*
X206080165Y-55935350D01*
X206082654Y-55934318D01*
X206085342Y-55934128D01*
X206099074Y-55928873D01*
X206193630Y-55880180D01*
X206202439Y-55876532D01*
X206205341Y-55874149D01*
X206206755Y-55873422D01*
X206208054Y-55871923D01*
X206213804Y-55867205D01*
X206261145Y-55818169D01*
X206267640Y-55812537D01*
X206269619Y-55809391D01*
X206270750Y-55808221D01*
X206271507Y-55806393D01*
X206275472Y-55800094D01*
X206319740Y-55708861D01*
X206323823Y-55703351D01*
X206327758Y-55692335D01*
X206328346Y-55691125D01*
X206328384Y-55690584D01*
X206328770Y-55689505D01*
X206371854Y-55512021D01*
X206410680Y-55432004D01*
X206440924Y-55400677D01*
X206509905Y-55365155D01*
X206570066Y-55364366D01*
X206638176Y-55397415D01*
X206669504Y-55427660D01*
X206704907Y-55496410D01*
X206706086Y-55703191D01*
X206657789Y-55852411D01*
X206659864Y-55881601D01*
X206672950Y-55907774D01*
X206695057Y-55926948D01*
X206722820Y-55936202D01*
X206752010Y-55934127D01*
X206778183Y-55921041D01*
X206797357Y-55898934D01*
X206803351Y-55885508D01*
X206849500Y-55742926D01*
X206853378Y-55733566D01*
X206853748Y-55729802D01*
X206854230Y-55728315D01*
X206854089Y-55726340D01*
X206854819Y-55718934D01*
X206853526Y-55492328D01*
X206854230Y-55490219D01*
X206853452Y-55479276D01*
X206853378Y-55466207D01*
X206852347Y-55463718D01*
X206852156Y-55461029D01*
X206846901Y-55447298D01*
X206798209Y-55352743D01*
X206794560Y-55343933D01*
X206792177Y-55341030D01*
X206791450Y-55339617D01*
X206789950Y-55338316D01*
X206785232Y-55332567D01*
X206736195Y-55285225D01*
X206730564Y-55278732D01*
X206727418Y-55276752D01*
X206726247Y-55275621D01*
X206724417Y-55274863D01*
X206718121Y-55270900D01*
X206632232Y-55229225D01*
X206631010Y-55228003D01*
X206622144Y-55224330D01*
X206609151Y-55218026D01*
X206606463Y-55217835D01*
X206603974Y-55216804D01*
X206589342Y-55215363D01*
X206505034Y-55216468D01*
X206503484Y-55215952D01*
X206494213Y-55216610D01*
X206479472Y-55216804D01*
X206476983Y-55217834D01*
X206474294Y-55218026D01*
X206460563Y-55223281D01*
X206366008Y-55271972D01*
X206357198Y-55275622D01*
X206354295Y-55278004D01*
X206352882Y-55278732D01*
X206351582Y-55280230D01*
X206345833Y-55284949D01*
X206298491Y-55333984D01*
X206291997Y-55339617D01*
X206290017Y-55342762D01*
X206288887Y-55343933D01*
X206288129Y-55345760D01*
X206284165Y-55352060D01*
X206239898Y-55443291D01*
X206235814Y-55448803D01*
X206231876Y-55459822D01*
X206231291Y-55461030D01*
X206231252Y-55461569D01*
X206230867Y-55462649D01*
X206187782Y-55640132D01*
X206148957Y-55720148D01*
X206118712Y-55751476D01*
X206049731Y-55786998D01*
X205989570Y-55787787D01*
X205921461Y-55754739D01*
X205890133Y-55724494D01*
X205854730Y-55655743D01*
X205853551Y-55448962D01*
X205901849Y-55299744D01*
X205899774Y-55270554D01*
X205886688Y-55244380D01*
X205864580Y-55225206D01*
X205836818Y-55215952D01*
X205807628Y-55218027D01*
X205781455Y-55231114D01*
X205762281Y-55253221D01*
X205756287Y-55266646D01*
X205710138Y-55409224D01*
X205706260Y-55418588D01*
X205705889Y-55422353D01*
X205705408Y-55423840D01*
X205705548Y-55425814D01*
X205704819Y-55433220D01*
X205593708Y-55433220D01*
X205593708Y-55104252D01*
X207061168Y-55104252D01*
X207061168Y-60619331D01*
G37*
D10*
X208360000Y-55165000D02*
X206740000Y-55165000D01*
X208360000Y-55165000D02*
X208360000Y-58115000D01*
D11*
G36*
X203035930Y-59856950D02*
G01*
X201663708Y-59856950D01*
X201663708Y-59242268D01*
X201774819Y-59242268D01*
X201776111Y-59468872D01*
X201775408Y-59470982D01*
X201776185Y-59481924D01*
X201776260Y-59494995D01*
X201777291Y-59497484D01*
X201777482Y-59500172D01*
X201782737Y-59513904D01*
X201831429Y-59608460D01*
X201835078Y-59617269D01*
X201837460Y-59620171D01*
X201838188Y-59621585D01*
X201839686Y-59622884D01*
X201844405Y-59628634D01*
X201893440Y-59675975D01*
X201899073Y-59682470D01*
X201902218Y-59684449D01*
X201903389Y-59685580D01*
X201905216Y-59686337D01*
X201911516Y-59690302D01*
X201997405Y-59731977D01*
X201998627Y-59733199D01*
X202007486Y-59736868D01*
X202020485Y-59743176D01*
X202023174Y-59743367D01*
X202025663Y-59744398D01*
X202040295Y-59745839D01*
X202124601Y-59744733D01*
X202126152Y-59745250D01*
X202135421Y-59744591D01*
X202150165Y-59744398D01*
X202152654Y-59743366D01*
X202155342Y-59743176D01*
X202169074Y-59737921D01*
X202263630Y-59689228D01*
X202272439Y-59685580D01*
X202275341Y-59683197D01*
X202276755Y-59682470D01*
X202278054Y-59680971D01*
X202283804Y-59676253D01*
X202331145Y-59627217D01*
X202337640Y-59621585D01*
X202339619Y-59618439D01*
X202340750Y-59617269D01*
X202341507Y-59615441D01*
X202345472Y-59609142D01*
X202389740Y-59517909D01*
X202393823Y-59512399D01*
X202397758Y-59501383D01*
X202398346Y-59500173D01*
X202398384Y-59499632D01*
X202398770Y-59498553D01*
X202441854Y-59321069D01*
X202480680Y-59241052D01*
X202510924Y-59209725D01*
X202579905Y-59174203D01*
X202640066Y-59173414D01*
X202708176Y-59206463D01*
X202739504Y-59236708D01*
X202774907Y-59305458D01*
X202776086Y-59512239D01*
X202727789Y-59661459D01*
X202729864Y-59690649D01*
X202742950Y-59716822D01*
X202765057Y-59735996D01*
X202792820Y-59745250D01*
X202822010Y-59743175D01*
X202848183Y-59730089D01*
X202867357Y-59707982D01*
X202873351Y-59694556D01*
X202919500Y-59551974D01*
X202923378Y-59542614D01*
X202923748Y-59538850D01*
X202924230Y-59537363D01*
X202924089Y-59535388D01*
X202924819Y-59527982D01*
X202923526Y-59301376D01*
X202924230Y-59299267D01*
X202923452Y-59288324D01*
X202923378Y-59275255D01*
X202922347Y-59272766D01*
X202922156Y-59270077D01*
X202916901Y-59256346D01*
X202868209Y-59161791D01*
X202864560Y-59152981D01*
X202862177Y-59150078D01*
X202861450Y-59148665D01*
X202859950Y-59147364D01*
X202855232Y-59141615D01*
X202806195Y-59094273D01*
X202800564Y-59087780D01*
X202797418Y-59085800D01*
X202796247Y-59084669D01*
X202794417Y-59083911D01*
X202788121Y-59079948D01*
X202702232Y-59038273D01*
X202701010Y-59037051D01*
X202692144Y-59033378D01*
X202679151Y-59027074D01*
X202676463Y-59026883D01*
X202673974Y-59025852D01*
X202659342Y-59024411D01*
X202575034Y-59025516D01*
X202573484Y-59025000D01*
X202564213Y-59025658D01*
X202549472Y-59025852D01*
X202546983Y-59026882D01*
X202544294Y-59027074D01*
X202530563Y-59032329D01*
X202436008Y-59081020D01*
X202427198Y-59084670D01*
X202424295Y-59087052D01*
X202422882Y-59087780D01*
X202421582Y-59089278D01*
X202415833Y-59093997D01*
X202368491Y-59143032D01*
X202361997Y-59148665D01*
X202360017Y-59151810D01*
X202358887Y-59152981D01*
X202358129Y-59154808D01*
X202354165Y-59161108D01*
X202309898Y-59252339D01*
X202305814Y-59257851D01*
X202301876Y-59268870D01*
X202301291Y-59270078D01*
X202301252Y-59270617D01*
X202300867Y-59271697D01*
X202257782Y-59449180D01*
X202218957Y-59529196D01*
X202188712Y-59560524D01*
X202119731Y-59596046D01*
X202059570Y-59596835D01*
X201991461Y-59563787D01*
X201960133Y-59533542D01*
X201924730Y-59464791D01*
X201923551Y-59258010D01*
X201971849Y-59108792D01*
X201969774Y-59079602D01*
X201956688Y-59053428D01*
X201934580Y-59034254D01*
X201906818Y-59025000D01*
X201877628Y-59027075D01*
X201851455Y-59040162D01*
X201832281Y-59062269D01*
X201826287Y-59075694D01*
X201780138Y-59218272D01*
X201776260Y-59227636D01*
X201775889Y-59231401D01*
X201775408Y-59232888D01*
X201775548Y-59234862D01*
X201774819Y-59242268D01*
X201663708Y-59242268D01*
X201663708Y-58242268D01*
X201774819Y-58242268D01*
X201776260Y-58828328D01*
X201787459Y-58855364D01*
X201808151Y-58876056D01*
X201835187Y-58887255D01*
X201864451Y-58887255D01*
X201891487Y-58876056D01*
X201912179Y-58855364D01*
X201923378Y-58828328D01*
X201924819Y-58813696D01*
X201924300Y-58602876D01*
X202864451Y-58601541D01*
X202891487Y-58590342D01*
X202912179Y-58569650D01*
X202923378Y-58542614D01*
X202923378Y-58513350D01*
X202912179Y-58486314D01*
X202891487Y-58465622D01*
X202864451Y-58454423D01*
X202849819Y-58452982D01*
X201923935Y-58454296D01*
X201923378Y-58227636D01*
X201912179Y-58200600D01*
X201891487Y-58179908D01*
X201864451Y-58168709D01*
X201835187Y-58168709D01*
X201808151Y-58179908D01*
X201787459Y-58200600D01*
X201776260Y-58227636D01*
X201774819Y-58242268D01*
X201663708Y-58242268D01*
X201663708Y-57897546D01*
X201775689Y-57897546D01*
X201776260Y-57910547D01*
X201776260Y-57923566D01*
X201776899Y-57925110D01*
X201776973Y-57926782D01*
X201782479Y-57938580D01*
X201787459Y-57950602D01*
X201788641Y-57951784D01*
X201789349Y-57953300D01*
X201798945Y-57962088D01*
X201808151Y-57971294D01*
X201809696Y-57971934D01*
X201810930Y-57973064D01*
X201823160Y-57977511D01*
X201835187Y-57982493D01*
X201837482Y-57982719D01*
X201838431Y-57983064D01*
X201840197Y-57982986D01*
X201849819Y-57983934D01*
X202864451Y-57982493D01*
X202891487Y-57971294D01*
X202912179Y-57950602D01*
X202923378Y-57923566D01*
X202923378Y-57894302D01*
X202912179Y-57867266D01*
X202891487Y-57846574D01*
X202864451Y-57835375D01*
X202849819Y-57833934D01*
X202184441Y-57834878D01*
X202592619Y-57643503D01*
X202602993Y-57639731D01*
X202605435Y-57637494D01*
X202608471Y-57636071D01*
X202616168Y-57627665D01*
X202624575Y-57619967D01*
X202625984Y-57616946D01*
X202628234Y-57614490D01*
X202632128Y-57603780D01*
X202636950Y-57593449D01*
X202637096Y-57590120D01*
X202638235Y-57586989D01*
X202637734Y-57575601D01*
X202638235Y-57564213D01*
X202637096Y-57561081D01*
X202636950Y-57557753D01*
X202632128Y-57547421D01*
X202628234Y-57536712D01*
X202625984Y-57534255D01*
X202624575Y-57531235D01*
X202616168Y-57523536D01*
X202608471Y-57515131D01*
X202604275Y-57512645D01*
X202602993Y-57511471D01*
X202601180Y-57510811D01*
X202595821Y-57507637D01*
X202184944Y-57316792D01*
X202864451Y-57315827D01*
X202891487Y-57304628D01*
X202912179Y-57283936D01*
X202923378Y-57256900D01*
X202923378Y-57227636D01*
X202912179Y-57200600D01*
X202891487Y-57179908D01*
X202864451Y-57168709D01*
X202849819Y-57167268D01*
X201850923Y-57168686D01*
X201838431Y-57168138D01*
X201836867Y-57168706D01*
X201835187Y-57168709D01*
X201823160Y-57173690D01*
X201810930Y-57178138D01*
X201809696Y-57179267D01*
X201808151Y-57179908D01*
X201798945Y-57189113D01*
X201789349Y-57197902D01*
X201788641Y-57199417D01*
X201787459Y-57200600D01*
X201782479Y-57212621D01*
X201776973Y-57224420D01*
X201776899Y-57226091D01*
X201776260Y-57227636D01*
X201776260Y-57240654D01*
X201775689Y-57253656D01*
X201776260Y-57255226D01*
X201776260Y-57256900D01*
X201781241Y-57268926D01*
X201785689Y-57281157D01*
X201786818Y-57282390D01*
X201787459Y-57283936D01*
X201796664Y-57293141D01*
X201805453Y-57302738D01*
X201807435Y-57303912D01*
X201808151Y-57304628D01*
X201809787Y-57305306D01*
X201818103Y-57310232D01*
X202388422Y-57575135D01*
X201819592Y-57841834D01*
X201808151Y-57846574D01*
X201806974Y-57847750D01*
X201805453Y-57848464D01*
X201796664Y-57858060D01*
X201787459Y-57867266D01*
X201786818Y-57868811D01*
X201785689Y-57870045D01*
X201781241Y-57882275D01*
X201776260Y-57894302D01*
X201776260Y-57895975D01*
X201775689Y-57897546D01*
X201663708Y-57897546D01*
X201663708Y-56242268D01*
X201774819Y-56242268D01*
X201776260Y-56875947D01*
X201787459Y-56902983D01*
X201808151Y-56923675D01*
X201835187Y-56934874D01*
X201864451Y-56934874D01*
X201891487Y-56923675D01*
X201912179Y-56902983D01*
X201923378Y-56875947D01*
X201924819Y-56861315D01*
X201923783Y-56406043D01*
X202180970Y-56629828D01*
X202189103Y-56637961D01*
X202191419Y-56638920D01*
X202193344Y-56640595D01*
X202204881Y-56644496D01*
X202216139Y-56649160D01*
X202218670Y-56649160D01*
X202221065Y-56649970D01*
X202233218Y-56649160D01*
X202245403Y-56649160D01*
X202247739Y-56648192D01*
X202250263Y-56648024D01*
X202261188Y-56642621D01*
X202272439Y-56637961D01*
X202274225Y-56636174D01*
X202276495Y-56635052D01*
X202284520Y-56625879D01*
X202293131Y-56617269D01*
X202294099Y-56614932D01*
X202295765Y-56613028D01*
X202299666Y-56601490D01*
X202304330Y-56590233D01*
X202304681Y-56586662D01*
X202305140Y-56585307D01*
X202305008Y-56583339D01*
X202305771Y-56575601D01*
X202304642Y-56452291D01*
X202337823Y-56383909D01*
X202368067Y-56352582D01*
X202436818Y-56317179D01*
X202639554Y-56316023D01*
X202708176Y-56349320D01*
X202739504Y-56379565D01*
X202774893Y-56448287D01*
X202776094Y-56698606D01*
X202742767Y-56767291D01*
X202692220Y-56819647D01*
X202681021Y-56846683D01*
X202681021Y-56875946D01*
X202692219Y-56902982D01*
X202712912Y-56923675D01*
X202739948Y-56934874D01*
X202769211Y-56934874D01*
X202796247Y-56923676D01*
X202807612Y-56914349D01*
X202854953Y-56865313D01*
X202861450Y-56859680D01*
X202863429Y-56856534D01*
X202864560Y-56855364D01*
X202865317Y-56853536D01*
X202869282Y-56847237D01*
X202910957Y-56761347D01*
X202912179Y-56760126D01*
X202915848Y-56751266D01*
X202922156Y-56738268D01*
X202922347Y-56735578D01*
X202923378Y-56733090D01*
X202924819Y-56718458D01*
X202923503Y-56444303D01*
X202924230Y-56442124D01*
X202923439Y-56431003D01*
X202923378Y-56418112D01*
X202922347Y-56415623D01*
X202922156Y-56412934D01*
X202916901Y-56399203D01*
X202868209Y-56304648D01*
X202864560Y-56295838D01*
X202862177Y-56292935D01*
X202861450Y-56291522D01*
X202859950Y-56290221D01*
X202855232Y-56284472D01*
X202806195Y-56237130D01*
X202800564Y-56230637D01*
X202797418Y-56228657D01*
X202796247Y-56227526D01*
X202794417Y-56226768D01*
X202788121Y-56222805D01*
X202702232Y-56181130D01*
X202701010Y-56179908D01*
X202692144Y-56176235D01*
X202679151Y-56169931D01*
X202676463Y-56169740D01*
X202673974Y-56168709D01*
X202659342Y-56167268D01*
X202432736Y-56168560D01*
X202430627Y-56167857D01*
X202419684Y-56168634D01*
X202406615Y-56168709D01*
X202404126Y-56169739D01*
X202401437Y-56169931D01*
X202387706Y-56175186D01*
X202293151Y-56223877D01*
X202284341Y-56227527D01*
X202281438Y-56229909D01*
X202280025Y-56230637D01*
X202278725Y-56232135D01*
X202272976Y-56236854D01*
X202225634Y-56285889D01*
X202219140Y-56291522D01*
X202217160Y-56294667D01*
X202216030Y-56295838D01*
X202215272Y-56297665D01*
X202211308Y-56303965D01*
X202169633Y-56389853D01*
X202168411Y-56391076D01*
X202164738Y-56399941D01*
X202158434Y-56412935D01*
X202158413Y-56413223D01*
X201899619Y-56188040D01*
X201891487Y-56179908D01*
X201889170Y-56178948D01*
X201887246Y-56177274D01*
X201875708Y-56173372D01*
X201864451Y-56168709D01*
X201861920Y-56168709D01*
X201859525Y-56167899D01*
X201847372Y-56168709D01*
X201835187Y-56168709D01*
X201832850Y-56169676D01*
X201830327Y-56169845D01*
X201819401Y-56175247D01*
X201808151Y-56179908D01*
X201806364Y-56181694D01*
X201804095Y-56182817D01*
X201796069Y-56191989D01*
X201787459Y-56200600D01*
X201786490Y-56202936D01*
X201784825Y-56204841D01*
X201780923Y-56216378D01*
X201776260Y-56227636D01*
X201775908Y-56231206D01*
X201775450Y-56232562D01*
X201775581Y-56234529D01*
X201774819Y-56242268D01*
X201663708Y-56242268D01*
X201663708Y-55480363D01*
X201774819Y-55480363D01*
X201776111Y-55706967D01*
X201775408Y-55709077D01*
X201776185Y-55720019D01*
X201776260Y-55733090D01*
X201777291Y-55735579D01*
X201777482Y-55738267D01*
X201782737Y-55751999D01*
X201831429Y-55846555D01*
X201835078Y-55855364D01*
X201837460Y-55858266D01*
X201838188Y-55859680D01*
X201839686Y-55860979D01*
X201844405Y-55866729D01*
X201903389Y-55923675D01*
X201930425Y-55934874D01*
X201959688Y-55934874D01*
X201986724Y-55923675D01*
X202007417Y-55902982D01*
X202018616Y-55875946D01*
X202018616Y-55846683D01*
X202007417Y-55819647D01*
X201998090Y-55808282D01*
X201960133Y-55771637D01*
X201924730Y-55702886D01*
X201923574Y-55500150D01*
X201956871Y-55431528D01*
X201987115Y-55400201D01*
X202056096Y-55364679D01*
X202120459Y-55363835D01*
X202236130Y-55401275D01*
X202808151Y-55971295D01*
X202827268Y-55979213D01*
X202835187Y-55982493D01*
X202835188Y-55982493D01*
X202864451Y-55982493D01*
X202891487Y-55971294D01*
X202912180Y-55950602D01*
X202920098Y-55931484D01*
X202923378Y-55923566D01*
X202924819Y-55908934D01*
X202923378Y-55275255D01*
X202912179Y-55248219D01*
X202891487Y-55227527D01*
X202864451Y-55216328D01*
X202835187Y-55216328D01*
X202808151Y-55227527D01*
X202787459Y-55248219D01*
X202776260Y-55275255D01*
X202774819Y-55289887D01*
X202775818Y-55729311D01*
X202338777Y-55293800D01*
X202337639Y-55291523D01*
X202328794Y-55283851D01*
X202320058Y-55275146D01*
X202317567Y-55274114D01*
X202315532Y-55272349D01*
X202302107Y-55266355D01*
X202159528Y-55220206D01*
X202150165Y-55216328D01*
X202146399Y-55215957D01*
X202144913Y-55215476D01*
X202142938Y-55215616D01*
X202135533Y-55214887D01*
X202051225Y-55215992D01*
X202049675Y-55215476D01*
X202040404Y-55216134D01*
X202025663Y-55216328D01*
X202023174Y-55217358D01*
X202020485Y-55217550D01*
X202006754Y-55222805D01*
X201912199Y-55271496D01*
X201903389Y-55275146D01*
X201900486Y-55277528D01*
X201899073Y-55278256D01*
X201897773Y-55279754D01*
X201892024Y-55284473D01*
X201844682Y-55333508D01*
X201838188Y-55339141D01*
X201836208Y-55342286D01*
X201835078Y-55343457D01*
X201834320Y-55345284D01*
X201830356Y-55351584D01*
X201788681Y-55437472D01*
X201787459Y-55438695D01*
X201783786Y-55447560D01*
X201777482Y-55460554D01*
X201777291Y-55463241D01*
X201776260Y-55465731D01*
X201774819Y-55480363D01*
X201663708Y-55480363D01*
X201663708Y-55103776D01*
X203035930Y-55103776D01*
X203035930Y-59856950D01*
G37*
D10*
X204340000Y-55165000D02*
X202720000Y-55165000D01*
X204340000Y-55165000D02*
X204340000Y-58115000D01*
D11*
G36*
X199015930Y-57913128D02*
G01*
X197643708Y-57913128D01*
X197643708Y-57109411D01*
X197754819Y-57109411D01*
X197756260Y-57743090D01*
X197767459Y-57770126D01*
X197788151Y-57790818D01*
X197815187Y-57802017D01*
X197844451Y-57802017D01*
X197871487Y-57790818D01*
X197892179Y-57770126D01*
X197903378Y-57743090D01*
X197904819Y-57728458D01*
X197903783Y-57273186D01*
X198160970Y-57496971D01*
X198169103Y-57505104D01*
X198171419Y-57506063D01*
X198173344Y-57507738D01*
X198184881Y-57511639D01*
X198196139Y-57516303D01*
X198198670Y-57516303D01*
X198201065Y-57517113D01*
X198213218Y-57516303D01*
X198225403Y-57516303D01*
X198227739Y-57515335D01*
X198230263Y-57515167D01*
X198241188Y-57509764D01*
X198252439Y-57505104D01*
X198254225Y-57503317D01*
X198256495Y-57502195D01*
X198264520Y-57493022D01*
X198273131Y-57484412D01*
X198274099Y-57482075D01*
X198275765Y-57480171D01*
X198279666Y-57468633D01*
X198284330Y-57457376D01*
X198284681Y-57453805D01*
X198285140Y-57452450D01*
X198285008Y-57450482D01*
X198285771Y-57442744D01*
X198284642Y-57319434D01*
X198317823Y-57251052D01*
X198348067Y-57219725D01*
X198416818Y-57184322D01*
X198619554Y-57183166D01*
X198688176Y-57216463D01*
X198719504Y-57246708D01*
X198754893Y-57315430D01*
X198756094Y-57565749D01*
X198722767Y-57634434D01*
X198672220Y-57686790D01*
X198661021Y-57713826D01*
X198661021Y-57743089D01*
X198672219Y-57770125D01*
X198692912Y-57790818D01*
X198719948Y-57802017D01*
X198749211Y-57802017D01*
X198776247Y-57790819D01*
X198787612Y-57781492D01*
X198834953Y-57732456D01*
X198841450Y-57726823D01*
X198843429Y-57723677D01*
X198844560Y-57722507D01*
X198845317Y-57720679D01*
X198849282Y-57714380D01*
X198890957Y-57628490D01*
X198892179Y-57627269D01*
X198895848Y-57618409D01*
X198902156Y-57605411D01*
X198902347Y-57602721D01*
X198903378Y-57600233D01*
X198904819Y-57585601D01*
X198903503Y-57311446D01*
X198904230Y-57309267D01*
X198903439Y-57298146D01*
X198903378Y-57285255D01*
X198902347Y-57282766D01*
X198902156Y-57280077D01*
X198896901Y-57266346D01*
X198848209Y-57171791D01*
X198844560Y-57162981D01*
X198842177Y-57160078D01*
X198841450Y-57158665D01*
X198839950Y-57157364D01*
X198835232Y-57151615D01*
X198786195Y-57104273D01*
X198780564Y-57097780D01*
X198777418Y-57095800D01*
X198776247Y-57094669D01*
X198774417Y-57093911D01*
X198768121Y-57089948D01*
X198682232Y-57048273D01*
X198681010Y-57047051D01*
X198672144Y-57043378D01*
X198659151Y-57037074D01*
X198656463Y-57036883D01*
X198653974Y-57035852D01*
X198639342Y-57034411D01*
X198412736Y-57035703D01*
X198410627Y-57035000D01*
X198399684Y-57035777D01*
X198386615Y-57035852D01*
X198384126Y-57036882D01*
X198381437Y-57037074D01*
X198367706Y-57042329D01*
X198273151Y-57091020D01*
X198264341Y-57094670D01*
X198261438Y-57097052D01*
X198260025Y-57097780D01*
X198258725Y-57099278D01*
X198252976Y-57103997D01*
X198205634Y-57153032D01*
X198199140Y-57158665D01*
X198197160Y-57161810D01*
X198196030Y-57162981D01*
X198195272Y-57164808D01*
X198191308Y-57171108D01*
X198149633Y-57256996D01*
X198148411Y-57258219D01*
X198144738Y-57267084D01*
X198138434Y-57280078D01*
X198138413Y-57280366D01*
X197879619Y-57055183D01*
X197871487Y-57047051D01*
X197869170Y-57046091D01*
X197867246Y-57044417D01*
X197855708Y-57040515D01*
X197844451Y-57035852D01*
X197841920Y-57035852D01*
X197839525Y-57035042D01*
X197827372Y-57035852D01*
X197815187Y-57035852D01*
X197812850Y-57036819D01*
X197810327Y-57036988D01*
X197799401Y-57042390D01*
X197788151Y-57047051D01*
X197786364Y-57048837D01*
X197784095Y-57049960D01*
X197776069Y-57059132D01*
X197767459Y-57067743D01*
X197766490Y-57070079D01*
X197764825Y-57071984D01*
X197760923Y-57083521D01*
X197756260Y-57094779D01*
X197755908Y-57098349D01*
X197755450Y-57099705D01*
X197755581Y-57101672D01*
X197754819Y-57109411D01*
X197643708Y-57109411D01*
X197643708Y-56833076D01*
X197755408Y-56833076D01*
X197764662Y-56860839D01*
X197783836Y-56882946D01*
X197810009Y-56896032D01*
X197839199Y-56898107D01*
X197853536Y-56894847D01*
X198844413Y-56563069D01*
X198849628Y-56562699D01*
X198857956Y-56558534D01*
X198866961Y-56555520D01*
X198871008Y-56552009D01*
X198875802Y-56549613D01*
X198881966Y-56542505D01*
X198889068Y-56536346D01*
X198891463Y-56531554D01*
X198894976Y-56527505D01*
X198897950Y-56518582D01*
X198902155Y-56510173D01*
X198902534Y-56504828D01*
X198904230Y-56499743D01*
X198903563Y-56490363D01*
X198904230Y-56480983D01*
X198902534Y-56475897D01*
X198902155Y-56470553D01*
X198897950Y-56462143D01*
X198894976Y-56453221D01*
X198891463Y-56449171D01*
X198889068Y-56444380D01*
X198881966Y-56438220D01*
X198875802Y-56431113D01*
X198871008Y-56428716D01*
X198866961Y-56425206D01*
X198853536Y-56419212D01*
X197839199Y-56082619D01*
X197810009Y-56084694D01*
X197783836Y-56097780D01*
X197764662Y-56119887D01*
X197755408Y-56147650D01*
X197757483Y-56176840D01*
X197770569Y-56203013D01*
X197792676Y-56222187D01*
X197806102Y-56228181D01*
X198594895Y-56489930D01*
X197792676Y-56758539D01*
X197770569Y-56777713D01*
X197757483Y-56803886D01*
X197755408Y-56833076D01*
X197643708Y-56833076D01*
X197643708Y-55299887D01*
X197754819Y-55299887D01*
X197756260Y-55933566D01*
X197767459Y-55960602D01*
X197788151Y-55981294D01*
X197815187Y-55992493D01*
X197844451Y-55992493D01*
X197871487Y-55981294D01*
X197892179Y-55960602D01*
X197903378Y-55933566D01*
X197904819Y-55918934D01*
X197903783Y-55463662D01*
X198160970Y-55687447D01*
X198169103Y-55695580D01*
X198171419Y-55696539D01*
X198173344Y-55698214D01*
X198184881Y-55702115D01*
X198196139Y-55706779D01*
X198198670Y-55706779D01*
X198201065Y-55707589D01*
X198213218Y-55706779D01*
X198225403Y-55706779D01*
X198227739Y-55705811D01*
X198230263Y-55705643D01*
X198241188Y-55700240D01*
X198252439Y-55695580D01*
X198254225Y-55693793D01*
X198256495Y-55692671D01*
X198264520Y-55683498D01*
X198273131Y-55674888D01*
X198274099Y-55672551D01*
X198275765Y-55670647D01*
X198279666Y-55659109D01*
X198284330Y-55647852D01*
X198284681Y-55644281D01*
X198285140Y-55642926D01*
X198285008Y-55640958D01*
X198285771Y-55633220D01*
X198284642Y-55509910D01*
X198317823Y-55441528D01*
X198348067Y-55410201D01*
X198416818Y-55374798D01*
X198619554Y-55373642D01*
X198688176Y-55406939D01*
X198719504Y-55437184D01*
X198754893Y-55505906D01*
X198756094Y-55756225D01*
X198722767Y-55824910D01*
X198672220Y-55877266D01*
X198661021Y-55904302D01*
X198661021Y-55933565D01*
X198672219Y-55960601D01*
X198692912Y-55981294D01*
X198719948Y-55992493D01*
X198749211Y-55992493D01*
X198776247Y-55981295D01*
X198787612Y-55971968D01*
X198834953Y-55922932D01*
X198841450Y-55917299D01*
X198843429Y-55914153D01*
X198844560Y-55912983D01*
X198845317Y-55911155D01*
X198849282Y-55904856D01*
X198890957Y-55818966D01*
X198892179Y-55817745D01*
X198895848Y-55808885D01*
X198902156Y-55795887D01*
X198902347Y-55793197D01*
X198903378Y-55790709D01*
X198904819Y-55776077D01*
X198903503Y-55501922D01*
X198904230Y-55499743D01*
X198903439Y-55488622D01*
X198903378Y-55475731D01*
X198902347Y-55473242D01*
X198902156Y-55470553D01*
X198896901Y-55456822D01*
X198848209Y-55362267D01*
X198844560Y-55353457D01*
X198842177Y-55350554D01*
X198841450Y-55349141D01*
X198839950Y-55347840D01*
X198835232Y-55342091D01*
X198786195Y-55294749D01*
X198780564Y-55288256D01*
X198777418Y-55286276D01*
X198776247Y-55285145D01*
X198774417Y-55284387D01*
X198768121Y-55280424D01*
X198682232Y-55238749D01*
X198681010Y-55237527D01*
X198672144Y-55233854D01*
X198659151Y-55227550D01*
X198656463Y-55227359D01*
X198653974Y-55226328D01*
X198639342Y-55224887D01*
X198412736Y-55226179D01*
X198410627Y-55225476D01*
X198399684Y-55226253D01*
X198386615Y-55226328D01*
X198384126Y-55227358D01*
X198381437Y-55227550D01*
X198367706Y-55232805D01*
X198273151Y-55281496D01*
X198264341Y-55285146D01*
X198261438Y-55287528D01*
X198260025Y-55288256D01*
X198258725Y-55289754D01*
X198252976Y-55294473D01*
X198205634Y-55343508D01*
X198199140Y-55349141D01*
X198197160Y-55352286D01*
X198196030Y-55353457D01*
X198195272Y-55355284D01*
X198191308Y-55361584D01*
X198149633Y-55447472D01*
X198148411Y-55448695D01*
X198144738Y-55457560D01*
X198138434Y-55470554D01*
X198138413Y-55470842D01*
X197879619Y-55245659D01*
X197871487Y-55237527D01*
X197869170Y-55236567D01*
X197867246Y-55234893D01*
X197855708Y-55230991D01*
X197844451Y-55226328D01*
X197841920Y-55226328D01*
X197839525Y-55225518D01*
X197827372Y-55226328D01*
X197815187Y-55226328D01*
X197812850Y-55227295D01*
X197810327Y-55227464D01*
X197799401Y-55232866D01*
X197788151Y-55237527D01*
X197786364Y-55239313D01*
X197784095Y-55240436D01*
X197776069Y-55249608D01*
X197767459Y-55258219D01*
X197766490Y-55260555D01*
X197764825Y-55262460D01*
X197760923Y-55273997D01*
X197756260Y-55285255D01*
X197755908Y-55288825D01*
X197755450Y-55290181D01*
X197755581Y-55292148D01*
X197754819Y-55299887D01*
X197643708Y-55299887D01*
X197643708Y-55113776D01*
X199015930Y-55113776D01*
X199015930Y-57913128D01*
G37*
D10*
X200320000Y-55175000D02*
X198700000Y-55175000D01*
X200320000Y-55175000D02*
X200320000Y-58125000D01*
D11*
G36*
X190267224Y-56351463D02*
G01*
X190298551Y-56381707D01*
X190333975Y-56450498D01*
X190335065Y-56605667D01*
X190301814Y-56674196D01*
X190271569Y-56705524D01*
X190202818Y-56740927D01*
X190000082Y-56742083D01*
X189931461Y-56708787D01*
X189900133Y-56678542D01*
X189864709Y-56609751D01*
X189863619Y-56454582D01*
X189896871Y-56386052D01*
X189927115Y-56354725D01*
X189995803Y-56319354D01*
X190199521Y-56318612D01*
X190267224Y-56351463D01*
G37*
G36*
X190975930Y-57001950D02*
G01*
X189603708Y-57001950D01*
X189603708Y-56434887D01*
X189714819Y-56434887D01*
X189716077Y-56613974D01*
X189715408Y-56615982D01*
X189716166Y-56626654D01*
X189716260Y-56639995D01*
X189717291Y-56642484D01*
X189717482Y-56645172D01*
X189722737Y-56658904D01*
X189771429Y-56753460D01*
X189775078Y-56762269D01*
X189777460Y-56765171D01*
X189778188Y-56766585D01*
X189779686Y-56767884D01*
X189784405Y-56773634D01*
X189833440Y-56820975D01*
X189839073Y-56827470D01*
X189842218Y-56829449D01*
X189843389Y-56830580D01*
X189845216Y-56831337D01*
X189851516Y-56835302D01*
X189937405Y-56876977D01*
X189938627Y-56878199D01*
X189947486Y-56881868D01*
X189960485Y-56888176D01*
X189963174Y-56888367D01*
X189965663Y-56889398D01*
X189980295Y-56890839D01*
X190206899Y-56889546D01*
X190209009Y-56890250D01*
X190219951Y-56889472D01*
X190233022Y-56889398D01*
X190235511Y-56888366D01*
X190238199Y-56888176D01*
X190251931Y-56882921D01*
X190346487Y-56834228D01*
X190355296Y-56830580D01*
X190358198Y-56828197D01*
X190359612Y-56827470D01*
X190360911Y-56825971D01*
X190366661Y-56821253D01*
X190414002Y-56772217D01*
X190420497Y-56766585D01*
X190422476Y-56763439D01*
X190423607Y-56762269D01*
X190424364Y-56760441D01*
X190428329Y-56754142D01*
X190470004Y-56668252D01*
X190471226Y-56667031D01*
X190474895Y-56658171D01*
X190481203Y-56645173D01*
X190481394Y-56642483D01*
X190482425Y-56639995D01*
X190483866Y-56625363D01*
X190482607Y-56446274D01*
X190483277Y-56444267D01*
X190482518Y-56433594D01*
X190482425Y-56420255D01*
X190481394Y-56417766D01*
X190481203Y-56415077D01*
X190475948Y-56401346D01*
X190445395Y-56342014D01*
X190518097Y-56359663D01*
X190642480Y-56441202D01*
X190679504Y-56476946D01*
X190714928Y-56545736D01*
X190716260Y-56735233D01*
X190727459Y-56762269D01*
X190748151Y-56782961D01*
X190775187Y-56794160D01*
X190804451Y-56794160D01*
X190831487Y-56782961D01*
X190852179Y-56762269D01*
X190863378Y-56735233D01*
X190864819Y-56720601D01*
X190863560Y-56541512D01*
X190864230Y-56539505D01*
X190863471Y-56528832D01*
X190863378Y-56515493D01*
X190862347Y-56513004D01*
X190862156Y-56510315D01*
X190856901Y-56496584D01*
X190808209Y-56402029D01*
X190804560Y-56393219D01*
X190802177Y-56390316D01*
X190801450Y-56388903D01*
X190799950Y-56387602D01*
X190795232Y-56381853D01*
X190750678Y-56338839D01*
X190747558Y-56334180D01*
X190736311Y-56324969D01*
X190736247Y-56324907D01*
X190736223Y-56324897D01*
X190736183Y-56324864D01*
X190592262Y-56230516D01*
X190583759Y-56224216D01*
X190581323Y-56223345D01*
X190580352Y-56222709D01*
X190578535Y-56222349D01*
X190569913Y-56219269D01*
X190383547Y-56174028D01*
X190375879Y-56170852D01*
X190366764Y-56169954D01*
X190364893Y-56169500D01*
X190363800Y-56169662D01*
X190361247Y-56169411D01*
X189991943Y-56170756D01*
X189989675Y-56170000D01*
X189978333Y-56170805D01*
X189965663Y-56170852D01*
X189963174Y-56171882D01*
X189960485Y-56172074D01*
X189946754Y-56177329D01*
X189852199Y-56226020D01*
X189843389Y-56229670D01*
X189840486Y-56232052D01*
X189839073Y-56232780D01*
X189837773Y-56234278D01*
X189832024Y-56238997D01*
X189784682Y-56288032D01*
X189778188Y-56293665D01*
X189776208Y-56296810D01*
X189775078Y-56297981D01*
X189774320Y-56299808D01*
X189770356Y-56306108D01*
X189728681Y-56391996D01*
X189727459Y-56393219D01*
X189723786Y-56402084D01*
X189717482Y-56415078D01*
X189717291Y-56417765D01*
X189716260Y-56420255D01*
X189714819Y-56434887D01*
X189603708Y-56434887D01*
X189603708Y-55968076D01*
X189715408Y-55968076D01*
X189724662Y-55995839D01*
X189743836Y-56017946D01*
X189770009Y-56031032D01*
X189799199Y-56033107D01*
X189813536Y-56029847D01*
X190804413Y-55698069D01*
X190809628Y-55697699D01*
X190817956Y-55693534D01*
X190826961Y-55690520D01*
X190831008Y-55687009D01*
X190835802Y-55684613D01*
X190841966Y-55677505D01*
X190849068Y-55671346D01*
X190851463Y-55666554D01*
X190854976Y-55662505D01*
X190857950Y-55653582D01*
X190862155Y-55645173D01*
X190862534Y-55639828D01*
X190864230Y-55634743D01*
X190863563Y-55625363D01*
X190864230Y-55615983D01*
X190862534Y-55610897D01*
X190862155Y-55605553D01*
X190857950Y-55597143D01*
X190854976Y-55588221D01*
X190851463Y-55584171D01*
X190849068Y-55579380D01*
X190841966Y-55573220D01*
X190835802Y-55566113D01*
X190831008Y-55563716D01*
X190826961Y-55560206D01*
X190813536Y-55554212D01*
X189799199Y-55217619D01*
X189770009Y-55219694D01*
X189743836Y-55232780D01*
X189724662Y-55254887D01*
X189715408Y-55282650D01*
X189717483Y-55311840D01*
X189730569Y-55338013D01*
X189752676Y-55357187D01*
X189766102Y-55363181D01*
X190554895Y-55624930D01*
X189752676Y-55893539D01*
X189730569Y-55912713D01*
X189717483Y-55938886D01*
X189715408Y-55968076D01*
X189603708Y-55968076D01*
X189603708Y-55106508D01*
X190975930Y-55106508D01*
X190975930Y-57001950D01*
G37*
D10*
X192280000Y-55165000D02*
X190660000Y-55165000D01*
X192280000Y-55165000D02*
X192280000Y-58115000D01*
D11*
G36*
X194995930Y-57001600D02*
G01*
X193623708Y-57001600D01*
X193623708Y-56292030D01*
X193734819Y-56292030D01*
X193736207Y-56765072D01*
X193735169Y-56775460D01*
X193736248Y-56779038D01*
X193736260Y-56782852D01*
X193740454Y-56792978D01*
X193743622Y-56803476D01*
X193746013Y-56806399D01*
X193747459Y-56809888D01*
X193755212Y-56817641D01*
X193762153Y-56826124D01*
X193765479Y-56827908D01*
X193768151Y-56830580D01*
X193778280Y-56834775D01*
X193787940Y-56839958D01*
X193793464Y-56841065D01*
X193795187Y-56841779D01*
X193797024Y-56841779D01*
X193802356Y-56842848D01*
X194268124Y-56888050D01*
X194271377Y-56889398D01*
X194282007Y-56889398D01*
X194293249Y-56890489D01*
X194296865Y-56889398D01*
X194300640Y-56889398D01*
X194310764Y-56885204D01*
X194321265Y-56882036D01*
X194324189Y-56879643D01*
X194327676Y-56878199D01*
X194335424Y-56870450D01*
X194343913Y-56863505D01*
X194345698Y-56860176D01*
X194348369Y-56857506D01*
X194352562Y-56847381D01*
X194357747Y-56837718D01*
X194358122Y-56833958D01*
X194359568Y-56830470D01*
X194359568Y-56819508D01*
X194360659Y-56808599D01*
X194359568Y-56804983D01*
X194359568Y-56801207D01*
X194355373Y-56791080D01*
X194352206Y-56780583D01*
X194349814Y-56777659D01*
X194348369Y-56774171D01*
X194339042Y-56762806D01*
X194301085Y-56726161D01*
X194265682Y-56657410D01*
X194264526Y-56454674D01*
X194297823Y-56386052D01*
X194328067Y-56354725D01*
X194396818Y-56319322D01*
X194599554Y-56318166D01*
X194668176Y-56351463D01*
X194699504Y-56381708D01*
X194734907Y-56450458D01*
X194736063Y-56653194D01*
X194702767Y-56721815D01*
X194652220Y-56774171D01*
X194641021Y-56801207D01*
X194641021Y-56830470D01*
X194652219Y-56857506D01*
X194672912Y-56878199D01*
X194699948Y-56889398D01*
X194729211Y-56889398D01*
X194756247Y-56878200D01*
X194767612Y-56868873D01*
X194814953Y-56819837D01*
X194821450Y-56814204D01*
X194823429Y-56811058D01*
X194824560Y-56809888D01*
X194825317Y-56808060D01*
X194829282Y-56801761D01*
X194870957Y-56715871D01*
X194872179Y-56714650D01*
X194875848Y-56705790D01*
X194882156Y-56692792D01*
X194882347Y-56690102D01*
X194883378Y-56687614D01*
X194884819Y-56672982D01*
X194883526Y-56446376D01*
X194884230Y-56444267D01*
X194883452Y-56433324D01*
X194883378Y-56420255D01*
X194882347Y-56417766D01*
X194882156Y-56415077D01*
X194876901Y-56401346D01*
X194828209Y-56306791D01*
X194824560Y-56297981D01*
X194822177Y-56295078D01*
X194821450Y-56293665D01*
X194819950Y-56292364D01*
X194815232Y-56286615D01*
X194766195Y-56239273D01*
X194760564Y-56232780D01*
X194757418Y-56230800D01*
X194756247Y-56229669D01*
X194754417Y-56228911D01*
X194748121Y-56224948D01*
X194662232Y-56183273D01*
X194661010Y-56182051D01*
X194652144Y-56178378D01*
X194639151Y-56172074D01*
X194636463Y-56171883D01*
X194633974Y-56170852D01*
X194619342Y-56169411D01*
X194392736Y-56170703D01*
X194390627Y-56170000D01*
X194379684Y-56170777D01*
X194366615Y-56170852D01*
X194364126Y-56171882D01*
X194361437Y-56172074D01*
X194347706Y-56177329D01*
X194253151Y-56226020D01*
X194244341Y-56229670D01*
X194241438Y-56232052D01*
X194240025Y-56232780D01*
X194238725Y-56234278D01*
X194232976Y-56238997D01*
X194185634Y-56288032D01*
X194179140Y-56293665D01*
X194177160Y-56296810D01*
X194176030Y-56297981D01*
X194175272Y-56299808D01*
X194171308Y-56306108D01*
X194129633Y-56391996D01*
X194128411Y-56393219D01*
X194124738Y-56402084D01*
X194118434Y-56415078D01*
X194118243Y-56417765D01*
X194117212Y-56420255D01*
X194115771Y-56434887D01*
X194117063Y-56661491D01*
X194116360Y-56663601D01*
X194117137Y-56674543D01*
X194117212Y-56687614D01*
X194118243Y-56690103D01*
X194118434Y-56692791D01*
X194123689Y-56706523D01*
X194133559Y-56725691D01*
X193884623Y-56701532D01*
X193883378Y-56277398D01*
X193872179Y-56250362D01*
X193851487Y-56229670D01*
X193824451Y-56218471D01*
X193795187Y-56218471D01*
X193768151Y-56229670D01*
X193747459Y-56250362D01*
X193736260Y-56277398D01*
X193734819Y-56292030D01*
X193623708Y-56292030D01*
X193623708Y-55968076D01*
X193735408Y-55968076D01*
X193744662Y-55995839D01*
X193763836Y-56017946D01*
X193790009Y-56031032D01*
X193819199Y-56033107D01*
X193833536Y-56029847D01*
X194824413Y-55698069D01*
X194829628Y-55697699D01*
X194837956Y-55693534D01*
X194846961Y-55690520D01*
X194851008Y-55687009D01*
X194855802Y-55684613D01*
X194861966Y-55677505D01*
X194869068Y-55671346D01*
X194871463Y-55666554D01*
X194874976Y-55662505D01*
X194877950Y-55653582D01*
X194882155Y-55645173D01*
X194882534Y-55639828D01*
X194884230Y-55634743D01*
X194883563Y-55625363D01*
X194884230Y-55615983D01*
X194882534Y-55610897D01*
X194882155Y-55605553D01*
X194877950Y-55597143D01*
X194874976Y-55588221D01*
X194871463Y-55584171D01*
X194869068Y-55579380D01*
X194861966Y-55573220D01*
X194855802Y-55566113D01*
X194851008Y-55563716D01*
X194846961Y-55560206D01*
X194833536Y-55554212D01*
X193819199Y-55217619D01*
X193790009Y-55219694D01*
X193763836Y-55232780D01*
X193744662Y-55254887D01*
X193735408Y-55282650D01*
X193737483Y-55311840D01*
X193750569Y-55338013D01*
X193772676Y-55357187D01*
X193786102Y-55363181D01*
X194574895Y-55624930D01*
X193772676Y-55893539D01*
X193750569Y-55912713D01*
X193737483Y-55938886D01*
X193735408Y-55968076D01*
X193623708Y-55968076D01*
X193623708Y-55106508D01*
X194995930Y-55106508D01*
X194995930Y-57001600D01*
G37*
D10*
X196300000Y-55165000D02*
X194680000Y-55165000D01*
X196300000Y-55165000D02*
X196300000Y-58115000D01*
D12*
%TO.C,U8*%
X227200000Y-95170000D02*
X227200000Y-94810000D01*
X228315000Y-94177500D02*
X228985000Y-94177500D01*
X230100000Y-94810000D02*
X230100000Y-95170000D01*
D10*
%TO.C,J1*%
X180840000Y-54740000D02*
X180840000Y-60710000D01*
X180840000Y-60710000D02*
X188460000Y-60710000D01*
X180850000Y-54750000D02*
X180850000Y-55500000D01*
X180850000Y-55500000D02*
X182650000Y-55500000D01*
X180850000Y-57000000D02*
X181600000Y-57000000D01*
X181600000Y-57000000D02*
X181600000Y-59950000D01*
X181600000Y-59950000D02*
X184650000Y-59950000D01*
X182650000Y-54750000D02*
X180850000Y-54750000D01*
X182650000Y-55500000D02*
X182650000Y-54750000D01*
X184150000Y-54750000D02*
X184150000Y-55500000D01*
X184150000Y-55500000D02*
X185150000Y-55500000D01*
X185150000Y-54750000D02*
X184150000Y-54750000D01*
X185150000Y-55500000D02*
X185150000Y-54750000D01*
X186650000Y-54750000D02*
X186650000Y-55500000D01*
X186650000Y-55500000D02*
X188450000Y-55500000D01*
X187700000Y-57000000D02*
X187700000Y-59950000D01*
X187700000Y-59950000D02*
X184650000Y-59950000D01*
X188450000Y-54750000D02*
X186650000Y-54750000D01*
X188450000Y-55500000D02*
X188450000Y-54750000D01*
X188450000Y-57000000D02*
X187700000Y-57000000D01*
X188460000Y-54740000D02*
X180840000Y-54740000D01*
X188460000Y-60710000D02*
X188460000Y-54740000D01*
D12*
%TO.C,U5*%
X182000000Y-94990000D02*
X182000000Y-94630000D01*
X183115000Y-93997500D02*
X183785000Y-93997500D01*
X184900000Y-94630000D02*
X184900000Y-94990000D01*
D10*
%TO.C,J5*%
X197610000Y-101690000D02*
X198435000Y-101690000D01*
X198435000Y-101690000D02*
X198435000Y-99890000D01*
X213565000Y-101690000D02*
X214390000Y-101690000D01*
D12*
%TO.C,D1*%
X180475000Y-66337500D02*
X180475000Y-68037500D01*
X181725000Y-68037500D02*
X181725000Y-66337500D01*
D10*
%TO.C,C48*%
X193339420Y-92490000D02*
X193620580Y-92490000D01*
X193339420Y-93510000D02*
X193620580Y-93510000D01*
D12*
%TO.C,R26*%
X191585000Y-86650000D02*
X191585000Y-85050000D01*
X195215000Y-85050000D02*
X195215000Y-86650000D01*
D10*
%TO.C,C72*%
X213992164Y-86640000D02*
X214207836Y-86640000D01*
X213992164Y-87360000D02*
X214207836Y-87360000D01*
%TO.C,R2*%
X198320000Y-65946359D02*
X198320000Y-66253641D01*
X199080000Y-65946359D02*
X199080000Y-66253641D01*
%TO.C,R10*%
X185320000Y-93146359D02*
X185320000Y-93453641D01*
X186080000Y-93146359D02*
X186080000Y-93453641D01*
%TO.C,C49*%
X229089420Y-91580000D02*
X229370580Y-91580000D01*
X229089420Y-92600000D02*
X229370580Y-92600000D01*
%TO.C,C7*%
X187411252Y-61365000D02*
X186888748Y-61365000D01*
X187411252Y-62835000D02*
X186888748Y-62835000D01*
%TO.C,C64*%
X187800000Y-87017836D02*
X187800000Y-86802164D01*
X188520000Y-87017836D02*
X188520000Y-86802164D01*
%TO.C,C6*%
X185138748Y-69465000D02*
X185661252Y-69465000D01*
X185138748Y-70935000D02*
X185661252Y-70935000D01*
%TO.C,U10*%
X223690000Y-96537500D02*
X223690000Y-95737500D01*
X223690000Y-96537500D02*
X223690000Y-97337500D01*
X226810000Y-96537500D02*
X226810000Y-95737500D01*
X226810000Y-96537500D02*
X226810000Y-97337500D01*
%TO.C,C2*%
X196259420Y-72490000D02*
X196540580Y-72490000D01*
X196259420Y-73510000D02*
X196540580Y-73510000D01*
%TO.C,R7*%
X207300000Y-59453641D02*
X207300000Y-59146359D01*
X208060000Y-59453641D02*
X208060000Y-59146359D01*
%TO.C,C38*%
X216815580Y-95590000D02*
X216534420Y-95590000D01*
X216815580Y-96610000D02*
X216534420Y-96610000D01*
%TO.C,C18*%
X217840000Y-61407836D02*
X217840000Y-61192164D01*
X218560000Y-61407836D02*
X218560000Y-61192164D01*
%TO.C,C30*%
X219707836Y-60440000D02*
X219492164Y-60440000D01*
X219707836Y-61160000D02*
X219492164Y-61160000D01*
%TO.C,R21*%
X224670000Y-90196359D02*
X224670000Y-90503641D01*
X225430000Y-90196359D02*
X225430000Y-90503641D01*
%TO.C,R12*%
X189853641Y-95620000D02*
X189546359Y-95620000D01*
X189853641Y-96380000D02*
X189546359Y-96380000D01*
%TO.C,C31*%
X219707836Y-61440000D02*
X219492164Y-61440000D01*
X219707836Y-62160000D02*
X219492164Y-62160000D01*
D12*
%TO.C,D3*%
X189487500Y-66337500D02*
X189487500Y-68037500D01*
X190737500Y-68037500D02*
X190737500Y-66337500D01*
D10*
%TO.C,C46*%
X189592164Y-97740000D02*
X189807836Y-97740000D01*
X189592164Y-98460000D02*
X189807836Y-98460000D01*
%TO.C,R28*%
X208620000Y-98046359D02*
X208620000Y-98353641D01*
X209380000Y-98046359D02*
X209380000Y-98353641D01*
D12*
%TO.C,D2*%
X192875000Y-66350000D02*
X192875000Y-68050000D01*
X194125000Y-68050000D02*
X194125000Y-66350000D01*
D10*
%TO.C,C47*%
X193372164Y-93940000D02*
X193587836Y-93940000D01*
X193372164Y-94660000D02*
X193587836Y-94660000D01*
%TO.C,C40*%
X212340000Y-61507836D02*
X212340000Y-61292164D01*
X213060000Y-61507836D02*
X213060000Y-61292164D01*
%TO.C,C52*%
X220290000Y-90292164D02*
X220290000Y-90507836D01*
X221010000Y-90292164D02*
X221010000Y-90507836D01*
%TO.C,C59*%
X218340000Y-95857836D02*
X218340000Y-95642164D01*
X219060000Y-95857836D02*
X219060000Y-95642164D01*
%TO.C,C32*%
X219715580Y-59090000D02*
X219434420Y-59090000D01*
X219715580Y-60110000D02*
X219434420Y-60110000D01*
%TO.C,R29*%
X209720000Y-98046359D02*
X209720000Y-98353641D01*
X210480000Y-98046359D02*
X210480000Y-98353641D01*
%TO.C,C8*%
X187411252Y-63465000D02*
X186888748Y-63465000D01*
X187411252Y-64935000D02*
X186888748Y-64935000D01*
%TO.C,C57*%
X230572164Y-85915000D02*
X230787836Y-85915000D01*
X230572164Y-86635000D02*
X230787836Y-86635000D01*
%TO.C,C66*%
X189507836Y-90640000D02*
X189292164Y-90640000D01*
X189507836Y-91360000D02*
X189292164Y-91360000D01*
%TO.C,C14*%
X225007836Y-64390000D02*
X224792164Y-64390000D01*
X225007836Y-65110000D02*
X224792164Y-65110000D01*
%TO.C,C34*%
X202142164Y-61440000D02*
X202357836Y-61440000D01*
X202142164Y-62160000D02*
X202357836Y-62160000D01*
%TO.C,C63*%
X186800000Y-86802164D02*
X186800000Y-87017836D01*
X187520000Y-86802164D02*
X187520000Y-87017836D01*
%TO.C,R9*%
X211320000Y-59653641D02*
X211320000Y-59346359D01*
X212080000Y-59653641D02*
X212080000Y-59346359D01*
%TO.C,R19*%
X222220000Y-90563641D02*
X222220000Y-90256359D01*
X222980000Y-90563641D02*
X222980000Y-90256359D01*
%TO.C,C61*%
X183140000Y-87707836D02*
X183140000Y-87492164D01*
X183860000Y-87707836D02*
X183860000Y-87492164D01*
%TO.C,C5*%
X181738748Y-69465000D02*
X182261252Y-69465000D01*
X181738748Y-70935000D02*
X182261252Y-70935000D01*
D13*
%TO.C,U11*%
X219636100Y-95283560D02*
X219436100Y-95283560D01*
X219825000Y-97116440D02*
X219436100Y-97116440D01*
X221263900Y-95283560D02*
X221063900Y-95283560D01*
X221263900Y-97116440D02*
X221063900Y-97116440D01*
D10*
%TO.C,C4*%
X183438748Y-63452500D02*
X183961252Y-63452500D01*
X183438748Y-64922500D02*
X183961252Y-64922500D01*
%TO.C,R16*%
X230610000Y-96953641D02*
X230610000Y-96646359D01*
X231370000Y-96953641D02*
X231370000Y-96646359D01*
%TO.C,C22*%
X199192164Y-89990000D02*
X199407836Y-89990000D01*
X199192164Y-90710000D02*
X199407836Y-90710000D01*
%TO.C,C44*%
X180480000Y-94759420D02*
X180480000Y-95040580D01*
X181500000Y-94759420D02*
X181500000Y-95040580D01*
%TO.C,C45*%
X183440580Y-97290000D02*
X183159420Y-97290000D01*
X183440580Y-98310000D02*
X183159420Y-98310000D01*
%TO.C,C10*%
X192488748Y-69465000D02*
X193011252Y-69465000D01*
X192488748Y-70935000D02*
X193011252Y-70935000D01*
%TO.C,U2*%
X180290000Y-73750000D02*
X180290000Y-77510000D01*
X180290000Y-77510000D02*
X181550000Y-77510000D01*
X187110000Y-73750000D02*
X187110000Y-77510000D01*
X187110000Y-77510000D02*
X185850000Y-77510000D01*
X187340000Y-72710000D02*
X187010000Y-72470000D01*
X187340000Y-72230000D01*
X187340000Y-72710000D01*
G36*
X187340000Y-72710000D02*
G01*
X187010000Y-72470000D01*
X187340000Y-72230000D01*
X187340000Y-72710000D01*
G37*
%TO.C,C68*%
X213367164Y-98440000D02*
X213582836Y-98440000D01*
X213367164Y-99160000D02*
X213582836Y-99160000D01*
%TO.C,C36*%
X228592164Y-84640000D02*
X228807836Y-84640000D01*
X228592164Y-85360000D02*
X228807836Y-85360000D01*
%TO.C,C77*%
X197190000Y-81159420D02*
X197190000Y-81440580D01*
X198210000Y-81159420D02*
X198210000Y-81440580D01*
%TO.C,C25*%
X211340000Y-61507836D02*
X211340000Y-61292164D01*
X212060000Y-61507836D02*
X212060000Y-61292164D01*
%TO.C,C67*%
X213434420Y-96890000D02*
X213715580Y-96890000D01*
X213434420Y-97910000D02*
X213715580Y-97910000D01*
%TO.C,C20*%
X227890000Y-75107836D02*
X227890000Y-74892164D01*
X228610000Y-75107836D02*
X228610000Y-74892164D01*
%TO.C,U6*%
X185290000Y-96462500D02*
X185290000Y-95662500D01*
X185290000Y-96462500D02*
X185290000Y-97262500D01*
X188410000Y-96462500D02*
X188410000Y-95662500D01*
X188410000Y-96462500D02*
X188410000Y-97262500D01*
X185340000Y-97762500D02*
X185010000Y-98002500D01*
X185010000Y-97522500D01*
X185340000Y-97762500D01*
G36*
X185340000Y-97762500D02*
G01*
X185010000Y-98002500D01*
X185010000Y-97522500D01*
X185340000Y-97762500D01*
G37*
%TO.C,R6*%
X195240000Y-59453641D02*
X195240000Y-59146359D01*
X196000000Y-59453641D02*
X196000000Y-59146359D01*
%TO.C,C24*%
X208942164Y-91590000D02*
X209157836Y-91590000D01*
X208942164Y-92310000D02*
X209157836Y-92310000D01*
%TO.C,C35*%
X208509420Y-90140000D02*
X208790580Y-90140000D01*
X208509420Y-91160000D02*
X208790580Y-91160000D01*
%TO.C,C16*%
X202092164Y-93890000D02*
X202307836Y-93890000D01*
X202092164Y-94610000D02*
X202307836Y-94610000D01*
%TO.C,C9*%
X189038748Y-69465000D02*
X189561252Y-69465000D01*
X189038748Y-70935000D02*
X189561252Y-70935000D01*
%TO.C,FB3*%
X185337221Y-67490000D02*
X185662779Y-67490000D01*
X185337221Y-68510000D02*
X185662779Y-68510000D01*
%TO.C,C39*%
X216840000Y-61192164D02*
X216840000Y-61407836D01*
X217560000Y-61192164D02*
X217560000Y-61407836D01*
%TO.C,R22*%
X218320000Y-97446359D02*
X218320000Y-97753641D01*
X219080000Y-97446359D02*
X219080000Y-97753641D01*
%TO.C,C1*%
X195590000Y-81159420D02*
X195590000Y-81440580D01*
X196610000Y-81159420D02*
X196610000Y-81440580D01*
%TO.C,C73*%
X212359420Y-64490000D02*
X212640580Y-64490000D01*
X212359420Y-65510000D02*
X212640580Y-65510000D01*
%TO.C,C33*%
X219715580Y-57540000D02*
X219434420Y-57540000D01*
X219715580Y-58560000D02*
X219434420Y-58560000D01*
%TO.C,C29*%
X228990000Y-80040580D02*
X228990000Y-79759420D01*
X230010000Y-80040580D02*
X230010000Y-79759420D01*
%TO.C,C37*%
X228990000Y-75040580D02*
X228990000Y-74759420D01*
X230010000Y-75040580D02*
X230010000Y-74759420D01*
%TO.C,C71*%
X213992164Y-81840000D02*
X214207836Y-81840000D01*
X213992164Y-82560000D02*
X214207836Y-82560000D01*
%TO.C,C74*%
X198640000Y-85692164D02*
X198640000Y-85907836D01*
X199360000Y-85692164D02*
X199360000Y-85907836D01*
%TO.C,U3*%
X187590000Y-73750000D02*
X187590000Y-77510000D01*
X187590000Y-77510000D02*
X188850000Y-77510000D01*
X194410000Y-73750000D02*
X194410000Y-77510000D01*
X194410000Y-77510000D02*
X193150000Y-77510000D01*
X194640000Y-72710000D02*
X194310000Y-72470000D01*
X194640000Y-72230000D01*
X194640000Y-72710000D01*
G36*
X194640000Y-72710000D02*
G01*
X194310000Y-72470000D01*
X194640000Y-72230000D01*
X194640000Y-72710000D01*
G37*
%TO.C,C55*%
X228359420Y-97365000D02*
X228640580Y-97365000D01*
X228359420Y-98385000D02*
X228640580Y-98385000D01*
%TO.C,R24*%
X220803641Y-94270000D02*
X220496359Y-94270000D01*
X220803641Y-95030000D02*
X220496359Y-95030000D01*
%TO.C,C26*%
X227890000Y-80107836D02*
X227890000Y-79892164D01*
X228610000Y-80107836D02*
X228610000Y-79892164D01*
%TO.C,C56*%
X222657836Y-97815000D02*
X222442164Y-97815000D01*
X222657836Y-98535000D02*
X222442164Y-98535000D01*
D13*
%TO.C,U7*%
X192863560Y-95375000D02*
X192863560Y-94986100D01*
X192863560Y-96813900D02*
X192863560Y-96613900D01*
X194696440Y-95186100D02*
X194696440Y-94986100D01*
X194696440Y-96813900D02*
X194696440Y-96613900D01*
D10*
%TO.C,C3*%
X183438748Y-61352500D02*
X183961252Y-61352500D01*
X183438748Y-62822500D02*
X183961252Y-62822500D01*
D12*
%TO.C,R27*%
X191585000Y-90750000D02*
X191585000Y-89150000D01*
X195215000Y-89150000D02*
X195215000Y-90750000D01*
D10*
%TO.C,C17*%
X198340000Y-76992164D02*
X198340000Y-77207836D01*
X199060000Y-76992164D02*
X199060000Y-77207836D01*
%TO.C,R23*%
X222703641Y-94820000D02*
X222396359Y-94820000D01*
X222703641Y-95580000D02*
X222396359Y-95580000D01*
%TO.C,C13*%
X206157836Y-61490000D02*
X205942164Y-61490000D01*
X206157836Y-62210000D02*
X205942164Y-62210000D01*
%TO.C,C62*%
X184210000Y-89592164D02*
X184210000Y-89807836D01*
X184930000Y-89592164D02*
X184930000Y-89807836D01*
%TO.C,C15*%
X228692164Y-90440000D02*
X228907836Y-90440000D01*
X228692164Y-91160000D02*
X228907836Y-91160000D01*
%TO.C,C76*%
X213992164Y-88240000D02*
X214207836Y-88240000D01*
X213992164Y-88960000D02*
X214207836Y-88960000D01*
%TO.C,C60*%
X216790580Y-97140000D02*
X216509420Y-97140000D01*
X216790580Y-98160000D02*
X216509420Y-98160000D01*
%TO.C,C11*%
X183438748Y-65465000D02*
X183961252Y-65465000D01*
X183438748Y-66935000D02*
X183961252Y-66935000D01*
%TO.C,FB4*%
X219712779Y-55940000D02*
X219387221Y-55940000D01*
X219712779Y-56960000D02*
X219387221Y-56960000D01*
%TO.C,C69*%
X212672164Y-65940000D02*
X212887836Y-65940000D01*
X212672164Y-66660000D02*
X212887836Y-66660000D01*
%TO.C,R15*%
X195000000Y-96253641D02*
X195000000Y-95946359D01*
X195760000Y-96253641D02*
X195760000Y-95946359D01*
%TO.C,FB1*%
X180590000Y-63037221D02*
X180590000Y-63362779D01*
X181610000Y-63037221D02*
X181610000Y-63362779D01*
%TO.C,C43*%
X203740580Y-95090000D02*
X203459420Y-95090000D01*
X203740580Y-96110000D02*
X203459420Y-96110000D01*
%TO.C,U1*%
X194790000Y-75762500D02*
X194790000Y-75112500D01*
X194790000Y-75762500D02*
X194790000Y-76412500D01*
X197910000Y-75762500D02*
X197910000Y-75112500D01*
X197910000Y-75762500D02*
X197910000Y-76412500D01*
X198190000Y-74840000D02*
X197860000Y-74600000D01*
X198190000Y-74360000D01*
X198190000Y-74840000D01*
G36*
X198190000Y-74840000D02*
G01*
X197860000Y-74600000D01*
X198190000Y-74360000D01*
X198190000Y-74840000D01*
G37*
%TO.C,C42*%
X229059420Y-83290000D02*
X229340580Y-83290000D01*
X229059420Y-84310000D02*
X229340580Y-84310000D01*
%TO.C,R14*%
X193900000Y-98153641D02*
X193900000Y-97846359D01*
X194660000Y-98153641D02*
X194660000Y-97846359D01*
%TO.C,C58*%
X230787836Y-90440000D02*
X230572164Y-90440000D01*
X230787836Y-91160000D02*
X230572164Y-91160000D01*
%TO.C,R8*%
X199260000Y-59453641D02*
X199260000Y-59146359D01*
X200020000Y-59453641D02*
X200020000Y-59146359D01*
%TO.C,C54*%
X228592164Y-85740000D02*
X228807836Y-85740000D01*
X228592164Y-86460000D02*
X228807836Y-86460000D01*
%TO.C,C28*%
X198340000Y-67892164D02*
X198340000Y-68107836D01*
X199060000Y-67892164D02*
X199060000Y-68107836D01*
%TO.C,C65*%
X183140000Y-89592164D02*
X183140000Y-89807836D01*
X183860000Y-89592164D02*
X183860000Y-89807836D01*
%TO.C,R4*%
X191220000Y-59453641D02*
X191220000Y-59146359D01*
X191980000Y-59453641D02*
X191980000Y-59146359D01*
%TO.C,R20*%
X227620000Y-89553641D02*
X227620000Y-89246359D01*
X228380000Y-89553641D02*
X228380000Y-89246359D01*
%TO.C,C75*%
X198640000Y-81192164D02*
X198640000Y-81407836D01*
X199360000Y-81192164D02*
X199360000Y-81407836D01*
%TO.C,R5*%
X203280000Y-59453641D02*
X203280000Y-59146359D01*
X204040000Y-59453641D02*
X204040000Y-59146359D01*
%TO.C,FB2*%
X189190000Y-63037221D02*
X189190000Y-63362779D01*
X190210000Y-63037221D02*
X190210000Y-63362779D01*
%TO.C,C53*%
X217507836Y-85190000D02*
X217292164Y-85190000D01*
X217507836Y-85910000D02*
X217292164Y-85910000D01*
%TO.C,C23*%
X195440000Y-83942164D02*
X195440000Y-84157836D01*
X196160000Y-83942164D02*
X196160000Y-84157836D01*
%TO.C,C12*%
X187361252Y-65465000D02*
X186838748Y-65465000D01*
X187361252Y-66935000D02*
X186838748Y-66935000D01*
%TO.C,C50*%
X228007836Y-87240000D02*
X227792164Y-87240000D01*
X228007836Y-87960000D02*
X227792164Y-87960000D01*
%TO.C,C27*%
X217907836Y-91334000D02*
X217692164Y-91334000D01*
X217907836Y-92054000D02*
X217692164Y-92054000D01*
%TO.C,C70*%
X214092164Y-77840000D02*
X214307836Y-77840000D01*
X214092164Y-78560000D02*
X214307836Y-78560000D01*
%TO.C,R1*%
X215163641Y-64470000D02*
X214856359Y-64470000D01*
X215163641Y-65230000D02*
X214856359Y-65230000D01*
%TO.C,C19*%
X227890000Y-68492164D02*
X227890000Y-68707836D01*
X228610000Y-68492164D02*
X228610000Y-68707836D01*
%TO.C,C21*%
X217057836Y-94540000D02*
X216842164Y-94540000D01*
X217057836Y-95260000D02*
X216842164Y-95260000D01*
%TO.C,R25*%
X193170000Y-83403641D02*
X193170000Y-83096359D01*
X193930000Y-83403641D02*
X193930000Y-83096359D01*
%TO.C,R3*%
X198370000Y-71503641D02*
X198370000Y-71196359D01*
X199130000Y-71503641D02*
X199130000Y-71196359D01*
%TD*%
M02*
