%TF.GenerationSoftware,KiCad,Pcbnew,8.0.1*%
%TF.CreationDate,2024-04-17T21:00:07+02:00*%
%TF.ProjectId,STM32_Dev_Board,53544d33-325f-4446-9576-5f426f617264,rev?*%
%TF.SameCoordinates,Original*%
%TF.FileFunction,Paste,Bot*%
%TF.FilePolarity,Positive*%
%FSLAX46Y46*%
G04 Gerber Fmt 4.6, Leading zero omitted, Abs format (unit mm)*
G04 Created by KiCad (PCBNEW 8.0.1) date 2024-04-17 21:00:07*
%MOMM*%
%LPD*%
G01*
G04 APERTURE LIST*
G04 Aperture macros list*
%AMRoundRect*
0 Rectangle with rounded corners*
0 $1 Rounding radius*
0 $2 $3 $4 $5 $6 $7 $8 $9 X,Y pos of 4 corners*
0 Add a 4 corners polygon primitive as box body*
4,1,4,$2,$3,$4,$5,$6,$7,$8,$9,$2,$3,0*
0 Add four circle primitives for the rounded corners*
1,1,$1+$1,$2,$3*
1,1,$1+$1,$4,$5*
1,1,$1+$1,$6,$7*
1,1,$1+$1,$8,$9*
0 Add four rect primitives between the rounded corners*
20,1,$1+$1,$2,$3,$4,$5,0*
20,1,$1+$1,$4,$5,$6,$7,0*
20,1,$1+$1,$6,$7,$8,$9,0*
20,1,$1+$1,$8,$9,$2,$3,0*%
G04 Aperture macros list end*
%ADD10RoundRect,0.075000X-0.075000X0.675000X-0.075000X-0.675000X0.075000X-0.675000X0.075000X0.675000X0*%
%ADD11RoundRect,0.075000X-0.675000X0.075000X-0.675000X-0.075000X0.675000X-0.075000X0.675000X0.075000X0*%
%ADD12C,0.350000*%
G04 APERTURE END LIST*
D10*
%TO.C,U4*%
X199275000Y-63375000D03*
X199775000Y-63375000D03*
X200275000Y-63375000D03*
X200775000Y-63375000D03*
X201275000Y-63375000D03*
X201775000Y-63375000D03*
X202275000Y-63375000D03*
X202775000Y-63375000D03*
X203275000Y-63375000D03*
X203775000Y-63375000D03*
X204275000Y-63375000D03*
X204775000Y-63375000D03*
X205275000Y-63375000D03*
X205775000Y-63375000D03*
X206275000Y-63375000D03*
X206775000Y-63375000D03*
X207275000Y-63375000D03*
X207775000Y-63375000D03*
X208275000Y-63375000D03*
X208775000Y-63375000D03*
X209275000Y-63375000D03*
X209775000Y-63375000D03*
X210275000Y-63375000D03*
X210775000Y-63375000D03*
X211275000Y-63375000D03*
X211775000Y-63375000D03*
X212275000Y-63375000D03*
X212775000Y-63375000D03*
X213275000Y-63375000D03*
X213775000Y-63375000D03*
X214275000Y-63375000D03*
X214775000Y-63375000D03*
X215275000Y-63375000D03*
X215775000Y-63375000D03*
X216275000Y-63375000D03*
X216775000Y-63375000D03*
X217275000Y-63375000D03*
X217775000Y-63375000D03*
X218275000Y-63375000D03*
X218775000Y-63375000D03*
X219275000Y-63375000D03*
X219775000Y-63375000D03*
X220275000Y-63375000D03*
X220775000Y-63375000D03*
X221275000Y-63375000D03*
X221775000Y-63375000D03*
X222275000Y-63375000D03*
X222775000Y-63375000D03*
X223275000Y-63375000D03*
X223775000Y-63375000D03*
X224275000Y-63375000D03*
X224775000Y-63375000D03*
D11*
X226700000Y-65300000D03*
X226700000Y-65800000D03*
X226700000Y-66300000D03*
X226700000Y-66800000D03*
X226700000Y-67300000D03*
X226700000Y-67800000D03*
X226700000Y-68300000D03*
X226700000Y-68800000D03*
X226700000Y-69300000D03*
X226700000Y-69800000D03*
X226700000Y-70300000D03*
X226700000Y-70800000D03*
X226700000Y-71300000D03*
X226700000Y-71800000D03*
X226700000Y-72300000D03*
X226700000Y-72800000D03*
X226700000Y-73300000D03*
X226700000Y-73800000D03*
X226700000Y-74300000D03*
X226700000Y-74800000D03*
X226700000Y-75300000D03*
X226700000Y-75800000D03*
X226700000Y-76300000D03*
X226700000Y-76800000D03*
X226700000Y-77300000D03*
X226700000Y-77800000D03*
X226700000Y-78300000D03*
X226700000Y-78800000D03*
X226700000Y-79300000D03*
X226700000Y-79800000D03*
X226700000Y-80300000D03*
X226700000Y-80800000D03*
X226700000Y-81300000D03*
X226700000Y-81800000D03*
X226700000Y-82300000D03*
X226700000Y-82800000D03*
X226700000Y-83300000D03*
X226700000Y-83800000D03*
X226700000Y-84300000D03*
X226700000Y-84800000D03*
X226700000Y-85300000D03*
X226700000Y-85800000D03*
X226700000Y-86300000D03*
X226700000Y-86800000D03*
X226700000Y-87300000D03*
X226700000Y-87800000D03*
X226700000Y-88300000D03*
X226700000Y-88800000D03*
X226700000Y-89300000D03*
X226700000Y-89800000D03*
X226700000Y-90300000D03*
X226700000Y-90800000D03*
D10*
X224775000Y-92725000D03*
X224275000Y-92725000D03*
X223775000Y-92725000D03*
X223275000Y-92725000D03*
X222775000Y-92725000D03*
X222275000Y-92725000D03*
X221775000Y-92725000D03*
X221275000Y-92725000D03*
X220775000Y-92725000D03*
X220275000Y-92725000D03*
X219775000Y-92725000D03*
X219275000Y-92725000D03*
X218775000Y-92725000D03*
X218275000Y-92725000D03*
X217775000Y-92725000D03*
X217275000Y-92725000D03*
X216775000Y-92725000D03*
X216275000Y-92725000D03*
X215775000Y-92725000D03*
X215275000Y-92725000D03*
X214775000Y-92725000D03*
X214275000Y-92725000D03*
X213775000Y-92725000D03*
X213275000Y-92725000D03*
X212775000Y-92725000D03*
X212275000Y-92725000D03*
X211775000Y-92725000D03*
X211275000Y-92725000D03*
X210775000Y-92725000D03*
X210275000Y-92725000D03*
X209775000Y-92725000D03*
X209275000Y-92725000D03*
X208775000Y-92725000D03*
X208275000Y-92725000D03*
X207775000Y-92725000D03*
X207275000Y-92725000D03*
X206775000Y-92725000D03*
X206275000Y-92725000D03*
X205775000Y-92725000D03*
X205275000Y-92725000D03*
X204775000Y-92725000D03*
X204275000Y-92725000D03*
X203775000Y-92725000D03*
X203275000Y-92725000D03*
X202775000Y-92725000D03*
X202275000Y-92725000D03*
X201775000Y-92725000D03*
X201275000Y-92725000D03*
X200775000Y-92725000D03*
X200275000Y-92725000D03*
X199775000Y-92725000D03*
X199275000Y-92725000D03*
D11*
X197350000Y-90800000D03*
X197350000Y-90300000D03*
X197350000Y-89800000D03*
X197350000Y-89300000D03*
X197350000Y-88800000D03*
X197350000Y-88300000D03*
X197350000Y-87800000D03*
X197350000Y-87300000D03*
X197350000Y-86800000D03*
X197350000Y-86300000D03*
X197350000Y-85800000D03*
X197350000Y-85300000D03*
X197350000Y-84800000D03*
X197350000Y-84300000D03*
X197350000Y-83800000D03*
X197350000Y-83300000D03*
X197350000Y-82800000D03*
X197350000Y-82300000D03*
X197350000Y-81800000D03*
X197350000Y-81300000D03*
X197350000Y-80800000D03*
X197350000Y-80300000D03*
X197350000Y-79800000D03*
X197350000Y-79300000D03*
X197350000Y-78800000D03*
X197350000Y-78300000D03*
X197350000Y-77800000D03*
X197350000Y-77300000D03*
X197350000Y-76800000D03*
X197350000Y-76300000D03*
X197350000Y-75800000D03*
X197350000Y-75300000D03*
X197350000Y-74800000D03*
X197350000Y-74300000D03*
X197350000Y-73800000D03*
X197350000Y-73300000D03*
X197350000Y-72800000D03*
X197350000Y-72300000D03*
X197350000Y-71800000D03*
X197350000Y-71300000D03*
X197350000Y-70800000D03*
X197350000Y-70300000D03*
X197350000Y-69800000D03*
X197350000Y-69300000D03*
X197350000Y-68800000D03*
X197350000Y-68300000D03*
X197350000Y-67800000D03*
X197350000Y-67300000D03*
X197350000Y-66800000D03*
X197350000Y-66300000D03*
X197350000Y-65800000D03*
X197350000Y-65300000D03*
%TD*%
D12*
%TO.C,U12*%
X190900000Y-90150000D03*
X190900000Y-89650000D03*
X190900000Y-89150000D03*
X190900000Y-88650000D03*
X190900000Y-88150000D03*
X190900000Y-87650000D03*
X190900000Y-87150000D03*
X190900000Y-86650000D03*
X190900000Y-86150000D03*
X190900000Y-85650000D03*
X190900000Y-85150000D03*
X190900000Y-84650000D03*
X190900000Y-84150000D03*
X190900000Y-83650000D03*
X190400000Y-90150000D03*
X190400000Y-89650000D03*
X190400000Y-89150000D03*
X190400000Y-88650000D03*
X190400000Y-88150000D03*
X190400000Y-87650000D03*
X190400000Y-87150000D03*
X190400000Y-86650000D03*
X190400000Y-86150000D03*
X190400000Y-85650000D03*
X190400000Y-85150000D03*
X190400000Y-84650000D03*
X190400000Y-84150000D03*
X190400000Y-83650000D03*
X189900000Y-90150000D03*
X189900000Y-89650000D03*
X189900000Y-89150000D03*
X189900000Y-88650000D03*
X189900000Y-88150000D03*
X189900000Y-87650000D03*
X189900000Y-87150000D03*
X189900000Y-86650000D03*
X189900000Y-86150000D03*
X189900000Y-85650000D03*
X189900000Y-85150000D03*
X189900000Y-84650000D03*
X189900000Y-84150000D03*
X189900000Y-83650000D03*
X189400000Y-90150000D03*
X189400000Y-89650000D03*
X189400000Y-89150000D03*
X189400000Y-88650000D03*
X189400000Y-84650000D03*
X189400000Y-84150000D03*
X189400000Y-83650000D03*
X188900000Y-90150000D03*
X188900000Y-89650000D03*
X188900000Y-89150000D03*
X188900000Y-88150000D03*
X188900000Y-87650000D03*
X188900000Y-87150000D03*
X188900000Y-86650000D03*
X188900000Y-86150000D03*
X188900000Y-85650000D03*
X188900000Y-84650000D03*
X188900000Y-84150000D03*
X188900000Y-83650000D03*
X188400000Y-90150000D03*
X188400000Y-89650000D03*
X188400000Y-89150000D03*
X188400000Y-88150000D03*
X188400000Y-85650000D03*
X188400000Y-84650000D03*
X188400000Y-84150000D03*
X188400000Y-83650000D03*
X187900000Y-90150000D03*
X187900000Y-89650000D03*
X187900000Y-89150000D03*
X187900000Y-88150000D03*
X187900000Y-85650000D03*
X187900000Y-84650000D03*
X187900000Y-84150000D03*
X187900000Y-83650000D03*
X187400000Y-90150000D03*
X187400000Y-89650000D03*
X187400000Y-89150000D03*
X187400000Y-88150000D03*
X187400000Y-85650000D03*
X187400000Y-84650000D03*
X187400000Y-84150000D03*
X187400000Y-83650000D03*
X186900000Y-90150000D03*
X186900000Y-89650000D03*
X186900000Y-89150000D03*
X186900000Y-88150000D03*
X186900000Y-85650000D03*
X186900000Y-84650000D03*
X186900000Y-84150000D03*
X186900000Y-83650000D03*
X186400000Y-90150000D03*
X186400000Y-89650000D03*
X186400000Y-89150000D03*
X186400000Y-88150000D03*
X186400000Y-87650000D03*
X186400000Y-87150000D03*
X186400000Y-86650000D03*
X186400000Y-86150000D03*
X186400000Y-85650000D03*
X186400000Y-84650000D03*
X186400000Y-84150000D03*
X186400000Y-83650000D03*
X185900000Y-90150000D03*
X185900000Y-89650000D03*
X185900000Y-89150000D03*
X185900000Y-84650000D03*
X185900000Y-84150000D03*
X185900000Y-83650000D03*
X185400000Y-90150000D03*
X185400000Y-89650000D03*
X185400000Y-89150000D03*
X185400000Y-88650000D03*
X185400000Y-88150000D03*
X185400000Y-87650000D03*
X185400000Y-87150000D03*
X185400000Y-86650000D03*
X185400000Y-86150000D03*
X185400000Y-85650000D03*
X185400000Y-85150000D03*
X185400000Y-84650000D03*
X185400000Y-84150000D03*
X185400000Y-83650000D03*
X184900000Y-90150000D03*
X184900000Y-89650000D03*
X184900000Y-89150000D03*
X184900000Y-88650000D03*
X184900000Y-88150000D03*
X184900000Y-87650000D03*
X184900000Y-87150000D03*
X184900000Y-86650000D03*
X184900000Y-86150000D03*
X184900000Y-85650000D03*
X184900000Y-85150000D03*
X184900000Y-84650000D03*
X184900000Y-84150000D03*
X184900000Y-83650000D03*
X184400000Y-90150000D03*
X184400000Y-89650000D03*
X184400000Y-89150000D03*
X184400000Y-88650000D03*
X184400000Y-88150000D03*
X184400000Y-87650000D03*
X184400000Y-87150000D03*
X184400000Y-86650000D03*
X184400000Y-86150000D03*
X184400000Y-85650000D03*
X184400000Y-85150000D03*
X184400000Y-84650000D03*
X184400000Y-84150000D03*
X184400000Y-83650000D03*
%TD*%
M02*
